<mxfile host="app.diagrams.net" modified="2024-01-18T10:16:25.336Z" agent="Mozilla/5.0 (Windows NT 10.0; Win64; x64) AppleWebKit/537.36 (KHTML, like Gecko) Chrome/120.0.0.0 Safari/537.36 Edg/120.0.0.0" etag="7C_2CuT07XB0f92WB1Wy" version="22.1.21" type="github">
  <diagram name="Page-1" id="k1KUjsbHblSQaALz98Sc">
    <mxGraphModel dx="1242" dy="1669" grid="1" gridSize="10" guides="1" tooltips="1" connect="1" arrows="1" fold="1" page="1" pageScale="1" pageWidth="850" pageHeight="1100" math="0" shadow="0">
      <root>
        <mxCell id="0" />
        <mxCell id="1" parent="0" />
        <mxCell id="j4OFjwgGihEexwMPUsOi-2" value="" style="shape=image;verticalLabelPosition=bottom;labelBackgroundColor=default;verticalAlign=top;aspect=fixed;imageAspect=0;image=data:image/png,iVBORw0KGgoAAAANSUhEUgAABG4AAAOdCAYAAADUbCRTAAAAAXNSR0IArs4c6QAAAARnQU1BAACxjwv8YQUAAAAJcEhZcwAAFxEAABcRAcom8z8AAP+lSURBVHhe7N0HeBXVogXggzSlCAKKiAhcUQREEBuWaxd71+e1V7BjQ1FBBSuo4LXQFKUoivQiRSDUkEYLPQm9hJjeGynrzZqih9yE1BMyyfr95oucOWX67L1mzx4PRERERERERESkSlJwIyIiIiIiIiJSRSm4ERERERERERGpohTciIiIiIiIiIhUUQpuRERERERERESqKAU3IiIiIiIiIiJVlIIbEREREREREZEqSsGNiIiIiIiIiEgVpeBGRERERERERKSKUnAjIiIiIiIiIlJFKbgREREREREREamiFNyIiIiIiIiIiFRRCm5ExDVyc3ORmZmJ1NRUJCcnIykpyRz4/2lpacjOzrbf6R75+flIT09HSkoKsrKyzH+7HddTRkaGOU9cN25eP2XBdchlkJeXZ79yJI7ndszl4pZ1zmnktHrve/zLbffw4cP2u/7B1ziuumzTJcV55Xovat37En/bOZaUZ1/znoei1h3XL7cF7tfc1msCbsvO9l6WbZqf4XdwmXnvQ1yORe0nfI3Hioo8P/B7+Lv83rJup87+zekqyXxUFc65ifNemu2W7+V64zxW5e2d+z3XC/9W5fUgImWj4EZEXIEFxcDAQLz22mu46aabcM011+Cqq64yhxtuuAEPP/wwPvvsM2zcuNH+hDuwAPnxxx/j/vvvxy+//GL+280SExMxbdo0vPHGG7jrrrtw3XXXmevr8ccfx/Dhw7Fp0yb7ndXX9u3bMXPmTISEhJgF/YJYyRk1apS5fH777TezIlGVsRKwatUqDB48GA899BB69eqFa6+9Frfeeiuef/55jB07Frt27bLfDbMy+Ouvv5rv5badkJBgj6n+du/ejfnz52PZsmXmeq5M3Pfeffdd/Oc//8GMGTOQk5NjjymdmJgYLF26FAsWLDD/vzB+fn548sknzePxtm3b7Ferty+++AIPPPAAZs2aZVaOS4P70IoVK/DRRx/h0Ucfxc0332zuQzw28t+ffPKJuc0wCPHGUGTEiBG4++67MXXq1Ao5VkycONH83W+++QZ//fWX/WrJhYeHY+TIkXjuuedw2223mfPBYwLPwZyPgICAKntMW79+PZ566im8+eab2Lx5s/1q8bZs2YKXXnrJPI9t3brVfrXq4bq999578dNPPyE+Pt5+VUSqCwU3IuIKDDR+//13tGvXDh6PBxdddJEZ2HC44oorcNZZZ6F169a47777sHjxYvtTVR/na8iQIWYll5V4XrF0KxaKX3/9dVxwwQXo1q0brrzySnP9sGB/ySWXoHPnzrjjjjvM+eTVy+pq3Lhx5jwz6Dhw4ID96j9YOfv+++/NsG7KlClVOrhhEMEKK9dlp06dcOmll5rzxvXKUI77Hl9jhebPP/80P8MrvW+//TZq166N66+/HpGRkebrNcHs2bPNSnbv3r2PCLMqA4Ob999/3wwCGC6UNbhZt24dnnnmGfNYyv8vDEMGziMrwAwqa4Lbb7/dPPd8+umnZqBSUtyHeIz/97//jS5duuDyyy839yHuGxz4+oUXXmj+/fzzz7F37177k1bIO3r0aPzf//0fpk+fXiHHikmTJpnzwkAoOjrafrV4DKsYyjMY4HzwHMwLJ8588P95LODfb7/9tkpehPjjjz/QpEkTnHvuuViyZIn9avEY1rz66qvmflGVg0oGqdxGX3zxxULPPSLibgpuRMQVGGiw4HrOOeege/fumDdvnlkx4hAcHIxhw4aZwQALLY899ph5JdENTYU5jazI8+oYC+Vubd4cFhaGRx55BCeccAJ69OhhtrRYvny5+ToDHVYWeLWahWaup8mTJ1fb8IaVtPr165thRlRUlP3qP9gihfMeFxdXpdf5vn37zACmRYsWOP3009G3b1+zJUdoaKh51X3t2rXmFV5W4Hv27GlWOh0Mrfg5hhhFtdqojiZMmIA2bdqYQeWePXvsVysHtysGCmzhVJ4KPltMcPrbt29vHlsLw+Mxf4e/V9aAyG0Yrp900klmy8GStqbiPsRwq1mzZuZFh5dfftk8jzEQ47GRLUQZsnE/u/jii83WUmzt5NzCxGNDRR8rGMDw+9gasKS3SvEzbEXXtWtXnHjiieZ+zfB59erV5nyw9Qpbmn3wwQdmqMNWLaUJtyrLokWLzPXA8IytCEuKLX4ZjHKbr8rb+8CBA9GoUSNzm6tJgblITaHgRkRcwQluOnbsaF7l927mzMIsK8hsps0C8vnnn4+FCxeaha2C2GSdBUoWXDmwMFZcKxenos1CW2xs7N+fY2G2sIKvU9j2fj/DmcIKfHwvC+RO/wAOfp7TebR71Tl/fA/fW/C+e04Xv5OBEKeBf4u6P995LwdOI3+TFRNWuPlZfv/RCvhcFm+99dbfoQ1DNc6v81ucfs7bzp07zebmfB8Lzrx1wBt/h7/L3+d0cHqc9cTXC1uf3vgZJwTjdHP5cx0Vtvyc93I8p5PTx2XJK9D8PaeSxPdxujiPzrTwewtbJnw/v6N///44/vjjzSvTrPg6y5Hz4CwTXo3m73uvX/7l6/wO52o1p4Pzw9/l68Vtq/wcp9VZ587883P8ff51fu9oON+80n/yySeboQ1v7eLve68D53v5O6y0rVy50h4DfPjhhzjllFPMZcB9k9NVkvngMuV7Oa3O+53PcFkVhp/hsnS2X04jP89lwIHj+B4uey4PLh/nu/m3qP3CGz/Pz3LdO9PkfQzgwO9hpf60004zj0GsGDrrnp8r+Bv8Nz/DaXDWF//N7yrIeS8HziMHLhNnHp3POceSwpaVs1w47fxMwXlwtj+2GuL0n3HGGeYtf85vcPqc7+Xv83f42aKWHdcxp9H5PS4Dfqa4/djB6eHvlHT/I2cevLcxTqOzvo+27TkK24eILZl4fvnqq6/M5VgcLpevv/7aDHsYgrElnrMde++DXB78vTVr1pjHzg0bNvy9TJ35KcmxoqTzydf5ffxcYcuwIP6Wv7+/GebVq1cPL7zwgnksL/h5rit+L2+j4+AsNwe/h9sn15+zbPl+fq4gZ1vmcuZ4732F81fwc/x/zjPH8T1FbR8Mbrgu2IKQxysui4Lr2lnG3vj7/E5Og/f27rzuTA9/k//vTAffX9j8eeM0ONPO6eD0OOu0KNwWnM9w4O9wutnirnHjxub5WMGNSPWj4EZEXIGFGye4YZPywu4zZ58MbM3BK2rjx4//n8IPr37yKiHvxXf6yOHtAN99953ZnL0wLHQxYGBlnLf5sMDHZu5sPcJWPoV9jlch2dcE389p5S0l7A+AlaCC08R/Dx061Jwm3grmFPJYAeTnOR8syBWGt9nceeed5q0sBw8etF+1pplXbdnPDPsh4TTw1hY29S4s0OJnX3nlFbPlxNy5c81bmRiwsNk755OF8KIqAcRwgoFNw4YNMWjQoKO+l9PF2wIY3rBPIhbOiQVeXq1lRZ+tFliB4TLksuZ6YqWJV3xZsC0MC67cPtjnCvtb4Dxz3nkFMigoyH7XP9hqhC2zWMDlLT4//vij2UKG88yKCYNBzgcL9wMGDDCvhDu3fXG98DWuZ+9lyUI/lzErvLxNiKEHK8D8Tk4Pr4JyG2QBm/3CcNl691vBCgArd/x+ttph5YgVP84Hl8GDDz5o3oKwf/9+8/0F8RaLL7/80uw7h8EYv4e3dbBfIfZnwVuzuA3yd4rDSiT74WAA1a9fvyKXu4PLwamocV0yuGGAwfXJ5c/9jv1hcD542wfnq7Bbidi8n+/leuTtHNxPuT65rthvQ2GVEW6/Tz/9tDlw/rhM+fnLLrsMTzzxhNnyi+uSLYTYEozfxT4+rr76atxyyy3mfsL9wlkPBXHeGMJw++T+xnlwjgFc3lxP3Ed5PGBrA7a2YuWJtwuyJRLXP+fZ+xYYTg+3cd5ayGlhGH3jjTeatzpwegtWHnk7Eo8h3Ee5nfOWD/4/tytut/wMK3Bc3/w3wxfvCiPH/fzzz+ZneFsLj2NcrmxFwuNHRESEuV3wu/k6p5/rnvPD6efAY6UTzrEiz+nhcbGwW6V27NhhrmO2wuM65O9xffL9PJ4WrNQXhvs0f4/rjNs+p5vr7J577jFbqPB7Ci4nVmZ5/OC2z32FLcN4fOW/ud64H/N4X1Sl1tmHuN1ynXD7YEsyLh/OC1uRlSS44XSxVQ33IR4XOd8laXnG5eJUwom/M2bMmL/7LXK2Ub6HxyzOF9cft0FOl3Os4HrlrVCF3S7D4yi3Y4axJblVitsO1wG3CR5XeJtccbh9ewcnDDi4PHh+4HbAZcvz4rPPPmvus1xv3thilscsbnM8L3L/4zLk8uT8cb9mSyXnN3gM79Onj7mNcH/iMauwFjUMbv71r3+Zx3J+7w8//GCeW7gfcbvnOYfHPu9whnh7FPdV/ob3rVI8hnG6uLx53OG5kOcAHh848DzKc2pR2zuP5dweuW1xvjgdPFb897//PeJ44Y3rg9PNfcKZ7nfeececLp7v2CKK06TgRqT6UXAjIq7AgqB3i5vCOrll5Yu3Up155plmqOFdqebtOqxo8N523mrFwg4Lefx/9t3B20AYBnkX2HjljAUkFqgYBrHyws+x8Mj/Z+GehVingsTCGStHLBQ6ARPfz8oG/81KHCsT3gV4FsBZ+G7QoIF5tcy5os1goG7dumbFgU3RC2IAwMIibw1jYdipWLMAzJYSrChxWfC3WSHktHAaWIniNPJqoIOVG1Yy69SpYxZ6Wfhn4ZoFT1YC2RdAUVcAuYzYUSVDCs4fK5BHwwI5wxI252ah3Jk3VlS4rDg/rHBzGXO5sLLPK70MAc477zyzQFswRGDhl0EB+9ZhRZPrld/FddShQwezWX/BijnnqXnz5mjatKk5r5xn/hYrEyx4M7hxKuP8Pk4LB76X7+FtDfwM+3zgMiAuI04Hf5PBDftc4vJnkMLPctyhQ4fM6WA4xOXNW4qcz/P3GCLws2zlwtsqGDI464Lrj+uUlXPvoI647TKsYGjEignXM6eP887tnvsEtzHOT1FBoDeGJ2xdwKvTJamoeeM+xE5YOS3c3xhKcj5YWeR0cT7OPvtsMwgpOB+8TYfbNbdZvp/LjfsAt18uc4Zf3F69K4Xchrisudy4brge+TmuN1YMnaCA+wW3b+d7+T5uJ9y++F6GaQU7a2UliZ2Gc3q4XhlQ8r38N3+LYRgr1KxgsyLNfj8YSrKVBfdBHiP4m+wbw5lXbgMMNVgJ5vbq7KM8rnE98XsL9nfF5cJ1wRCAy4LhBbcLfo5hDENEVtT4b27TDBucYxl/j8cdLj/u5/x+bhucLs4LAygGQdx+uZ9wm+EtjdxeuE/zd7gOGIw5t05xmXAb5T5XsILMYwAroux3jL/H+eP+zL/8Hs57UeGjN95qxgCboQU/5+ynnEcGovzOgh26c/0x1KlVq5a5LBlI8/POfstp4j7E0LjgNHCfZ0W7bdu25rrm9HIZ8TjF/ZWf4zxz+osLbrh9MnBhqzNu7wy6CoZMJcFghWEBzwXc751jBVut8Dh13HHHmdPLYwUDCM6ns49xehlaFdzHGE7wOMv1WZLb+Rh4crlzm+AxrLh5L4jnYW5X3O94TOA2wXXI4zzXEYN8Hte99z0GItyuOZ3cP/n/XA/cZ7kdc7ly3+WtmgyouIy4T3Cb4Pe3atXKPI4wLPIuB/AiBH+Tx0hn3+R3cnq4zE499VTze3jM815fPIbwWMbv9W5ZyHIFzzNsicS/nE4eE7i8OJ1cN9zHCgtvGGjz/bzYxP2I5Qa+l9s2p4XbHFtfeWOYw/M91y2XJY8ZzjGN2wCPPzyvcR0ruBGpfhTciIgrOMENK3wMUgq2dGHh9L333jMLLSy8sRDuFLz4XhbIWfBkYZxhDIMfDiz4scDFgiDDEqfwyMo1C1ssVLESxgIW/82nS3Dg1TUGFmy5wYIhp4+FQhbAWrZsaRa6eBWQV8FYQGNBiuEPQyLvjkNZmGPFlhUCFsyd4IbfxUIZK2u8Ml+w0M9lwWljxY+VOuJ38eolC32syPKqGytRvCLOwiYLdgxAWBD27sCZhWRWalhI5u8xAOD3cBmykszKg/fVe28MkFiBYBDDikNxFTIuJ14R53SwkMkCvYMVSE4Dr2qzIMp1w0o554FXFLluWWBlpdaZHgZVvDLLZc6CNStkfJoTlztbYPE7ne/j/DhY2WQljr/Hfhu4frhMuG559ZrfywoKK+WskLMvClaAuX3w/3lbHpczv5eVMgdDEVYWWellBZgVAH6OBW4uR1bo+B5eEeY2x6vlDO+Iv8fwjvPC1g7cjvnb3MZYQWArHKfiw+3PwcocAyBW6p1wi9PIK8esPDrrlpUI55an4jBUcSpNpe18loEBr9Bz/nj1l/sr9xXub6xIcX1xX+C2y6ve3hUrLn8GLLz1ipVKhpxcdtyXWCnlMmcowUDFwe2X657Tywo3t18GEZxutvxgSMn9iq1QuDxYEWVLBK4Pbl+cHlYeGaRwfXvjvsp9mmEIK4IMhJ1jB7ddBlzcbrheuR5ZUea+x8oXp5m/wWng73GbZcjA7Z/bHiuQDBm4LXJa2RqNxylur5wWrj9nO+dy43pn2MdlxzCO2ze3c+6jXKf8LYaE3IcZ1Di4LHmMY987XHbcnnhM5F8eW7iNOdswj3vcthhoc3vhvsZ9mu/nPDhhEl/nMmeg6LRo4zLguuA+x+2Xxy8ub+6PnD8e07hPz5kz53/ChMLwd7n8eSzisuB+xHnkts1Ah8c/Vv5ZuXWCPG4vDA25DzHsYKWcLbW4/3B+uV1yH+JxxHsf4rGT2zy3V26XbL3C7+XvcttlCMeQhMuW20tx4QW3aR5TGCBxGgtr+VISDKnZCovzw2lyjhU8hvB8xX2MxxoGW2ytx3nktsJzCdc3t0OGy964DHis4MUKHr+Lw/2Gy4vhPLf/0uJy5HbJ9cHjJfs34/bA4zpbiHAeGKRwPTnbO/d5HiM5b2zpw3MLz3lc9/wcW6XwfMD54/JlaxiG8dwvuQ/zNY7n8dQ76OfxmL/FYwW3X+5/3C65H7EfNoYgDGEYNLOVlYPnWO6T3Ob4dEsHf4+hD6eT5zSWE7i/8ft4XOC5neUOfp/TSpjncm7LDM64vfHzXHf8Lp6j+P/c3hicM6h21jm3KR5v+DvchrnsGKRynTPAZBjN4wOPHxyn4Eak+lFwIyKu4AQ3LECyws9CEQv/LJywsMPKKis2HM/KqXfLGRaEWIjlFbDCWg+wIMlAhRV4pwLDCh0LXSzgsiLIgpZ3eMFCFCthfI0FMVb2WeliYZGtJrwrlsQKBSsGLFQxQHEKVfwOXp3m9DF0cK4es18QFtr4fn7Ou4UMKymsFPC3+Ehep1LAgh+bT7OAzYq8U8lysPLFQIkFQn6nM56vO5V7Fqw5L96V6YKhkTdWSlko5e0hnH/nivDRsFLNgidDOO/KE6+McxpYaWQLAmf6OL8sfLOgy8I/3+e0GmGhm8EAv4+VQqcC52AlnRV+XinlduCM53pm5ZkVK053YX2QEKeBlWKuT1Yaud643fEKLJc154GVSG+sODLI4nLhsiyI65LrlpWxwoIbFuZZqfBuzUMMMliB4fplwdzBij8L+izQM5R0lg3XG7+bFU2GCdzGWAktSXDjPJ2EFUKu49LgMmawxW2CFV1W9pzbszhNnD5ut5x/LgfveeRn+V6uD+4z3A+477GCyX2c2wYrV6wYObj9srLN6eXy4Try3lcdDG+4jJ11ye/le1n5cUJN7lcOTicDEoYQXNc8znjvF9xeuL86YSux1Q6DFbZUKex2Tn4Hr8jzyj4r4pxPbwwGuWy4jrkMndZ5DB64TXB75XiGGgXnke/l/suKqXdwwwoxt3WGNwxZvOeB+G/v13iM5PQzBGMluTAMbni85HHDaYXDZcuKJUNoBn6swHL5OMcPLi/uTxwK29cK4uc4Xfxe7v9cZ9weeLxjxZ/HTe7X/E1nH+IyYKsQHje5vFgZ5zhnGnhcZytChgF8n4MBDY8j/D7uL87xm5/jOmKrDq5X7kclaXHDbYJP9uE2ye2V0+6N38uwiOub88OB88b59G6ZwX8zlHC2F2c+neCG88GwludGZxy/mwEaz18MRXhM8cbghscnBswlCW54axV/n99VmicxORg485jG8za3FWdb477O+eDx1wnZnAsnDG54DHJuz2JI6f05bn/cphmYsCNkBjrONsX9gvsOz48MvxlsOrhtcz0Wdtzn9/N8wrIA55eho4PBDYNIHme8gxvuz9wH+H08L3H7cvZLTienm9shj1sMwIjbP89F3E8ZMHHb88bPM1BlSMRlxt/jd3GZ8Dd4IYnHKa47Z7tm4MrjLMtAzninjCEi1YeCGxFxBRZ2eOWVV79Z6GQBilfJWbBhYYUFalYSWaj2rgyx4sCCLz/Dv06l1hsrpmwezYIeK//EijkLcAwEWEgsDq+Ws2LEQmHBq/YOFnpZMWAFwWklwwK+d3DjFNpZUGPFna+zCbXzfuKVQBZIOW28es9lQ2wRxCCBFSrvFjXeWJFhpZDNxJ0rigwEOE28MshCfWGV3qI4fT/wKiWv4Jak/xRW6JzbEdjiwsEKLSs6rFgVtp7Y3w8r17zK6kw7K1QMANhs3ruA7o0hFueN69+pGDDs4O9z+fJ7i8IKF9c/QyM2Y2eFloVthoCsoHK+vSv7xEqDE9wwVCjoaMENW40x8GBgUjD847JlKMTgjVd2HQxruFy4PxQWsvCKLLchvof9KZQkuGGljuuCoVdpgxtWhLgd8ZYhVnZY4SiI2zqXPSuX3vsrt3uGbZxPXqXnbUHcr5xKEyuA3Ma9byFgOMZKDkNW9k9SFAZE3EdYoeZVbn4v1yXXKY8dvFrNkJbTQGwpwkojjy2svJYEW6/wGMDvZrhQELd3thriPlpYsEMMDlj5YqsCJ6BiKwp+hhVZVuALUzC4cSp1rARyHrm98TZFVk4ZEhSFYQ2nn/sHj4OFKSy44Xp+5plnzH2CrfC8A62y4nGArQn4vdz/uL44cLvg9sNjNkNohnDEZcBbSbj8eEwvGExw22drFLag4vGKeLzjcZTrmcupsOMIK+ScVx47ufxLEtxwW3LCTyeAczAkYGsitk7iOY37LueL2zyPR84x+GjBDY87PFZwH/UO9onbOpcDjxW8XdBbaYMbLn+GNhx4nisNnpu4jzOY4TZR2HLjeY6tz3jRxdmWGGRx/XD6GbA469fhBCk8HnBbd/ZZB/dX7tM8V/D45+C2z9e57XCdF8TzA4/bnF5n+6CighteLOF2wfXgHQQ6GOzwtimnRRFx3XHb4DbKeSsMj/XcbhhA8pjCf3PZc5/jdxW2X3IbY3DNcx1bEim4Eal+FNyIiCs4wQ0LYizMsbDE8IGFc1auWBBnIY6FUe9WDqygOJUJVkbYqSELsrwnnn95RZ2FZwYJLGQ7FT9WdlhI55Xjoq46e2MhnAVCThuvHPJ7+RusYPMvC2psyszfYMXNCXeKCm7IaYbNCjcDCmKlmOESp5dhC6+sOliZYsWO4RArAM58chr4/5wGVn44Daz4OPfqM7jhvxlE8LudIKgkGExwXnnlk8u54JXlgjj9vDLI32Lgxoq0g+uSBWZeIS5YwGcllIVuVnC4/Jwgi8uMFW5WMtkqwpln7/XLz3CeebXSqSyz4MvPsNLkfbuWgxUBLhde1WZh2amkch2yQs3KktMCgleGvTktbliILiz0KCq4YaWSwQ2XJafVqXg7OJ6te7iNsXLhYEWUrzHMY0WvIP4e38/KHys5JQlueGsalxlb8njfMlASXMesxHCauLwKq7QyYGUFhPuwU+nkVWO2xuL+w3CGlWhWerhdMNTjbTn8Tu4r3lepOX0MbrifsJJZGC4X3ibEPmpYQeQtk1yH/F6GHdxGWPliaxYncHBuO+RnvCt/R8MQzWlxw9u+CuJ8c//kuuf2we2T+ycH/j9bxPE4xWXPY49TkeX8cn/hfv/zzz+brxVUMLhxWhKw0suWVtzHGUZzXrmMeTzg69wnvLc1VhA5/dw/CmuhSIUFN5xfVjZ5HC4qXCoNHsdZAeXvcF9jOMt1xm2Gt63xdVZ+GWw44aAT3LDyyrDVacHoYKWZ64DLn8cH4nu4bfDYye/ndlgQ3+PcnlOS4IbbOG/14XrkcbpgUMZghkE+wwzu61xuPGbw+MdbXJ3WJcUFNzxW8PxREMfz2MLlw3Oet9IGNwxWeG7j+ZC3uZUGp5/zxv2W26Qz/d4YkHLf5rbtfD9DB4YaDC44vQUvCHCb4/bA9ejdatPBaeZ+zu2doaeDFzQ4L9wHCru4wbCcQSBDYC5XZ79gWFNYcMOWPgzFOZ2cv4K4T3D9ct54Cyg5+ynLJDz/cL/ntuiUFfhv/uU657mN2zOPkZxPhotsvVNYGE4MZrkd66lSItWTghsRcQWGCQw7WBhjocu5asxKCSvxrOyzBQoLsvx/JwBxght2XMqKHT/PSgALdM7Af7NyxsKjcw8/AwUW0lmJ8u6MsCis5LFwxt9nwZDN11mZ9P4dVjTYUoPT41wx43wVFdywEMk+M1joZXNwVihYYWChjq+x0O/dOoa3fLGVAwtuvILJ3ys4DZwuTgMrFU5llOELC6Ws8PE7ShPccBpZ6eH0MBQq2Oy7ILauYEGcQRsL9LwFxMEKOivPbCFTWHDDSiSnnZVp55Y2LjOGJ/x9p7WR9/xy/lnhZeWJLWEYxpAT3HD9clsqiBUM3oLBdcom+WypwgoGKzqsjPBKKis+LHyzBYe38gY3XH+8Sl3wKrIT3LAyxu92cHly/lkZLyy44TJnK6bSBDes3LLywmXtVMxLygluOH+sZBestDrBDfcTrnNWMonLlBVyZ/5ZiWPrB1ZAWNlhZYzrl6Gfd+XJCW64/Xq34HIwiOH+zH2foQmDLra44rbAoJG/wde4v/P3nX2Qt59w3bNyxWkrieKCG64/Vr64fXDZcn/03l45cHtl6wuGOE6rHe5XrLDxM0W1ACwY3DiVf+I6Z7jM/Z77HeeJxxzuAzweeffT5B3clOZWKS4j3hbEfZu3tZUHtyHedsZWHly3PMawAs51xu2JxwfuQ9xWeJtbYcENj5Pey4C8gxuOJx5XeTsP1wmDxoJhD/F7GPCXNLjh9HMZMMTi+aWw4I/bGaeXxwNuKwxeGY5w+ksa3HD+uW8XDHmd4IbrguO9lTa44bbB4ye/i9NQmvMD9y/OF4MNXnwoLLhhCzueO3is5TZK3sENj/EFwzTe8ucEN4W1cGXIwX2F+3xhwQ3PI4Ud97kueP7h8uGxwDkGHy244XTwmORcXPHG9crthvsab+EmrnMGhAxluF75nQXLJNzmuY/ymM6WQdzeuM/x+MWLV0WtN4Z+3CYU3IhUTwpuRMQVWFhkRYqFMRagvCtFLLSykOIUZHn7lHMvPgvhrFizIMbwg7fpsKDIPlRYIOXA4IcFQd5+wUIVsYDHChDDAIYyxWGrDRaoWGljJYOtZVjAc36Dv8ff4W+zMubcHsLCe1HBDfEzLNRxnljZZAWAlSoW7rg8vAvsLMDye1gQZMWN7y04Dfw3p4GVXecqJq9sO8ENC4elKZizgsJlxQIyC9EsvDpX+gvD32ZBnv2GsJDpVNo5H3xqCEMYtgRwXvfGUI3TyMqus/5ZkWCFghULTjsL0t7r1plnrltW+pxKGSukrJhyWRZWgOf2xIodK2rss6hgxYiBIa9kc3pZcfTG0ILbG1u5eLeIcpQkuGGloeByLCq4cW4XYwhVWIGewQQrpCz0l/RWKa5TLhv+Fpdxwe2yMM708i+XASvdDGaKC26cSjC3Z4YBHLjuCmJljJ9h8OF0iEtOcMNxhQU3zlV0Vua5zgreCsj1wRZGXO4MjJz9goEt9ztuJ2wJVBIMblgB5bIr7FYp3i7BUJX7L2/nYNhRcHvlvLGyydtznOXO0LA8wY2DIRbXP6eNwST3G+6L3NadlkYMSNnah6FVaW6V4nGEy4/hK4/FBfeZ0uA+wf2O2x/3CecWRweXC29l4TorKrhhCwZnnhwFgxtOI9/DZcHXuDycPsO8sU8hBl4MEkoS3PB7eVzhPskwhr95tM9wfnn8K0tww+NMwZC3IoMb9unFaeBvcX/1vk2xKM6653piSyVe0GC/XIUtA56TuS1xe+M5jrgOnOCGoWrB4493cMPjRkFFBTcsF/A4wX3auUjjjUETzz8M5NnyxcHz8NGCGx6TeGwtqLDghscbrjOG7dxfOM+FlUm4z/P7uU3zmMU+cjhPHAq7QMLb47jNMyzU48BFqicFNyLiCt7BDZv8ewc3DlZGWJFgc3MWvpxCLh+BzEokC5BF9YNSEEMPFtRZWGWlr7BKkDcGNaxss3LMPipKipXEowU3LLg7Ta1ZeOZVXP4/bwsq7L5/FiJZcTtavy0FsVVIWYMbYsWcQQJDDF5xL2zdEOeVLYhYqWIhnQVRp4DPigcLuLy1gNNS8PYcFlxZGGWBmsGPE7AxrGKFli2mSnJLm4OV06MFN6w4sJLP7aawvgtYqGagxullBdOb08cN15H3bXuOig5u2AEm558VErZSKfg5rlPuN85V4ZIEN6xgsQLJSj0DycJuJ/PGvli8n5pSluCGrb0YwDA0KLgN8Tu5bLj+uY8VdqtUUcENtxUGM9zuCoZsxGnnLWFslcdbpZzOkvk5rgdWOnk7XMHwoDAMZrh/8mp5YX3YsHLGln0MeHk7ZkkxHKmI4MYbt0MeG7lc+Ahpp6LHiiRvP+X3FNUZbWHBDb+PoTXDTu6jrHSWFdcBgxl+F7f5gq1guP/yOOHcHlvW4IbLiNsWAyquM84zK/Ten+N7GARwG+O2V1wI4+B+zXCF5yO28CjqtjPisZHBDefX+3xTFYIbHnt5XOGy4fJm66TCbidzMCDnuZjLlQOnk2Eezw2F3eLDYwWPM9wHnenhX18EN2xNxn2P08PjSUHcZnlO4PbD5eeoyOCGy463ZPN4zBaJzrmsOCyT8NbRooJAnv9YNuI65/FOwY1I9aPgRkRcoWCLGwYlhWHhloVfFrJZGGeBloUrFop5qxRvP2DhjaEHCz4sNLGQySvqrPQ5lUwWfNkpIAvMTisa3tbDK3IcWHjj7RcMPViwZUWDFU+20OFVehbSeDWdV/v5Xfw9Fjb5G/zrFMBZID1acMMCPCthvELP6eC8s2LICldB/C3+rvM+NrHmvLFCxRY+DCN4NY99ZBTs3JXvL2tww2XMZcrvYAGchVEuCy4b/i7nnb/LW9g47Sx4cl65HB0MGxhQMQjheK4nBiqsuLDlAa+Is2LOcQyvnIoV54kVAxbg+bu8nYYVBy5zLg/+/6JFi8zWDd4hSnEtbjjdrODwe3kVnvPHbYOFYf4GQxlWmji9vP3EG4M7VnBYEeR2xXXN9eosV353RQY3nC4GEgw12N8Cwywuc1aS+Pt8LDlDNW4X7GehJMENsaLAPmD4vc42zSvDDDA4D7wSz1YpnCa+z7viUprgxpkebiOsBPFzrHw72y63VVYWGSBxebOSxOlwFBfccNnzKS78HFtrsRLK7YbzwfCEV9Z5zOB387Yh7+XjdDbMYwf7O+J+z/nhwGMQQzOGeA4eo1hZ5PvZETi3QR4bOA2sxHK7ZHjJShvDDe6jnH7vfZTbJlv58XjjHA/KEtw4lXkeB/mEHLaiYnDNfYrTwe9nwM1bNvg5vkYMnFhB5DbMEJLbEYMFTovznd7BDY9nxOMgv5PBFG+z4zbMwI+VcP4m1yf3I4ZX3vt+YbiNcN9gwMDbaLjOOH/cn9lCgy0VeKzhvsBgo6zBjRNAcPnzmMMKPfs/4j7O7Zvfy3XBW1a4nLgtcP8uSXBDDA24jfN7Walmn0LcXngc4fp2lguXJ4/xvNWVx4CqFNwQp4Of4/GX5yr2PcTtieuD88Hlzv2Bx1keb3irjrNsuc55nHUCUIYg/D4e150nnnE98pzgHCO53H0R3HDf4v7BfZ1hGo+HDFc4PQwsuc3weMfvdgJJqsjghuuK+xhbQfI4wXOBc37hsccpk3C747buXKDhuuey4H7J2yl5TuRy4nbKcxi3A+4TXGZ6HLhI9aTgRkRcgQU6Fm5ZgGXlq6jm2rx6zgo8K6qsODh9jPz5559mCxpW8FhhYoWFBWJe1WUnluzMl4U2FiYdrNixcMwKPm9vYOWUhUn2LcP/Z+DCq6jehWxWdNj6gZVM/j4r1Hw//zKYYAWJlUgWdokFUhZ0WQDnlVbnNg0HK3tO3xEsbHJgAbKoK+EsxPFqGytVLJiyMMd55DTwljFON5cDC7b8bmJljsuUlVdWJEsb3DjYPwGXrRMccbmyNQqXGeeRoRaXPytWTmHUwZCC08YKDgMPXvFn5YwFfYYkLISzkMt1VvD2IxaeeRscKz6sHPF3WSnhwPXM/gRYePbuq4iVDlZCOD2FtSbhOmXlgNsSr7KzgsqKHZcjtxXeAsGKNNcHtxtvrBxwObBSwQowWwpxO+KyZQWR65jLhPPK/nCcFh6sbDkdmnI7KRjccDwL7hzPyqA3Vs65jXCe2GKFYQTXN7c5vpcVB64XFvZLWulkBYOVFLZCYSjCbYTfx22Z64HzwECU2zvXt9PKi9sVt0GnAlSwAsFl6/TdxPFcJsQKCyvFXI9c31zv3H64PlmZZr8vrLSwUs6KlIOVHFac+H2FddzL6eE2zm2Exw8uH1baOQ9cv7zSz/XJ5cp/O9NDrBhxn2brKlYwWYHncuU+xeXCwbtDZB5/+N0MnzjN3AZZiWUlmscH4jGG88V9lBVaVqy5TLmt87u5vrjfMjxw1hXnlxVOTj+3o8IwDOF2yv3Y++laXOecFlYUuSy5DXPeuS5ZEWUox4DKwWMTtzOGS6wgcrmxos7wmsuaOM8MYXmMYeDmYHjDcdx/uc1xehiGcd64rHjM5Dpmhb84nGcub+5/DE+5LLkP8jjBY4NTAWfHrs7T27gMuL/xdR5/CwY3nDdue9z3+B3ex1tWfnls5D7E9cL9mr/H9znHaG5//HxJw0/iPsSg1dmHeCzieuY64MDp5zGK+xHnjS0RnX2f+wT3ZVbIGWw4xwrOB5eps80WDG44nscWjuc+6o0BJF/n/JVkPTgYLHBf4DzwfMhl5exH3Ka4HbPlFtcLj2NOcMNzHAMazh/7oeMxkfsPtwV+F7cjzot3K0uuT253DMsY+Bc8L3Kb4z7L9VhYkMnQlPsKtx3vYJXlAAYbXJ7cRnn84Txwehg4cr9lH3oMoLzPgzx3cFq5Tzi3cxGDSk4Hg8rCLqbw3MT55bZTsN8nBjM8ZvMcxPdwPXM5OmUSnkO433mXSfh7PDbw3MLjB/cpbkvcvrhd8XW2HOTyZAgsItWLghsRcQUWwHn1iQV4VmycCkRhWHlj5Y8VMqdSwYIwWxCwMMtWCaywsCLGwhgLbCy88XPelTbiFXO+zsIvwxiGOCxo8btZQXAe1+tgAZMFMha8WKBjBZSD8yQXVuB5JY8VHGLhlgU1VoB4xc4p7HpjxZNXO1k5ZeGf88A+F4rCQjsLsywY83sZmHB58P8ZOjA48W6xxMI7lykLsqw0FKzslBSnk8uDFRtWdBhscBk7y4shCq+cO1eNvXF5cBpY6eRy5dVJ3qrE6WYlgcEAK5MFb6FysJDK24D4HVxP/F2uY1b2WaDl1WrnqjyxUsiQh5VZ74qnN84Pr4Ry23C+k6ES1xe3Cc4nK7asCHnjNsD55DbDaeA642dZgWWFhNsiK0D8Tl7xdSolrJSxws2rxAxFCgY3HM8+VBgisBJbEK8s83Vua9xOGVCwUM9WKFzvrCBxuyhsGzsahoEMZbg9cZvm9PH7ue/wqWespLFVkxMysBLJSgrXPyuHrHx647pmUMB1w/HcXh0M9NgighUaLjP+FiuIrBSxMsZ1yWnwvorOZcp9mN/n/ZQyb1yXvL2K08qggt/NdceKDyuVXK7c/rm8ClbKeQxgRY6VI37GOQbwWMRtlRVzfj/xLyt53HY5/9x2uf45fd4tvrhMuEwZCnCbcvZRrjPuOwxJeFXe2QZ47OKy5m9yHy0Mp5PHHc4Hw2FnmhhAMkjj8Ye/xeMRlyv3KVYWeVwtuE+ypQBbAnBZcx5YGWf4w8CT+BkeRxn+sDLpjeufQSK3Rf4G542/yeXOyj33jZKEhwz4WElmsOG9/3E/4jLnNsFlxoq9U0nlMmALMK4fBmZOqO7g73Lb4/dx3XnvC1xeXFYMa5xbD/k+Vqad6eA6ZafJhR3DjsbZhzj/XCacPu9zCbcXHr94XvPe73k+Yus1Tg9/1zlWcD54/OF65PQVDG44nscWHn9YiffG4IzrgxcKOF2lwRCG+zrDGoYeDA84H8725OxP3Ced7Y947OK+6b1fcN1xP+exwgneHFyfbDXCY0xh50Vuc9x3uH64LRbElobcV7jNencszn2T08njCPcRLgO26OL0cJnwdZ6/C26fbOHHcwuDSO9jD893nA5u24XdnszAmNsTz708Z3jjOuMFKLaw4r7NbYHbuFMm4b7M2/a8j49cpgxyWI5guMj9kucDble8iMT54ffwXFmSWztFxF0U3IiIK7DAwhYHrMywMHS0yicrXqzosFDEz3jjFVmGFiz4s8LOgjrfx1YcLCAVrCwTC8tsucOKH5v5s9LPz7CZeWFPIOFrLIiygMf3c+BVPxYgWSD1nnYW3hiccBwLWgUL4A5e7eT3scDK9znBT1FYwGZF0en0kNPM6efyYwsI76uJ/H8uU1bWuAy8C9xlwcoTKyAMqLiMvZdXUaGQE9ywNQUrJKxQMKThZzk4t50dDdc1C7Vc1pxnrmPOP1/jeveuxLEiwfnlOOcqdmE4vZxuZ11ynri+WHFjCwpuS4XdbsB1zOXPaWGlj8uBy95Z95w/ftZ7nXPbY3DBbZe/UXA9cDznwxlfGG4nvMrLeec0c7vm7UCsOLASx9eL2saOhvsA54ffyfXh7DucB85LwQqyMx38/YLjOF+cDy5/ji+4LXMbZIWI08plzt/gsuYy5/u5LTgVWOL2y2XrbL9FcZYvt0V+L6ef+zWPFxz4m06wVhD3J/629zGA+yLXPcd54zbDkJDbHpcT1z//v+D7uN0VPK7w/zkdXH7e+wo/y9c5n0XNI5cjp5HLwTss4zbHdcTXnX2DA6ef01nYPsnv4rLiOuR7OQ+cNmcf5L7G6eE+6r0uHFyG/E1uq5wvfgc/z+MMP1vSbZDTwZDa2f84/VxmfJ2hBr+f4515cKabr3PdFLUPOfttwengv3mM5rLhunP2d34vX+fy4OcL20aK42y//G7n/MNlw3njPBU8V5Hzu5xe/q73sYLH8aKOBRzPYwvHewfWxG2L+wC/t7B1XxxOE9ct90PuQ5wPrhvOB48RRYVa3E85rdwOnOMHt6HC5pvTxfXK5c3pLbienHMyl0thn+dr3Fc4eO93DGS4H3A/5/87xwNnXXP9FHZO5+9x2+X0em/v3Lec6SgYUJNTFuCyclrcFcT543jneOeUSbgsi9pXuG6dfZOf47RxmXEauM4LOyaLiPspuBERkWOOlQEGN2xyzv5MylKhqMlYCePVZFYAGEKwwsq/vG2LLX8YiLHFDAv8IiIiIuIuCm5EROSYY3DDWy/Y9wJvfWDoICXHq6xsPs9m+7xdgc3zeWsPb8NgXyO8TYZ9+XA5i4iIiIi7KLgREZFjjk372QcO+0xg/zal7UOipuNtBewLgp0asw8Jpx8T9vPAPi54S4aIiIiIuJOCGxEROeZ4aw/7YnD65yjsvn4pGvszYB8Y7FuIfU2wLxD2JcHlyX4cytInh4iIiIhUDa4JbtghHh9/y57S+RQENgXnU0LYeVfBzueKwooAC7PsdZ2PiWSTcvalwE7ARERERERERESqGtcEN+wZfvDgwWYfCHz8H/tB4CNP2fFiSa/MMvhhYMPP85GbfMwlHy3JEIhPfNAVSRERERERERGpSlwT3PCRkz///DO+//57TJ48Gd26dTMfb8pHVBYX3LBFDh+NxydqnH766fjwww/NoIYtbV566SW0a9cOb7311v88MlFERERERERE5FhyTXCTlZWFxMREJCcnIyEhwWx5w9Yy/v7+xQY3/Oxvv/2GHj16mB03shNHB4MfvnbFFVdg5syZ9qsiIiIiIiIiIseeKzsnZlBz0003mbc8lSS4SUlJQf/+/c3gZujQofarFoZB7Denbdu2+PLLL+1XS0+3WYmIiIiIiIjUDCXta7ciuDK4ycjIQK9evcwgpiTBDVvoPPbYY7j88ssxadIk8+kbDrbGmThxIlq3bo133nnnqAt/x44dmDBhAt5///2/h/fee8/s7Pijjz7CoEGDjhinoeoPXH/8+9Hgj/DlJ1/i6yFfY/inw/HRoI/+HldweO/998xxgz8YjM8//hz//ey/5medz3B8YZ8rfuC2NBiDBw/Bhx8OM/4ONf79ofm6NRT2GQ0aNGhwx/Dee+8bx7T38emn7+Orr6zhs8/+GVfw/RrswTkXDR6M94cNw/tff433v/gC7xtlj7/HadCgQYMGDRoqfHDq+mzoMXz4cHxtnIP/+1+j7vfll+ZDjv744w8zT6gMNSK4iY+Px3333WcGNzNmzEBOTo49xmopM23aNLPFzWuvvXbU7+JvsSPjjh07/j106tTJDH2OO+44nHzyyea/vcdrqNrDOR3PMf+e1u401G9ZH56mHniae8x/d+7U2RzX+ZzO6Nq5K7p06nLE59qe2RaNWjWCp5kHdU+pi9btW6PTOeVZ/51w1lnt0L59U5xxRn20a9fE+PcZ9jhrOjVo0KDBrUOnTh3RoUNHtGjREbVqdYTH0xHNm3c0jnPWuMI+o8FrOMM4H9Srh44eDzo2aICOHTqgY2frPKVBgwYNGjRoqPjh3HPPNQfW9+vUqWM+IMl7YDbAu3sqQ40Jbu6///5Cgxv+/5QpU8zg5vXXXz9qi5ukpCRs374dgYGB5hAUFISNGzdi2LBhRuGzOV5++WWEhoYiODj47/doqNrD2pC15t8hvw1Bx7eMisTDHjR7uRn+O+2/2Lx+M4KDgs2B7+HfkKAQc+Dnxv8xHld9dBU8T3nQ4a0OGD51ODas2YCQ4JAjfqNkQ5Cx3WzAsmWTMHnyXRg7th1+/fVGLFnyg7GdhRjDmkI+o0GDBg3uGTZsCMSffwbixRcD0bhxIOrWDUTv3oHGcS/QOHcW/hkNxhBinFNYrvjpJwSeeSYCjYJiYM+eCFy8GIGbNxf+GQ0aNGjQoEFDuQbW6Vm3X7BgAZ5//nk0bdrUDGtq1aplBjn8/8cff1wtbo6mLLdKPfHEE2Zw88svvxxxq1RmZibGjx9vLvwBAwbYr5bOypUr0aFDB4waNcp+Rdxmwb4FuGTCJTh+yPG4a8ZdCE8Nt8cA8bnx8Iv0w570PfYrlm3J2/DA7Adw/OfH49pfr0VgdKA9pjx2YO/eJ7B+fSvs2nUPcnPX2q+LiLgfT78jRwJt2gAtWgDDh9sjpHjbtgGXXmqU3Iyi2333scmwPUJERER8ISYmxuwj91Lj/FuvXj00bNjQ7IJl7Nix6N69Ox5++OEjGoX4kiuDGwYvN954o/lUKaZhxUlNTTX7r2HQw/vTvDHU+fjjj81HgvO+tbJYtGgR/vWvf5n3vIk7Tdk6BeeOPBcnDjkRryx4BXuTrEfD70ncg9f/fB2XfX8ZnpnzDIIjg83XafX+1bjipyvgGeAx/67Yu8IeU3apqeuwZcsdWLGiLkJDr0ZS0lJ7jIiI+yUmAv/9L9C6NdC8OTBkCC/G2CPl6NatAy6+2Apu7roLSE62R4iIiEhF4901zz77LJo1a2a2rjn99NPNO2zWrFlj3tHDPIJ39Xg3CvElVwY3bCXjtLhZvXr1Ebc3ZWdnIyoqCnv27DGfGOW8xn5sLrzwQtxyyy3YtWvX359ZunQpbr31Vlx11VWYO3eu+Vpp/fnnn2Zww46KxJ0mbZyEjt92xImfnYhXF7yKvYlWcLPu0DornHnXA88HHtzx6x3w2+WH1OxUbI/djr4L+uLSsZeaYc+mvzaZnymPlJR12Lz5LqxYcTxCQ681tmEFNyJSfSQkAF999U9w89lnQHq6PVKObu3aI4ObpCR7hIiIiFS0MWPGoH379mZow7+ffPIJ9u3bZ45jcPPvf/8b//d//6fgpiCGL3v37jX7lFmxYoUZwvD2JC5QpmERERHmeyIjI83mTE899RRmz55tfpYhzV9//WW+1qZNG/OWKN5ixdY6TNHY2oavHThwwHx/aSm4cb+f1v+Etl+1RaNPG+GNP9/AviRrp0zKTMJPG35Cj1E9zJY1tT+ojQvGXIDxG8YjJj0GsemxOJByAIdSDiHjcPkvGyu4EZHqTMFNOSi4ERERqTTh4eF48cUXcdlll2HcuHFmWOOIjo5WcFMUBi+8zen8889Hly5dzE6BmH6xU+GuXbuaHQOtW7cOu3fvNu87O+uss/Dtt9/an7asWrXKDG94P1q3bt3M77rooovwwgsvmIFQcX3lFEXBjbvlG/+NXjMaLYa2QJ0P61jBTbIV3FBSVhLmR8zH3b/eDc97Hnje8eCcb87Bp6s+RXRatP2uiqHgRkSqMwU35aDgRkRExGfSjQJJstdtyGz8wfCGDT68XydmEwpuisC+aNixMB+5xfClb9++eOWVV9CnTx/z32y6tG3bNvP2qKlTp5pPegoICLA/beHCZ8/QbJHDz3FguLN161b7HWWj4MbdGNyEHAzBJys/wfvL3seCHQvMsKag1QdW49k/nkXLoS3h6efBKZ+dYt4iFXggEFm5FdObuIIbEanOFNyUg4IbERGRCseMYNmyZWafuKNHjzZzh+IouHEpBTc1BzsrHrh0IM757hx43vag3kf18NK8lxAeF47cvPI/4cMKbu7EihX1ERp6jYIbEalWFNyUg4IbERGRCpVknEvnzJlj9p/Lu3n49KiQkJC/+8MtioIbl1JwU7PEZ8Rj3IZxOH/U+aj3cT3c+dud+HPnnxXUx81abNp0O5Yvr4MNG65CYqKfPUZExP0U3JSDghsREZEKwz5rRo0aZXa74nTDct1115mtb4p7xLeCG5dScFPzJGclY3bYbPOpUubtUvsDkZNX/mf4p6aux5Yt92HlyhMRGtoLiYnL7TEiIu6n4KYcFNyIiIhUiLCwMLz77rs488wzzcCGw8MPP4xFixaZHQ8X1/etghuXUnDjfmGxYZgbPhdLdi3B/qT9JQ5hdsTvQMD+AMSlx9mvlE929l+IiZmB/fuHGQeNycjM/KeTZBERt1NwUw4KbkRERMolIyMDS5cuRe/evdG0aVMzsGltFErYdy4fdFRSCm5cSsGNu/EexlFrRuGi7y/CbZNuw9ywuRVy25OIiBxJwU05KLgREREps5SUFMybNw/XX3+9Gdjw9ig+aZoPOTp06JD9rpJRcONSCm7cLS8/z+xwuNYHtXDG8DMwMXQi0rLT7LEiIlJRFNyUg4IbERGRMouIiDBb1tSrVw/HHXccrr76akyePBmpqan2O0pOwY1LKbhxNwY3by5+E553PTjty9MwadMkZB7OtMeKiEhFUXBTDgpuREREyiw5ORk//fQTevbsad4qtXjxYqSlle1ivYIbl1Jw424Mbt5Y9IYZ3LT7bztM3zYdh3MrZwcs6PDhOKNi44eoqImIj1+I7Owoe4yIiPspuCkHBTciIiIllm4UMBJY8PDCwGXhwoXYunWr/UrZKLhxKQU37sbghk+H8rztwb++/pfZSXFufq49tnKlpW1GWFhvBAWdjW3bHkJycqA9RkTE/RTclIOCGxERkRKJjY3F+PHjMWzYMKxfvx6ZmRV7N4WCG5dScONuDGme/+N5eN7yoMM3HbBw50LkG/8dCykp67B5851YsaI+QkOvQWLiUnuMiIj7KbgpBwU3IiIixYqKijIDGz7qu1mzZnj99ddx8OBBe2zFUHDjUgpu3I3BzTNznoGnnwdnf3s2lu4+dmFJSspabNp0B5Yvr4sNG65GYqKfPUZExP0U3JSDghsREZGj4i1Qffv2Rdu2bY3TpcfsiPiNN95AZGSk/Y6KoeDGpRTcuFtuXi6emPkEPK950PG7jvDf52+PqXxWi5u7sGLF8QgNvVYtbkSkWlFwUw4KbkRERAqVl5dndjb80EMPoVGjRmZowxY3AwYMQHBwMDIyMux3VgwFNy6l4MbdcvJycPfku+Hp7UHr4a0ReODY9SuTmrpJwY2IVFsKbspBwY2IiMgR8vPzER0djd9//x3XXXedGdhw6NatG7799lvExMTY76xYCm5cSsGNuzG4ee6P53DqgFPx73H/xua/NttjfC8/PwdZWdFGxSUCOTmJSEkJUXAjItWWgptyUHAjIiJyBAYoX375Jc466ywzsKlbty6uvvpqzJw506hjZdnvqngKblxKwY27sSPiiPgIrNq1Cmsi1yA1K9Ue43tpaVsREfGyUR6/FLt2vY2oqB+xefPdWLmykYIbEal2FNyUg4IbERGRIyxbtgxdu3Y1Q5sGDRrgiSeeQEBAQIU/RaogBTcupeBGyio2dg78/VsY25AHa9acj507+9nBTWM9VUpEqh0FN+Wg4EZEROQIGzZswJNPPomrrrrKfHpUaGioPca3FNy4lIIbKauYmGlm6xo/Pw82brwVe/Z8aP5dvvw4rF9/mVHJWWy/U0TE/RTclIOCGxERqeHYyTAH9m1DvB1q27ZtmD9/Pnbt2mW+VhkU3LiUght3y8vPQ2p2KuIy4sy//HdliY+fj8DANli2zIMdO/ohLm6h8fdVrFlzIcLCnkJKSrD9ThER91NwUw4KbkREpIZiUMOA5rfffjM7It63b589xuIEOZVFwY1LKbhxt4SMBPy04Sezg+If1v2AlOwUe4zvxccvRGBgeyxdyuDmdaMCsxuZmXuRlrbZ+LsLubmV19+OiIivKbgpBwU3IiJSQ61fvx59+vRB27Ztcd5552HatGmVHtZ4U3DjUgpu3G134m7839T/Q6P3G+Gu3+5CVGqUPcb34uMXIDCwnRncRES8hKysv+wxIiLVj4KbclBwIyIiNQxDkTlz5pgBSePGjY1ToAft27fHrFmz7HccGwpuXErBjbtti92Gq8ZdBc8rHlzx0xWITIm0x/jekcHNy8jMPGiPERGpfhTclIOCGxERqUGioqLw008/4fLLLzcDm1q1aplhybfffou9e/fa7zo2FNy4lIIbd9v410ZcPe5qeN7w4Iafb8Ch1EP2GN+Li5uH1atPw5IlHoSHP4/MzAP2GBGR6kfBTTkouBERkRqAQQj7sPn0009xxhlnmKFNw4YNcfvtt2PevHlmh8THmoIbl1Jw4175xn9rI9fiyp+uhOctD2799dZKvlVqPgIC2phPlYqIeFEtbkSkWlNwUw4KbkREpJrLzc3FunXrzP5sWrRoYYY2J5xwAl566SXjNLi2SoQ2pODGpRTcuBefIBW4PxCX/3g5PG97cNfku/BXWuX1M5OWtg27d7+H8PAXEBMzxdjxE+0xIiLVj4KbclBwIyIi1VyCUVD4zCgcNGnSxAxtzjzzTHz88ceIiIiw31E1KLhxKQU37pWbn4sVe1eg5w894XnXg/+b8n+ITou2x/peXl4msrIOmk+SysmJR35+jj1GRKT6UXBTDgpuRESkmksyzm3s1+aKK67AJZdcgpEjRyIxsepd2FZw41IKbtwrJy8HS3YtwUXfXwTPAA8env4wYtJi7LEiIlKRFNyUg4IbERGpZvhI7+Tk5CPCj3SjYDBjxgzMnz8fOTlV86K2ghuXUnDjXtm52ZgfMR/dRnUzg5vHZj6G2PRYe6yIiFQkBTfloOBGRESqEac/G9ahg4KCzBDHkZmZiezsbPtfVY+CG5dScONemTmZmLp1Ktp91c7snNhscZNeeS1ucnKSkJa2EcnJwcYBah/y8qruAUpEpLwU3JSDghsREakmGMqwVc2NN96Idu3a4fnnn8emTZvssVWfghuXUnDjXofzDmPdoXUY4DcAj858FOPWj0Nqdqo91vdSUzeYT5PasuV+HDr0k7Hjx9tjRESqHwU35aDgRkREqoEDBw5gzJgxuOyyy4xTmsccHn/8cQU3xVBwUwEU3LgbnyzFW6bSD6ebLXC8m+n5mh4HLiI1iYKbclBwIyIiLsZbo8LCwvDBBx+gTZs2ZmBz4okn4vbbbzf7s8nLy7PfWfUpuHEpBTdSVvHx8xAQ0BpLlnjMR4JnZh6wx4iIVD8KbspBwY2IiLgUL4wHBATg0UcfNc7/zc3QpkWLFujbty9CQ0PNPm3cRMGNSym4kbKKj1+AwMB2WLqULW5eVosbEanWFNyUg4IbERFxoQTj5D9p0iSzP5sTTjjBDG26du2KYcOGYefOnfa73EXBjUspuHEvPg48MiUSayLXIORgCA4mH0RuXq491vcU3IhITZKYCONcqeCmTNatU3AjIiKuw3DmnnvuMQMbDtdccw0mTpxolAmMQoFLKbhxKQU37sWOiGdsm4FHZzyKh6Y/hGlbpyEjJ8Me63sKbkSkJmFL6O++A04/XcFNqW3ZAvTsqeBGRERchZ0Rv/jii2jfvj3uvvtuLFu2zFX92RRGwY1LKbhxr4TMBAxbPQxnDD8Dpw873fz/lOwUe6zvKbgRkYrEclBqKo8tQFxc1RrS0njVDfj4Y+DUU63g5tNPFdyYWOhjEFPYguMVSd5j5ucH9OhhBTd33qngRkREqiSGMt4Pe8nJycHq1asxffp0bNu2rdKCDl9ScONSCm7cKz4jHh+u+BBNhzTFyZ+fjC9Xf1mpjwNXcCMiFYUByMKFwHPPAbfeCtxyS9Ua7rgDuOEGoFMnoH59oFUrK8Sp8cGNUfjDuHHAAw8UvuL4GocrrgCaNLGCm9tvV3AjIiJVTmpqKn7++WfMnj0bycnJ9qtAdna2OVQXCm5cSsGNe8VlxGHQskFoPrQ52n7VFiNCRiA9u/JqEXFxc+Hv3xyLFnkQFtYbeqqUiJTVoUPAa68Bxx9v1e2r+nDmmcAPPwBZWfYM1FTBwVYwU9hCKmp46ikgpfJah4qIiBRn3759+PLLL9G9e3dccMEFGDdunNnapjpScONSCm7cKzY9FgOWDDBb3Pzr639hzLoxSD9cecFNYuJyrF//bwQEtMeePYOMCkyUPUZEpHR27bIabdSrBzRoAJx1lnVnzUUXwShAVZ3hwgutaXrlFRjHP+v2rhrNKEOYC4WBTLNmQOfO1r85FLbw2L/Nr7/y8qX9BSIiIsdObm6ueQvUu+++az7imx0QN2nSBIMHDzbqNtXz6oyCG5dScONe0WnReHPRm2j8aWOc/e3ZGLdhHDIOV17nxFlZBxETMx1RUROQnBxsHPjU2YOIlA2Dm/vvt+r/rONPnGj1KRMZCezdW7WGffus7luqwW3u5cfgpls3oHZt4N57gcWL2ZMjsH9/4QsvKgrIMM5TXv0HiIiIHAsMLfz9/fHQQw/9/ajvZs2a4fXXX0d4ePgRfd1UJwpuXErBjXv9lfoXXl3wKhp80gCdv+uMXzb+gsycTHus7+Xn55phTW5uKvLysqrtwU1EfG/3bqvFDYMboyyBVavsEVK1LVpkBTd16gC9e1uBjYiISBXH/mx++eUX3HDDDX+HNueeey6+/vpr87ap6kzBjUspuHGvQ6mH8MK8F1D/4/roOrIrft/yOzJzKy+4ERGpKN7BzWWXWQ05cnPtkVJ1Mbjp3t0Kbp54Ati+3R4hIiJSNW3atAmfffYZzj//fDOwOe6443DLLbdg0qRJSKkBfbApuHEpBTfudSD5AB6e8TA8Az3o+G1HTN06FVm5lXcvptXiJu3vFjfGK9YIEZFSKiy4qaZ9AlYvBYObbdvsESIiIlXTDz/8gJYtW5qhzcknn4xHH30Uy5Yts8dWfwpuXErBjXtFpkTiuT+eQ5MhTXDluCuxYMcCHM6tvE4XsrPZx800REWNR3JykHnblIhIWSi4cSkFNyIi4jLTp083nx7VqlUr9O/f3+zPhp0U1xQKblxKwY17sSPiNZFrMGXLFPy5809EJkciL7/yHnGSlLQCGzZcg6Cgs7Bnz4fIyvrLHiMiUjoKblxKwY2IiLhMVFQU5s6di59//hkRERH2qzWHghuXUnAjZRUXNxf+/i2weLEHYWG9kZl5wB4jIlI6Cm5cSsGNiIhUYWFhYZg6dSpWr16NvLwjL3Dn1NCChoIbl1JwI2UVH78AgYFtsXSpBxERLyMz86A9RkSkdBTcuJSCGxERqYIYyqxbtw59+/ZFly5d8PDDDxtljd16Cq5BwY1LKbhxLx54snOzkZGTYfZtU9kHIiu4aafgRkTKTcGNSym4ERGRKiYrKwtLlizBnXfeieOPP958atSll16KlStX1qi+bIqi4MalFNy4V1JmEqZtm4YvA77E3PC5iEuPs8dUDgU3IlJRFNy4lIIbERGpQtLS0jBu3DgzqKlXr55RrvDgwgsvxNixYxETE6MWNwYFNy6l4Ma99iXuw4PTHkT7L9qjz9w+iIiv3M61FNyISEVRcONSCm5ERKSK2LlzJz777DN07drVDGw43HHHHZg9ezZSUlLsd4mCG5dScONeEXERuPD7C+F53YObf7kZ22O322Mqh4IbEakoCm5cSsGNiIgcY4mJifD398err76KZs2amYFNy5YtjdPSE0ZdJdB+lzgU3LiUghv3Co8LR48xPeDp58Fdv92FXQm77DGVIz5+PgICWsPPz4Pw8Begp0qJSFkpuHEpBTciInKMbTPOPc899xzq169vhjbt27fHgAEDsHfvXvsd4k3BjUspuHEvtrDpNqobPG94cP+U+3EgqXKDk/j4eQpuRKRCKLhxKQU3IiJyjEVHR2PgwIGoW7cuunXrhh9//BFRUVH2WClIwY1LKbhxr20x29D5u87mrVLs6+av1L/sMZUjNXU9wsOfw+bN9+DQobHGjh9vjxERKR0FNy6l4EZERI4xPimKj/4eMmQIpkyZov5siqHgxqUU3LjX1pitOPObM+F51YNHZjyC+IzKDU5yc5OQlrbRODiGIDNzL/Lysu0xIiKlo+DGpRTciIhIJWLQEBQUZNZh4+OPrPtkZ6suUhIKblxKwY17bY7ejLZftYXnFQ8en/k4UrKULouIOym4cSkFNyIiUkn4qO/58+fjxhtvxHnnnYdp06YprCkDBTcupeDGvTYc2oDWw1vD09eDp2Y/haycLHuMiIi7KLhxKQU3IiJSCfjkqJEjR6Jnz57GKacO6tWrh1deeQV79uyx3yElpeDGpRTcuNfq/avR6NNG8PS2bpXKy8+zx1SO3NwMZGXtR0bGbmOnj0N+vmpZIlI2Cm5cSsGNiIj4WFhYmNn5cMeOHY1ygscMbR4wCg2zZ89GXFyc/S4pKQU3LqXgxr22xW4zb5G6afRN+Db4W/vVypOWtg179gxCePjLiImZZuz4ifYYEZHSUXDjUgpuRETER5z+bPr06YNGjRqZoU2bNm3w8ssvIyQkxH6XlJaCG5dScONe2bnZiEqJwo74HYhJj7FfrTzx8QsQGNgeS5fWQkREX2RmHrTHiIiUjoIbl1JwIyIiFSw/P9+8NWru3Lm4+eabzcCmVq1aaN++vfnkqIMHVecoDwU3LqXgxrd44MnITkZ6dvVrjRIXNw+rV7fCkiUe87HgmZkH7DEiIqWj4MalFNyIiEgFy8rKwrx583DppZea/dkwuGHfNr/++isSEhLsd0lZKbhxKQU3vpOTm4kNu7/H8nUPI3DzU1i3+2ekZSfZY93PanHTDkuXehAR8bJa3IhImSm4cSkFNyIiUsFyjALA8uXL0blzZzRo0AD33nuv+TSpzMxM+x1SHgpuXErBje9kH07Cn0HX4ddZHsxeaAyremD7wdlIO5xmv6N8krKSEBYbZj4WPDY91n618ii4EZGKouDGpRTciIiID7BlzahRozBo0CAEBATYr0pFUHDjUgpufCcnJwlr1l+DBQs9WLTYg/lLT0Bw+BDEVkB/NLn5uQg8EIi+8/visRmPYU74HHtM5VFwIyIVRcGNSym4ERGRcoqKijI7Id61axeys7PN19jdBG+ZqqxgoSZRcONSCm58JzsnCSvX3IC5Cz2YZQy/LG6LnX/9icN55d9BsnOy8eumX9H2v23R8MOG+GzVZ/aYyqPgRkQqioIbl1JwIyIi5RAbG4svv/zS7MPmueeew6ZNm+wx4isKblxKwY3vMLjxC+mF6X94MH/ZyZi//lUkpB8yx+XmHUZsym5ERAciKaP0tzmlH07H9+u+R+PPGsPzrgcfLPvAHlN5FNyISEVRcONSCm5ERKSMNm/ejP79+5t1UXZAfPrpp2Pq1Kn2WPEVBTcupeDGdxjcLA3phWlzPVi6ugPW7B6H1OxUc1xcUigCt7yMhcH3ICDsU0Ql7zJfL6mU7BSMWjMKLT5vgVqDa2GI/xB7TOWJi/sD/v4nY/FiD8LC+kBPlRKRslJw41IKbkREpJR4C5Sfnx+eeuopNGzY0AxtzjjjDLPFDW+ZEt9ScONSCm58xwpursd0Bjf+bRG0cxRSspLNceH7f8bkhXUxZ4EHM/xaYlHoG4hJiUBufr45vjjsmPib4G/QfGhz1PuoHoYFDLPHVJ7ERD+sXXsh/P1Pwa5d7xoHYas1kYhIaSm4cSkFNyIiUgrsdHjKlCm45pprzMCmdu3a6NatG4YOHYpDh1SXqAwKblxKwY3vmLdKBV+PKXM8WLKKwc3Iv4ObbQen4+dFbcynTS3182DG4saYHXQXDsatRUmim/iMeDOsaTa0GRp92ghfB31tj6k8mZm7EBk5Env3for4+EVGJSvFHiMiUjoKblxKwY2IiJQAOxuOiYnBsGHD0KlTJzOwYXBz3XXXmbdHJSYm2u8UX1Nw41IKbnwnOycFC9c8iJEzPZixogc27v8dGYfTzXHJGZHYdmAKZq6+HrMXeYz1YLznzzpYEHgtthqvZxRTY4lJjzE7JD5pyEnmMCJkhD2m8uTlZRs7eyyys6PM0CY/P9ceIyJSOgpuXErBjYiIlABb2gwcONDsx4aBTd26dfHkk09i2bJlyMjIsN8llUHBjUspuPGd3LxshEXOwvItA7Bh9w/2rVBH1kS2RP6JP9c9jgXLWmHeQg+mzfNg/upLELp7lPH+3cjJKzwMiUqNwocrPjRDm5M/Pxlj1o6xx4iIuI+CG5dScCMiIiXA4ObVV19FkyZN0Lp1a7zxxhvYsmWLPVYqk4Ibl1Jwc+wdTIrAyi0DsGBle8xb5DEDnOlLTsWSje8iOeMv+11HOpB8AP0X90fdj+qa4c2YdcciuMk3W9lYLW3yzH+LiJSFghuXUnAjIiIlkJeXh40bN5qtbj766CNER0fbY6SyKbhxKQU3x15ePpCUGYvN+yZi9oqumLXAg9/nGcOKSxGTXHgh+EDSAQzwG4DmnzdHh2864OdNP9tjKs/hw/FISvJHQsJipKeHGQfkTHuMiEjpKLhxKQU3IiJSiLi4OLNFTWRkpP0KkJuba/Zlo/5sji0FNy6l4MZ38o3/UrMzEJMWj8TMVOTksVVK0dIPp2LPXwswZ/UNmLi4C4LCv0J6Vrw99kh8rPjq/avNR4L/uP5HbIup/MJycnIANm26A2vWXIT9+79AdraScxEpGwU3LqXgRkRECggNDcVLL71kdjz8/fffG3WEbHuMVAUKblxKwY3v5ORlYuve7+Ef+gpCIz7B3tggZOUW3yol/NAirNv7G5Iz/0mjUzNjsCN6BWLT/kmt8/LzjN/IQXZuNnKL6AvHl+Li5sLfv7lRbvcgLOwZZGbut8eIiJSOghuXUnAjIiK2rKwsLF68GP/5z3+M00Id45zuwTPPPIPY2Fj7HVIVKLhxKQU3vsPHgS8JvgZTZvNx4K0RGPEtkrNK3zQwLSsOm/f8gDmBNyFw2wc4mLAB2bnHvkYTH78AgYFtsXSpBxERLyEz86A9RkSkdBTcuJSCGxERMTCcmTx5Mq655hozsDnuuOPQtWtXfPPNN+ZjwKXqUHDjUgpufIfBjV8FBDcRfy3DouBbMX9xLcxb0ggL1zyAbYeWIDs3C4fz8sw+co4FK7hpZwc3Lyu4EZEyU3DjUgpuRERqtPz8fBw4cABDhgxBx44dzcCGw7XXXovZs2cjJSXF7NtGqg4FNy6l4MZ3GNwsDemFaXM98PNvj6AdI8sU3EQmhWHxuifMDosXLPRgybKGmLbyYny/+kWM2zAey/cFISat8pNsBTciUlEU3LiUghsRkRotODgYL7zwAk4//XSzpU3jxo3Ru3dvrFq1yrx1SqoeBTcupeDGdyoquDmcm4N9sSuxPPRZTF3UDAv/9GDOAg+GTK+LV6d1w/t+/bH6YKj97sqj4EZEKoqCG5dScCMiUiPx8d7r1q3Dk08+ibp165qhTadOnfDBBx9g8+bN9rukKlJw41IKbnynooIbR2J6FPw29cf0pe3g5+fBwkUejJjpwaDZ52Fh2C/Iz6+cHc+h4EZEKspB4/Dx8MMKblxn+XLgggsU3IiI1DAMbhYuXGjeEtWwYUP06NEDo0ePNh8DLlWbghuXUnDjOxUd3FBWTioCI8ZgxsoLsWhpHSxc7MGMhR6s2dIHWVkH7HdVjvj4+QgIaGOGSBERLyq4EZEy27EDuPfef4Iboyyo4Kaqy88H5s8Hunb9J7jZutUeKSIi1V1GRoYZ1jz99NPG6WC+2Z+NVH0KblxKwY3v+CK4oZSsJGyLnI+l6x/BwqXH48+FHmzccDWSkwONcnSe/S7fi4ubh9WrW2HJEg/Cw59HZmblBkciUj0kJABjxwLt2lnBjVGWUHDjBnv2AG++CTRuDNSqBTz1lIIbEZFqbMuWLUaZP9z+l4UtbHbu3FlpAYCUn4Ibl1Jw4ztWcHMdZsz1YKn/GeZTpZKyjBpKBcjJB/bHr8O2nYMRGno39ux+F5mZuys1uElODjbK6A9g/forceDA18jOjrXHiIiUXEAAcPPNVmjjBDf+/myGbb9Bqh62tvn5Z6u1jbPiXngB2LvXfoOIiFQXmZmZmDFjBh544AG8/PLLZt82Obq64loKblxKwY3vMLj5M+hGjJvhwR/L2yJ45/dIyU62x1aMvLwspKSsQ3r6dvsVy+HD8T6/derw4RgkJPghNnYuUlO3GNOSaY8RESm5X34BmjWz6v6tWgH9+gH79tkjpWpicPPee0CDBtZtUmecAYwZA+OEZL9BRESqA1byx40bh4suusg4T3vQrl07jB8/3gxzxJ0U3LiUghvfyc5Jw7JN/fDTn+3wR9A9CI9chKwcXxzkjAK0OViys//CgQPfYOfO/khN3WyUr3PtMb7A3+Vl8X9+X0SkNHibFO+0YXDz/PPA9u1qbVPlOcFN7drASSdZaRtvneLrIiLievnG8Xzfvn34+OOP/37Ud506dXDnnXdi2bJlanHjYgpuXErBje8wMElI24WD8QGISd6CjOxE8yDoS3l5OTh4cASCgs7CqlXNsXnzPUhMXGqPFRGper791gptOIwebb8oVRvPZR98YCVup50G/PADkJ5ujxQREbcLCQlBnz59cOqpp5qhDZ8c1bdvX6xZswbJyck+r9OI7yi4cSkFN9ULw6Lo6ClYu/YCLFrkMZ/4tGHD9cYO+itycsrfMbK3/Pwc4ztTjCEJeXkZxr91iVxESm/o0H+Cm6lT7RelavMObtq0AcaPB9LS7JEiIuJW7Gx4+vTpuOeee1C/fn0ztOnYsSM++ugjRERE2O8SN1Nw41IKbnyLWTTjjMqMNHJz0xAd/TtCQ6/H8uUnmAFOUFBXHDjwFTIydtnvKr/MzF04eHAk9u37DPHxi8wQR0SkNLKzgYEDrdDm+OOBOXPsEVK1eQc3p58O/PgjkJpqjxQRETfi7U+zZs1Ct27dzMCmXr16ZgWfj/xmKxupHhTcuJSCG99hC5T4tL04EL8J0SkRSMtKRF4lddzAljfJyUHYuvURrFrVFIsXe+Dv3wIREa8aZeuNZgsZK1Yqu4SEPxEUdDaWL6+PHTteQ2ZmpD1GRKRkYmOBvn2t4ObUU3lOskdI1abgRkSk2klPT8cXX3yBxo0bo0GDBrjrrruwcOFCM9CR6kPBjUspuPGdw7mpCNryAhYu746A9bdh0/6pSMuuvFYpvPc0LS0Mu3e/j4CANmZ4s3JlU2zadKf5JKi8vPJ1WhwX9wdWr25pfm9Y2LPIzPTtU6xEpPrZtQt48kkruOnUCVi+3B4hVZuCGxGRaic3N9eoK6xEv379MHjwYPj7+yObTWOlWlFw41IKbnwnOycRiwJ64rcZHvy5vCn8w4YjKSvBHlt5MjP3mx0Wr117qXnb1NKlHuzbN9RsEVQe8fELEBjYzvy+iIiXjd85aI8RESmZ0FDgvvus4ObSS2EcU+wRUrUpuBERcb3Y2Fjs2LEDaV59lGVkZGDv3r04dOiQ/YpUNwpuXErBje9k5yRhaUgvTJvrgZ9/ewTtGInkrIrtILikcnMzjJ10MjZtuh0bN95qHKhn2mPKTsGNiJTXqlXAjTcCxx0H3HwzsH69PUKqNgU3IiKutn//fgwbNgzPP/88xo4di+joaHuMVHcKblxKwY3vVKXghnJzU5GWtsUccnL+afmTm5tpPxkqy36lZBTciEh5zZtntbSpXx948EFg2zZ7hFRtCm5ERFyJt0OFh4fj3XffxWmnnWYcxmvhhhtuwKZNm+x3SHWn4MalFNz4TlULbgqTn5+FuLi52LPnI8TEzDT+XfLOxxTciEh5sO7/229Aly5A48bACy8AO3faI6VqU3AjIuJK7LfmoYceQvPmzc0nR5100kno378/IiP1kJGaQsGNSym48R03BDfp6WHYtOkOLF9+Ctavv9w4aI82duA4e+zRKbgRkfLgQ/a+/x444wygWTNgwADggPo4dwcFNyIirsK+a6ZOnYpevXqhTp06Zmhz/vnnY/jw4QgLC6u0CrwcewpuXErBje+4IbjJyAjH1q0Pw8+vgfl0qMDAM7F37yfG6zvsdxTNeqrUqViyxIPw8Oegp0qJSGkwuPnyS6BJE6BlS+v/Y2LskVK1KbgREXEFVsx37dqFkSNH4oILLjADGwY3V199NSZNmmQcunXsrmkU3LiUghvfsYKbGzB9rgdL/dshcMeIKhfcALlISVmL8PBnzUeF+/l5sGJFQ+PfLxqvhxoVq6IfAZiQsBghIV2M9zfGzp39kJmpJpYiUnIMbt5/H6hd26r7jx0L47hjj5SqTcGNiIgrHDhwwDjXvo+TTz7ZDG0aN26Me++91yi/rzAO5caxXGocBTcupeDGdxjc+AVfj6lzPFiyqm0VDW5Y/s5FZuZe7N37KQICTjdb0Cxf3hgbN96B2Nh5RuUqw37nkdLStmH37g/MkCcmZqqx41e9eRORqis3F3jtNeNkbpzN27cHpk0zjptFZ8VSlSi4ERFxhfXr1+Pmm2/+uz+bN954A9u2bUNOTsn7tZTqRcGNSym48Z3snGTMD74dI6d5MG1ZB6zbPQHph6tuwTY7OwqHDv2AdesuNW+bYoCzbt2/ceDAN8jM3GO/6x+5uenIyNht9pOTnR1tlON1AhCRkmNw88wzVnBz9tkwjjlWHiAuoOBGRMQVWEn//vvv8eCDD+LDDz/ETj0FoMZTcONSCm58Jyc3C5v3jsOi9U8hOPwzRCaEIievcnaOsmLrm9jYGdi8+W4sW3YCFi3yYNOm24zy+Hr7HSIiFSMrC/jPf6zgpnNnYN06e4RUfQpuRESqJFbKd+zYgWyvJqyZmZkIDQ1FdHS0/YrUZApuXErBjRQmOXkttm17DCEhnbF378fGwV/914hIxUpIAO680wpuunfXo8BdRcGNiEiVwgo4b4v69NNP0bdvXwQHB1dapVzcRcGNSym4kcLk5+chLW27UbH6E5mZ+4x//3MbVF6e9f+8VSo9fafxvq3Iyor6+3URkZLYvRvo1csKbi67DIhUPuweCm5ERKqM3NxcLF261KyIN2vWzOyIeOjQoWYFXaQgBTcupeDG96pTlw1ZWYewb9+Xxg7/C2JjZ2P79qewceNNOHhwJLKz4+x3iYgcHev969cDV15pBTc33QSoBbeLKLgREakSkpOTMW7cONxwww2oW7eucU714Nxzz8XUqVONw7KOy/K/FNy4lIIb3+GjtPf+NQdbd32LXQcnIipxC7Jz3fvIlJycJBw69BNWrz4NwcFdERp6HZYvr2d2ZBwW1huZmfvtd4qIHB0fZrF0KXDRRVZww75uYmLskVL1KbgRETnm2NHw559/bgY1DGyOP/543HbbbZg0aRLi4nRBVQqn4MalFNz4Dh8Hvjj4Bvw6y4OFK9siYMfIKvk48JLKyorEvn2fIzCwg/nEKT8/68lTy5Z5sGNHX2RmHrDfKSJydJmZwIwZMAqbVt3/2WeB+Hh7pFR9Cm5ERI6JfOP4y5Y0mzZtwmuvvYamTZuaoU3z5s3xxBNPwN/f336nSOEU3LiUghvfyc5JxOKgqzB5lgeLVrRCQMQ3SMpKsMe6T37+YWRk7LXDm7PM0IbD0qUMbl4xKmIH7XeKiBwd6/g//QR06ACccALw1ltAUpI9Uqo+BTciIscEK9orVqzAfffdh4YNG5qhzSmnnGIckj9ARESE2d+NyNEouHEpBTe+wxY3S0N6YdpcD/z82yPI5S1uHNnZfyE6+lesX3+tsf14zEeG79zZz9jx3RtKiUjlSjQOhcOHW3X+5s2Bjz8GUlLskVL1KbgRETkmsrKyMGXKFLRu3doMbXr06IHRo0fj4EFdQJWSUXDjUgpufKe6BjeWPMTGzsXWrY9g06Z7EBMzzWyRIyJSErGxwPvvW6HNGWcA330HpKfbI6XqU3AjInJMsEUNH/vdp08f3HPPPZg8ebIZ5oiUlIIbl1Jw4zvVO7ix7rE9fDgOGRk7zI6LRURKKioK6NsXaNAA6NQJ+OUXXkW0R0rVp+BGRKRSZGdnY//+/cYh9p9jLMObLVu2YMeOHfYrIiWn4MalFNz4TnUPbkREysoog+Kxx4DjjgMuvBCYO5f37dsjpepTcCMi4nOsVM+fPx9PP/00fvnlF6R7NU3lBVSRslBw41IKbnxHwY2ISOF27wbuuMM4kRtn8quuAlau5BVEe6RUfQpuRER8KikpyTi0/oiLLroIDRo0wOWXX26GOCLlpeDGpRTc+I4V3FyPGXM9WOrfFoER3yHZxU+VEhGpKGzdfeWVVnBz883Axo1WFiAuoeBGRMRnwsPD8dlnn6FLly5mB8S1a9c2nyKlR31LRVBw41IKbnyHwc2fQddhwgwP5i1vjaAdo5CSpb5gRES2bwfOO88KboyyKPbutUeIOyi4ERGpcOxkOCQkBC+//DKaNGlihjannnoqnnzySQQFBdnvEikfBTcupeDGd7JzUrBkw9P48Y+GmLP6Kmw5MBOZORn2WBGRmis0FGjXzgpu2NcNHw8uLqLgRkSkwrC/GoY28+bNw6233ooTTjjBDG1YRxs0aBB2795tdkgsUhEU3LiUghvfycvPQUzyJuz5ax4OxQciNTPaeC3PHisiUnOtXg2cdpoV3Dz7rPq3cR0FNyIiFSY2Nhbfffed2Z8Nb4tiaMOK9bhx4xAZGWm/S6RiKLhxKQU3IiJS2di/YsuWVnDz+uv2i+IeCm5ERCoMg5tHH33UDGzq1auHe++9F3PnzkVGhlrqS8VTcONSCm5ERKQy5eQAkyYBJ59sBTes/4vLKLgREakwrDyPGjUKV111FZ555hmsW7fOHiNS8RTcuJSCG1/Kx+HcNGQfTsLhnBTk5mUbrxiFXRGRGiw5GfjuO6BZM6B2beCLL+wR4h4KbkREyowtadLS0pDDKxm2qKgobNmyBfv27VN/NuJTCm5cSsGN7+TkpCFk29tY4H8dAkIfwbaDfyD9cJo9VkSkZjLKC/j4Y6BpU2sYOdIeIe6h4EZEpEyio6PNetfgwYP1pCg5JhTcuJSCG9/JPpyIef498eMUD2b7NcGqsK+QlJlgjxURqZn27AH69QMaN7aeLDVxoj1C3EPBjYhIqW3btg1vv/22Wfc68cQT8cYbbxiHTh07pXIpuHEpBTe+k52ThKUhN2DaXA/8/NshaMcIJGfpmbciUrNt3w707g00bAh06wbMmGGPEPdQcCMiUmJ81HdwcDCee+45HH/88WYnxKeeeiree+89JCTooq5ULgU3LqXgxnes4KaXHdy0R9COkQpuRKTGW78euP9+4IQTgCuvBBYvtkeIeyi4EREpkZSUFPMJUTfddNPfj/pu3749hgwZgoMHDyIvL89+p0jlUHDjUgpufEfBjYjI/1q9Grj+eqBePeD224HAQHuEuIeCGxGRYrGC/PXXX+PCCy/8O7S54oorMGnSJPMR4CLHgoIbl1Jw4zsKbkRE/teSJTAKsdYTpR55BNi0yR4h7qHgRkTkqNjxcL9+/dChQwczsGnUqBEeeughLFiwoNIqyyKFUXDjUgpufEfBjYjI/1q0CEZB1qrzv/CC1VmxuBAfDabgRkSkUJMnT8ZZZ51lhjZt2rTBq6++inXr1tljRY4dBTcupeDGd5zOiaerc2IRcYncXCAtzaqD+2Lgd//8M9C8uXESN87i77wD1MjW4iwoFbaA3DBwJaakWCtPwY2ISKG2b99udkZ87rnnYujQoYiMjLTHiBxbCm5cSsGN71jBzfV2i5u2CFRwIyJVGO9+CQ4GvvoK+PRT4LPPgCFDKnYYNgx44AHguOOs4IavZWTYE1BTMPhgsyOjIO+zBe3L4YsvrGm+9lprJTK4+eknBTciUqOxk2HvSjD/PywsDMuWLTMryiJVhYIbl1Jw4zsMbuYHXo/RUz2YsfQ0hOz8HqnZyfZYEZGqg6FNeDjQr591G9NppwGnnAKcfHLFDfy+Vq2sp0mxvs/hu++s364xWEBasQJ46CGgXTvfLGhfDy1bWn/r1rVWYosWwIQJNTCBExGxrF+/Hp988gl+/PFHpDGcF6nCFNy4lIIb38nJzcCGnf/F/OC7ELC1H/bFBSA7N9seKyJSdfAWqVmzgJ49rbo4n/jEPKFNG6B164oZmFFw4P8zHLr8cqvhSY2Snm6lVe3bWwu6QQPg1FMrdkH7enBWIqf5zDOBW28FVq2yNiIRkRokIyMDS5cuxWOPPWacN+uhe/fuCAgIqLTKsEhZKLhxKQU3vpWXn4PcvCxjyEZ+fp79qohI1ZKTYzWa6NIFqFMHxgkdeO894JtvrNubKnL4/HNgxAief4D4eHsCagreTjR8uHV70fHHAzfdBHz4oW8WtK+HL78Evv0WWLhQt0mJSI2Tahz3pkyZgiuvvBLsgJiP+77sssswc+ZMpDOkF6miFNy4lIIbERHJzrbq4MwTmjUD+vcHwsKAxEQgIaFiB4Y1SUnWb9Y47NSXfdvwdiMOgwcDu3f7ZkH7euCK5HRnZdkzJyJSM8TExGDYsGHo1KkTatWqZQY3N910E2bMmGGOy1ULRKnCFNy4lIIbERFh3fuTT4ATT7TugmGIoy5LfCA52XqMNh+rxVuN2PRIwYeIiGuEhoaiX79+aN++vRnYNGjQAE8++SRWrlypW6TEFRTcuJSCG9/JyzuMyLiViNg/Gfuj/0Bc6m7kGK+JiFQ1DGnYyoa3SbH7lXHjdPeLTzC4+eADoEkToG1bK7jhayIiUqUlJSXBz88PjzzyCOrWrWuGNgxv3nzzTfPR3yJuoeDGpRTc+E724STMD74dP8ysjVnLz0bwzrFIzVIBXUSqHt6O//zzxonVOLN27Gh1VFwjb2XyNd4j9s47QKNGME6+wA8/WLdPiYhIlbZ3717079/fDG3q1KmD8847D8OHD0d8jeusTdxOwY1LKbjxneycRPwZeBV+meHB/OUtsTriGyRnJdpjRUSqDj69lE+oZnBjlEXNJ1bXqMd0Vxb2DfPmm9Yz0c86Cxg/3lr4IiJSpWVmZuKXX35Bx44dcfPNN2PatGlIZD9fIi6j4MalFNz4TnZOEpaF9MKMuR4s9W+PoB0jFdyISJXERh98qjODmwsvBDZutEdIxeKV2VdfBerWtZo2TZpkNXcSEZEqp2Anw4cOHcKsWbPg7+9vBjkibqTgxqUU3PgOg5ulIb0wba4HfgpuRKQKi44GrrnGCm4uvRTYt88eIRWLwc0LLwDHHQd07gxMnapeoEVEqhg+zptPiBo5ciQ2bdqELHUiL9WIghuXUnDjOwpuRMQtIiKAK66wghsGOHFx9gipWFywvXtbC5r3pLEzIV21FRGpMthnza+//ooLLrgATZs2xdtvv43IyEh7rIj7KbhxKQU3vqPgRkTcIiQEuOgiK0+4805At+37SGws8OST1oI+/3zgjz+Mk4V6gRYRqQr279+Pjz76CJ06dTIO0x6zE2I+RSo8PNx+h4j7KbhxKQU3vqPgRkTcgLfwL1pkNQBhnvDYY3pCtc/ExMCoBVgL+oILeBKGUWqyR4qIyLESHByM5557DqeffroZ2jRr1gzPP/88Fi9erE6IpVpRcONSCm58xwpubsB0s3PidgjcMULBjYhUOexiZcoU4Oyzra5XXn4ZSE21R0rFYmdCRkHJDG4uvhhYtsxKzkRE5JhIS0vDwoULcd999xnnwOPM0IYtbgYNGoSwsDD7XSLVh4Ibl1JwU3p5eVlGObv4Wg2Dm0VB1+CXmR4sWNFKwY2IVElsXTNmDNC2rfWU6oED9YRqnzEKS7j7biu4YS/Q/v48qdgjRUSkMiUkJGD8+PG4+OKLzcCmbt266NGjB8aOHatWNlJtKbhxKQU3pZOXd9g4kK/EoUPjkJq60fh30X0TZOekYPHa/8OPs2tj7qpuCN33K9IP6zK2iFQt7C93yBDg1FOBFi2Azz/Xg458JioKuO02K7hhb9DBwfYIERGpbKtXrzY7IXZa2tx8881YsGCB2QpHpLpScONSCm5Kh2FNePgLCAzsjNDQ6xAd/ZvZAqcwefk5iIoPwI6Dk3EgZiES0/cjN09N4kWkajl0CHj7beCkk4D27a3WN3ryqY9wYd94oxXcXHUVsGGDPUJERCrbtm3bzM6HO3fujCeeeAJBQUHI1e2rUs0puHEpBTelExs7E+vWXYJFizzmsHZtT0RGjkRGxm77HSIi7rJvH/Dcc0CDBsC55wK//ab+cn2Gwc2111rBDf9u2WKPEBGRypCfn2//Hy9SZBnl+nXm4783KEiXGkLBjUspuCmd6OjJxgH+Ivj5ebB4sRXe+Pufil273jMO/pH2u0RE3GPnTuA//wHq1AF69gTmzQNycuyRUrEijfOEUVgyg5sbbgD0iFkRkUqxZ88ezJ07F3PmzMGBAwfsV0VqHgU3LqXgpjTyERU1ASEhXc3gZunSWli2zIMlS2ph7dpLzL5v8vOP7GSSfeLk5GYhNy8beflqeikiVc+2bcBNN1lZwvXX855/9ZfrMwcPApdcYi1sLnSjIiEiIr7F0GbgwIFo27YtunXrhtmzZ9tjRGoeBTcupeCmNPKNMvdI+PufgmXLamHjxlsREdEXW7Y8ip07+yEjY5f5HkdOXg5Cwodg7uq7sGrTi4iIWorMHPX4KSJVy8aNVksbZgl33aW7d3yKV3kvuMBa2LfearXAERERn/H398czzzyDVq1aGYdeD0466SSMGzcOebpCITWUghuXUnBTGvlISgrE7t0fYNeuAYiPX4T09B1mh8UZGWzu/k9ok5+fi5S0cMxYeSFG/O7BtMXN4R/+HZKzkux3iIhUDWvXAmefbWUJjzxiZQviI3v3At26WQv79tuBmBh7hIiIVKTk5GRMnToVd911199PjerSpQsGDRpk9mfj3deNSE2i4KYEuJBCQkKwZMkSLF++HGFhYWanWCXFz69ZswZ+fn7mdwQHB2P//v3lOvAouCm7grdFOdLTI8ynTe3c+S4WrmyH2fM98PNvj8AdI5CclWi/S0SkaggIsB4FziyBnRSnpNgjpOKxQ6HzzrMWNps3JSnMFxGpaJGRkRg1ahS6d+9uBjbHH388rrzySowdO9Y4x+kkJzWbgpti7NixAx9//DGuuuoqdOjQAZ06dcKjjz6K+fPnGxX9dPtdhWMww5Dns88+w/XXX29+9pxzzjEX+FtvvYWNGzeWubmfgpuKd+jQOAQHd8Ty5Q2wxO84+C1hcHMmAneMVHAjIlXOkiVAkyZWlvD66zzn2COk4rFDIT66iwv7nnuY9NsjRESkvFhnYn8277zzDlq3bm2GNrVq1TIrqLzonZGhLgtEFNwcxcGDB/Huu++agcsDDzxgBjivvvoqLr30Ulx99dVYuHCh/c7CRUVFmQHNuUZh7/HHH8eQIUPMoOWxxx5Djx490KdPH6xfv95+d+kouKl4fGQ4OzBevMhjhjbLl3qwRMGNiFRRM2YAjRtbWcLAgfaL4hvsUKhLF2th33cfkJ1tjxARkfJKSkrC0KFDcfrpp5uhDfuzeeONN8x6Uo4elyhiUnBTBCa/kydPxsUXX2yGNMuWLTMXEMOYTz/91Owoq2/fvkU+li43N9e8NYqfv+iii8xbpZwDT2BgIO6//36ceeaZ+PHHH83XSmvRokUKbkosH+np2xEXN884Mfgb5e1o87WCsrMPGTvEL9i06VYErmqCoGUeBASehaCdY5GUlWy/S0Tk2OPp5KefgEaNrCzhs8/sEeIb7FCoUydrYfMZ7KpIiIhUmNTUVIwfPx4XXHABzjvvPPNuhb3sW0xE/qbgpggMWV588UWztcyIESOQmZlpj2GL6W249dZbce211xb5WDp+fs6cOeYB6LbbbjOTZAfDH6bIbMnzww8/2K+WzooVK8zg56uvvrJfkaKwT5sDB77GmjU9sXXrg8a6WGW8VsQjvvPzEZewDDNWXoyvpnowya8zAnZPRephNdEUkaojORkYPtwKburUAb75xh4hvsEOhc45xwpu2BO0ghsRkXJhlxPerWl4O9Qvv/xiBjhpaWn2qyLiUHBTBCa/DFy6deuGpUuXmi1wHLyF6s033zRb03z33Xf2q0fi+8PDw/Gf//zHbHHD3tEZ2MTGxuL33383v/uhhx7CqlWr7E8Ujgcxfm737t1/D1xpPKidccYZRmFdpfXiMKSJiHgJixcfh6CgDoiL+6Po4MaQmp2MV+f+B20+8eD+n8/D8j2LcTiv6PeLiFQ247SA998HGjYEWrSwWt+IDy1f/s8jvJ58UsGNiEgZsX/PnTt34rfffjvijgTKzs4u1QNgRGoSBTdFYFjCW6QuueQShIaG2q9aoqOjzf5q2JTvk08+sV/9X1ygK1euRO/evc3e0fldPXv2RNeuXXHfffeZrWaK6+CYt1W98MILZssdZ2BgxI6SGxol9p9UWi9Wfn4Otm9/EgsWeBAQ0Bbx8X/yVWtkIdIOZ+LhGY/D85YH543siiW7lyLPK7gTETnWdu0C+vYFGjSAcT4Afv/dHiG+sXgxcNZZVnBjnNORqzBfRKQsWDdilxFnn302XnnlFfNCt4gUT8FNEXhfJR8/d8UVV2Dr1q32qxa2mvnyyy/N26gGDx5sv/q/2Opm7ty5uPvuu82wha1s7r33Xlx44YXmU6omTpxoftfRbNmyBcOHD8czzzxjDgyBGOTcdNNNaNq0Kb7//nv7nVIUBjfbtj1qBjd8alRi4tFbOaVmp+Lp2b3hGVgLF4y5GEv3LENeEY8QFxE5FjZvBh57DDjhBBjnFOCPP+wRUvEY3M+bB5x5phXcGOdgBTciIqWTnJxs3nVw4403GodSjzmwXsS6jogUT8FNEZwWN2whU1SLG95GxY6KC8POideuXWsuWAZAU6ZMMcMgfnbatGm44447zKdT8QBWFnqqVMnl5x/G1q0PYP58BjedkZKy1h5TuKycLEzcOBFPzn4Sn678FGGxYWYIJyJSVYSEAHfeaQU3110HLF1qj5CKx2b8s2YB7dtbwQ2bOim4EREpsX379mHkyJHmHQgMbI4//nizfjRhwgQkJCTY7xKRo1FwU4Ty9nHDTrXYI/rll1+OQYMGmX3VOHj/5s8//4w2bdqgX79+5r2epcUnVrFzYgU3xcvNTceWLfdg3jyPUdk511g3R7agKijf+C8rN8tseZNxOAO5R+kPR0TkWGCXK1ddBaPwC9xzDxAcbI+QisdHf0+dCrRrZwU3r7+u4EZEpARYueRDXVhvOvXUU83Qhl098FYp3jLF/mx0cVSkZBTcFMH7qVJMiL2fKrV9+3Yz1DnaU6VSUlL+DncKe/LT/Pnz0bp1a/O2J7bOKS09DrzkcnISsGnTHWZws2bNecjI2GWPERFxJ+MUgu7dgfr1rb5yC9zRKxWJ5/9ffwXatrWCm/79FdyIiBSDF6YXLFiABx54AM2bNzdDm1atWhmH0P7YvHlzmS5ci9RkCm6KwPR38uTJZvDCW6aWL19uLiDeQsWWNDzwvPzyyzhw4IB5zyZbwLB3dOc+TbaqGT16tBn83HLLLUf0mr5hwwY8++yzaNmypXnLVVkOXLpVquSysiKxceMtZnCzdu0FRhl8vz1GRMSdpk2zGoDUqwe8+iqwZ489QioeH0s7fjxw+ulArVrAgAGskdgjRUSkINaj+CTcp556ygxsOPAhLV9//bVxvtIJS6QsFNwcBW+Jevfdd9GpUyfzsd58gtSrRgn5sssuM8OchQsXmu/btWuX2Wkwn/jk3VkwQxwesM455xw88cQTGDp0qBm0PPnkk+Y9nmwmGBAQYL+7dBTclFx6ejjWrbsMc+awxU03ZGUdsMcUjrdGsV+bxbsXY23kWiRmJJq3T4mIVBUTJwJNmljBzaBB7DTfHiEVLzkZ+OEH4LTTgDp1rAWu4EZEpEgMbiIiIswL1ayvXH/99eYFce+uI0SkdBTcFGPHjh34+OOPzQ602KcMQ5xHH33UvNXJeZQ3k+M33ngDN9xwg9l3jYMHrXXr1uGdd94xgx5+tnPnzuaTql577TUEBweXuZmggpuSY3CzefO9WLr0FOPv3cjOjrLHFC7tcBr6L+6P0748DXf8dgcC9wfqqVIiUqWMHm01/qhbF8Z5AEZh2B4hFS8xERgxAmjVyupUyCgTKLgRETkSK5LO3QXEriCWLVtmXtQOCQlRaCNSTgpuSoBPguITong71IoVKxAeHm52puVg/zdsdbNp0yZzgXpjMBMZGWneKsWDFwcevNi7ennu7VRwU3LsnDglZQNiY/9EcnKQsdz/6a+oMOyU+JHpj8DzpgddRnTBkl1LFNyISJUyfLjV3QobgIwbxwsF9gipePHxAPuqa9kSaNwYGDpUwY2IiBdWIufNm2fWlZwL28Q6EruUUAfEIuWn4MalFNz4DoObR2c8Ck9/D7qO7IoluxXciEjV8tFH/wQ306fbL4pvxMQAn38OnHIK0KyZlZopuBERMSUmJmLs2LHm3QW8Q+Gnn35S6xoRH1Bw41IKbnyHwc3jMx+H520Puo3qBr/dfgpuRKTKYEv0t9+2gpsGDQC7uzXxFbak/eQToEULq9XNt98quBERMbAD4i+++AIdO3Y0OyCuX78+3nvvPaSxU3cRqVAKblxKwU1J5SM//zByc1ONIcUoa/MWt6M311RwIyJVWVwc8NJLVnDDbleWL7dHiG8cOmR1SNy8OdC6NTBypO5NE5EajX3Z8CEsfGjLiSeeaIY2jRo1Mh/GEhTEbglUbhapaApuXErBTcnk5R1GauomHDw4Anv3foaEBD/jteL7uFFwIyJV1a5dwOOPW8FN585AGR9OKCV18CDw7rvASSdZz2DnE6YU3IhIDZWdnY1FixbhnnvuQZMmTczQplWrVhg8eLD5UBeOF5GKp+DGpRTclAw7Jo6JmYr16/+NwMAO2LPnY+TkJNtjC6fgRkSqstBQGAVmK7i5/HJg7Vp7hPjGvn3Am28CTZsCHTqoN2gRqbH27t2LMWPGmP3ZMLDhcPHFF2P06NE4xNaJIuIzCm5cSsFNyfD2qMjI0QgIOB3Ll9fFzp39kJOTaI8t3N+dE7+lzolFpOpZGQxcfaNxMj0OuPEOYFO4PUJ8IzISeP11oEkToFMn4JdfFNyISI00Y8YMnH322WZgw1ujbr/9dkydOvWIx4CLiG8ouHEpBTclk5OThAMHvjaDm1WrmmLPnkElanHjBDfnjjxXwU11xnuw2aQ3MxPgI/41aPDxkJ+ZheyULKTFl35IT8hCalwWZvyWhcsvzMKJ9bPwxINZiNhsfHf2//6WhgoYeHzYvh3o0wdGLQU47zxg8mQFNyJSI02ZMgVdu3ZFixYt/u7PRkQqh4Ibl1JwUzKHD8dj797PsXp1K2M4Ffv3DzVb4RxN+uF0vP7n62g+pDlu+vkmrN6/WsFNdZRibAdr1gBz5gDTpvEykgYNvhtmWkPOlBnY998ZWDdwBtYOMAb+LeGw4f0ZWGN8ZuI9M/BMixl48IQZGHPzDESPNr77D6/f0lAxw8yZxnL9AxgxArjuOqBuXeDCC63jhYhIDXTw4EHjEDgNI0eOxIYNG9QJsUglUnDjUgpuSubw4Tjs2TMY/v4tEBDQxmx9wydMHU1OXg7WHlqL37b8hiW7liAmLYbPprLHSrXAq+V8hvIttwA9ewLnnw90765Bg++G8+2hR3ekntUdf7XqjkOnlm4wP9OyO3Y27o4Nnu4IrdUdB07ujuzOxvdeaP+OhoobeFxgUHPOOcCJJxqlF6P4csklVqAjIlLNsc+aZcuWYf369UfcCsUKY1JSkv0vEaksCm5cSsFNyRw+HINdu94xb5MKCjoTkZFjzA6LpYZLSwM++cSqiDlDnTpA7doaNPhmqGMMx9VGtqc2Uo0h2RhijSGuFIPz/gRj4OezjAF17e8u7Dc1lH847jjr2HD88UCzZsDTT8OoxdgHEhGR6mn79u0YNGgQbrzxRjz11FPmo7/zdYuoyDGl4MalFNyUTHb2X9ix4zWsXNkQwcHnICpqAvLyMuyxUmOxs9G33rIqZqyUXX898NxzVj8WvXtr0FDxw/O9kf5wb/zRujdGeXpjUqPeCDqvNzb1LP2w+VLr755evZH1mPHdfeyhsN/VUDHDM88Ar7wCzJtn9YklIlINZWVlYc2aNXj22Wf/ftT3+eefjyVLliA3N9d+l4gcCwpuXErBTclkZUUiPPxZLF9eB8HBXRAdPRl5eVn2WKmxdu0CXnjB6rOifXtg4kQeDYGoKA0afDP8FYWd/lG4tnMUWnqi8OA11r/TdpZ9yNwThbzIQn5LQ8UPfMxtdDSQoeBfRKon9lczZ84c3HTTTWjYsKEZ2rQ3ykiffPKJcRiMUosbkWNMwY1LKbgpmczMfdiy5X4sXuxBUNDZiImZbpx4su2xhcvOzcb0rdPNDoq/C/4OOxN26mRV3WzbBjz5JFCvHtCjB7BypT1CxDd4nXJxMNDyLOvOvPufBhQBiIhIVRAfH48xY8bg4osvNgMbDtdccw0mTJhgdkgsIseeghuXUnBTMnyq1MGDo7B164PYtWsgUlI2ID//6E09+Tjw3nN6w/OeB5f8cAmW7Vmmp0pVN+yjwjjomcHNFVcAy5bZI0R8IzkZGDkSOPVUY7OrDwwYYI8QERE5RtLT083Ohz/88EOcddZZZmDD1jb33nsvFixYcESnxCJybCm4cSkFNyXDljK5uVnGiSfRHPLy2Nrm6K1nGNw8OuNRePp70HVkVyzZvUTBTXUTEADcdhtQ36hB9+oFrF5tjxDxjT17rC5S+HCitm2BH36wR4iIiBwjbE0zYMAANGjQwAxtWrZsieeeew6bN2+23yEiVYWCG5dScOM7DG4em/GYGdycN/I8+O32U3BT3bCFzbXXAiecANx9N7BmjT1CxDfWrQNuvtnqC/uqq4BFi+wRIiIix0hkZCQGDhyIRo0aoVWrVmZ/NgcOHLDHikhVouDGpRTc+A6Dm8dnPg7P2x50G9VNwU11tGAB0LMn0KAB8PDDwMaN9ggR3/Dzs/rBZv827F4pIsIeISIicoxkZmYiKCgIgwcPxo8//mh2QiwiVZOCG5dScFMyfPR3aupGJCWtQkbGLvtWqaNTcFMDzJoFdO1qBTd8BHhYmD1CxDcmT7a6VGJwM2gQkJZmjxAREakkW7ZswaJFi4xycZL9iiUmJkaP+xap4hTcuJSCm5LJytqPiIiXsGHDjThw4GtjI4+3xxRNwU0NwFp0hw5Aw4bAq68Cu3fbI0QqXnY28OWXVmjDW6XUv42IiFSmjIwMrF69Gk8//TR69uyJ33//HampqfZYEXEDBTcupeCmZNLStiI4uIuxvOpi+/YnjApUtD2maApuaoAJE4DTTgMaNbIe76NHXYoPMRd8/nkruGnTxmrwJSIiUhnS0tIwffp03HDDDahfvz5OOOEE9OnTB1u3brXfISJuoODGpRTclExqaihWrz4N8+Z5jBPUw8ZGfmTT0MJ4d06sp0pVU2PGAE2bAo0bA59+yjbC9giRird8ufXwsrp1gWuu0UPMRESkcrDPmmHDhuGiiy4ynxrF4eqrr8bUqVMRFxdnv0tE3EDBjUspuCmZlJQ1CAg4HQsWeBAW1hu5uSXr4+aRGY/A86YHXUZ0wZJdCm6qnW++sTocadIExk4EJCfbI0Qq3qRJQLt21p15bHkTHm6PEBER8ZHQ0FD0798fbdu2NQObk046CY8++igWLlyIrKws+10i4hYKblxKwU3JJCX5IyDgNDO4CQ9/Afn59oijyMjJwDfB3+CGn2/Aawtfw6a/Nim4qW4+/9y6b4XBDTscUQFGfGjo0H9ywq++AhIS7BEiIiIVKN8o6CYYJ5mVK1fiscceQ926dc3Qpk2bNnjjjTewefNm+50i4jYKblxKwU3JJCQswerVp5rBTUREX/vVo8s3/kvJTkF0WjQSMhNwOLdydgypRB9+aAU3vF2KzSFKkuiJlAE3rVdesTa3U04B5s7V5iYiIr7BJ0OtWLECvXr1Qp06dczQpmPHjvjuu+8QGRlpBjsi4k4KblxKwU3JxMX9gdWrWxrLy4OdO/vZr0qNxw6JWZM+6ST1FCs+ZZST8cAD1uZ29tnA+vX2CBERkQrGYCY4OBjnn3++Gdpcc801Zn82bIUjIu6m4MalFNwULz8/DzExU7F69SlYvNiD3buNyroI9etn1aSbNYOxcdgvilSs3FyrY+KrrrI2N3ZQvGuXPVJERMQHYmNj8e233xpFnX5YsGCB/aqIuJ2CG5dScFO83NwsHDo0FitWHI9Fi0oe3LA/m/3J+7E+aj0i4iLMzoqlGsnLA15+2apJt2gB+PvbI0QqVno6MHYs0KEDcMIJ1mZ36JA9UkREpJySk5Oxfv167N279++KHFvd8HV1QCxSvSi4cSkFN8XLzU03KknjERjYFitXNsb+/V/aY44u43AGhvgPwSXfX4Lec3pjXdQ6dU5cnaSmAn36WMFNq1ZASIg9QqRiJSUBb78NNGoEtGljPcyMr4mIiJRXeno6JkyYgBtuuAGvvfYatmzZYo8RkepIwY1LKbgpXn5+DjIydiImZjqioiYY9fWN9pijYwubJ2Y9Ac87HnQf3R1+u/0U3FQnxkEPjz9uBTdsCqFOR8RHYmOB++8HatUCzj8fYIv1SjrPiohINXbo0CF8+eWXOPvss43ijAennHIKfvzxR3usiFRHCm5cSsFNWZSsJ30GN4/MeASetzzoMqILluxaouCmOtm9+5/eYrt1AzaWLNATKS32Z9Ozp7WpXX+9+rcREZHyW7Nmjdl/zRlnnGGGNieeeCIefPBB+OvWb5FqTcGNSym48R0GN4/PfByetz3oNqqbWtxUN1u3AnfeadWmL7sMUNNi8QF2pcSOiTt2tDa1hx6y+rwREREpi9TUVCxatAgPP/zw34/6Zl2AIU5YWJj9LhGprhTcuJSCm5LIN2+XysvLMv5y4y5Z+KLgphrLz+elKuCmm6za9A03wCjt2CNFKk5yMjBmDNC6NXDccUD//laYIyIiUhpOZ8Pjx4/HZZddhlq1ahnnlePQvXt38+lRfIqUiFR/Cm5cSsFN8XJyEpGYuNx8slRMzDRkZu61xxydgptqjDXnFSuAq6+2gpu77gJ27LBHilScffuA118HmjQBTj8dGD3ayg1FRERKgy1thgwZgg4dOpitbDjccccdmDVrFuLj4+13iUh1p+DGpRTcFC8jYzd2734Pa9f2wObN9yIhwc8ec3QKbqqxnByrh1h2PMJmELx/hX3eiFSw0FDg1luBOnWAK64AFi60R4iIiJQCnx71zjvvmLdHNW7cGL1798aqVauQm5trv0NEagIFNy6l4KZ4qalbsHXrw1i+vA5CQs5DbOxse8zRMbh5bOZj8PT34LyR5ym4qU6ys4Fp04Du3YH69WGUfqymESIVjP3b8KFlbNj1yCNAeLg9QkREpBR4q1RwcDBef/11sz+biIgIe4yI1CQKblxKwU3xUlNDsWXL/Vixoj7WrbsU8fElu+TN4Obh6Q/D86YHnUd0xuJdixXcVBdZWcDEiUCnTkCjRsCrrwIHD9ojRSoO88F69azg5t131TGxiIiUTGJiInbu3ImYmBj7Fd7pnYeEhATExcWZQY6I1DwKblxKwU3xUlLWYtOmO8zgJjT0euNEuMwec3QMbp6Z/Qw8Azy46PuLsHTPUgU31UVGhtVjbPv2QLNmVo3aOAiKVCRuZl99ZYU2HL77zh4hIiJyFHv27MHAgQNxyy23YOzYsfarIiIKblxLwU3xkpODEBraC8uX18OmTbchKSnAHnN0h3MPY9meZfhv0H8xdetUHEw+yOdT2WPF1djsgTXqVq2Ali2BTz4B9DQGqWB79wIvvWR1o8TNbOpUe4SIiEgRgoKC8Oyzz+KUU04xOyBm5eygWgWLiE3BjUspuCleUtIqrF9/JZYvr4stW+41W+BIDZeWZoU1bG3DR/1w/0lIsEeKVIxVq6wnzrMbpauush5kJiIiUpiUlBSzXH///febgQ2Hs846Cx9//DH28kqAiIhBwY1LKbgpHm+NWrv2IrNzYnZSnJq6yR4jNVZqKjBgANCggXW71A8/sGmWPVKkYvz+O4xCt7WZPfMMsH27PUJERMRLdHQ0JkyYgEsuucQMbGrXro3u3bvjxx9/NPu0Yd82IiKk4MalFNwULz7+T4SEdMby5R6j4vQk0tPD7DFSYzGkee016x6Wjh2BX3+1WuGIVKDhw62OiU88ERg6lMcie4SIiIhtx44deO+999ChQwcztKlVqxZuv/12LFy40GyFIyLiTcGNSym4KV5s7Cz4+7fA4sVWcJORsdsec3Ts42bJ7iX4MvBLTN4yGQeSD6gH/+oiKQl49lnjKGQchrp0AWbNsp40JVJBcnOBN9+0NrGmTYEZM6zXREREHHy8d9++fdGyZUsztDn55JPx0ksvITAw0H6HiMiRFNy4lIKb4qWkBGP79icQGnojDh4ciezsfx6reDRp2Wl4beFraP5Zc/T6uRf89/vrqVLVBfuzeewxq1bdvTuweLFq1VKhoqKARx6xNjHejWeUzUVERI6wcuVKXHvttWZo06lTJwwaNMhsgSMiUhQFNy6l4KZ4eXkZyMw8gPT0CGRn/2X8u2QbOB8H/tiMx+Dp70HXkV3N1jcKbqoJ3rNy331Wrfrii4GAAECtqaSCMANkx8RGWRy1agHXXQeE6Q5NEREpIDs7GyNGjMBtt92Gn376ySie6J5aETk6BTcupeDGdxjcPDrjUXjeUnBT7fDR37fcYgU3l18ObNxojxApP951N26c1X0SOyZ+/nlg/357pIiI1FiHDh1CZGSk/S8Lwxq2slF/NiJSEgpuXErBje8wuHl85uPwvO1Bt1Hd4LfbT8FNdRETA1x9tRXc8K+aJUsF4kPL3nsPaNgQaN0a+OordUwsIlLTLVu2DE899RT69euHbdu26UlRIlImCm5cSsFN8Q4fTkBa2iakp29HTk6S/WrxFNxUYwcPApdeagU3N9xgdUgiUkESE4EHH7Q2r/POA+bNU9/XIiI1VVJSEqZNm4Zbb73VOC9YHRCPGzcOGRkZ9jtEREpOwY1LKbgpXkLCMmzd+ijCwp41Tp4B9qvFU3BTjUVEABddZNWsecsUnzIlUkF4W9QVV1ib1zXXWJubiIjUPLGxsRg1ahTOPfdcM7SpX78+rr76avz2229IS0uz3yUiUnIKblxKwU3xIiPHYOnSBlixorGxoU+yXy2egptqLDQU6NHDqlnffTegq15SQdjHNTsmNsro5uZ1//3WrVMiIlKz7N69G2+//TZOO+00M7Th8NBDDxll0qVISEjQrVIiUiYKblxKwU3x9u//wlhOHixe7EFU1AT71eJ5BzfnjTpPwU11snq1dQ8La9a8pyUz0x4hUj4MaX78ETjjDKBuXeCNN4CcHHukiIhUe3xS1IoVK/Dkk0+at0U5t0e9+eabCA0NRb6eYiki5aDgxqUU3Bxdfn4e9u37zAxtli2rhZiYqfaY4qVkp+D+KffD84oH//r6X/hz558KbqoLPz+gSxcruHn6aQU3UmH4sJD+/YGmTYHTTgO++07BjYhITZGVlYVFixbhuuuu+7uVTdeuXTFkyBAcZP96IiLlpODGpRTcHF1eXhb27BmEJUs8WLGiPmJjZ9pjipd+OB0fLPsAXb/tigenP4iQyBAFN9UBa9EzZgBnnWUFNy+9pJ5jpcJs2wbceafV2uayy6yOidUaXkSkZkhNTcXw4cPRsGFDNGrUCFdccQUmTJiATF0gEpEKouDGpRTcHF1OTjJ27XoHfn4erFrVFHFxc+0xxWNIE5Meg10Ju3Aw5SAyctQPiiux/5o9e4CwMN5wDqxbB3z0EdCqFVCrFtCvH9s122+WwrC8eeiQ1ckuF6OG/x3Cw63WNr//DnTsaGWC//mPFeSIiEjNwH5rVq5ciSeeeALPPvssFixYgPT0dHusiEj5KbhxKQU3R5edHYMdO14zg5vVq09FfPwCe4zUCLt2AcOHA7ffDvTqBdx0E3D11cDZZwP16gENGwIDBii4OQqGNj/88M8i5NPTNRQ+3HorcOGF1qbF4Ob119XvtYhIdcYnQ/HJUd6VJ762fft2hIeHV1qlSkRqDgU3LqXg5ugyMw8aJ84XzOAmMLA94uMX22OkRli4ELj0UqsWXdhwzjnA2LFAbq79AfHG/hN37rQevFXY4tNQ9NC8OTBmjL0gRUSk2omPj8cPP/yA1157DRMnTjQDHBERX1Nw41IKbo4uPX0Htm17xOzjhsFNQoKfPaZ4vFUqNj3WvFUqMiUSmTm6P9l1pk3757nMrEnzEeDXXANceaX19/33gS1brIRC/gfzrCVLrEZKXIQtWgCXXGItOr6m4X+HK64Arr/eeprUhg32ghQRkWpl3759+Oabb3DOOecY50eP2Rnxpk2b7LEiIr6j4MalFNwcXVradmzf/jiWL6+LtWsvRlKSvz2meAxqxqwbg3t/vxcDlgzA1uit6pzYbRjcsMOR+vWBJ54AAgKsjkicITFRj/w5Ct5BNnky0LUrcPzxwKOPAiEhRy5CDf87sD+ghAQYJ1N7QYqISLXAR3lv2bIFr7zyCk477TQztDnhhBOM8+Oj2KZOzUSkEii4cSkFN0d3+HC82a/N/v3DEBXFXv0P2GOKl5qdij5z+6De+/XQ84eeWL5nuYIbt5k+3erPxihUmU0g4uLsEVIS7N9mxAjgjDOAZs2AwYPZis0eKSIiUsMsXLgQ999/v3FObGaGNmcYJ8iBAwdi3bp15hOlRER8TcGNSym4KV5+fi7y8jKRm5th/n9JMbh5ePrD8LzpQecRnbF412IFN27D4IYtbthchI/9ZmfFUmIMaRjWNG4MtGkDfPON1ZJERESkJmH/NZMmTTJviWJgw6Fnz57m7VIHDpT8oqCISHkpuHEpBTe+w+Dm8ZmPw/O2B91GdYPfbj8FN26j4KZcUlKAvn2tp6ZzMf72m1rciIhIzRIXF2cGNGeeeaYZ2DRo0AA33HADZs6ciUw2TRURqUQKblxKwU1JMGwpfeezCm6qAQU35ZKUBDz0kHGwNo7W558P+PnpAVwiIlKzhIaG4sYbb0Tt2rVRr149sz+bkJAQZLMjOBGRSqbgxqUU3BxddnYU4uP/RGzsbKSmhhqVzjR7TPEU3FQDCm7KJT4e6NXLCm4uvxzQAzNERKSmiYmJwejRo3Hrrbfi9ddfx/bt2+0xIiKVT8GNSym4+V+H87IRnbQFe2NW4kDU74gIewahoddh//4vkJV10H5X8RTcVAMKbspl/37g0kut4IaPuI6KskeIiIhUU7z96dChQ0e0qGHHw6tWrTKKESpHiMixpeDGpRTcWPLz85Cbm2psvLGIjV+EtVuewZKQ2xC04U4EBXbAypUnICLieWRk7LQ/UTwFN9WAgptyWb/eukWKwc1dd7Hgao8QERGphsLDw83WNe+//z6CgoIqrVIkIlJSCm5cSsGNJScnCTExU7Fv3+cI3XgXFi2tD7+ldbB0eX38uaQWVq1qgp0730Jm5l77E8VjcPP3U6W+01OlXEnBTZnl5PCxp0CnTlZw89RTQEaGPVJERKQayc3NxaZNm/Dyyy+jYcOGaNq0KYYNG4bExET7HSIiVYOCG5dScGPJyNiFTRtvRNDqNvh5QQN8MsWD+Ys88F/uwZ/8638y9uwZhKysSPsTxUvJTsEDUx+A5zUPzvrmLCzauUjBjdsouCmztDRgwgSgfXugdm3grbdg7D/2SBERkWqCFZ958+bhnnvuwUknnQQ+OerUU0/FuHHj1AGxiFQ5Cm5cSsGNJT19G4IC22LFYg8+nebBVSMb4Pmfj8OkPzxY/KcHK1c2NPu4ycmJtz9RvOzcbMzcPhODFg/CqDWjsDthN/LL8HQqOYYU3JRZbCzwxRcwCq9A06bA0KHs7NseKSIiUg1ER0fj+++/x1VXXWUGNhwuu+wyjBw5Ert377bfJSJSdSi4cSkFN5b09DCsCemEgKUefDS9AU4Z2hQnD6mDQTPbY03w+di88QYkxM8z3pmHzJxMpGSlWB+U6k3BTZkdOGC1smFoYxxi8MMP1u1TIiIibsfKzo4dO/Dpp5/izDPPNAObJk2a4Pbbb8e0adOM851OeCJSNSm4cSkFNxYruOlsBjcfTz8eTT49Hp5BdTDI7w1Ex/khOWkZ8nKSEJ+RiFlhszB+w3gcSj1kf1qqLQU3ZbZzJ/Dkk9ai69EDmDGDfQDYI0VERFwqPz8fYWFhePbZZ9G4cWMztOHf559/HmvWrFFoIyJVmoIbl1JwY3GCm0C2uJlWHw0/Pg6e94/DRyuHIisnyzhL5xgnamDs+h9x/ujz0fHbjui/pD92JpT8KVPiQgpuymzLFuDWW4FatYDrrgOWL2dh1x4pIiLiUunp6Zg8ebJRPOhohjZt27bF0KFDzRY4DHVERKoyBTcupeDG4gQ3Qcs8GPi7B553jeFND95fNgi59jk4zzgZjwwZiZM/PxmeNzxoMaQFes/pDf/9/tYbCsjJy8HayLX4dfOvWLJ7CaLTonVCdxsFN2W2di1w0UXGgdo4Ut93nxXkiIiIuF1WVhaCg4Px2GOPmbdGsY+bWHbsJiLiAgpuXErBjYXBTUhIJ6xc4sHoBa1x48SrcO34Xvht8+QjngQVFhuGD5d/iHO+OQeeAR54Bnpwx6Q7MC9iHpKzku13WdIPp+ODpR+gy7dd8OC0BxF8MFhPlXIbBTdl5u8PnHGGFdz06cOThD1CRETEZQ4cOIA0Pi7RS1BQEAIDA81HgYuIuIWCG5dScGNJT99unIDPxPx5HqzZcCv2xG/D3qRDSMpMPuJJUGwxk5SZhF82/oKLf7gYtT+obYY3vH3qpw0/4a+0v5CbZ53AU7NT8fjMx+F524Nuo7rBb7efghu3UXBTZsahBY0aWcGNHgUuIiJuxEoNw5l33nkHU6ZMOSK8UStqEXEjBTcupeDG4gQ3f/zhwfatDxivHL1jubTsNDOIuXfyvaj1QS3z1qr2/22Pd5a8gy0x1j0hbHHzyIxH4HnLgy4jumDJriUKbtxGwU2Z/f47UK+eFdx8/LH9ooiIiEuwJc2sWbNw7bXXonnz5uYjv+fOnWuPFRFxJwU3LqXgxpKVFYmdO9/Ehg33IvrQGPvV4oUcDMErC15Bq6GtzH5vmnzWBKPWjDLH8bHhj89SixtXU3BTJmxdM2KEFdywc+JvvrFHiIiIuAArNqNHj0bPnj3NDog53HzzzVi5cqX9DhERd1Jw41IKbix5eVlIT49ASkow/krajC3Rm7EtdhsSMxPtdxRtT+IevL/0fXQf1R0Xf38xJoZONF/PyMnAk7OfhOcdBTeupeCmTGJigEGDgPr1gcaNgfHj7REiIiJV3JYtW/DRRx+hffv2ZmBz4okn4q677sK8efOQmZlpv0tExJ0U3LiUgpv/tWqfPx6Z/ojZP83yPcvtV4/uUOohTN82HX67/BCbbj1Z4O9bpforuHEtBTdlsmMH8OKLVnBz5pnWYhQREamq2F8N+68JCAjAU089hYYNG5qhzSmnnILnnnsOmzdvRl6eynAi4n4KblxKwc3/mrBxEhoNboRGHzbCjxt+tF8tHlvY8BHgDj5l6safb4TnFY/ZGkfBjQspuCmTdeuABx6wFtullwKLF9sjREREqiC2pPntt99w/fXXo1GjRmZo09E4/3/xxRfYt2+f/S4REfdTcONSCm4seXnZyMrci5zMMHy9+gOzQ2G2lBm5ZqT9jtLb9NcmnDfqPHie96DLyC5YtGuRghu3UXBTJsuWAddeay22O+7gI1PtESIiIlVQUlISXnzxxb/7s+nVqxcmTpyI6Oho+x0iItWDghuXUnBjyc6Owr69g3Fgx7P4bP6/zUd8e97zYOy6sfY7Si80KhR3/nYnThx4Iq6dcC3WH1qvR0e6jYKbMpk9GzjvPGuxPfUUsG2bPUJERKQKSk9PN8vCrMw88MADWLhwoflUKRGR6kbBjUspuLGkp4dhTUgXBC2rhfd+t0Ibz/se/Lj+J/sdpcdHhv++5Xf0mdMHwwOGIykzyR4jrqHgpkwmTgROPRU44QTg7beBgwftESIiIlVARkYGUlJSkJPzzy3u+/fvR0hICMLCwpCdnW2/KiJSvSi4cSkFN5b09O0IDuqAAD8PBk7+J7gZHzrBfkfZpGanIjI1EnEZccg3/hOXUXBTJt99B9SpAzRoAAwbBqNwbI8QERE5xhjY/PLLL/j222+xdu3aI1pDq2W0iFR3Cm5cSsGNxWpx0xlByzxHtLiZYD/aW2ooBTdl8sknxgHaOEIzuGHrG7U2FxGRqiAyMhKff/45evTogXbt2qFv376Ii4uzx4qIVH8KblxKwY2l0ODmg+Pw88af7XdIjaTgptQY0vTvbwU3jRoB8+bZI0RERI4hPtL77bffxmmnnWZ2QNy4cWO8/vrrCm5EpEZRcONSCm4sTnATvMyDd37zwPOOMQz0YMJGtbip0RTclFpiIvD881Zwc8opwKpV9ggREZFjgP3ZBAQE4NFHH0Xt2rXN0KZly5bo168ftm7dar9LRKRmUHDjUgpuLN4tbsw+bt734LgPT8Cvm3+13yE1koKbUuMievBBK7jp3BlYs8YeISIiUsmSk5Px+++/45prrjFO5ceboc0555yDESNG4NChQ8jLy7PfKSJSMyi4cSkFNxYGNyHBnbB0kQfTV3TH0JUf4YuAb7A1Vs8xrtEU3JQK+3QMCgJuuskKboxyMjZtskeKiIhUIram+fjjj9G9e3czsOHQq1cvTJ06FYlsHioiUgMpuHEpBTeW9PRtCAhogzlzPNi0+U5kH05EjlEJzdPTBWo2BTelwv5t2KdNz55A7drAAw8AERH2SBERkUq0YMGCv0ObZs2a4bHHHsPixYvtsSIiNZOCG5dScGPJyNiJ9ev/DT+/U7Brh1FBh5rOikHBTanw2M+nSJ1zDtC4sbXI9u+3R4qIiFSiDRs24KmnnjJvjeLTo7Zv326PERGpuRTcuJSCG8vhw/GIipqA3bs/RlzcfOTnVc5GLFWcgptSycoChg8HTj0VOPlk4MMPgehoe6SIiIgPsb+aXDb9tGUZJyU+SWru3LnG6VvnbxERUnDjUgpuLPn5ucjJSUBa5j6ERgbi982TMSdsDiJTIu13SI2k4KZUMjKAAQOA+vWBM84ARo0CkpLskSIiIj6yZ88es8Phn376CZmZmfarlpycHPv/REREwY1LKbg5UkYeMGbtOFwy5hL0mtgLK/ausMdIjaTgplTS0oDnnjMOzsbRmbdLcfGxFY6IiIivhISE4LXXXkO7du1w/vnnY9GiReYjwEVE5H8puHEpBTeOfOTn5yA+/S/0X9QPngEenDjkRMzYPsMeLzWSgptSSUkB7rvPCm6MsjP8/a0nTYmIiFS01NRUM6S5//77UadOHbMT4h49euDnn39Gkpp7iogUSsGNSym4seTlpiE5aSX2RU7Am3PvgmegBycNbY6Z22fZ75AaScFNqcTGAtdfbwU3l14KhIfbI0RERCpQeno6xo8fj4svvhh169b9O7QZPXo0YmJijujrRkRE/qHgxqUU3FgyM/di25b7sD64C96ZegpqD/Kg1bAzMCd8jv0OqZEU3JTKjh3AZZdZwc1118EoPNsjREREKsj+/fvxySefmE+LYmDD4Z577sHs2bMRHx9vv0tERAqj4MalFNxY0tK2ISjwDAQs8eDdXz2oN9iDNl+dibnhc+13SI2k4KbEeEtUQADQo4cV3BhlaPPWKRERkYqQYpxUVq5caT7au2XLlmZgc/LJJ6NPnz4IDAy03yUiIkej4MalFNxY0tPDsCakE4KWefDub1Zw0/a/Z+GPiD/sd0iNNH860MkObl5/CYhWcHM0CxYAnTtbwY1RjjY7KxYREakIcXFxZksb59Yoll8HDhyIvXv32u8QEZHiKLhxKQU3Fiu46WwGN+/85kH9wR60/6Yj5u2Yb79DjoatLbjfp6dXryHr1+nIO8sKbnKeewmZW3cV+j4NPAkAI0ZYjwHn48Dfftt6PLiIiEhFYL81kydPxllnnYUuXbpg1KhRSExMtMeKiEhJKLhxKQU3lsKCmzO/6YT5OxbY75CjOXAAGDMGePBB6xYZPlno/vvdO9xjDHf8H/DFZdNxsHFHZB93PBZ0eAkv3bILdxvj7vN6rwYYB37gzjuB886zGie1bg18+SX7jrI3EBERkQpwwChwTJ061Sy/JiQk2K+KiEhJKbhxKQU3Fie4CV7uwRu/eOB5l50Tt8XccN0qVRJ/GIvJ2P/NW2Sq0/BvzzRs8ZyNDM/x+NjzMup7dhf6Pg1HDgxwpkwBcnLsDURERKSUli5diu+//x5hYWHIy8uzXxURkfJQcONSCm4sTnCz2s+Dz2c1xSVjzsM9U/6DgAPq7K4kvvsOaNMGOO44oFUr4NxzgQsuAM4/36VDD2Mwpr9fuynYX+9Ms8XNL6e8hlu67LXGFfYZDWbHxBddBPTvD2zfbm8cIiIipZCUlIT58+fjpptuQvPmzfHOO++YLW1ERKT8FNy4lIIbS3r6dgQFnYU/53uwPOQarN67BBv+2orETN07XRJffw2jcAU0aWI9fGnRImDjRmDtWmDNGhcOG4xhM7Dz41+R1bIN8usfj78e74+N8w6a49auK/B+DebA9b3ZWG7R0eyLwN44RERESig2NhY//PADLrjgAtSqVQu1a9fGrbfeapxfjBOMiIiUm4Ibl1JwY2FwExjYHn/84cHWLfciPy/dHiMlMWwY0LgxcMopwPDhQLXpK/DXn4FWp1odt7w3EIiJskeIiIhIRQoPDzdb15x99tngU6MY2tx1112YM2cO4uPj7XeJiEh5KLhxKQU3lqys/di+/UmsCfk3og8Os1+Vkho6FDjhBKBlS+Dbb4HkZHuE200YBzRvZgU3Hw4C4mPtESIiIlJRVqxYgaefftq8NYqhzemnn45XXnkFgYG6ZV1EpCIpuHEpBTeW3Nw0JCWtxqHoKTgQuwIHk/chNj0W2bnZ9jvkaD75BKhTxwpuRo2qRsHN2LFWUyIGN59+CugJFiIiIhWGT4aaNWsWbrnlFjOw4dCxY0ejXPEJ9uzZY79LREQqioIbl1Jw4y0fh1IiMXnzZLy/7H18v+577EvaZ4+Toxk82NghjT2SHRP/+COQlmaPcDs+45yhDYcvvqhGiZSIiMixt27dOlx55ZVmfzYcevbsiV9//RWJ1eaeaxGRqkXBjUspuDnS1rjd6DP3RbQa1gq3TLoFQQeD7DFyNO+9ZwU3rVsDEycCGRn2CLcbMcJ6VBaDG+4j6er7SEREpKLs3r0bDz/8MFq0aIE777wTfn5+SKs2V39ERKoeBTcupeDGkYecnESs2b8Qd03qBc9AD3qM6YEVe1fY4+Vo3nnHCm5OPx2YPBnIri53mH3zjTVjDG5GjqxGMyYiInLsZWVlwd/f33yS1MqVK+1XRUTEVxTcuJSCG0tuTgIORY5CyKan8Myv56D+R3Vw5birsXp/gP0OOZp+/ax844wzgOnTq9GjoL/66p/gxihU6hnXIiIiZRMdHY1FixaZZc9Dhw7Zr4qISGVScONSCm4s6enhWLumG4KW18Wbvx6HEz+ph2sm3IiA/XqaQUm8+qqVb7RtC8yZA+Tn2yPcjv3aOMHN+PH2iyIiIlIasbGx+Prr/2fvPsCjqNo2AC9dutKLoHz0Ll3FH0FpIiggfoCAgCIiSkdAekf6JwqCgNIFlF6lphBC6D0kpJJmem+kPP+8ZwdFBSRhE3Y2z+01V8icSdzdbLKzz5zzvt+gXr16aNKkCXbt2qWdK9jKyQIRkXEwuDEoBjdmcfE34XKmCs4cN2H8FhOKz82PNzd0grMfa9w8js8/N+cbL74IHD6s77QF8+b9Gdxs3qzvJCIiosfl5uaGCRMmoGLFitpLqkl7SX0GS5cuVcukiIgoezG4MSgGN2bx8bdw7mwdnDlpwrjNJjw7Nz/ab+yMM/4u+hH0KJ9+as43qlQBjh/Xd9qCWbP+DG62b9d3EhER0b9JTU3FsWPHMGDAAJQsWVKFNhUqVMDIkSNx9uxZpKSk6EcSEVF2YXBjUAxuzP4Z3BRAx83v4Kz/Of0IepSPPjLnG1WrAo6O+k5bMH36n8HNrl36TiIiInqUkJAQbNu2DW+99ZYKbGRr2LAh5s2bh4CAAP0oIiLKbgxuDIrBjdm94MblpAljNplQeFZutN/UmcHNY/rwQ3O+Ua0acMaWVpfd63NesCCwf7++k4iIiB4kLS1NvSlYsmQJ6tSpowKbAgUKoHXr1ti8eTMSEhL0I4mI6GlgcGNQDG7M7p9xI8FN0Tl50WlLV5wPuKAfQQ8jM5379jXnGzVqABds6SG71+e8UCH5ZdF3EhER0YPExsZi0aJFqF69ugpt8ubNi4EDB8LOzg5xcXH6UURE9LQwuDEoBjdmEtycdakNu6MmrDtSA18dGYk1lzbCL9pfP4IeRi6effCBOd+oWRO4elUfMDpp/f3ll+Y7VriwjRXvISIisjwpOLxlyxbUrl1b1bORosRXbebEgIjI+BjcGBSDG7P4+Jtwdn4B+/ebcO7SW/g92gtRSXG4m8rCef8mOhro2fPP4MbVVR8wusREYNQo8x0rVgw4eVIfICIiovvd39o7JiYGa9asweLFixEUFKTvJSIia8DgxqAY3JjFx7vj/PmmOHq0KDzcB2t7sudJbAtCQ4EePcz5Rp06gLu7PmB02oknhg8337FSpQB7e32AiIiIhJ+fHw4fPozLly+rLlL3SK2b+z8nIiLrwODGoBjcmCUnB8PXdwFuuX6K0OCftT1p5gH6V4GBQLdu5nyjYUPA01MfMLqICGDoUPMdq1DBxtplERERPRlZAvXpp5+iWrVqGDNmjHY+oJ0QEBGRVWNwY1AMbszS0u4iMfEO/MIccdb3NzjdOQX3cHck3GX3g3/j6wu8844532jaFPDy0geMLjgY+OQT8x174QXAyUkfICIiytnk/FFO+osUKaK9TJrQrl07XLx4UR8lIiJrxeDGoBjc/NW5oJsYc+Qr9PylJ75x+QZ+0X76CD2Mhwfw9tvmfOOVVwBvb33A6Pz9gYEDzXesenXA2VkfICIiyplCQ0Px888/o23btiqwka1p06bqPNLTZqbcEhHZLgY3BsXg5q9239qDxisbo9DsQui/ewBuht7UR+hhpBhxx47mfKNVK8DHRx8wOkmg+vUz37G6dQEXF32AiIgoZ0lJSdFeFr2xZMkS1KhRQwU2BQsWxJtvvok9e/YgUQr6ExGR1WNwY1AMbnTpKUiIv4U9V+bhlZVV8Mys/Oi/ayBcQ22lRVLWkS6fbdua8w3t/E0tnbIJt28DvXub79hLLwHnzukDREREOYd0jLpw4QKGDh2KsmXLqtCmcOHCGDBgAFxcXFQLcCIiMgYGNwbF4MYsOckf7rc+hp1TPQxcVwSl5xfD4L1D4Rbmph9BD6Ody+GNN8z5xltvAXfu6ANGd/Mm8P775jvWrJn5jhIREeUwbm5uGDlypAprJLSpWrUqpk2bhuvXr+tHEBGRUTC4MSgGN2ZxcTdwxrkSzp4wYfxmE8ovKI4h+0fAPey2fgQ9SFqaufSLLJGSfOPdd6U1qD5odDKV6F67rJYtgUuX9AEiIqKcw93dHZ988glKly6NV155BcuWLUNQUJA+SkRERsLgxqAY3JjFx9/CubO1cOakCWM2mVBuQXEMPTASt8M99CPoQVJTAQcH4NVXzflGjx7mmr42QWbYdO5svmOtWwOXL+sDREREtistLU0tj7rf0aNHMWPGDBw8eBAxMTH6XiIiMhoGNwbF4MbMHNzUUcHN6E0y4+ZZDDs0Bp4RttLbOmukpADHjwMtWpjzjV69gMBAfdDI5IT1zJk/qy63awdcu6YPEhER2SYpQix1a86ePaudG8Xre6Hq2ERGRmbbST4REWUNBjcGxeDG7B/BzcJnMfLwOHhF2kpv66whv+uHDgFNm5rzjQ8/BGxi9rQEN46O5sBG7pj0O+dafiIismES2uzcuRNdunRBhw4dsHHjRiQkJOijRERkCxjcGBSDG7N7wY2LnQlfrDeh6Oy8aqkUg5tHS04G9u4FGjUCcuUCPv7YhoKbkyeBNm3Md6xrV3OxYiIiIhskNWtWr16N1157DVKAWLbx48cjOjpaP4KIiGyBYYObqKgoeHt7q8r4Fy9exLlz51TLQ/ncx8dHjdsyaw5u0tNTkZwcqEKVu3dD9b1Z415w43TChGnbC+OVH17CPMfFCIgJ0I+gB5EOoDt2APXrA3nyAEOGyB8DfdDIpOrykSPQzmCBvHnN3aXc2GGMiIhsj5zvzpo1C5UrV1aBTfHixdWsG5l9k5iYqB9FRES2wFDBjRRdi42NxdWrV7FmzRp8/vnn6gWqZcuWaNKkiaqYL5+PGDECP/zwgzpOXrjk62yNNQc3SUn+2snEDFy+/Kb2cS4SErJu9osENy4uNXD0sAn7TzXHnptbcTXYFfF3OUX4UWQG9c8/A3XqAPnzA8OHAyEh+qCRSdXlAwfMxXvkjvXpA9xmhzEiIrIdcl576dIl1TGqaNGiKrQpUqSI9lo+XF3MlBo3fy9STERExmaY4EZehKQi/qBBg/Dqq6+qkKZjx45477330Lt3b+39WR988MEH6vP27dtr79taqOOGDBmCQ4cO2dxaX+sNbtIRGXkCly+3xfHjJjg5VcKtW58iOvqMPm5Z8fGucHaugv37Tbhy9V0kJIchVboqaP/Rw0ndwg0bgJo1gYIFgTFjgNCsnRyVPSS42b3bXLznmWeAgQMBD3YYIyIi2yBLoHZrr3PvvPPOH6FN1apVMX/+fO3ljq93RES2yhDBTXJyMlasWIGuXbuqGTV9+/ZVrQ23bNmCkydPqiVS165dU1cf5PNNmzZh5syZKsyREGeg9uZt8+bNCLSJtjlm1hzchITs0H4mr+DYMROOHjXBzu4ZXL/+HkJD9yIlJUI/zjISE721n303ODvVRdCdmfpe+jdxccDatUC1atBO/IAJE4CwMH3QyCS4+eUXoGFDoFAhYPBgwIsdxoiIyDYcOXIEzZo1+6OejZzEyyz0iAjLnl8REZF1MURwI7NtJmjvLD/66CPY29urzx+HHHfgwAFMnDgRixYtgqurqz5ifNYd3OzE+fNNVXBz4oRJzbyRf1+40BxhYXuRlpakH/vkUlKiERq6B54+S+D7+wFEJYYjKSWJM27+RWwssHIlUKUK8OyzwOTJQHi4Pmhk0ud8yxagbl2gSBHg88+lCIA+SEREZGxbt25FzZo1UaZMGXTq1An79+/XR4iIyJYZIriRtbwyW0Y2aXmYEXJ8WFgYgoODbWq5lDUHN2Fh+3HxYms4OhbD2bP14OJSGydP5sbp0xXg67tAe6IF68daQrr2/EjG5UAXrL3wA9ZdXofLQZeRkMIaN48SEwMsWwZUrgyULAnMnAnYxMU6+fuwfr15DVixYsCoUcCdO/ogERGRsfn5+WHdunVq5rlczMyuk3ciInq6DFWcmP5kzcWJ4+M9EBS0STu5+B+Cg7cjNHQ/PDzG49atIYiOdkFamuVDlY3XdqDxDy+j2ermWHVuFcITbGH6SNaRLqGLFwMVKgBlywLz5gGRkfqgkckfMVkDVrWqeSrRuHGAv78+SEREZBxSz0a6pd66dUuVDbhHGnXIxcxUWR5MREQ5gs0GN1LvZvr06Vi+fPlfXuxshTUHN+npKdrJRLy2xWn/Nnf0Skz00040rql/35OaGqPtu6R9jNX3ZFJ6KhY5zUO+mblQcHZBzLafjZA4W2iRlHWkW/7XX5tDGwlvFi0y7zM8+V2XNWAvvACUKAFMmgTt7FYfJCIiMgZ/f391jtezZ08MHTpUdUolIqKcy3DBjSx9kqr5Tk5OOHHihApo7hVkkzG5MrF+/Xr069cPFStWxMcff4ykJMvVVLEW1hzcPI67d0O1J9963LjRRzs5Wam93w7SRzImLS0OYaE7scmxB5r8Lx/KLSyNhU6LERZvC5V2s47Mrpk1CyhVCqhUybxsSmbhGJ4EN99+C+2XHyhdGpgxQ/7K6YNERETWTcoDyLmsXHyspL1ASwHiWrVq4dixY/oRRESUExkquJEpoWfPnsXgwYPRoEEDFczIjZdZNTJl9NSpU6rjVLVq1dCoUSN8/vnnqstUerrtFaq17uBGHu80fbbNgx/7qChHXL3aGXZ2ebWfWxl4eU1DYqKvNpKxn1VCwm1cvNAcTiefwdB1JrywpBwWnV6G8AR2V3gUKUQ8dSrw3HPAiy8C339vLlhseBLcLFlinkok29y5QAhnXxERkfWTE3G5MCkXH4sVK6ZCm9KlS+OLL77A7du39aOIiCgnMlRwI9NEJYypWrUqmjZtivr166NIkSKoUaMGBg0apNp/v/322+oqxeHDh+Ht7W2Ts22ENQc3MnsmMtIeoaH7EBNz4YFLoSSk8fT8Cvb2hVXLcAeHsnB1/RjR0Wf0Ix5PXNxNnHF+AedOmjB2owlVlpbH0jPLEZFoCwVbso60/v7qK3P9XmkJvnq1uUW44cnv+/z55orL5csDCxfaSJ9zIiKyZXIS/vPPP6Nt27YoVKiQCm3q1auHpUuXaudLntq5le0t+yciosdnqODmp59+QosWLTBw4EDs2rVLtUCUtb/y4la9enWMHj0ae/fuRaRNVFl9NOsNbtIRFXUKrq6DcOnSm/D2nqPPpPmn+Phb8PGZCxeXutr9kdbheXDtWleEhPyq6t88Dvke587WwZmTJozYYMJ/lpbHsrMrEZVkC+t+sk5oKDBmDFC4sLkB07p1NhTczJljTqRkudQ339hIuywiIrJFsjRKgplvtNcruSgp57SydejQAZs2bUK4TJElIqIcz1DBjcykadKkyV/W+crVibJly6o7IFX3cwprDm5CQnbj3LmGOHkyj6phI+HKw6SkxCIg4AdcuPB/OHGigJp9c/58c23fKiQmeiM9/dFPygcFN8vPrkZM0uMFPzmVhDQS3DzzDFC7DrB5m/ZY6mOGJ8ujJJGS4j2yBiwHBLlERGRMEsxIaFOuXDkV2Dz33HPqnFaW+kuoQ0REJAwV3Hz55Zdo2LAhrl37szvRoUOH1FIpedHLSaw5uAkN3YNz5xrDzq4Abtz4EPHxbvrYg6WlJWsnLke1n+t72tfkx7FjJjg5VYCn5yQkJz+6sOz9wc2w9Sa8sLgMlp9bjdhkWyjY8nikG2h8vLlGzeNsEtp4eQGDBgH58gH1GwC/bEtDYkTCg7/ASJssi5IW4PnzmztLrVljI1WXiYjIFsmy/rFjx6JkyZKqrs3IkSPh5ubG0IaIiP7CUMHNmDFjVHBz/8waqWVTt25dbNiwQd+TM1h3cLMX5883g719Idy8OeBfgxuRlnZX1cO5fftLODg8p5ZOXb3aBQkJHvoRD3YvuHE5acLn60yotKgUVpxfg7i7trDu599JaHPuHDB7NjB6tISb5tziUZvUtvn8c6B+fe2XUfttfLlZKn5bdBV35y7SDnjMb2KN24QJ5geheXPzHdN+P7Q/DOZAh4iIyArFx8fj9OnTarn/kiVLcOfOHX2EiIjoT4YKbsZpb87kisSMGTPUut8tW7ZgxIgRKFWqFAYMGKDCm40bN6qP0hJ89erVaqqpdKOyNbYW3NyTkOAJX995uH69P/z8lmpPykcXllXBjUttOBw14Zv9FTH8wCc44X0KSak5o4ifhwcwcaJ5VVChQuaJJjKL5lFbgQJAnjzmbEO2NtX8cLPPHKTVqgkUL2JeP/WgL7T2Te6YfLx3xypXBnbuNHeaIiIisgJ+fn7a+ZE9YmL+uqTbQ3tBzwk1GomIKHMMFdwsWrQIJUqUQOPGjfHmm2+iffv2quZN+fLlVXvwNm3a4I033lAfW7durVqCT5482SYr8dtqcCNSUqKRmOj1l2VSMiNHulUlJfnpe8zi411xxrkKDh0wweFca7gGX0BkYqw0I9ePsG1Hj0J7vptzCgluJMCpUcPcKerfNilKXL8RMLHDecS27w4UzGsOPipUAKpXN28P+kJr3+QBqFsX6NMHuHJFe0rmjOcCERFZr3TtteiK9po0fvx4dOrUSV18ZOFhIiJ6XIYKbiSs+OSTT/Dpp59i+PDharaNfPziiy9Um/D7t6FDh6J///5YtWpVtt2x7GTLwc0/pSM6+hy8vKbD03MiYmMvaydA5llUCQm3cfZsAxz5LT/cbw3QDk1U+3OKPXuAl14y5y2tW5s7YWvngti40bxK6GHb+vXax03AjoPAjQ3nga5dgYL5gRo1zUuO5Bts0g540Bdb8yZ3TLbt26E9Cc1dpoiIiJ6ixMREODo6onfv3siVKxfy58+PQYMG4fr16/oRREREj2ao4Eamlfr4+KjN19dXrQOWKaf+/v5qn5eX1x+btFa8ffu2uoNylcPWWH9w0xT29gVx82b/Jw5u0tKS4O09Xft+JbUTn5Laic77iIy0U2PJySHw8BiHq1c6IzhwldqXk0hIIzV4ZbbN8OHQHm9zoWIpQPz3ur3/2LRjEpK1x/fcBaBbV/MSqVatgAMHzN/gsb6JlW4JCfLE0R8lIiKip0POXWUZv8wGL1iwIKRzVO3atfHTTz/9Y7kUERHRwxgquLlfaGgoXF1dERgYqO/JGnKVROrkSCvyjz76CJ999hnWrl2rwqLHlZSUpIooS22ejz/+GAMHDsSkSZO098cHMj1N1pqDm5CQHXBxqY3jx024fv2/2vt/V30sc9LTU7Qn6gacOVMXR46YcOJEbly+3E7b97P2pI1ASrIfPIP2wsVnD9zD3BCTHKPdipyxPGb1aqBYMaBIEWDevEw2ULp8wTzjRoKbtm2BU6f0ASIiIsosqVszT3txfumll1RgI5ssk9q2bZs6jyUiInpchgtuZJaNFB2WAKRjx47o27evqsIvnaYsXYRYQpu9e/dq72m7qro6stWvXx+vvvoqpk6dqmb2/Jvg4GB1paV79+5o2bIlWrRogWbNmqkX7oULF6qZQZlhzcFNZKQDXF0H4uLF1+HtPVN7HH31scxLSYnUHsufcenSGzh5Mj+OHzXh3NmGuOP3HYKibmLdlV8wcNenmHDsK1wOupRjghv58efNaw5uvvvOPNsmwy7cF9y88QZw4oQ+QERERBklM2nOnz+PUaNGoXTp0iqwKVu2LD788EMcP35cP4qIiOjxGSq4CQkJUWFH5cqVUaZMGfVRChOXK1cOY8eOVUujLOncuXPo1q0bqlevrgojX7x4Uc2SkQdL/t/ffvvtIwsfS5Aks3Mk6OnRowc2b978xxKus2fPwtnZWf0AMsN6gxtoT6QwREdfUAGOzLZJTc1MmvAgqYiKclKzeE7YFcCRoybYO5TA/jPd0HPL/yHP5Lx48X9VsMdtj00uj3uQOXO0XyjtN6poUXNZmkytDmJwQ0REZDHXrl1T54pSz0ZCm4oVK6qZ1m5ubjnm/ISIiCzLUMGNzH5p1aoVmjdvrmbZnD59Gj/++KPqLiXrhSUksZQ07R3w/Pnz0bBhQ7U8ytvbW+2XoEZuh8y8ef/991W48yDywuzu7q6Oefnll1XrxzipGXIf+V4pKSn6Zxlz9OhRqw1uZNZNenqa2uTfliTfU1qAn77SHzsOm3DiuAlHTuTH6M15UXSqCeUWlsMu1z360bZPWoFLcCPLpfbt03dmFIMbIiIii5HZNq+88ooKbaTrqcwUDwgI0EeJiIgyzlDBzddff406deqomS6xUoBUI7Nadu/ejSpVqmD06NFqnyVIXRqp/l+3bl3s2LFD32smBZGlTo28KK+XDjYPIKHM1q1bVXtymW3zyy+/YM6cORgyZAjmzp2r6uZIOJRZdnZ2qFq1KpYuXarvyVlCoq/C8doI/HL0ORw7asKhIya8870J//nfi9h164B+lG2T39eRI83BTYkS8pzQBzKKwQ0REZHFBAUFYfHixWqp1Pbt21mEmIiInpihgpsJEyaoOjOXLl3S95hJgTeZ1TJ48GCLTUGNiIhAu3bt0KRJE7i4uPzl+0pBZCk0LLdFlm49iMyumTVrlvp6WSoldXLeeust1VVAbus777yjAqHIyEj9Kx5MZvpI6CNLtWSTE4HvvvtOtUWXddMrV67Uj7QeaWmJ2pMpFMnJQao2jRQXzgopqXE45/41Dp9uip8O5MHLi00ov6gsDt4+ph9h26SutfY0UMHN889De57qAxnF4IaIiChT5ELdlStXVNOK+y/ISY1DFiAmIiJLMVRwM2bMGLVESdYO309q37z++usYNGjQP5YjZZYUQZbvKaHL3/9/8kK8YMECdVtmzpyp7/0ruR1ffvklihcvrurxyG2TzlI3btxQAYyEPm+++SaOHDmif8WDOTo6qmJ2Mrvm3iY1d6S2j7SVlHaS1kbafwcErIGPzzztsdqjPbHC9BHLkK5RHhGecAvzgk/kbZz23IaJB95FjaWV8eb6N3Hl97/+vGyV1LXu3dsc3GhPRfwtz3x8DG6IiIgyTM71ZPl8z549MXHiRHWOR0RElBUMFdxIECJ1XWRplHR0kiJvErCcOnUKTZs2xXvvvafWFUttGRmTF1C5ApKZWTj3ghvpBHX9+nV9r5kENzLT5t+CGwma8uTJo2bYSC0cWX4lZKmVdKWqUKGCahP5KNIuXGYYSReCe5vU9pFlY/L1MvvGuqRrt/mwatd9+nRl7ecwDAkJHvrYk0tNS4XTHSf0+rUX6i1vgHHHJsIzwgvekd444nFcGzuN2GTzMjpbJk9pCWq6dDEHN9rvsPY81QczisENERFRhsh5ntRWlAtxz2ivnzILevny5fooERGRZRkquPnqq69UoTcpGCy1YyRYadu2rWqxLQFJsWLF1AyZ1q1bqyLGr732mqrin5k7JoGJfG8JhKQD1P3hj6xdlsDm35ZKTZkyBSVKlECfPn3+cRsOHjyI559/Hp9//rlqO55RDg4OVlrjJh0hITu1x6ye9v7fhOvXeyM+3lUfe3J3U+9iz609qPltTZjGmfDuz10RGJO5zlxGJrOx7e2BNm3MwY0EOG5u+mBGMbghIiJ6bHLxUOoWSh1EOS+VrVOnTqp+IRERUVYwVHCzb98+VehXAhUJZ6RejHyUEKdz587qRVP+fW+/BDsSnmTmjsnsGJn6Ki/KMsPnfjKLR5Y+SXHihy1VkjBmxYoVKlyRIsd/vw2ybKpSpUoYOnRopoIbWWJlnV2l0hEauhfnzzeDvX0h3Lw5QC2dspTk1GTsct2FRisbIc/MPPh4z8cIiM55nRqkGdnevUDz5kDevEC/fualU5nC4IaIiOhfSSdQZ2dnjBw5EiVLllSBTdmyZdU5oey3VJ1FIiKivzNUcCNLlG7duqUK9spSpvs3CVNkCdL9++Q4+ZrMvJBKgTm5miJtHOUFWr63kBft3377Tc226d69u3qhln1hYWGqaPH93a6kPo2EO9K+/OrVq2qfkAd99uzZasaNdJjKDLkNOTG4SUpJwtZrW1FvRT0UmFUAQw8MRWBMoD6acyQnAxs3AnXqAEWKAMOHyxI8fTCjGNwQERE9lJwTynne/v37tZfLriqwyZUrl7o4N3nyZPj6+upHEhERZQ1DBTcSkkiHpejoaH1P1pJaMjKTp2bNmqqWjIRGJ7Q3tX379lWhi3R4ktkysnRKAhSZPSNLoO5JSEhQdW7uLYmSIEcCIOkEJYGOFCeWACYzcmpwk3A3Aesvr0etb2uh8NzCGHV4FH6Py3lLpWSSlpQ3qlwZKFUKmDpVfpn1wYxicENERPRQcq63atUqtXw+f/78KriRi3JS40YCHSIioqxmqOBm/vz5ePfdd1Xx4ewQHx+P7du3o2PHjn+09ZaPUlNn7Nixf9wO+fjBBx+oKy/Lli1T++6RwsIjRoxQXycv8hLWSGjTpUsXFUJJ2/HMyKnBTfzdeKw+vxpVv6mK4vOKY8LRCQiOD9ZHcw7tqQmZrFWiBFCxIrBkibSw1wczisENERHRQ8kJstQ2lHqKEtrIsn1Zvp9dFxKJiIgMFdxIACKtsC9evKjvyXoS3khIMm7cOPUg9e/fX3UNkGVY9wQHB2P9+vXqRd1eKsb+jQQ70gJcvrZXr16qyPKhQ4f+6DKVGTk1uIm7G4flLsvxwtIXUGJ+CUw9MRWh8aH6aM4hK/LGjwcKFID2PAB+/BGIidEHM4rBDRER0UPJkns7Ozs1s3rIkCFwcnLSR4iIiLKHoYIbWXYkNWdkyVJOZ83BTUjILpw92wAnT+bGjRt9EB9vuZ9XTHIMFjotRJmFZVByfknMsp+F8IRwfTTnkJDm00+1Xybtt0nq3OzcaV4+lSkMboiIiP4QFRUFHx8f1WH0HqlzExISopa8y7+JiIiyk6GCG1meVL9+fe195gV1Yx9nu1cQ2NZY94ybfTh/vjns7Yvg5s2BFp1xE50UjbmOc1FqQSmUX1RehTiRiZH6aM4Rqd3l3r3NwU2jRuasJdNPdQY3REREisyilrqGffr0wQ8//MCQhoiIrIKhgpupU6eiePHiqr22zL4ZPXr0Q7dRo0Zh8ODB+PHHH1XXJ1tjvcENEBd3HXfuLIGHxzjtCbYFyckh+siTi0uOww/nf8Bra1/Dm+vfxIYrG9QsnJxG6tl06mQObl5+WWop6QOZweCGiIhIzegeP368WpYv9WykHqHsY5tvIiJ62gwV3EgNmdy5c6suTy1bttTesL6sCgU/aJNCwHKc1KZJlt7JNsaag5u0tAQkJQUhMfGO9qQK1054LBec3U29i2vB17D9+nbsuLkDN0Nvqn05jfZ7i1atzMGNfPTx0Qcyg8ENERHlYBLMSN2aQYMGoVixYqoAccWKFVVNwtu3bzO4ISKip85Qwc2kSZNQtmxZ9UK6Zs0aNYVV2jM+aJOW2998840KOGxxuZQ1BzeU9Tw9gebNzcFN+/bAfcvwM47BDRER5VDSGWr//v3o1KmTCmxkq1Gjhupk6uvrqx9FRET0dBkquPnyyy9Rt25dnD59GnFxcY/cYmNj1ZaY6Yqt1o3BTc4mWctLL5mDm+7dZXmaPpAZDG6IiCiHkYt6QUFB6kJfw4YN/2j1/corr2Dbtm2qQDEREZG1MFRwI3Vt5MXV1dVV35NzWXNwc/duBGJjryEm5iwSEjyRlmab4dnTIhPIjh41d5OS4KZ/f2iPsz6YGQxuiIgoh7ly5QomTpyIatWqqcAmX7586NWrF44fP669pj7JiyoREZHlGSq4GTp0KCpXrqy9z9TeaOZw1hzcREefxe3bX+LGjZ7w81uGpKQAfeTJxd+Nx163vVjgsAAbr2yET6QP0tJzVscHmUS2fTu0k01zcDN8OIMbIiKijLh06dIfy6Oef/551dTi3Llz+igREZF1MVRw8+233+L999+Hm5vl2ksblfUGN9IOfLd28vMS7Ozy4saNvoiPv6WPPbnfY39Hj196wDTehAbfN8ARzyNISbO9rmGPEh0NrF4NVK4M5MsHTJ5sDnMyjcENERHlMLKsfvny5WjTpg1mz54Nf39/fYSIiMj6GCa4kbXIfn5+cHd3z1SXKPn6tDTbmZlh/cFNI9jZ5cONG/0sGtwExQbhnZ/fgelLExqvagw7Hzukptte8elHCQ0FFi4EypUDSpQA5s+H9juhD2YGgxsiIrJxkZGRiIiI+EuHqODgYFy/fl3tJyIismaGCG7khp08eRJXr17V92SMl5cXzp49i8DAQH2P8Vl3cLMX5883g719Idy8OQDx8ZabISXBTefNndWMm9d+fA0u/i7a/zFntekMCAAmTjSHNjLrZuVK+R3RBzODwQ0REdmwa9euqaVQ48aNg7e3t76XiIjIOAwR3CQlJWHBggXo3bs3vv76axw4cEC98D5sBo3cEQlr9u3bh2nTpuGzzz7D6tWr1YwdW5FTg5uA2AC039Bezbhpva41Lgdd1kdyDjnnHDoUKFIEqFsX2LIFSHmS1WIMboiIyAbJ+eDRo0cxYMAA7SXuGTz33HNYsWIFYmJi9COIiIiMwRDBTYr2rnT79u3o1q0bWrRogR49emDs2LGq5s2vv/6Kw4cPqxdmCTPk86VLl6pxOV7aOkrgs3//fpvqEpBTgxv/GH+8/tPrMI02oe36tnANzXkdxqTE0wcfAPnzAy+/DO25be40lWkMboiIyMaEhYWptt5t27ZVBYhz586N5s2bq+AmPDxcP4qIiMgYDFPjRkIXHx8fFcwMGzZMBTjSYapSpUp48cUXUb16dRVkyOcvvPCC9ob2ZXz++efYtWsXAgICkPhE1VutT04Nbvyi/fDympdhGmlCx40d4RXhpY/kHNeuAR07ar9I2m9Su3aAo6P2qD/JajEGN0REZENCQ0OxePFi1KhR44/QRgIcuQgYFRVlUzUPiYgoZzBMcHOPBDi3bt3C8ePH8dNPP2H69OkYOXKkahU+fPhwzJw5E+vWrcOxY8fUcbYW2Nxj/cFNU9jbF7R4cOMb5YtGqxrBNMykat0ExFiu1bhRSM4iM20kuOnWDbj8pKvFGNwQEZGNuHHjhjovlAt5Etrky5cPn3zyCRwcHFQnKSIiIiMyXHDzd7GxsarosMzGkVaOOeVF2ZqDm5CQnXBxqaO9/zfh+vWe2s/EcsuZPCI8UOu7WjB9ZsLbm99GWHyYPpJzODsDtWqZg5sPP5Ti2/pAZjG4ISIig5OOo3Z2dujVqxcKFy6sQpsqVapg4sSJKswhIiIyMsMHNzmVNQc3EREncP36+zh37iV4eHyFxETLdXBwD3dH0x+aqho3PX/pidikWH0k57C3N7cCl+BGihQ/cRdTBjdERGRwMiN71apVKrSRpVENGzZU50isZ0NERLaAwY1BWW9wI13A/BEWdhjBwVsRFeWM1NRofeTJSY2bL3/7Ev+35v8w/9R8JKcm6yM5x5Ej0E5MzcHNuHFP2FFKMLghIiKDS09Ph4uLi2pg0alTJ2zZskV1JSUiIrIFDG4MypqDm/T0VKSlJSI1NV77KCdNlisCmJSaBJ9IH1z+/TL8o/2Rrv2X0+zcCRQoYA5uZszQdz4JBjdERGQw0nFUZtlIYHOPLJe/cuUKrl69yno2RERkUxjcGJQ1BzeUdaTt948//hncLFyoDzwJBjdERGQgEtrs2LEDX331lWr5zeVQRERk6xjcGJR1z7hJUbNtUlNj1cwbS864yenkAuKSJebgJm9eYMUKfeBJMLghIiKDCA4OVsugWrZsqQoQt27dWnsZ017HiIiIbBiDG4Oy5uAmMdFXtQQPCtqAyEhHpKRE6SNPLuFuAoLjghEUG4SY5Bh9b84REgJMm2YObkqUANav1weeBIMbIiKycmlpafD29sb8+fNRrVo1FdpIq++OHTvizJkz+lFERES2ybDBjUyTjY+P/8f6ZiGfy37ZUmVtiQ2y3uAmHeHhx3D16jtwcamN27fHaj+HJ+1XbXY37S5OeJ9At63d0GJ1C3x/7nukpees2TzaOStGjDBnLNqPH9u36wNPgsENERFZubNnz2Lw4MEoX768Cm2KFi2Kjz/+GKdOnUJ0tOWaIBAREVkjQwY30iVg9+7dWLFihXohlxDnfsnJyXB2dsb333+PAwcO/GPcFlhzcBMSshMuLnW09/8mXL/eE3FxrvrYk0lMScT6y+tRdG5RmMaaMPzQ8BwX3Fy/DgwYYM5YGjWC9vzWB54EgxsiIrJScnK6d+9edOvWDQULFlShTa1atTBjxgztNVF7USQiIsoBDBncREVFoX///njnnXdgb2//j2BG7sjx48fRuXNnDBkyBImJUmfFtlhzcCPLpM6fb6b9bArh5s0BiI9308eeTHxyPNZdWoeKiysi17RcmHR8Uo4Lbi5fBrp3N2csbdoAJ0/qA09CTnzfe4/BDRERWZXIyEisW7cOLVq0UIFNrly51L/lwlyIrB0mIiLKIQwZ3Ej3gLZt26JXr16qSN2DBAQEqKszXbp0UUuqbE1ODG6ik6Kx6vwqVFhcAflm5sMMuxmGD25klZ/kivIUfdSWkGDeDh8GWrUyZyza0xtnz+rfKKPu/x87OQGdOzO4ISIiq3Lr1i28/fbbyJMnD/Lnz49OnTrh0KFDaik8ERFRTmLI4CYsLAyvv/46evbs+dAWkEFBQSq0ad++PeKkFY+NyYnBTURCBJadWYZyi8qh8JzC+Nrx63/UNzIa7ZwUmzcDP/xg3lavfvC2Zo25DbjUt6lY0ZyxfPSRebJMhiUnA66uwM8/m7/55MlA/frmNlVt2wLHj+sHEhERPT0RERFqds3LL7+MDz/8UHWPkuXwREREOY1hl0r16NEDbdq0gYODg773ryTYeOWVV/DBBx/Y5JWZnBjchMaHYqHTQpRZWAbPff0cFp9ebOjgxssLmD7dXKumZk2gWjWgatUHbzJWvTpQpoz2C6T9Bsk2apS5WHGG3bhhToCaNAFq1TInQRLayDeV4IYzboiI6CmJjY39ywmpXKw7evQoLstaYSIiohzKsMWJpTCxXIHp3r079u3bpwrUSZvIq1evYufOnWpqrYyvWbOGxYmzVdYFN7/H/o7Z9rNRakEplF1YFt+6fGvo4ObIEaB16z+DmMKFzS2+n332n1vx4ubtueeAsmXNE2TWrZMQU/9mGSHrrSQJuvc/LlYMKF0aeOEFYOxY8zQgIiKibOTv748NGzZgwYIF2jnEecPPqCUiIrIkQwY3IjQ0FBMmTECVKlXQsmVL1RJy/PjxGDRokJpp84L2JlTG5UTAFll3cLMb5869BDu7vLhxoy/i4y0TBPjH+KuCxMW/Lq4KFK88t1L7vxn3xG7nTqB5cyBXLqBePeDTT4EpU4Cvvnr4pj2lMXEisGIF4Ourf6OMOngQ2i+OObSR6T6ff27+5l9/DZw5A9hoC30iIrI+aWlp6sKbdIkqXbo0ChcujKVLl6qLdERERGRm2OBGrsR4eHio4EK6RzVu3Fh7D9pIhThS+2b16tXaG9vMvrO1ftYd3OzBuXNNYGf3DG7e/NBiM258o3zx5ZEvUWxeMbz4vxex9uJafcSYpLZNnTpAkSLAoEHQHjMJJAFplPFvm8y00c51M+fQIeDFF83BjfyPr1wxf1OpF5VNfwSIiIgktDmnvfh99NFHKFmypPayZFLBzfz589WyeCIiIjIzXHBz+/ZtjBo1Cn369MHXX3+NAwcOwM7ODlu3bsWmTZuwa9cunD171iZbgN/PeoMbICbmAjw9J+Hmzf7w9/8eSUmB+siT8Yv2U52kan1XCy3XtsQv13/RR4xHZoCvXWvOT2T5k9QHDgvTB7Pa/cHN6NHSb1UfICIiyh7S8fPXX3/Fu+++i4IFC6rQpmbNmpg7dy6uXLli8+dxREREGWG44MbNzQ3Dhg1TL/RNmzbV3ndqbzxzIGsOblJSorQTMlfExl7STry8kZZmmZMvaQd+0vskvnP5Dj9e/BE3Qm7oI8Yjwc3y5UC5ckCpUsDMmdIJTR/MavcHN9rvEmx0OSEREVknWRp1r1uUBDa5c+dW3UJltnR0dLR+FBEREd1juOBGlkhJK8jjx4+jefPmKrzYvn07Tp06pcIM2aT7gIzLv6V1pEzFtTXWHNzQv5PgZtEic11gKTa8ZMlTmnHD4IaIiLJJamqqWsY+ZcoUVKhQQYU2RYsWRbdu3XD48GF1jkdERET/ZMgaN/LCP3jwYPVinydPHlWIuHr16irIkE0KFss++fjZZ5+poMfWMLgxNskSZZZNvnzmbtyrVmWyQ1RmMLghIqKnIC4uTi1rf+mll1Ro8+yzz2LMmDG4dOmSTZ6rERERWYohgxtZ97xy5UrVNUqu2shyqZEjR6raN0OGDMEbb7yh1kvXr19ftQO3xSs41hzcpKbGISnJXy2Tuns3RHv8s+eJZSQS3EgjJ+koVbkytBNZWe+vD2Y1BjdERPQUSDhz8eJFvP/++6qZxKJFi1SjCSIiIno0QwY3EsQkJCSojgOxsbGIiYlRm/w7JCRELZuSKzgS4siyKQl6ZGpuUFCQzYQ41hzcxMZe0R7veXB3H6495uu1E7Xf9ZEnExYfht88fsOGKxtw3Os4QuJD9BHjkeBm5EhzdiKduaU1eEqKPpjVGNwQEVE2CQsL+0ehYWkqsXfvXtazISIiekyGDG4ex40bN9C/f398+eWXuHPnDr799lts27Yt2+5kVrPe4Ob+duAFLNoO/HzAeXTc2BGF5hTC+9vfx9mAs/qI8aSmAp9+as5OqlWTn6e57k22YHBDRERZTJa1S3eoJUuWqI6fkexgSERElGk2G9wEBweja9eu6Nmzp+pEJcuo5OQhKSlJP8LYrDm4CQnZjXPnXsLJk3lw40ZfxMff0seezBm/M3h59cswTTGhy5YuOBdwTh8xHglu+vc3Zyc1awJOTvpAdmBwQ0REWUhmNzs4OOC9995DiRIl0LZtW+2lR3vtISIiokyxyeAmPDwcGzduVDVu+vTpo6bpnjlzBteuXVNXgGyBdc+42Yvz55vB3r4Qbt4cYLEZN6f9TqPF6hYwTTOh5/aeuPL7FX3EeKQGY8+e5uykTh3g0iV9IDswuCEioiwiF8h+/vlnvPnmm8iXL5/2UmPCK6+8os5biIiIKHMMGdzIScG6deswadIkTJ48WRUolm3q1Klq30cffYQGDRqoE4W1a9eyHXi2yrrgxtHXES99/xJMU03ot7MfXENd9RHjkWX93bqZs5P69QF3d30gOzC4ISKiLCBL07/77js0btxYBTa5cuVSAc769esREBCgH0VEREQZZcjgRgoRy0ya559/HpUrV1atv2WTf8tWrVo1vPrqq+rkQYoV26KcGNzY+dih1re11FKpj/d+DM9IT33EeIKCgC5dzNlJo0aAr68+kB0Y3BARkQVJwwiZ1SwXz8qUKaNCG2n1LSeXjo6ONtMYgoiI6GkxZHAjN/T48eNq1s3mzZuxZcsWtcm/f/nlFxw7dkzVtYnPtv7K2S/rgpsnPbnKuuBGOkn953//gWmyCZ8d+Ax+0X76iPFI99MOHczZScuWQLZeiGRwQ0REFiKhzMmTJ9WJZOHChVVoU7ZsWdXdU87FbGWJOhER0dNkyOBGThLkxkp7yZSUFLUUSvblpCs6WRHcJCcHIzR0H6KiHLXHNLNFnLMuuDnieQQVFleAaZIJIw6NQHBcsD5iPFeuAK1bm7OT9u3NM3CyDYMbIiKykIiICNXBU5ZFSWjTqFEjLFu2DN7e3voRRERE9KRsojhxXFycuiOyflo2f+2NqK+vL7y8vNRSKVsMdCwd3KSkxCA4eBuuXOmIS5e6aI/jSiQm3tFGMvrYSVepnTh7ti5OnDDh+vVeiI+3TC2a/e77UWxeMZgmmDD6t9GITDRma1F5Ojo7m2faSHbStav8IuqD2YHBDRERWUh0dDQWLlyolqi//fbbqp6N7CMiIiLLMWxwIzNtbt++rToXzJw5U03JHTlypGr7LduIESPwySefqOLEcqytsXRwk5TkCw+PL+HoWEz73iacPl0ZPj5z1CycjElHePgRXLnSCc7O1eDuPgoJCZapRXPA/QCe/fpZNeNm0vFJiL9rzKVw8nQ8dgxo1sycnXzwAZCtpZgY3BARUSYlJyerpej3XxSTC2VyXuLs7KxmQxMREZFlGTa4uXTpEj799FNUqFAB5cuXR5UqVVCjRg1Ur15dbVWrVlUF8oYOHapOMmyNpYObxERvuLuPhoNDMRw5YsKJE7m0x7gtYmKu6kc8voSE2wgK2oA7d5YgLOwgUlIi9JEn43zHGR02dkCTVU2w5uIa3E3NniespSUlAXv3Ag0bmrOTQYOgPU76YHZgcENERJkggY2cf2zdulUVI75Xv0ZCnHtL14mIiMjyDBncyImDtAGvV68e3n//faxZswY7d+7E7t27/9h27dqlChW7uLiwHfhjSEz0we3bY+Do+ByOHTPh3Lkm2vv575GcnPFEQerjSFhz926IdlIXo53QWaYwYVRiFM4Hnsdpv9Pwj/E37BI4qZn9889A7dpA3rzA8OFAeLg+mB0Y3BARUQZJR0+Zxfz666+jVq1aapaznEQSERFR1jNkcBOuvctt06aNuuEy8yYnyprgZhQcHYtrW0l4e89ASsqfa9TT0hKRnByI1FSuW39S2rkv1qwBqlYFChcGJkwAIrOzXA+DGyIiygBZmj5v3jzUr19fe+kwqU1mPUsdQSIiIsp6hgxupOidFMAbOHCgugKUE2XFUik3ty9gZ1cAZ85U154YW/QRmQKdgqgoJ3h5TVbLn2JiLmj7Hj6LSWbCyCwb8ybH2V5x6CcRFQUsWwZUqgSUKAHMnCnPaX0wOzC4ISKixyBLoa5evarqBj777LMqsJFW3/3791ctwG2xhiAREZE1MlRwc29pTGxsLKZMmYIhQ4bA3t4eSUlJf4zdz6hLaR6H5YMbX9y+PRqOjiVw9mwD1WHqntTUOBXYODgUhZ1dQdy82V8FOenpD37CJCeHIDr6DMLDj2o/K1kDH6ePPJnk1GREJ0Wrzaj1bUREBDBvHrSTX6B8eWDxYnlO64PZgcENERE9gpw/JSQkqHCma9euyJcvnwptpK7g9OnT1QwchjZERETZxxDBjdSo8fDwwJkzZ3Dx4kWcP39edZPq168fevTogXXr1sHJyUmNXbhwQW1yjBwvX2eLAY6lgxupRxMY+BNcXfurJVNRUY76iJzApWhPlJ/h7FxFFS4+ebIILl/uoO3brP1sEvSj7klHRIQdbtz4QPsZtICn5xS1DOuJaT/CA7cPoOu2rnhv23s44X1CHzCe0FBgyhTzbBvJT77/3lz3JtswuCEiokeQk0OpH9iyZcs/QpsmTZqoGjdBQUH6UURERJRdDBHcSGvJL7/8Eq+88oq6sVIY74033kDJkiXVycTzzz+PFi1aqLF7m5xsyPETJ07MtjuWnSwd3EhBYQlYYmLOIzb2qvaY/bUocVKSn3ayth5XrnTA8eMmFeCcO9cYd+4s1r7ujn6UWUjIDri41FLHXb/+X8TFueojmZeSloKFTgthmmhS7cClq5RRab9zGD0aKFIEqFUL2LBBnuP6YHZgcENERI9gZ2enzqXkHCt37tzo0qWLavrAVt9ERERPh6GCGwlr2rVrh1atWqkbLQWK33zzTRXkyOevvfbaPzYGN5YjM5ciIo6p2TT29qVw9KgJp06VhqfneMTGXlfhjwgN3Yfz55tqx8iyqgGIj3dT+59Ewt0EfH3qa5immpBrRi6su7xOHzGewEDg00+BfPnMLcF//VWWl+mD2YHBDRERPYLMWO7Tpw9q1KihPsqsZiIiInp6DBHcSGAgBYkDAgLg6+uL4OBghIWFISIiApGRkarLlHweGhr6j02KF3OplOVIwWGZQePhMR6nTpVUs2rs7PLixo0+aqaOjIeFHcT5881gb1/IYsGN1LWZZT8LpukmFJpTCJuvbtZHjMfPD+jXz5ybNG8OHDwoS9X0wezA4IaIiO4jJ4DJ911BkM9l+fmPP/6Ia9euqSXrRERE9PQYIri5RwoRr1q1CvHZWhDEOlk+uElFamqM9iQI0U7ewrSTtEdPh05K8tfe73+nlkT99psJzs7/0Z5Mm7XvEY+IiCMWD27C4sMw+fhk5JqeCyXml8C2638WTzYaX1+ge3dzbqL97sHOTgpA64PZgcENERHp5OLXzp07sXXrVsTF/dlMQC565dTOnURERNbGUMHN5MmTVd0aufqT01m+OHGY9mTYAje3ofD0nIToaGdt76NnKqWkRCM4eDOuXu0GV9dBqj5OWlqydhJ4yOLBTVBMEMYdGYfc03Oj/OLy2OG6Qx8xHi8voGNHc27Sti1w9qycIOuD2YHBDRERadzd3TFjxgxVJ1CWl+/duxfSuZOIiIisi6GCm9GjR6NOnTq4fPmyvifnsnRwk5johVu3PsPJk7lx+vQLqhDxvwU390RHn0VMzJ8/k9DQvTh/vrle46Yf4uNv6SOZdyfqDkYeGoncM3Ljxf+9iD1ue/QR47l92zzTRnKTt98Grl/XB7ILgxsiohxNlkWdPn0aw4cPx7PPPqu9HJhUPZv169cjKipKP4qIiIishaGCmzFjxqB+/fq4ceOGvifnsnxw4w03t+FqlsyZM9W1J8ZGbW9mpoGkq691campat/cvNkb8fFP3lXKI8IDQ/YNUYWJq39bHQfcD+gjxuPmBjRubM5NunUzz8DJVgxuiIhyLFluvm/fPrz99tvImzcvcuXKhapVq2LatGnw8/OzybqARERERmeo4Gbs2LGoV68ezp8/rz5PTU1VN/phm1xRSklJUcfaGssHNz5wdx8JB4dicHGprT0xpPhvxk/epDixj89s7fsUgr19Ady6NQgJCbf10cxzDXXFwN0DVXBTd0VdHPY4rI8Yz82b5jbgkpv07i2/hPpAdmFwQ0SUI0mjh+XLl6NJkybIly+fmmkjS6Rkpk1QUBBDGyIiIitlqOBm+vTpakrvW2+9hf79+6Nv376qTeWDtg8++EB7U9wbS5YsscnwxnqDm3SEh/+Gmzf74Nq1d9X3uXs3Uh/NvJuhNzF432A89/VzeG3tazjhfUIfMZ4rV/7MTQYMALK9nACDGyKiHEUuZEmXKKkVWLNmTRXYSHAjJ3/79+9Xs3CIiIjIehkquJk9ezby58+vved8Uc28kXo3D9tq1aqlTk6GaW9M729xaSusNbgR5pbh1xAZeVx77EP0vU8mKC4IW69vxcTjE7HszDLcDn/yWTxPi4sL8Pzz5txk8OBs7iglGNwQEeUo0i1KunIWLVpUhTYVK1bE0KFDceHCBf0IIiIismaGCm6++uorvPDCC1i5ciUcHBxw4sQJHD9+/KGbhBtXr15FWlqa/h1shzUHN3+y3JTrdO2/1LRU3E27i5S0FENP59aetqhQwZybfPGFvjM7MbghIspRkpKSVLtvuahVQXsBmjVrFgIDA/VRIiIisnaGrHEjV4jkjbsEMlLn5mGbLJGyxdBGZE1wMwIODkXh4lLLQsENPci+fUC5cubcRHtKZz8GN0REOYqcM/n6+qpaNnv27EFIiGVmwxIREVH2MFRwI+3AJbi5nu39k62P5YMb6Sr1Oezs8sHZuQqCgjZoexncWFpqKrBtG1C2rDk3mTxZH8hODG6IiGzapUuXsG7dOnj9rW2hLJkiIiIi4zFUcDNq1Cg1zVdOSHI6Swc3SUn+2gnedLVM6tKlNggJ2aXttZ7gJjguGKd8T+HQ7UO48vsVxCZnd0Vfy0hIAH78EShdGsiVS+o26QPZicENEZFNkhM5Jycn1byhWrVqGDdu3D/CGyIiIjIeQwU30sJSukndvm3cwrSWYungJiUlCuHhR+Dru1B7H79SFRe2puDmqOdRvL3pbdT8tibGHhlr2OLEUVHAt98CJUsC+fMDixbpA9mJwQ0Rkc2J0l5g9u7diw4dOmh/3k3InTs33nzzTTg6OupHEBERkVEZKrgJDQ1Va7SlyF5OZ+ngJj1d6gXFIyUlQoU4aWnW9RjvdN2JusvrIv+s/Phoz0dwDXXVR4xFygp8/TXw3HNA8eLAd9/pA9mJwQ0RkU0JCgrCsmXL8NJLLyFv3rwquHn11VdVQWIJdIiIiMjYDBXc0J8sHdxYu+03tqPmdzVRcE5BDD0w1LAzbgICgClTzKFN+QrA2rX6QHZicENEZDNk+bg0b5ClURLYFCxYUC2VOnbsGBJkfS4REREZHoMbg8ppwc3ma5tRdVlVFJ1bFGN+GwOfSB99xFjuBAGjxgHPFANerA5s3KoPZCftZF578jC4ISIysIiICBw5cgQffvghChUqpEKbKlWqqHqA0n2TiIiIbAeDG4OydHCTlpaI+PjbiIx0RHS0C5KTf9dHrMO6y+vw/NLnUWxeMUw8NhH+0VkfNtxNAeJjUi22JcSm4uqlVAz+OBXFCqfipQap2PlLqvbg65u0nMrK7V5r/L17gYoVGdwQERmYq6sr3n33XRXYSD2bOnXqYMmSJQiQqZ1ERERkUxjcGJSlgxvpKuXtPRNnz9bH5cvtEBq6R9trPcWJ11xYgzILy6D4vOKYYTcDQbFB+kjWSIpJht/J27i63AHXVjjg+krHJ9purHKE2xpHHJ3miLEvO6JNfkd8WscRpxc4Ak7adlrbpIBkVm6nTsmcemD6dCBvXnNwM2IEgxsiIgPy1/52y5KofPnyoVWrVtixY4eahUNERES2h8GNQVk6uElI8MKtW4Nx4oQJTk4VERj4k7bXeoKb789+j+JfF8ezXz+Lrx2/Rmh8qD5ieakJybizYCs8X+uJ32v8H0JqtERozSfbwrQtonZL+L/YEleKtMQpk/axqLavTkvgNX1rmQ1bmzZA1arm0Ea2L74A/Pz0e05EREaRmJiI48eP47vvvsPBgwfZuIGIiMiGGTK4SUtLQ2BgINzd3eHt7a02Ly8veHp6qo/3PpePMmVYTm5sjaWDm8REH+3xHAkHh2JwcamtPTE2a3utJ7hZ6rwU+WbmQ9F5RbHEeQkiEyP1EctLiYrF7daDEKSHG0naFqNtURbY5Pskaluqtv0RnjyNLVcuc4Xk+fOByKx7LImI6MnFxcXB3t4ednZ2CA4O1vcSERFRTmHI4EaCmNWrV+Pzzz/HmDFj8MUXX2DYsGEYPny4+iib7J8wYQKmTJmC77//Hs7OzjbVEjOnBTeLnBYh1/RcqsbNd2e/Q2xSrD5iealRsQhs1w+RJhMS8xaGT6XX4PFSN3g1fg/ejbs/2dbE/NGveXdEt++O9G7dge7ZvHXrBrz3HjB0KLRfDP1eExGRNQoPD8f69evRpk0btSTql19+QarULSMiIqIcw5DBjVx5GjJkCEqUKKG2kiVLonLlyqoVZqVKldTnpUuXVsFG1apVUaFCBTRq1Ahr165FcnKy/l2MLacFNz9d+gl1ltdBs9XNsO36NiSmZN0sKglugtp/qGbIxFaqA7fZ2xF21R9J3oEW25J9ApHqFwgEPsUtJATaL4R+r4mIyNqEaH+nFyxYoM5vpABx/vz5MX36dMTHx+tHEBERUU5gyOBGwpcNGzagefPmaNCgAaZOnao+37x5s/r41Vdfqf1t27bF119/rWbe1KtXD+3atVPrwNPTrSeQyKycFtxI++8jnkdw3Pu46iiVlq53SMoCasZN+/7mpU1VG+PW+jPIuvk9RERE/3T16lWMHj0aL7zwAqRzVIECBVTr71OnTmXbCRsRERFZB8Mulfrpp5/UrBv5mJCQoI+YRUdH44cfflBLqXbt2qWWSK1cuVLNuhk1ahRSUlL0I40rpwU32ekvwU2VhnBbcRzRkVkXFBEREd0js2kOHTqEfv364ZlnnlGhjbzey0Womzdv6kcRERFRTmLI4EbaXXbp0gUDBw5Ua78fJCgoCL169ULPnj1VpwUp5vf222+jR48eNtF5wfLBjTfc3IbB3r4gzpyprj0xNmp7GdwwuCEiouwgjRekocLGjRvx+uuvq8Amb9686qLT0qVL2eqbiIgoBzNkcCNhjZzUvPPOO/B7SCtjDw8PtTSqU6dOammVzNKR4zt37szg5gGsfcZNaloqklKTcDftbpYvdWNwQ0RE2U3OVWR2sCz1zpUrlwpuOnbsiN27dyM2lgt2iYiIcjJDBjcxMTEYMGAAatasidmzZ6srVPfz9fVVdW9q1KihOk1JaHP79m11AtS7d28GNw+QnPw7/PyW4cqVt3DzZj+Ehx/R9lpPcCMFiXvu6IkpJ6bAM8JT35s1GNwQEVF2k05RO3fuVOc2UoR48ODBcHR0tIlzFiIiInoyhgxu5IbK+m+ZPSPhjCyJkrbfM2fOxKRJk9Sdkf3vvfeeOumR4MbJyUm1CF+xYgVr3DxAamoC4uJuIDz8N0RG2mkniv7aXusIbqQQ8ecHP4dptAmVl1SGs1/WtrBmcENERE+DdJFatWqV6hx1/fp1fS8RERHldIYMboSsBd+/fz/ef/99dXVK2oBLS3D5WKdOHXzwwQc4evSoOlaCGldXVxXeeHl5sauUwSSnJGPwvsEwDTeh7MKyOOd/Th/JGgxuiIgoq0ktPgcHh38UHJZzFlk2RURERHSPYYMbITdYlknZ29urVuDSSWrLli0qoJFixPcHNHKsnAzZQmgjclJwE5MUg4/3fAzTCBMqLq6IS4GX9JGsweCGiIiykre3N6ZNm4a6deti5MiRCAsL00eIiIiI/snQwc3fyfrwnCInBTdhcWH4cNeHaqlU1W+q4srvV/SRrMHghoiIsoqLiwsGDRqE8uXLqwLEzZs3h52dXY46hyEiIqKMMXRwIwX7Ll++jAMHDmDbtm3YunUrfv75Z2zatAnr169X68RPnDhhkydDlg5uUlIiERZ2AN7eM+Hn9z/Exl7WR56+gOgA9N7RG6axJtRZXgfXQq7pI1mDwQ0REVmanLPIEu9u3bqpNt8S2sjSbqnPd+3aNbUEnIiIiOhBDBncyHKn0NBQtTyqb9++aN++PVq1aoXXXnvtj61ly5aoV68evvrqK5tcK27p4CYx0RtubkNhZ5cPzs5VEBS0XttrHcvKvCK80GN7D5i+NKHRyka4EXJDH8kaDG6IiMiS5GRLLii1aNFCBTYS3Mi/V69ejfDwcP0oIiIiogczZHAjQYyc7Mj0YilMLF2lpO336NGj1Vpx2UaMGKGmIq9du9Ymukj9XdYEN1/Azu4ZnDlTDUFBG7W91hHcuIa64p2t78A03oQWa1qoz7MSgxsiIrIEOf/w8PDArFmzVAMFCW1y586tumJKAwXpeklERET0bwwZ3ERFRamwRoKb77//HleuXMHt27fh6empTpDubW5ubqprg60UJL6f5YMbH7i7j4SDQzG4uNTWnhibtb1P/3FL1/67/PtldNzUEaYJJvzfj/+HW2G39NGsweCGiIgsQc5DJkyYgLJly6rQpnjx4hg6dCguXLhgkxeViIiIKGsYMriR7gtyo3v37o24uDh9b86SY4Kb9HScDziPDhs7wDTRhDfXvwn3MHd9NGswuCEiIkvw8/PDkCFDkCtXLtVBasaMGbh1K2svPhAREZHtMWRwEx0djc8++0xtMrMmJ8pJwY1nhCcWnV6ED3Z8gIVOC/F77O/6aNZgcENERJZy5MgRDBs2DGvWrGHbbyIiIsoUQwY30plh48aN6N+/P+bPn6+uaMnyqZiYmD82CXdkX0JCgv5VtiWnBDciNT0VCSkJiEmOUR/T0rM2RGFwQ0REGSVdoVxdXXHz5k117nFvmbacs0RGRqqPRERERJlh2OBm2bJlaNCgAapWrYquXbuq4sQTJ078Y5NuUlKgWAIeFif+d9Yc3GQ3BjdERJRRTk5Oagl3ly5dsGvXLpu9cERERETZz5DBjZwMSTgjHaVefPFFVKtWDc2aNVMtweXOyCYtwSXYkePYDvzf/dlVqgCcnasiKGiDtpfBDYMbIiJ6FJnlu23bNrz77ruqALFsX3zxBUJDQ/UjiIiIiJ6MIYMbceLECSxfvhyrVq3Ct99+q2bg3PsoYcaSJUswZ84c7N27lzNuHkNS0h14eHyF06cr4fz5FggO/kXb+/SDG1kWFRIXgotBF3HG/wx8In1wNzVrn6gMboiI6HHcuXNHnYs0btxYBTYFChRQF5FWrFihlkcRERERWYLhghtZJuXv76/af8tH6Sol68glnJExuRPyuWzyb1ttt2np4Obu3TAV1ty+PQre3jMQHX1W2/v0g5vk1GTsc9uH7tu6o9VPrfA/5/8hLD5rizsyuCEiokeRejaenp6q1Xf58uVVaFOwYEG8//77OHr0qDofuVfjhoiIiOhJGS64uXbtmrqxshRKWmwePHhQLZ2SKcnSYjMgIECdUNk6Swc36ekpSEmJ0E42/ZCcHIjU1Hh95OmSYsRrLqxB1W+qoti8Yhh3ZBx+j2NXKSIiejpSU1NVPZu+ffuiZMmSKrSRj+PGjcPly5ez7WSKiIiIcg7DBTfSQUqWRM2cOROdO3dG06ZN8d5776Fjx4549dVX8eabb6Jfv35YuXKlmpFjqywd3Fir+LvxWH52OSotqYTi84pj4vGJCI4L1kezBoMbIiJ6GAcHB7Rt2/aPejZST2/p0qXw8fHRjyAiIiKyLMPWuLl48SLeeustddIknaXkTkho07JlS9SoUQMNGzZUrcJlBo4tyknBzTdnvkHFxRVRZmEZzLafzaVSRET01EjHKGmKUKxYMXXBaP369ewgRURERFnKkMGNnCD16dMHRYsWVSdNchIlAU10dLQqFCjdHTp16oTmzZurAoEsTvzv0tJSkJwcqj22Htrmg9TUaH3k6YpLjsMCpwUqtCm/qDwWnlqI8IRwfTRrMLghIqKHkdm8cm4xdOhQ7Nu3L0cszyYiIqKny5DBTUREhJqmLKHN4cOHVRHA+8XHx2P//v3qjskadFu8Embp4CYpKRC+vgtx4UJLXLvWDWFhB7W9T7+wYkxyjJpl89z859RyqWVnliEyMWs7dTC4ISIikZiYqIIauSh071xDgpqoqCi1dFvGiYiIiLKaIYObsLAwtG7dWtWy+Xtoc4+cVL377rsq4ImNjdX32g5LBzcJCV5wdf0Ex4+b4ORUDoGBP2p7n35wE50UjSknpqDI3CKo8r8qWHV+ldqXlRjcEBGRdK386aef0LNnT4waNUp7jXTVR4iIiIiyl2Fn3Eh9GwllLl26pO/9K2dnZ3XHunfvrmbg2BpLBzeJiT5wdx8JB4dicHGprT0xNmt7rSO4+fLIl8g/K7/qLPXTpZ8Qm5y1QRyDGyKinM3b21s1QpB6eVJLr3Llyup1l4iIiOhpMGRwI1OTZ82apTpKffbZZzh37hx8fX1VnRv5ePr0aXz88cdqfMGCBdl2x7JTTgluohKjMPzgcJimmVRws+nKJlWwOCsxuCEiypnkfOHq1asYP348ypQpo0IbKUIsJ0lnzpzRjyIiIiLKXoYMbsStW7fw6aefokKFCmjWrJm6A/L5+++/j0aNGqFixYoYPnw4PDw8kJ7+9AMIS8tJM26+OvYVSi0ohZfXvIw9t/YgMSVrawowuCEiypmOHDmCHj164Nlnn1WhTfny5TFhwgTcuHFDLZ0iIiIiehoMF9xIh6jIyEgEBwerluCLFy9G165dVSvwdu3aqY/dunXD119/jWvXrulfZXtySnBzN/UuLgZexNbrW3Hw9kH4RfshNT1VH80aDG6IiHIWWYIt9WzatGmD3Llzq9BGOlN+9913atkUERER0dNkuOBGlkOtWrVKLYGStt8ydfnChQuqJef27dtVNym5Mmbrckpw8zQwuCEiyjnkYtCaNWtQu3ZtFdgUKFAAHTt2VOcYnGVDRERE1sBwwY27uzvGjBmDLl26oG7duvjoo48QGhqK5ORkVftGukzJv+XOyL+z605lt6wIbtzchsPevjDOnKmhPTE2aXsZ3DC4ISKybT4+Phg5ciRKliyJ4sWLq46VclEoNTVrZ3cSERERPS7DBTcSznh6eqolUpUqVUKtWrWwceNGtS597969atu9ezd27tyJn3/+WRUqtsWTr6yZcTMC9vZF4OJSk8ENgxsiohxBLvJIUCMXgiZNmqQuEKWl8W8+ERERWQ/DFiceNGiQmtIsW82aNVVBYpmBU6NGDbU1aNBAhTqjR49WM3BsjaWDm+TkAPj4zMW5c01x5UonhIbu0/Y+/eAm7m4cNl3dhC+PfYnNVzcjND5UH8k6DG6IiGxXbGys9jp3BTExMfoe7dUuPV0ts75z546+h4iIiMh6GDK4SUhIUMWH5erYJ598olp/yyafyxRnKS4oHSEk2JCZOVLQ2NZYOrhJTY1FdPQZBAVtQEjIDu0x9tD2Pv3gJiQuBO/8/A7yTMqDblu74Xb4bX0k6zC4ISKyTbdv38bcuXPRt29fbN26FeHh4foIERERkfUy7IybR7l+/bqqgzNs2DA4ODiwHbiB/R77O15d+ypMw0x4c92b8Az31EeyDoMbIiLbIic40mly+PDhyJcvn5qtO2TIELi5uelHEBEREVkvmwxuhEyDlhk4slRK6uLYmpwS3ATEBKDZD81g+tyEDhs7ICA6QB/JOgxuiIhsh9SwOXbsGLp27YpChQqp0KZcuXJqRq40NyAiIiKydjYb3ERHR6N79+5o3769TbbzzCnBjW+UL5qsagLTFyZ03tyZNW6IiOixhYWFqVbfrVq1Qu7cuVVo06JFC6xevRre3t7sHEVERESGYMjgRpY+STATEhKi1qff2yIiItRJmkx9lpOyhg0bolevXqomjq2xfI2bGERFnUJg4GrtSbEF8fHWMX3cPdwdjVY1UsGN1LqJSfqzmGRWSY2OY3BDRGRgEsjI0qjZs2ejTp06KrCR2TbvvvsuduzYkW0nPERERESWYMjgRqY9b9iwQbXtnD59+h/bjBkz1EdZt960aVO8/PLL+OGHH1ic+DEkJnrD3X047O0L4cyZ6ggK2qjtffq1ga79fg0NVzZUwTsmUE8AAP/0SURBVI0UJ05Myfplb6nJqQh462NEMrghIjIcubjj5+en6tkUKVJEhTZlypRR3Sil7TcRERGR0RgyuJEWnjKTRtaoy1a+fPk/tueff161AZclUjI9Wmbg2KKsCG7c3D6HnV1+ODv/R3WXsobg5nzAedRfUR+mESb895f/Ijn1CVq7yxM8Olrmzj98S0pEqrcvfm/TCzEquGkAtxXHGNwQERmEzLZxdnbG66+/rkKbypUrq05Snp6eSEvj33IiIiIyHkMGN3JDpdDgpk2bsHHjRvXx3r83b96MXbt24fTp02rplK2yfHDjA3f3kXBwKAYXl9raE2OztvfpBzdOvk6o/V1tmEaZ0HdH38wHNxLKrF4NvPMO8PbbQKdOD97efRfp7TsgqVRFpEpw858GcFt+BNERPNknIjICmXETEBCAOXPm4NNPP8XatWvV50RERERGZbPFiW1dTghu5OT7mOcxVPlfFZiGm/DBrx9kPrg5fdoczJi0p18GtuiazXB9w3lExdpeS3kiIlvh7u6O4OBg/TMzX19fVfPOFjtLEhERUc5i2OBG6tYEBgbi5s2buHTpEi5evIjr16/jzp07NlmM+O9ySnBzKegSBu8bjFfWvIIlp5cgJS2T9Yp+/hlo3BjIlQsoUwZo0ABo0QJo1uyvW4tmSG3cDJ6lmuOYqQV2NZgMlwOhiM2e3w0iIsoACWVOnDih6tnMmjVLnQcQERER2RpDBjfx8fE4dOgQxo4di86dO6s70LJlS3To0EEVJpZlU3LH5I2/rcopS6Vkhk14QjiCYoMQnRSt780geR788APwwgtA8eLAZ58Bzs5AUJBckgV8fP7cgnwQd8MHo7v7oKzpDlo1jMTx4+lI4UopIiKrIicte/bsQdu2bfHMM8+gbNmy+Oabb/RRIiIiItthuOBGpkLPmzcPL730EkqXLo3q1aujSZMmaNasGWrXrq1O3KpWrYqhQ4fi6tWr+lfZnpwS3FiEFKNcvBh49lnzbBv59yNmZUnD8f8OMq+WqtYQOHZCeyQY3BARWY3IyEgsX75cvf7nypVL+3ttwquvvooDBw7oRxARERHZDkMFN3FxcWo2TbVq1VCnTh01NXrVqlX45ZdfsGPHDvz444+YPHkyWrdurQIc+XdoaKj+1bbF8sGNdJUaBnv7Z3DmTDXtiWEd7cAtQoKbadOAfPmAihXNs29iJJ55sNg4oH9/c3DTsCFw/Lj5WxAR0dPn6uqK6dOnq3MBCWwKFiyInj174uDBg4iKitKPIiIiIrIdhgpupJZNf+0dtcy2kVbfD7vBp06dwptvvqk2ufpmi+0/LR/c+OL27bHaY1cKZ8820J4YP2t7n25wk5qWqpZJ3Qq7BddQV4TFh+kjGZSaCowebU5iZLnU9u1A8sOLHMfGMrghIrI2MstGXt8/++wzFdZIaFO+fHmbn2FLREREZKjgRmbbtGvXDlOmTFHdIh5GihOvXr0a7du3x9SpU5GUlKSP2A5LBzfJySEIDFyNGzd6ws1tqHaCbKftfbrBTUxSDHa77kafHX3w31/+i103dyEtM2uWUlKATz4xJzHVqgFHjugDD8bghojIukjNun379qlzgLx586rQRmbcyNLpIKlXRkRERGTDDBXcyAnaK6+8gr179/7rLBrpLNG1a1f06dNHFTO2NZYObtLT7yI5OVB7rG4iIcEdKSmR+sjTExofiiXOS/D84udRdmFZ/M/5f0hNT9VHM0CCu169zElMrVrAuXP6wIMxuCEisi6pqamYP38+ChQooEIbWRItF3P+3gKciIiIyBYZKrj56quv0LhxY5w9e1bf83BhYWHo0aMHOnXqpGrj2BpLBzfW6Pe43zHLYRae+/o5tS11Xpq54CYiAnjnHXMSU78+4O6uDzwYgxsiIusiF2uOHDmCQYMGoV+/fqqbVPIjlrwSERER2RJDBTfS/rtRo0Zwc3PT9zycnOT16tVLtQmNlXfiNiYnBDcBMQGYdnIaSs4vieeXPI/vz32fuaVS3t5Ahw7mJKZFC8DPTx94MAY3RERPlyx59tP+VkdI8K6TWTeyTPrGjRvq30REREQ5haGCmzFjxqiW305OToiJiXnkFhgYiM6dO+ONN95gcPMY0tPTtBPheKSkRGhbFNLSnv6VzDvRdzDh6AQ12+Y///sP1l5cm7ng5tIl4PXXzUlM+/bQnhz6wIMxuCEienokrJFOkePHj8e6deuQmJiojxARERHlTIYKbiZNmoSiRYtqb6r7q1bfEydOfOAmx0nIU6FCBXTo0IE1bh5DcnIwAgJW4tq17rh16xPtxPmEtvfpFif2ifTBqEOjUHxecdT8tiY2XtmY8eBGChOfPAk0b25OYt5/H/iXmggMboiIng4pNLxw4UI1u7ZEiRJ4++23VUdJW+wOSURERPS4DBXcfP/99yqsaNKkCV5//XW0atVK3fi/b7K/ZcuWqFy5smobyq5S/+7u3XC4uQ3DyZO5cPr089rJ8zpt79MNbjwjPDF0/1AUmVsE9VfUx7Zr21RnkQyRK7W7dplr2+TKZe4uFfbotuIMboiIst/FixfVkugqVapof39NquX3559/Di8vr4z/7SciIiKyIYYKbi5cuIAlS5Zg0aJFWLp06SM3OU46UBw8eNAm18JbJrhJ137ooYiJuYiQkB24ebM/HByKwMWltvbE2KzGnyb3MHd8tOcjFJxdEI1XNcbOmzszfvIuhal/+gmoXh0oUEAKJZmLFT8CgxsiouwjS6EcHBzQt29f5MuXT4U2Et7IzFmZbUNERESU0xkquJGp0nIjpZPE4262WsDQEsFNenoKoqJO4datT3H+fDOcPVsf9vbPaB8bWEVwczPkJnr+2hO5pudCk1VNsNdtr3aLMniboqKApUuB558HSpQAZs0CoqP1wQdjcENElPVSUlL+qGcjM2UlsMmdOzfq1KmDb7/9Vi2b4kwbIiIiIoMFN/Qny8y4SUNs7EW4u4/E6dMvwM4uP06cyIVz5xpbTXDT69deyD8rP15b+xp+8/hNH8mA0FBg2jSgZEmgcmVg2TJzMvMIDG6IiLLenTt3VD0bCWpy5cqlgpt27dph9+7diIyM1I8iIiIiIgY3BmWpGjcpKZEICFgLF5e6OHLEhKNHTWrGTVDQem306QY34QnhOOxxGCvOrsCOmztwJ+qOPpIBQUHAiBFAoUJA7drAhg3SZ1YffDAGN0REWc/V1RW9evVSgU2BAgW0v7v9YW9vr2bXEhEREdGfGNwYlCWLE8fF3YK39zQV3pw8+QwuXnwdYWEHtREbmKLu52dOYfLkAZo0AfbskRZa+uCDMbghIsp6wcHB+Oabb1SzgWHDhuHatWv6CBERERHdj8GNQVkquElPT0NaWjKSkvwRELAG16//F97es5GY6KsfYXDe3kDXruYUplUrwM4O+Je6RwxuiIgsLyoqStW0uUfq1wQGBuL06dMqxCEiIiKiB2NwY1CWKk4cH++G8PBjiIx0RGzsde1zdyQn/66N2UhR59u3gdatzSnMW28Bj9GhhMENEZFlBQQEYM6cOfjqq6/gJzMh78OlUURERESPxuDGoCwR3KSlJWgn0z/g8uW2uH79fYSHZ6L4bxYKig3CLzd+wcpzK2HvY4+YpBh9JANcXc3pi6Qw771nnoHzLxjcEBFZzvnz5zFixAg8//zzKFu2LBYsWICQkBB9lIiIiIj+jaGDG7lKd/v2bRw8eFC1E71+/bqaei0twH18fODl5aW9CdfehdsgSwQ3qamx8PQch5Mnc8HJqQz8/ZcjJeXRrbKz09mAs2i3oR1eXPIiJhybAP9of30kA65cgfZAmVOYDz8EHqNTCYMbIqInFxMTgwMHDuCDDz5Anjx5tL+pJtSuXRuLFi1SJx9ERERE9HgMFdxIKJOUlKQ+yo2VdfFjx45Fy5YtUaZMGUyZMgUpKSnqmO3bt6urerbaocJSwY2X1yTtMSqkPZaVERCw0qqCm5M+J/Gfb/4D00QTPtn7SeaCG+05ggoVzCnMkCH/Wt9GMLghInoyUstm/fr1ePnll1Vgky9fPjRu3BjLli1DWFiYeh0nIiIiosdjqODm1q1bOHfuHOLj43H27Fn06dNHnRRKO1EJbj777DMV2kh4s2fPHvTu3RszZ85E8r90ETIiywU3k+HgUATOzi8iIGCVVQU3x72Oo8KiCjBNMGHo/qEIjstE8cqDB4GyZc0pzOjR+s5HY3BDRJR5/v7+mDFjBqpVq4ZcuXKp4KZLly7Yt28fIh9j1iMRERER/ZUhgpvo6Gi1FOqLL77A6tWr1Y2WIoetW7fG0qVLVYjxyiuv4JNPPlGhjlzJk2VT77zzDvr27as6WciJpC11rcgJwc1Rz6MovbC0Cm5GHR6FyMQMnvDLE3rLFqB0aXMKM3WqPvBoDG6IiDJOLpo4OTlh8ODBqFChggpsnn32WXz++ec4deqUGiciIiKijLP64CYuLg779+9XN/DDDz+Eo6OjCmAklOnZsycSEhJUMNO2bVt89NFHf9S0kWna3bt3R48ePeDh4aGu/knIYStX+3JCcHP49mEUn1ccpvEmjD86Hgl3E/SRxxQTAyxfDpQsCeTNCyxYoA88GoMbIqKMk2Bmy5YtKF5c+7ut/QGtXr06pk6dqmrREREREVHmWX1wExoaqr33Xo7OnTtj7ty5qhOFhDIy20aWSgkJY9544w0MGjRILZUSQUFBamq2LJe6ceMGunXrho8//hh37txR40aXE4KbA+4H8MysZ2AaZ8KUE1OQmpbBFuXStWTOHODZZ83bihX6wKMxuCEiyhxZzvzuu++iWbNm+O6771SBYiIiIiJ6MlYf3MiNunnzJr766it07doV69atQ0BAgJp9I7NppHuU3Ik333xTBTdyvBQjlk4Wsk+WV8kMnaNHj6pCxYmJifp3NjbLBTfm4sTOztZXnHjPrT3IMyMPTF+aMNN+pr43A7TnBsaNA4oVA154AdiwQR94NAY3RET/Tl5r5TX3/kLDEtRI++8LFy6oiyxERERE9OSsPrgRclIo4Y10o9igvfmWWTgS4MgsmzFjxqilVHIn+mvvtuW4nTt3on379mpWztatW9X0bTnBlDbhtsIywU0MPDykHbgJp06Vhr//d9pjFaWPPn3bb2xHrhm5VHAzz3GevjcDbt0CBg8GChcGGjQAduzQBx6NwQ0R0b87duyYWoYsRYdlyTIRERERZQ1DBDf3yJIomWEjN1SWPEn77zZt2uCtt97S3psXxgsvvKBm5bz22mvaG+6GammVLJmyRZYIbtLSEhAYuBqXL7fH9evvIzR0D1JT4/TRjJOALTQ+FCe8TuC493FEJD7Z1da1F9eqwsSmL0yYZT9L35sBly8D778PFCwI7VkOHDmiDzwagxsiooeT2nMyq/Xea69cJJGixERERESUNQwV3PydhDiLFy9Ws2vq1KmDGjVqoGbNmujQoYOqiyNLqiwhPDxc1clxcXFRU8DvhUeZ4efnh8uXL8PT0/OPejyZYYngJj09FQkJHoiIOIGoqFPa7fHX9mW+60dCSgL2uO7Bm+vfRMs1LbHi3Ar4Rfvpoxm3z20fmqxqgnpL62HDlcdb5vQXzs5Au3ZAgQJA587A6dP6wKMxuCEiejC5GCIzXqWGjRQgzpcvn+rqKLNviIiIiChrGDq4EdJFytfXF9euXVPBiqyrl9k40hbcEiSkWbhwoepaJaFQ/fr1VS2d49q7+YzWy3F3d8enn36KKlWqqKLJ0u0qsywR3JilqQBHNuDPOgWZERIfgmknpqHconLIPTE3Xlj6Asb8NgY3Qm4gVX3/jIlNjoVXpBc8wjwy3gpcnDgBNG1q7ij1wQfA1av6wKMxuCEi+id5zZo2bRpefPFF5MqVS/vTmld1eJTXo3sdHYmIiIjI8gwf3GQleXBmzpyJevXqqSVY48ePxyeffIIWLVqoWT0nJBh4TNHR0arAsoQtRYoUUd/j6mMGCQ9iueDGcgJjAzHq8CiUXFBSdYIyfWVCqQWl0POXnjji+XjLlCzqwAGgWjVo7zCAzz4DPD31gUdjcENE9FdS3F86M1aoUEHNtClVqhSGDRumukhJDTkiIiIiyjqGCG6kuLDMcPnhhx9UceL7t40bN6pt06ZN2Lx5s/oon8vY6tWrcfLkyUwVJZZ6LTt27MDLL7+MV199VQUlMsNGZvPIFceyZcti9OjRj1VDR7psbNu2TYU97dq1Ux87duz4RMHNkSNHLBDcpKuaNsnJIdoPP0z7d4Lal1lBsUFqho2ENYVmFULROUVVeFP92+qq0HC2+/VXoGRJcwIzYYK5PfhjYHBDRGQmteWkyL/Us5FZNhLaNGjQALNmzVKzSImIiIgo6xkiuElISMCIESNQrVo1NG3aVK2t//vWvHnzPzb5XI6rXr06xo4di+TkZP07PT4Ji4YPH65m20g4cv/SK1mWJcGLLJ+SjlaPIlciZe2/tC6fOHEivv/+e7VMSsKbK1eu6EdlnJ2dHapWrYqlS5fqezIuPT1ZOym3x507i+DvvxwxMRe125v5ujuBMYEYsn8I8szMgzILy+CtTW+hzbo2mOs4F96R3vpRjyctPU0tj/KN8oV/tD/i72Zi6dumTUD+/OYEZu5ceSLpA4/G4IaIyEyWC8sJwr16Ni1btsT69etVoENERERE2cMQwY0EL2vWrMGQIUNU+28JY/5tk+M+++wz/PTTTyqEySjpmiFr9+XKogQvMgPnHn9/fzXbRkKiFStW6HsfzNXVVd0W+V6nTp3C2bNn8d5776mZN48T3EgB44iICDWzRzb5gcmyq59//ll10ZIW6Zkls218fGbj9OmK2u1qgMBAeaxi9NGMC4oJwsjDI/Hs18+i0cpG+OH8D7jy+xVEJ0WrIEbI4xieEI6IhIi/PKZ/J1/z681f8fGej9X3PBdwTh/JgNWrzemLbMuXy/9cH3g0BjdERGbS5luK/detWxdvv/22msVqqRpyRERERPR4DBHcyBt8CS1kWrYUR5SOTP+2yXFyvNzBRwUEDyNfJ63GpRaNdIG6X3BwMObNm6e9qW+IOXPm6Hv/SR7Q2bNnq+8jy7hkqZV0perWrdtjBzdScHnkyJHqKqds0ur89ddfVyfRUitn7dq1+pEZl5oaoz1O47QT8VxwcioDf//vkJISpY9mXMLdBJz1P4vN1zZjr9veB3aUktBmtv1sFcgcdD+o7/2n32N/x9QTU/Hc18+h+jfVsdN1pz6SAbKM7F5ws+Hxu1IxuCGinExmit6rWyMf5fX38OHDOH369B/7iYiIiCj7GCK4eRpkenirVq1UUCKtwO8XGhqKRYsWqWVUM2bM0Pf+lcyU2bVrF95//31V4PgeCYF69uyprlxKvZx/I+GOhEPyNbL16tUL/fr1U+FN8eLFVR2fzEpNjYWX12Q4OBSBs/OLCAhYhZSUaH3U8u6m3sUJrxOosawGTBNMeGPdG6rNt8y++TtZIjX80HCYpplQdmHZjNfIkSfzrFnm9CVfPmDHDn3g3zG4IaKcSGZ3/vLLL/jmm29w6dIlfS8RERERPW0Mbh4iMDAQrVu3VsWJ/z4zRmbcfP3114+ccSNXKCWceemllzB//nzVgUqWXC1evFjNnGnSpAlWrVqFmzdvqho+DyOzhaS4siz3ureJAwcOqLbiT1KcOLuDm8SURPzm8Rs6b+mMwtMKwzTRpGbTLDm95B+zczzCPTD0wFDkm5kP1ZZVw27X3frIYwoPB8aONacvUqBYOkw9JgY3RJTTBAQEqMCmTp06KFy4sJpV+qjXJiIiIiLKPgxuHiJWe/cuwYuEM7Km//7lVnKCK63BpQjyt99+q+/9K19fXxX8yKwYqUUjhZWlmLC0Ui1UqBAKFiyo/j1lyhT4+f1zSdG/kS5b8v2sKbhJly5V6alISUtBalrqP5aoyedSZNjZ3xkDdw9EgVkFYJpiUsuhRh4aiZshN/+oheMe5o5BewYh/6z8qLeiHg64P37wovj4AJ9+ak5fpCX4sWP6wL9jcENEOYX8XZalxePGjUOZMmW0v3vmIsTyGif13IiIiIjo6WNw8xAys+VT7Y2/LIeSNuT3d6aS2jldu3ZVwczOnQ+uvSIFhKUFuCypkiuXMjNn7ty5+Pjjj1G7dm3Vynvo0KGqO5QUf8woS7QDt3RwE5sci+Nex7Hy3ErsvLkTd6Lu/BHE3E8CnlthtzDlxBSUW1gOpvEmlJhVAj1/6YljnsfU18iMm347+6lwp/GqxmqmToZcuwb07m1OX5o2BRwd9YF/x+CGiHICCW0ctb+Nsvy2dOnSKrQpVaqUKvB/4cIFVaSfiIiIiJ4+BjcPISe0GzduVG3F27dvDycnJ1WUUerbLFmyBBUrVlRdq6QWTkxMjOoYtXv3bty6dUv/DubwRwoSS+hzb5mTLJd699138eabb6pCxZn122+/WV1wExgbiLFHxqL2d7XRa3svOPo4qtk3DyPtw7858w2a/dBM1byRpVPtN7bHrzd+VQFQnx19UHB2Qbyy5hUc9z6uf9VjOn0a6NwZyJMHaNsWOPf4XakY3BCRrQsLC1PdCTt16qQCG9lkhqlcbHic+mtERERElH0MGdxIqCJ1X7KaLHeSVt41a9bEgAEDVOvtSZMmqQfslVdewd69e9VxXl5eavaM1MP5ty5PUuumQ4cOqs7N43SVehhLBTeenuNhZ5cHTk7l4O+/HE/SVcon0gfvb39fLX9quqopDt0+9MjgRkjB4m3Xt6Hjpo4oMr0I8s3Kh6+OfaXCm56/9kShOYXQel1r2PvY61/xmBy0419/HXimAPBBD8Dzqj7weAYNYnBDRLZHXjslmJFlvg0aNFCBjSzflRmkGzZsUIX1iYiIiMi6GDK4kRkszs7Oaiq3zHbJqhsuAZEUD5awRoIaKQZcvXp19WDJEin5fwsJboYPH666UP30009q38PIzJ0+ffqoluB/71aVEZYKbry9p+PUqZJwcamBwMA1TzTjRoKbHtt7wDTVhJfXvIyjnkf/NbgREt443XHCR7s/wpvr38QRjyNwvuOswpzcM3KrfafunNKPfoAU7ecfH4/0mFikRcciNUr7uHEzUL8+0gsXwd0BnyD+sruaSfM4m/Y7gQ8++DO4kfI4DG6IyBbILNCtW7eiefPmKrSRemu9e/dWy3bvXxJMRERERNbDkMGNBCYyA0auFspMF2lfKnckq0jxYHt7e7UUSro5yUyZ+7ttxMfHqxDmzJkz/1poWNqtytdfvHgRUgA5sywR3KSlJSEs7CA8PMbD23smoqJOIzU1UR/NOO9Ib7y3/T0V3LT8sSVOeJ9QRYofh9S1cQ93x6WgS6pWjqOvI1qubam+V7sN7eDs56wf+TdSg2H3LmDsaKT0HYCIHoPg32kQwhq0AQoXQly+Z7Gv3nh82dMX/QcDHw8yz6Z52DZYO0aWSVWtyuCGiGyPzLiRCxKyZFcK50+cOBGXL19W+4mIiIjIOhkiuJGrgNLd4t4MF5nKLcuWZG2+zISRmS5yB6ZPn479+/errk+2zhLBDZCm/dAjkJDghcREXzXbJv0BxYQfl1eEF7pu7aqWSrX6qRXsfOxUl6nMkBBo3aV1mGk3E5uubPpHu/A/SC2G7t2A4sXMSYu2peib/Pt3UyEMMi1BPlPEveEMbbVrA87OMvtK//8RERmM1FeTGaT3k86EsjRKlgQTERERkXWz+uBGZqjs2bMHS5cuVcuTZEaLFAkW0sJUOj71798fjRs3Rv369dGlSxe1tElmx1y6dEkVE7ZFlgluLEuCm3e2vKOCm9Y/tVbFiTMb3Dw2V1egejWVskSbiuJmrjq4bGoAn2L1EVa5EW7U7Iov6p/ES/Xvon49oN5jbtpTSTWj+vxzmXGl/7+IiAxGuiD++OOPOHTokOp2SERERETGY/XBjUzhfuutt9C5c2d8+eWX2LJli1qadI/MvpGTUTlOQpxevXqpQKNs2bJo06aNasUtHZ9CQkKy7Q5mB2sMbjwjPNF5c2eYJpvQZl0bnL5z+oHtwC1KgptaNVRwczp/K/QqsAPt8hzF0vYHcWHhMVzYcA3H9yfg4GHg0EHg4GNuBw6YO4jLxWiuICAio5GlT1evXsWwYcNUi2/pjiitv4mIiIjIeKw+uJFivtKSe/z48fj111/VTJqHXTWUmjEHtXfdUmgxf/782nt5E0qXLq1m4vTt21fVp7GVjhmWCG7S01O1xyNAe9wuIy7uuvYECFX7MssjwkMVFDZNMuGNdW/gjN+ZrA9upP16nVoquNlV4L8olScCeXKnYtqkuwgJSkVULJCgPa/vpmibfMzARkRkVIcPH0b37t3x3HPPqdfCOnXqYPv27X/MWCUiIiIi47D64MbNzQ1TpkxRBYi9vb1VrZu/d76Q/RLozJgxQxUtlqKLMktn8ODBqvBiv3790KJFC7WMaseOHTZx4mqZ4sQJ2hNgE27c6Ilbtz5BePhvSE39czZTRrmFualuUqZRJry8+mVVUDg7g5tteT9AXlMSTLmA+dYzEYmIKNtERUWp2jXS3lsCG9mkFpy8VkgR/b/XuiEiIiIi62f1wY0si3J1dcW1a9dUvZt7JMBxcHDAmjVr8Pnnn6Njx45o1KgRWrZsqVpzy+ycsLAwdax8/P7771GpUiW89957NtHy1BLBjbQD9/Qcj5Mnc8PJqaz2mC5HSkqUPppx/tH+GPvbWLRe3Rpjj4yFW6hb1r9JuC+42ZqrF/KaYlVws5TBDRHlIHJBwsvLC0uWLEHNmjVVYFO4cGH12ij14e7vhEhERERExmL1wc0998+SkeBlxYoVeO2111ClShXVFlxm2mzcuFHN0JGw5++tTYODg9W0cQlubGG5lKWCGy+vibC3fwanT1dCQMD3qrNUZqWkpiAoJgi3w27DP8YfiXcz31r8sd0X3Gwx9UIuCW60Z9i33+njREQ27l49G7lo8eyzz6rQpkiRIup18dy5c/94PSQiIiIiYzFMcHO/uLg4dYLatm1bLFiwQLU1lcBGatw8inTVkCVV0hrV6CwX3EyGg0MRODu/iICAVU8U3DwVDwluvl+pjxMR2bjIyEhMmzYNxYoVU6FNxYoVMXXqVNV5kYiIiIiMz1DBjSyXkpBGWnwfO3YMR44cQUxMjD767xITE21mujiDG93fghuTHtysXqOPExHZOJllKkuk6tati1atWuGbb76Bn5+fPkpERERERmeo4GbZsmWqOxSvIlpncJOcmgzfKF/cCL2BwNhA3E3NhifUQ4Kbn9bp40RENujvRfZv376NLVu2YO/evRm6oEFERERE1s9Qwc3YsWNVPZvLly/re3IuawxupL7NHIc56LejH1aeX4mQuBB9JAs9aKlUHmDDRn2ciMiGSI02Z2dnHDx4UBXuv3/pr4Q57BpFREREZHsMFdyMGjUKderUwZUrV/Q9OZflgptJcHAorL0ReAEBASufKLi5FXYLrX5qhSJTiqDvzr7wjvTWR7LQfcHNZlMv5DbFIldBYPMWfZyIyEbIi7QENp06dULVqlUxbtw4tXSYiIiIiGyboYKbMWPGqJbfvr6++p6cyzLBTQw8PMbh5MlcOHWqDPz9v8OTtAO/HnIdtb+rDdNIE7ps6QKvCC99JAv9LbjJY4pFvqLA1m36OBGRDZDOiCtXrsTrr7+u/bkzqa1nz56sZUNERESUAxgquJk0aRIqVaqE2bNnq9bfj9o2bNiAtWvXws7ODrbYCtUSwU1aWrx20r8M5883w+XL7bU3BtvVLJzMuhFyAw2+bwDTWBP+u/2/uBN9Rx/JQn8LbvKZYlGoBLD9F32ciMjgZEnUzJkzUa1aNRXYSPeorl274ueff1YdpYiIiIjIthkquJkzZw7y5MmDsmXLonr16uok9mGbhBqlSpXCkCFDkJycrH8H22GJ4CY9PQWxsRe1J8EWhITsQFycG9LSMv8kkOCm7oq6MI0xoecvPeEf46+PZKH7gptNpl7Ib4rFs+WAHTv1cSIig5J6NpcuXcInn3yCIkWKqNCmRIkS6nXt/PnzrGdDRERElEMYKriZOnWqOmkdOHAgpk+fjilTpmDy5MkP3GR2jtTE2bx581+KN9oKSwQ3Ij09Gamp8UhLS1BBjrbHPJAJ14Ovo9Z3tWAabULvX3sjKDZIH8lCfwtuCphiUboSsHuPPk5EZECJiYnYv38/OnbsiMKFC6vQpkqVKliwYAE8PT3/0VWKiIiIiGyXoYIbKcRYs2ZNHDlyRN3wwMBABAQEPHSTtf8RERE2eVXSUsGNJV0LvoYa39aAaZQJfXb0yfauUhtNvfCMKRYV/gPs3aePExEZ0OnTp9G+fXsV2MgmtW1kCXBISDb8XSUiIiIiq2Ko4EaKEzds2BA3b97U9+RclptxcxdpaYlqe9IZNxLcVP2mqgpu+u3sh7CEMH0kC/0tuCloisUL2qcHDurjREQG5OLigu7du6Ny5cqqi9S+ffts8iIEEREREf07QwU3w4cPV7VtZM1/Tme5GjeXtCeB1LjZifh4N21f5usBXQ66jHKLysH0uXmpVERihD6She4LbjaYeqGQKRbV6gOHf9PHiYgMQJY+3V+PTZb4SnizcOFCNfuGiIiIiHIuQwU3Y8eORf369XH58mV9T85lieAmNTUOvr4LcOZMdVy40EJ7MmzU3izE6KMZd+X3K6i0tBJMI0wYsHsAYpIy/70e29+CmyK5YlG7EXDkqD5ORGTl4uPjtb/DZ3D48GFERUXpe+VvdKrqGmWLnRGJiIiI6PEZKriRLhp79+5VdWtyOssENzHw8PgSJ0+acOpUSfj7f4uUlD/fNGSU1LRZcW4FZh2dhX1u+5Ccmg3dvO4LbtabeqFo7lg0aA4cP6GPExFZsdDQUHzzzTdo3bo12rZtq5ZESZBDRERERHSPoYIb+pNlgptYeHlNhoNDETg7v4iAgFVISYnWRzMuXfsvJS0F8SnxuJuaPU+mvwc3xfLEoulrgJ29Pk5EZKWuX7+uOiTK33IpQFyyZEmsX7+ewQ0RERER/QWDG4OyxuDmqfhbcFM8byxeaQM4ntLHiYisjAQzp06dwqBBg/DMM8+o0KZ8+fL47LPPcPXqVf0oIiIiIiIzBjcGxeBGd19ws87UC8/lj0Wr9sBpZ32ciMiKSAHibdu2qWVR90KbmjVrqiLEAQEB2fZCTERERETGweDGoKwxuJH23wdvH8Smq5tUoeJscV9w85OpF0oUiEXbzsAZF32ciMhK+Pr6YtGiRWjSpIkKbGRr3749Nm3ahODgYP0oIiIiIqK/YnBjUNYY3Fz+/TLe+fkdNPpfIyw5vUTfm8X+FtyUfCYWb3UDzp3Xx4mIrEBCQgK2bNmCypUrq8Dm2WefRZ8+fXDkyBHt726KfhQRERER0T8xuDEoSwU3np4TYGeXD05OFeDvv+KJghs7bzuUXlAapmEmfLb/M31vFvtbcFOqYCze+S9w4ZI+TkRkBaSt948//oi6deuq8GbEiBFwdXXVR4mIiIiIHo7BjUFZbsbNFDg4FIOz838QEPDDEwU3x72Po9SCUubg5kD2Bzc/mnqhTOFY9OgLXGZ9TyJ6ytLS0vR/yd/bVNy5cwfLli1TS6P8/f31ESIiIiKiR2NwY1CWCG7S0hIRHLwNrq794e4+DOHhx7Q3Fwn6aMYd9TqKsovKwjTShOGHhut7s9h9wc1aUy+ULRKLXgOBa9f1cSKip8DLyws7duxQYc39QkND2e6biIiIiDKEwY1BWSK4AVKRlOSPmJjziI29guTkEKSnp+pjGfebx2/m4GaUCSMPj9T3ZrG/BTflisai32DgJlcgENFTcvHiRXz++edo3rw5xo8fDzc3N32EiIiIiCjjGNwYlGWCG8uSjlJlF5aFabQJo38bre/NYn8LbsoXi8VHQwE3d32ciCibyEwaBwcHfPDBB9qfJHPXqNatW8POzk4/goiIiIgo4xjcGJQ1Bjf73PahzMIyMI01YeyRsfreLHZfcLPG1AsVi8diyEjgtoc+TkSUDaKiorBt2zb1gpo3b14V2tSuXRsrV65EeHi4fhQRERERUcYxuDEoSwQ36elpqhhxUlIAkpN/R2pqnLYvXR/NuN2uu1F6YWmYvjRh3NFx+t4s9rfg5vlnYzHsS8DLWx8nIspiUsdm/vz5qFev3h8zbTp06ICdO3eqmjZERERERE+CwY1BWao4cWjobri7fwFPz68QGWmP1NREfTRjJPDZem0r8s3KB9Pwp1PjRoKbSiViMXoi4OOrjxMRZRFZGuXo6IgxY8agUqVKKrApWbIkBg4ciOPHj+tHERERERE9GQY3BmWJ4EbagXt6ToCdXV44OZWDv/+KTLcDl+DmqOdRtFnXBg3+1wDLXJbpI1nsvuBmtakXXigZi/HTAD922iWiLCYtvT/++OM/ZtnI32QpRuzqyuroRERERGQ5DG4MynLBzVewty+A06cram9Cvs90cCPC4sNwxu8MTniegFeEl743i90X3Pxg6oUXS8Vi8mwgMEgfJyLKIhLc9O3bF8888wzq16+PVatWITg4WB8lIiIiIrIMBjcGZangxstrMhwcisDZ+UUEBKx6ouDmnnTtv2zzt+CmSulYzJivPbH53omIspgslTp06BCWLFmCX375hUWIiYiIiChLMLgxKGsObrLVfcHNKlMv/KdsLOYtBULD9HEiIgtITU3F+fPncfbs2b8ENCkpKYiLi8u2F1AiIiIiynkY3BiUtQU3Mssm/m48fo/7HYGxgYhLjtNHstjfgpuq5WKx6DsgIlIfJyJ6QtHR0di1axd69+6Nd999Fz///DODGiIiIiLKNgxuDMragpu7aXdxIfACFjgtwAy7GXDyddJHstjfgptq5WPxzSogymATh4jIOsXGxuLHH39E06ZNkStXLhQqVAgTJkxQ+4mIiIiIsgODG4OybHBTGM7OLzxRcJOQkoBNVzahznd1UG5hOXzr8q0+ksXuC25WmnqheoVYrPhRe7OVTRN+iMh2+fn5YcaMGahWrZr2J8bcOapz5844evSoWiJFRERERJQdGNwYlKWCG0/P8bCzyw0np7Lw91+uvRmJ0kczRpZGfefyHZ6Z/QxME02YZT9LH8li9wU335t6oebzsVi9EUhI1MeJiDJBatl88cUXKFu2rApsSpYsic8++wzOzs5ITk7WjyIiIiIiynoMbgzKMsFNHO7cWQgXl5q4cOEV7cmwCSkpmZv+H5Mcg+Vnl6PE/BLINSMX5rss0UeymL8vUK/OH8FN7UqxWL8NSGb5CSLKhICAAOzdu1e9KN6bZSMzbqZOnQpvb2/9KCIiIiKi7MPgxqAsEdykpSUjMtIed+4sUrNtYmIuafuS9NGMiU6KVsujJLjJNys/Fjl8Lb1yzWuWpBaEhbfUqFgkhcchyfki0mvW+CO4qVM5Flt2Aimp+g0jInpM6enp2LFjB1599VUV2OTJkwdNmjTB6tWrtb+PMfpRRERERETZi8GNQVkiuJFeUKmp8doPPkzbwpGWJuuL0s1DGRSZGImlZ75BiQUl8ezsIljxXX/gm2+B+YuAefPM29dfW2wLGfM1rvRfhBsdRyO5WEkV3Kww9VTBzfZ9mb0XRJTT7dy5E/Xq1VPBzTvvvIODBw+qrlJERERERE8LgxuDskxwYzkRCRFY4LIEJReUQrORRXCoS22geg3gxSpA2bJAqVJA6dJPtpXSP5YtjeTipRGWrxzCTc+q0Ea2pab3ULlMAvYc0W8UEVEG+fr6Yvny5Rg3bhzs7e3VLBwiIiIioqeJwY1BWVtwE5YQhrkui1BqQSn0+LAgrtb4M1BBsWLACy8AFSs+2fa8tlWoiOTSFRGcryK8TRVwx1QRgflfxJ3i9bGo8hy83y0FF2/oN4qI6BGioqLg4uICNzc3fY9ZXFwcQkJC9M+IiIiIiJ4uBjcGZYngJj09FQkJnqrOTVSUE5KSAtS+zAiJD8F0p7koNrco3uuTD9fvBTeFiwCDBwMrVgBLlgCLF2d++99ipC9aDJ/hi7G82mJ8blqMheUW4XjnJTg+eBt+nX8bjo7amy52lCKifxEUFKRq17Ru3RojRoxQQQ1n1xARERGRNWJwY1CWCG6kvo2f3/9w7lwjXLr0BoKDt6kW4ZkRHBeMKadmo/i8Yni/XwFc/09RoFBh4N2ugJMTIDUiIiKebIuMQGpoBOx2RaBD8wgUN0WgT6dw3DwVgbA78YgIS8fdFP0GERE9hLu7OyZOnKj+hubKlQuNGzfGrl27kJSUueLsRERERERZicGNQVkmuImBh8cYnDhhgqPjc/DzW4aUlCh9NGNikmJw0Pc4JhybgHUz30NQ7UpAkaLAZ0OhfWP9qCeXrG07DwF1mmpPpDxA38Hak5h1Q4noMZ08eRIfffQRypYtCylALB+//PJLXLlyRfv7x+SXiIiIiKwPgxuDskxwEwsvr8lwcCgCZ+cXERCwSnvjkrkUJC09DbFpifg99ndEbFuPlCaNzDNuBg4E/lY/4kkkJAAbNwK1agEFCwIjRsiSB32QiOghpDPU7t270alTJxXYyFa/fn3MmTMHHh4e+lFERERERNaHwY1BWVtw8xf7DwLNmgOFCgEDBlg0uImLM5fLefFF4LnngMmTgdBQfZCI6G+Sk5Ph7++PVatWqaBGApv8+fPj1VdfxZYtW1SBYiIiIiIia8bgxqCsO7g5kGXBjZTKmT8fKFcOKF/e/G8pf0NE9CB+fn5qVk2FChVUaJM7d2707NkTdnZ2iI+P148iIiIiIrJeDG4MytqCm6SUJHjH3MEZvzO4/dMSJDaqDxQuZPGlUpGR5lk2xYubZ918/z0QE6MPEhH9jcyoGTdunAptSpUqhVGjRuHixYv6KBERERGR9WNwY1DWFtyExIXgxxub0G9HP3w3uQOCalc2twIf+LFFg5vwcHNdm3z5zHVuNm0yL58iInqYI0eOYNCgQWrmjbe3t76XiIiIiMgYGNwYlKWCG0/Pr2BvXwCnTz8Pf//vMx3ceEd6Y9jxMSg+tzgGfFwSHtVKAoWLAh9ZNriRejYfa9/SpD2LGjYE9uwB2MGXiO7x8fFR7b4TExP1PRLuxiE4OFjVuyEiIiIiMhoGNwZluRk3k+DgUAjOzi8gIGBlpoMbzwhPDDkyHIVmF8SHH5XIsuBGe75qT1ZzcNO8OXDiBLTbrA8SUY7mpv2tGTJkCLp164bDhw//JbwhIiIiIjIqBjcGZZngJgGBgWtx5Uon3LjRC2Fh+7R9mVt35BHugSFHRqD4vOL4+JOy8KpeOkuCm8BA4K23zMGN9rzFuXNAero+SEQ5UlpaGk6cOIF+/fqhWLFiqp7NgAEDVGFiIiIiIiKjY3BjUJYIbtLTUxAf74bw8MOIiDiBxERftS8z3MPdMfi3L1Rw88kn5eBdvUyWBDf+/sBrr5mDm3btLPqticiAQkNDVVvvt956SwU2sjVs2BDz589Xy6OIiIiIiIyOwY1BWSK4sSS3MDd8fHgois0rhsGDy8OnRtksCW58fIBGjczBTefO5hk4RJQzBWp/AJYsWYLatWurwKZQoUJ44403VJDDZVJEREREZCsY3BiUtQU3rqGuGHDwUxSbWxRDPq0I35rlsiS4uXkTqFvXHNx07w7ExuoDRJRjyNKoGzduYNiwYShXrpwKbQoUKID+/fvD0dERCQkJ+pFERERERMbH4MagLBPcpCM9PVV7E5SsbXe1f6fp+zPuZshNfHhgEIrOLYrPPn0ed2qWz5Lg5uxZoGZNc3DzwQfQnrT6ABHlGM7OzujevTuKFy+uQpvnn38eU6ZMwZUrV/QjiIiIiIhsB4Mbg7JMjZtkREQch4/PHNy5sxTR0eeRlpa53tpXf7+K7rt6wTTNhIEfl8qSGTdShPjoUaBqVXNw88kncuVdHySiHEP+/tWoUUOFNlLP5ptvvkFQUJA+SkRERERkWxjcGJQlghtpB+7p+RXs7Qvg9OmK8Pf/PtPtwN3D3DHixDjUW14XU0c1QlCdSubgZqDlght5fu7cCbzwgjm4GTmSwQ1RTuTv749Fixahd+/e2LBhQ7a9eBERERERPQ0MbgzKcsHNBNjZ5YOTU3ntzdCKTAc30YnRcA4+j1+v/4JzK6ci/qW6QKHCwMCBFgtu4uOBdeuA5583BzeTJjG4IbJ18sIUFhamOkQlJyerfVLjJjIyUrX7jomJUfuIiIiIiGwVgxuDslRw4+U1GQ4OReDs/CICAlZlOrhJT0/H3fRUJN5NwN1dO5DetClQqBAwYIDFghvtfRq+/RYoXx4oWBCYO9e8fIqIbNeePXu0PyMDMH78eLi7u+t7iYiIiIhyDgY3BmVtwc1fHDwCNG9u8eBGe65izhygdGnz9s03DG6IbJXMspFlUK1atVK1bMqUKYNdu3ap2TZERERERDkJgxuDsrbgJjUtFfEpCYhJjEbSzu1ZMuPmzh1g/HjgueeAF18E1qxhcENkizw8PLB48WJUq1ZNhTaFCxdGhw4dcPjwYe3vVqp+FBERERFRzsDgxqCsLbgJiQvBIZ9j+Onij3D5fhISG9W3eI0b7b0chg4FihYF6tYFfv5ZHyAimyChzMWLF/HFF1+gRIkSKrQpqv3CD9T+jpw/fx4JCQn6kUREREREOQeDG4OytuBG2oF/fHgoGqyoj/njWyKiXjWgcBFg4EcWC25u3gT69jXXt2nRAti7Vx8gIsNLSUnB7t270b17dzz33HMqtHnxxRcxffp03Lp1Sz+KiIiIiCjnYXBjUJYKbsxdpfLCyancE3WVcr7jjFab28I01YThQ6sgpG4VvR245YKby5eBd94B8uYF3nwTOHFCHyAiQwsPD8f69evVi5EENrK99tprWLFiBQIDA/WjiIiIiIhyJgY3BmWZ4CYOPj5zcPr08zh3riGCgtYhJSVzrXWd/ZzRdutbeGb2Mxg3vDbC6lW1eHBz9izQpg2QK5c5wHFx0QeIyNACAgLw5ZdfolixYqqeTZcuXbBv374/2n8TEREREeVkDG4MyhLBTVpaEkJD9+H27dHw8pqKqChHbV+iPpoxp++cRpufO6Dg7GcwYXhdRNSXpVKWDW5OnQKaNNGeQNoz6IMPgOvX9QEiMjSpbePi4oIePXqoejZS50aWThEREREREYMbw7JEcAOkaW+OIpCY6IOkJD/tzZPMtslcq91Td06h1ZZ2asbNxBH1EVm/usWDm5MngRo1zMHNJ58A3t76ABEZirT09vf3R1xcnL4H6gXo+vXrcHd31/cQEREREZFgcGNQlgluLMfR1xEtN72BZ2YVwKSRDRDVoIbFgxvtLqNcOXNwM2oUEBKiDxCRYUjNmm+//RaDBw/Gjh07/hLeEBERERHRPzG4MShrC24cfB3w6sbWKriZnEXBzb59QKFC5uBm8mSAnYGJjOX27duqS1TZsmVVAeJBgwbBx8dHHyUiIiIiogdhcGNQlloqdfduGOLjbyMhwVP7d6Talxn2PvZovv415JmRGxNH1MuS4OaXX8yhjWzz5gHp6foAEVk1qVdz6dIlfPzxx6r4sIQ2Uoh47Nix8PDw0I8iIiIiIqIHYXBjUJYpTpyAgICV2huqNrh2rStCQnapTlOZYedjh6brXkWuaSZMGF4nS4Kb9ev/DG6sZKIREf2LpKQk7N27F506dUKRIkVUaFOtWjUsXLgQt27dQnx8vH4kERERERE9CIMbg7JEcCPFiD08RuP4cRMcHYvDz+8bpKRE6aMZ4xrqismnZqHPjg+wde4HiH+pLlCoiMWCm7Q0YMWKP4ObH37QB4jIavn6+mq/tyvw6quvqsBGtlatWmHdunUIDw/XjyIiIiIiokdhcGNQlgluYuHlNRkODoXh7PwCAgJWISUlWh/NmLjkONyO9saV368gaMsqpDZtAhQqDAwcaJHgJjERmD/fHNrkyQNs2KAPEJHVka5RUoR4zpw5qFSpkgpsnnvuOXTv3h379+/XjyIiIiIiosfB4MagLBvcFIGz84tPFNz8xT7tjVmzZuZKwgMGWCS4kYvzUpBYghvt/R+2bdMHiMjqSE0bJycntGvXDvny5UPp0qXxxRdf4MqVKyrUISIiIiKix8fgxqCsOrjZf9DiwY2fHzByJJArF1C5MrB7tz5ARFYnPT0doaGhmDp1Kt59910sXrxYdZQiIiIiIqKMY3BjUNYW3CTcTcCd2ADcDnNH2NYf9aVShYCBlglu5FsMGgTkzQvUrQscPqwPEJFVCAoKQkxMjP6ZmXSMOnPmjApxiIiIiIgocxjcGJS1BTe3w29j4blvMPzgMOxdOAgJjerpxYktU+Pm0iWgVy8gf37glVeAkyf1ASJ6qmR2zblz5zBt2jQsWrQIN27c0EeIiIiIiMgSGNwYlOWCm4mwty+I06crQVqDZza4cfR1xGub3kDh2YUwddRLFm8H7uQEvP02UKAA0L494OysDxDRU5OYmAhHR0f07dsXBQsWRPny5fHdd9+pMIeIiIiIiCyDwY1BWVtwY+djh6brXoVpmgkThtdBVIPqFg1ujh4FWrWC9uYQ6NEDuHhRHyCip0JeMLZs2YI2bdqgUKFCqnNU7dq1sXHjRgY3REREREQWxODGoCwT3MTDz28Zzp9visuX2yEkZLsKczLDwdcBr25sjWdmFcDkkQ0sPuNmzx6gcWO9bM5AgKsxiJ4eafW9ZMkSNGrUSAU2sr311lvYtGkTfH199aOIiIiIiMgSGNwYlCWCm/T0u4iJOY+goPUIDt6G+AQ3pGv/ZYZdkDOabX0DueYVwIQxDRH1Uk2LBjdbtwI1agBFigDDhwOenvoAEWWbpKQkXL16FZMmTUK5cuVUYFOyZEn06dMHJ0+eZKtvIiIiIqIswODGoCwR3PzpvrAmNVXenWVsS07GqdvH8fqPrVB8WgFMH1YfUfWqWTS4+fFHoHx5oFgxYMoUICBAHyCibCMdonr37o08efKo0EbCm7Fjx8Ld3V0/goiIiIiILI3BjUFZNrjRxSdp78xcgF27gJ07H2+TY/cewI1VszFhRF283zsfNnd+AfHPlwUKS1cpywQ3y5ebZ9s8+yywYAEQHq4PEFG2kLo10jWqcOHCf9SzWbZsmXoRISIiIiKirMPgxqAsHtzEpgA79wLduwPNmgGNGgENG/779tJL2rFNEFunGtwrF8GVcrkQVPIZpOXJDeQvAPQfANy6pf9PMm/hQiBPHuC554Dvvwfi4vQBIso2hw8fVjNu3nnnHaxfvx7hTFCJiIiIiLIcgxuDsmiNm9Cf8fuNbxE3bSDSixXSfkLaj0g2SUry5jV/fOSWF6m5TIjVviZK2+Tj3QL5gFq1zNNjgoL0/2PmzZhhvkklSwKbNgEpKfoAEWUJmWEjwUx09J+d5pKTk3Hjxg04ODhA6t0QEREREVHWY3BjUJYIbsztwKfA4UwJOB8rjYA5ryClfHEgXxGgdWvgk0+ATz81f3zoNlg7ZgjC+naDfYea2N2qDM50aojID7oDc+cC16+b6+Y8ofHjzcFNqVLmDlNElHViY2Nx7Ngx9fdl69atiImJ0UeIiIiIiCi7MbgxKEsFN56eE2B3+hk4HSkC/9nNkVKhOFCllrmoTGCgebbMv26/I9jjCn5zWo8tR5fAwWU7wj2vmwvRWGhqjHSSkuCmTBng5El9JxFZnMyw2bx5M1q2bIlSpUqhS5cuuHz5sj5KRERERETZjcGNQWXJjJvZ+oyb2i+ZCw9nQKK2BUD7fqmhCEYCLLmIIlH75oMHm4Mb6Sx19qw+QEQW5enpiblz56JBgwba75tJbT179sTt27f1I4iIiIiIKLsxuDGoLA1uatQHNm+WIhf6kU9XSAjQr585uNHuMq5c0QeIyGLOnTuHESNGqBbfEtiULVsWH330kfpbkyjpKRERERERPRUMbgzK2oIbKWSakpaCu2l3kZqWqj63FC8voEcPc3Ajza5u3NAHiOiJyO9pVFQUjh8/ju7duyNXrlwqtHnhhRcwadIkuLu760cSEREREdHTwuDGoKwtuIlIiMAZvzM47HEYF4MuIiopSh95cjLD5u23zcFNq1aAm5s+QERPROrZbNiwAU2bNkW+fPlUaNOoUSOsXbsWQVK/ioiIiIiInjoGNwZlbcHNpaBL+GTvJ2i5tiUmHJsA11BXfeTJpKUBp08Db7xhDm4kwPHw0AeJ6IncvHkT/fv3V4GNbO+++y727dv3lxbgRERERET0dDG4MShLBTeenhNhd7owTh99Fv6zX850cHPS+yQarWoE02QT3t78Ns4GWKaCsDSl0u4qXnkFyJUL6N0b8PHRB4noifhov0xff/219vv1Cj788EM4OjrqI0REREREZC0Y3BiUpYIbb+8ZOHWuAlyOV0Tg7JaZDm4cfB3UbJt8M/Phve3v4ULgBX3kySQnA7/+Crz0EpA/v7m7lL+/PkhEGRIbG4vQ0FD9MzN/7Rdqz5498JJiUkREREREZHUY3BiUJYKbtLRE/B68BTc8BuDW6fcRPrUT0koXB2rWzVRw89qPryH/rPzosb2HxYIbaWbz009AjRpA0aLAmDEAS28QZZwUIV63bh3mzZsHX19f7fc/TR+RgDRZ/xcREREREVkbBjcGZYngJj09TXvDFoS4hBuIczuCu2MHA88WA2rVtprgJj4eWLYMqFQJKFUKmD7d3B6ciB6fLImaNm0aatWqhapVq2LOnDlqpg0REREREVk/BjcGZYng5i/uhAIjxgBFiwG1rSe4iY0F5s41hzYVKwJLlgAREfogET2SzKpxcnLCsGHDtN+hUqoAcbly5VRdG/njT0RERERE1o/BjUFZPrgJs8rgRprbfPUVUKgQtPsLrF4NxMTog0T0UJGRkapDVLdu3f7oGlW9enVMnTqV9WyIiIiIiAyEwY1BWSa4SUdaWjJSU+OQ6uWK9FHDgOKZC27sfe3xytpXkGdGHnTf1h3nA8/rI09Ge++JYdrNyp3bfLO2bgUSEvRBIvqH1NRUREREYMWKFWjcuDHy5MmjQpsWLVrgp59+Uq2+0zPwu01ERERERE8XgxuDskxx4gTtCbAR12/1hOvprgif+hZSy0hx4noZDm7sfOzQbHUzmKaZ8M7P7+BcwDl95MnIsqiBA7Unjfaskc5SBw9Ce6Lqg0T0D9evX8eECRPU7Jp7M23kD/yBAwdUaENERERERMbC4MagLBHcpKbG4Pbt0TjuaILDb3nhN7cpUipkrh34leArGHZwGNptaIdpJ6fBPcxdH3kyYWFAjx7m4KZFC8DRUQInfZCI/kECmueff14FNhUqVMDw4cPh4uKijxIRERERkdEwuDEoywQ3sfDymgyHM8/B+VgpBMx+BSnlMxfcRCRG4Kz/WRzxOILLQZcRnWSZK/vSQapDB3Nw06oVcPmyPkBED3TmzBl06dIFL730EqZPnw4/Pz99hIiIiIiIjIjBjUFZLriZAoczJeB8rPQTBTdC6makpaepj5YSGAi8+qo5uGnXDtrt1QeISP2uJSUlqbo290RFRcHR0RGnT59GcHCwvpeIiIiIiIyKwY1BWWNwkxW8vYEmTczBzdtvA6Gh+gAR4cKFC1iyZAmOHTuGmPvard0f5BARERERkbExuDEoawtu7qbeRVRiFELjQxGTFIOUtBR95MlcuwY0bGgObrp1w/+zdyZwU43vGx/aUSh7O6lk31P9KBXZRf6E7GQnWVIqKkuFVEhEIZXIkkr7vmhTaZVWbWijnZb7P9/nnadO08y8S2/LO+/19TmfVzNnzvI8z5k593Wu+35s48bIG0Jkc4YPH2633XabFStWzCpXrmxDhgyJvCOEEEIIIYRIJiTcZFEONuFm8d+LrcvULvbaqNfs65lf24r1KyLv7B1jxpiVK5ci3Nxxh9m//0beECKbsnbtWvv++++tRo0a4esiZdaoM8880/ox5ZoQQgghhBAi6ZBwk0XJ1OLE446ycYML7ZVwM/r30Vb1s6p25BtH2u29brcpK6ZE3sk4zB7Vv3/4cEqnCDd162oqcJG94Qv7gw8+sDPOOMMJNjly5LAKFSpYt27dNNW3EEIIIYQQSYqEmyxKZgk38+c3shHjCtjYQQVtWYvyGRZuhi0aZhd8eIGFmoTsum7X2cRlEyPvZJzNm8169jQrWTJFuKlf32xr5mRgCZHlmDVrlj3//PNWvHhxJ9rkzJnTateu7VKmNmzYEFlLCCGEEEIIkWxIuMmiZI5ws8EWL25p46aUs0nDytofzS61rScUyJBwM3LxSKv0SSXL3Ty31epZyyYvnxx5J+NgIPj4Y7OiRS0cpJo1acIxR94UIpuwfv166927t911111WsGBBJ9oUDV8U9evXt0mTJkXWEkIIIYQQQiQrEm6yKJkh3OzY8a+tXTvcFq9425b+3NjWN7zFthcqYFb29INCuFm1yqxNG7MTTjArED6sli0l3IjsB1N6161b1wk2LOeee661atXKli5dGllDCCGEEEIIkcxIuMmiZIZwAzt2bAsv/9mOhb/ZjqefSlFITjvtoBBuli83e/lls2OOMTvxRLP33pNwI7IfTPPdpk0bK1OmjKtn07Nnz92m/hZCCCGEEEIkNxJusiiZJdzs5Pc/zZ6qb5b/4BFuFi1KqWtz5JFmpUqZdemSUrBYiOzEtm3bbMmSJfbDDz/YwIEDVc9GCCGEEEKIbIaEmyxKpgs3S/42e/LZg0q4+e03s4ceMjv8cLOzzzb76qt0HZIQWY4tW7Y4caZjx442bdq0yKtCCCGEEEKI7IyEmyxK5tS42WobN862VWt+tDUzP7PNz99tOwpS46ZcuoWb4YuG75pVqnvmzCo1a5bZbbeZ5cljVqGCWb9+Em5E8kItm08//dSqVatmxx9/vDVp0sTWrl0beVcIIYQQQgiRXZFwk0XJDOGG6cAXLW5hYyaWtAlDS9qK5pUyPB34mN/HWPXPq1vBlgXtzm/utCkrpkTeyThTp5pdc41Zjhxm1aubjRgReUOIJGPFihXWunVrK126tCtAnC9fPnvsscfsN2xnQgghhBBCiGyNhJssSuYIN+ts/vwXbNjYvDZm4BG29NWLbetJGRNu5q+Zb+1/am/1B9S3LlO62JJ/lkTeyTgTJlh4cIYHTHjE3Hij2eS9z74S4qBj1qxZ9sQTT9gJJ5zgRJvcuXPbfffdZ2PGjLGNGzdG1hJCCCGEEEJkVyTcZFEyy3GzYEFjG/nT0TZu8DG2rMUlGXbcbNq6yZb+s9TmrZlnK9avsC3btkTeyTjhuNXOOSdFuLnjDrNff428IUQSwBcu9Wxq165t+fPnd6JN8eLFXYrUjBkzImsJIYQQQgghsjsSbrIomSvcFLRxg4/dK+FmXzBsmFnJkinCDUWKly6NvCFEFmb79u22aNEi+/zzz6169epOsGE5//zzrV27drZq1arImkIIIYQQQggh4SbLkh2Em/ApWqFCKcJNvXpmf/8deUOILAzTe3P98sWLYJM3b15XkPibb75x7wkhhBBCCCFEEAk3WZSDTbjZ8O8G+231bzbtj2m2cO1C2/jf3tfm6N07ZUYphJuXXjLbujXyhhBZmB3h62revHl2880322GHHebq2YwdO9Y2b94cWUMIIYQQQgghdiHhJotysAk30/+c7goTX9vtWmsxsoUTcfaWnj3NDj00Rbh57bXIi0IkAVu3brVBgwZZx44dbfr06ZFXhRBCCCGEEGJPJNxkUTJLuJk/v5GNGJffxg462pa2KJ9h4WbYwmF2bsdzLfRSyK7+4mqbsGxC5J2M88knu4SbNm0iLwqRxWCq7549e9qQIUPkqhFCCCGEEEKkGwk3WZTMc9w0sZHjj7Fxg4/bK8fNiMUjrMLHFSxns5x205c32eTlezd3N2lR7dqlCDeHHGLWoUPkDSGyCBQhnj9/vr3++utWrFgxV4h4/Pjx7nUhhBBCCCGESCsSbrIomSHcbN++yZYt72g/z7rSfhlV2Va+Us22HV/ArMwZ6RZuRi4eaZU+qWS5m+e2Wj1r7bVws25dSnpUjhxmefOadekSeUOILMKkSZOsbt26duyxx7oixFyvHTp0sC1b9n6qfCGEEEIIIUT2QcJNFiUzhJsdO7bZps0LbO260fb3rK/t3+fvsx1HFzArW+6ACzfhcWkvvmiWM6fZMceYde8eeUOIgxwcNcwQVbNmTcufP78TbcqUKWPNmjWzqVOnuvo2QgghhBBCCJFWJNxkUTJDuNmNZWvNnn7OrEABs9NO2yvh5pavatmUP/ZOuFm0yOyJJ8xy5bLweZp9+23kDSEOYvhC/fjjj+2SSy5xgg1LxYoV7YMPPrA///wzspYQQgghhBBCpB0JN1mUTBdu5i0ze7Jepgg3//d1LZv6594JN7Nmmd1zj1nu3GbnnGPWv3/kDSEOQnDRMMU3rprChQs7wQa3zXXXXRceu/2VHiWEEEIIIYTIMBJusiiZJtzs2G47Nq6zHSOGmd19l9nhh6cIN127pku4oThxpU8qWK7mOe3qLjfb9xMm29w55pbZs9O+zJ1r4QDY7Ouvza64IkW4CY9PGxY+PCEOVv7++29XhPioo45yos0RRxxhjz76qE2bNm2/fbEKIYQQQgghkhMJN1mUTClO/N9GW/nLBzZ39P/Z/M7/s7U1itn2XIealTnd7NNP0yXcDFs03Cp9eqEd0jxkJzx2vV1y80SrXs2sWnipWjXtC+tXr252wQVmhQqlFCe++mqzMWMiOxLiIARHzbvvvmsnnniilS1b1jlv5qJCCiGEEEIIIcReIuEmi5IZws22Tats/vfX2/AvQzamQ8iWVgrZ1lC4e/5X3WzgwHQJN6RG3ff93Xbiy+db6LL6Fsoxy9jU3i7UuHnqKbPffovsSIiDlDlz5rhZo7p06eK+WIUQQgghhBAiM5Bwk0XJFOFm4ypb8N31NqJXyMb2OMSW3Xusbb3yf2ZvtTNbvjyyVtpYveUP6/lzP7vqhc8sb9lhlufIVVamjNn/KplVqWJWuXL6lssuM6tY0ezWW8369DHbtCmyIyEOMDt27HApUEOGDHF1bfwsUbzOIoQQQgghhBCZiYSbLEqmCTff32AjvwzZuN5H2LJut9vWmRPN/lnHnMaRtdLGDttui5f+a488sdnyHfGflS6z3d57z2zBArNlyzK2LF1qxkQ8mzdHdiLEAWbbtm02YcIEu/32290U3y+99JKtXLky8q4QQgghhBBCZD4SbrIomSfc3Ggje4RsXJ8Ctqz/47b137WRd9PPqj/MHn/ILE9Os3PPMevbN/KGEEnApk2brFevXnb11Vdbvnz5jCLEV155pUuREkIIIYQQQoh9hYSbLEqmCzc/5Ldl3z9oW1cujrybXnbYot+32t33/mc5cm2z887bYd99Z/bfv5G3hcjCLF682Nq3b2+XXHKJE2xYLrvsMuvYsaMtT2daoRBCCCGEEEKkBwk3WZTUhJv1/663X/74xab9Mc3WbFoTeXV3MlO4+WfLH9ZtYj+r+MhnFjppqJWvssr69pFwI7I2pEbNnj3bGjVqZIULF3aCzdFHH221atWy/v37R9YSQgghhBBCiH2HhJssSmrCzYhFI6xyl8pW/qPy9uGkjvbP5n8i7+xip3BDjZs+eyfc/LR0rN3w5VWW96XjLXTZ3Xbp/021QQPMtkq4EVkUvhDHjBljtWvXtgIFCjjR5phjjrH69evb9OnTdxYlFkIIIYQQQoh9iYSbLEoi4Wbz1s320eSPLF+LfBZqELLLOl9m387ubVujJrxxwk3vG2xEz5CN7Ytw80CGhZuhC4dZpc/Os9ArIQvVuMYurzPBhg0J72P/jCkhMh2KEF933XWWJ08eJ9qUK1fOXW/z58+PrCGEEEIIIYQQ+x4JN1mURMLNP1v+sbfGvmW5m4cDznohq/75jTZ8fh9buaqf/fPPeLMdKU6B7ZvW2sJvb7TRn4ds/DcFbPl3dTMs3IxcPNKqfVHJDmma20LValn1uybb6JESbkTWZcqUKXbzzTc7t03FihWta9eu9vfff0feFUIIIYQQQoj9g4SbLEoi4YaaNq3HtLZ8r+az3A1zWosRr9j6NT/Y9Kn/s+m/3GS/L+9q/2xZbrZpi63+uK7NrZvDFrxwrP3dvaFtX70ispX0sZtwU7WW1bh3sk34yWy7sklEFmJ7YBp8nyr14osvWu/evSOvCiGEEEIIIcT+RcJNFiWRcPPXhr/s1REt7MRWR9j57Y6wz0bfZvN/rWPjRhew4UNzWr8RhW30gsa29o8Ztq1JY9teKL9tK1Pcdnz4vtk/GXMU7BRumuS20OW17JoHJtuUyWY7dsXBQhy0bNmyxWbOnOmEmjVrdhXzpjjx+vXrVc9GCCGEEEIIccCQcJNFSSTcLFu3wpoNf8WJNg2657LRY06yqVMus+m/XGejRh1lPw4IWe+fTrBBw6+0P56saZb3OLPjTzb74GOzf9ZFtpI+ooWb6+tOthm/hN+IqqsjxMEGos1nn33mpve+8sorbeDAgbs5b4QQQgghhBDiQCLhJouSSLhZ9PcSazKssVV+/zB7/9uQTR0dspkz/89Wrh5gP8143HoPOiy8hOzbviEb3/44W33+EWaly5h1/NTsn/WRraSP3YSbKrWs5qOT7dfZkTeFOEhZsmSJtWnTxs455xxXgDhnzpz2wQcf2ObNmyNrCCGEEEIIIcSBRcJNGvj9999t2LBh9s0339gPP/xgU6dOtU2bNkXejQ8pFnPnzrURI0a4z3377bf2448/upSMvQ0MEwk3v65eYPX7P2UXtQvZ21+HbNLonDZv7uP239aNNm/lVBs29WH7cXgR6zMkZD8ODdmUl0P2R52ituGTlhkWboYvGm6Vu16UMqtUtRus1pOTbMG8yJtCHGSQAkXxYerXHHfccTun+mbq78GDB0u4EUIIIYQQQhw0SLhJwI4dO2zWrFnWqFEjq1ChghNKTj31VNdYiDjr1sVPK6ImxsiRI61BgwZWtWpVO/PMM61s2bLuyf59993nhJxEn0+NRMLNvDWLrfnwJnbjJ8fa+9/lsImj89jcuY/Z9u2bbFv4nFZtWGo/zXnDvh1axPoNPsSGjwjZ4O65bNSHV9mfi6fa1h3bIltKO6OXjLIru1W2Q1863EKX3ma3Pv2zLcnYBFVC7FNIjRo+fLgTaXLnzu1Em+OPP96effZZJ7T++++/7toXQgghhBBCiIMBCTcJWLx4sdWvX9/KlCljd999t7Vt29aJOJUqVbJLLrkk4UwzGzdutPfff999rl69ei4d46OPPtopAtHo/fr1y3AtjUTCzaatm23eqlk2YuYrNmhkURs54lD77bcnbfu2DZE1zP7Z/Jf9trCbjf7qdBveN2RffxmyV188ypp//Zj99OeUyFppZ8G62fZs36aW/547LFTibbv9sfn2x/LIm0IcJPzzzz/WuXNnq1KliuXLl8+JNmeffba1b9/epU0JIYQQQgghxMGGhJs48MT9888/twsuuMCqV6/uZpshvWLlypX21ltvWeHChe2RRx6xRYsWRT6xOzy1HzdunPXv399+/fXXnalVy5cvt6ZNm1rRokXtueeey3CwSAHVeMKNZ+Oa3jZ5QlkbOuwQmzevfvj4d0+D2r5hk/359v225Ob8NuL6kNWuGbLCjfJZ03EtbcN/u0SetLB5xzrrM362nXTBRAvl/s3q3LfBVq+KvCnEQQCizZdffumuaQQbluuuu8569Ohha9eujawlhBBCCCGEEAcXEm7iQKpT3bp17YwzzrCOHTs6IcaDEHPDDTdY5cqVXcpUehk1apRdeOGFduedd9rPP/8ceTV9UDfnlFNOcU6e2Pxnq//qbhPGl7Lhw3PZ/PkNbFvAcePYsNGs0Stm+Y63JYfntkb/V8TObVXKWkx40/7Z8k9kpbQz6xezYieGOzjcw/fcbbYXmWBCZDqrV6+2Tp06uZTFIkWK2F133eWuRSGEEEIIIYQ4mJFwEwcKC19zzTUujYJ6GMGaF8uWLbMXXnjBiS+kWKSXnj172mmnnWZPP/20zZ8/P/JqbDiOhQsX2vTp090yY8YM9xlmvsG1E2v/27Zvt/Wb/7SFv7ezsWOL2MgReW3Bgka2bdvGyBoR1m8we6mJ2eFH2aYTT7AprzxmX4372H75e+5u5/vf9v9s+47UU7qmTjYrHBFu7r/fTPVdxYEGl5yHMb1ixQpr0aKFtWzZ0tWzUS0bIYQQQgghxMGOhJs4kNKEo6Z8+fI2bdq0yKsp/PXXX/bGG2/YWWed5YLA9IBb5/7773dFjrt16+YKpSaCFK0HH3zQOX/8wn6LFy9uhx12mH3yySeRNXex6O/l9vX0Lvbx8Kvth8G5bfyYo23hwpdt+/Zo4Wa92UsvmR1xhFmJEra1w3u2cdUK22opIg1izZJ/lli/uf3spyU/udfi868NGr3ajj/5TwuF1lrdR/4LB82Rt4Q4AKxatcrNBse1HOTPP/90KY9CCCGEEEIIkRWQcBMHatdceumlrhAx03cHIeh78803nYjyyiuvRF5NHRqbYsflypVzM9gwzXhqzJkzx7lrnnnmmZ0LM1XddNNNVrBgQZfGFc34ZT/bw73vtus7HW2tvstvE36+wv76s5vt2LEr3cuxm3BT0uyjj8027BKSlq1bZg2HNLTyH5S3Wj1rWd+5feM6b35bNcee6tXM8t12r4VOaWePvrgw8o4Q+5/ffvstPLRfsmrVqlnjxo3ddSSEEEIIIYQQWREJN3GgYZh55uKLL7apU6dGXk2BJ/avv/66m9r7tddei7yaGNKrmjVr5lKv7r33Xue82RsGDx4ctzjxyMWj7KquV9hJLXPavT3Os59+e9/+3bwg/E6U6BLluDFEoH921bZZuHah3dLzFgu9GLJQw5BV7lLZvvjlC1u5cU+3wsDfhtlFH59roWbhdatdY4+/PiHyjhD7D2Zpmzx5sj3xxBOWP39+V4AYAZaaUEIIIYQQQgiRFZFwE4cNGzbY9ddf79KSEEmCtTCWLl3qnDMXXXSRm/I7NRBtqKmBQ+eee+7Zw8GTERIJNyMWjbAqXS63PM3z2I09atr4pXFElFSEm43/bbRes3pZtU+rWd6meS3UOGSl2payt8e8bSvWr4islcKg30bYJZ0uCa9zqIUur2lPvjEp8o4Q+wdmbhs6dKjdeOONdsghhzjRhiLEzOJGnSghhBBCCCGEyIpIuIkDs0o9+eSTTmxp27atbdy4qz4MBYKvuuoql4bRp0+fyKuxoYFfffVVtx1q22R0FqloEk0HPmzBMKv08f8sV/O8dnPP2jZ5xfTIO1GkItzA+n/X29glY+3B7x60XM1yWahRyE5odYI9+eOTNuOvGZG1zAbPHWmXfFgp/H5uC1WtZU+3mhx5R4h9z99//22ffvqpq0mVO3d4DIZCdt5551nnzp2d0Lq/vtyEEEKI/Q2F+Jn9VIsWLVq0ZL0F3SEtE6ZIuIkDjderVy8XCFasWNEJJZs3b3Z1aV5++WU74YQTrF69em6WmrVr11q/fv3s448/tilTpkS2YLZkyRKXHsXsU6RHkcKRWQwYMCCucDNo3iCr0Km8FXgtj93zzS02bTmOmxiDIQ3CjWfmXzOt8dDGVvzt4hZ6LmQFmhew2r1qW5+5fWzTfxtt+LyxVr7j/1KEmytqWf03JdyIfQ/XKUJq8+bN7cwzz3SCDQvT9X///fe7Ca5CCCFEMsEEF9Rd5H6T2oyLFy/WokWLFi1ZaPHf3Ux+lJoYI+EmATQOwgtuGdIvKArMDE/UvbnyyittyJAhbr158+bZfffd59KqOnTo4F7j6QeFg48++mgXSNLAOG9atWrlZqKiNk737t3TVKA4FomEmx/m9rcqn1xkl7TPaS16n2XT571mmzfODr+Tvho30VDb5p3x79hFH13kat6w3ND9epu/Zp6NWTDZyne8NEW4uaqWPddGwo3Y96xevdoaNmwYHsJHuOvspJNOsgceeMBGjx4dWUMIIYRILnhogWhDKj41E+fOnWvz58+3BQsWaNGiRYuWLLRQzoFJVPguZ0Zc3DfxkHCTCqhgzCBVvXp1K1OmjBNnEG8QbfxU3qzz4osv2nXXXefEGMD2hFCDCwCBpXTp0u7zTAPOctpppzmxZ9KkjNWCSSTcfDW7j1392YX22Gch69nvEPvl5wvtzz+6h3/oE80qlbpwA/9t/896zexllTtXtkKtCtlNX9a0WStn2uj5k+3CDhHh5tpa9sI7Em7Evgfhs06dOnbUUUe566FJkyaqZyOEECKp4YYdxzc3+tyD4vymzhvOcC1atGjRknUW9AQEG4wgCPDr1q2LfNPviYSbNLBmzRqbNWuWTZgwwdWowc4UbCxEGupoMAUxDgBgdhusq6Rx/PLLLy5Navz48TsXtoW6lqhzEpFIuPli5nd2ReezrF7XkH3TL2TTfz7X/vwT4SaqgzMg3MCm/zbZoPmD7O1xb9uoxSNT/j1njJ33bqTGzQ21rGF7CTdi38ONau/evd20/J06dXJPH4UQQohkhjTg4E0+95xCCCGyJmgJiDLedRMPCTdZlETCTaep3e3C94vaY5+G7Ot+IZsxtaKtXPmd7dgRZb3KoHAD27Zvs9WbUkQq6DdzhJ3dtmKKcHPzTfbS+5oOXGQ+3KjOnj3bFSP2cAPLk8d/0jh2hRBCiKwKaVL83nGDz8MKUvOFEEJkXfhexznJ9/qff/7p/h0LCTdZlETCzejfJ9grgx629/sVtz4DD7FpUyrZqlV9MlW4iWbY7Kl2aYfr7ZDmIQvdUtNefn/XjFNC7C18OTHV9xNPPOGm1O/Ro8fOVEUhhBAiu8ANPQ8vqGvDDb7cNkIIkfVBkOd7HXEm3ve6hJssSiLhBv5ZP9umTa9lw4YdapMnV7LVqweEf+yjnspkonAzY/5Ku7djG8v75PmWq1pTe6P9X5F3hNg7+CL74Ycf7Nprr3UFiHPkyGHPPfece10IIYTITki4EUKI5IO4hrIrEm6SkNSEmx3/LrHZM//Phg8L2c9TLrO1a4eGf+yjBkEmCjcrVmy3V978w448bbwVKLrY2r8r667Ye7ANtm/f3s477zzLlSuXE26Y1a1nz56yhwshhMh2SLgRQojkQ8JNEpOacGP//W4zZ9xow4aFbMrUquEfeaZH3nfCzV9/mr3WzOyo8KaOOTq8qZRZ0YXIMNyUMltbqVKlnGBz6KGH2u23324//vhjwsJdQgghRLIi4WbfQSBELT0mEWHSESGE2F9IuEliEgk3y9evtAkLe9qYCRfa0CEhmzb18vBgGBd+Z98JN8uXmzVubHZkAbMTTzDr1CnyhhDphBvS4cOHu2n3jwiPTUSbokWL2pNPPulmdRNCCCGyKxJuUodZW0mxHj16tJvAIK0sXLjQnn32WatZs6Z9/vnnqqUnhNhvSLhJYhIJN9/+Osju+7q6tf/hSOs/JK/NnlXb1q+fGn4nqkJ1Jgo3v/9u1qCBWYECZsWKmX36aeQNIdLJqFGjdtazYTn11FPttddeczNHCSGEENmZ7CjccL4LFiywJUuWuGlzg2zdutUFO1OnTnXtQRr1J5984oKbhx9+2JbzZDEN/PXXX9apUyerWrWqVaxY0R5//HHr16/fQSPeEKThApo2bZpNmDDBLTzMYhysXLlyZ/o463HOM2bMsJkzZ9rq1btmgPUwhphGns+yvd/DN/G0YzQbNmxwU86zn59++sntc9asWXu4ngk4J06caOPGjXML606aNMn1CX/Hjh278z1e4/McJ9ueMmWKczj59/3C5ziPWMcVC64DznX69OlOuOPYo+G816xZ41xVtGWsa4d1Fi9e7Nom1jY4Ho6L/dAeHDvtwzZJ7z+QcD6cF21MH/A3I/fOtCMzuPrz41zZTnR70T60Fe/T/6zPuOM6jAfX06JFi3b2O/3MOIgWWGlnxjWzLE2ePNmty1++B9IjxmYlJNwkMYmEm3bjP7QTW+a16zqGrMeISuEvmI/s3y3LIu8GyEThZuFCs/r1zfLnNzvlFLMvvoi8IUQ6+fLLL+3MM8/cWc/mi/Bg4qZNCCGEyO5kR+GmT58+dueddzo3DEGfh+AOh+4NN9xglStXtq+//toFdZ9++qmVL1/eOXfTGrj27t3bHn30UfdZAtDGjRu7mSwPhodG9PGIESOsXr16dumll9oZZ5zhFs6RFPIPP/zQBbmAqPD666/bOeec49Z599139xgjmzdvdrUCL7/88vDtfwm33ehgG4GD+6877rjDLrroIitbtqy7N7vqqqusdevWLsD00F4XXnihS23nYRt/TwkHAyVLlnR//WssV155pRPEEBhuvvlmF8v494IL938IcGkVQ1jv/fffd8dxxRVXOMdVdGCL6McYYb+k4scSABAWHnvsMbcNxI9g29FuzHDKBBlVqlTZ2Q8Ifcx42qVLF3deXKMHAgSkp556yo2L0qVLu37jPBFh0goi3ltvvWXXXHONO7dy5cq5c2U7iC1BBg8e7K6ZatWq2VlnneXGB//ftGlTJxpGQ38MHDjQ7r//frvkkkvcts8991x3bX/11Ve79TWCEGOXvqJPWZe/d911l/Xq1SspxRsJN0lMIuHm7XHvWKhRyAq9doh9PL55+Itqhe3YvvsTCkcmCjfz5ln4By5lU+HvduvRI/KGEOkE5Z0fDX4M+vbtm7TKuhBCCJFesqNwQ9oSQShBHG4KQLQhOMchc/rppzuhhfcIZhBfEDgIwGM5TmJBmhSBrw+6cffwlH/Tpk3u3wcKhATEqRtvvNGJGTiBXn75ZWvWrJnVr1/f7r33XhdU40QAzoPU8vz587sHYLVq1dpD/EDkue+++yxnzpxuHVLDEBw8/D/bRPwhaGc/LVq0sCZNmthNN91kZ599ttWuXdsJG3594pFXX33ViTovhWMLhA9qEyJqvP3229ayZUvnnu4YjjVwp7Ag6Jx44olOIOO9N954w/1lO2wPQSit7Y8zAwHvtNNOcwttsJ44JwDCC/tHkEDwin4f2B/iVJEiRWzQoEE7ry9cQh999JELms8//3wnNrzwwguuXeiPOnXquDZBbErkONlX0Fb0Ked29913O/HklltucX2IgBlLSIkGUZT25/zoZ8YYC9tDlMHBhqMGuE4QCC+77DJ75JFH3Nho3ry5awMmFGFcBoUe1v/+++/t+uuvtwoVKrg+p7+feeYZJ7ryGg9uAYENgYzj5jhoZ47j+eefd+3P+nwnIC4mExJukphEws0749pYqEHIQi/ntI+nJlBQMlG4CX9fhi/olE2Fr237+uvIG0IkgC8dbLr84AbhRiv6NSGEECK7kx2FGwI6BBoCUxwl3Dt0797diQoEpggDQYGGlKfq1au7B0DDhg2zHj16ODEARwbp2LEeCBE0ESzylJ/gFfGHYDc4gyUiyi+//GJdu3Z1ogVCEW4X1ieoJzUlFgS7uDEI8t977z23H0QhJlvgeBKJE4giBK44DnBTIMwgWrEQxI0ZM8bFBN5xw/uNGjVy7XLkkUc6hwv7CKaYEVDjXkCcuOCCC5yLwQs3tCNtcMIJJzjnBu3shQiED0QkRIoCBQrYQw895B62RUMaFm2N24ZzjgXCDWIAzg7G8t7ANYGIxzkT4BPwE9x7kc9D/9EPiASsEysVinNE8EAMxOXkhbzvvvvOtRWxF+2LyMeY4X3Olz7lnHGO0C/7E74DEGpwOOH8IXWJ10gt4t+IY+3atXPnnwicbVxTiG2ILIwxvx3ELAS7jz/+2F0TnDfr82/amXbjda4LRC32yaywvv3YDuOFMYfIg7MHEMTatm1rxxxzjNWtW9e1Hdc358B1j3jGmOTzrNuqVSs3bhDpvIiULEi4SWISCTdvjn3TQs+H7NBXclrXX7pHXo1BJgo3s2ZZ+AfV7PDDzc49ly+4yBtCxIEv4m+++cbdAGA75elW8AZJCCGEELtDIJRIuAn/lNro0QfXMmqUGZpGRs0rBHAIEA888IATHQiiCS5xBuBwiHZO8BpCD/XySAPCdUKqT5kyZdwTf9I1gkEs7UhgS0CEW4M0E/7iHiA4JSgFnvATZJJehEsFxwCpIWwbkYLAlIdRBLzAX2rCICCxPe7bK1Wq5NwIbBsBAQdNIocGn7/11lvdsSEKpAbOG4QFRBfEC1KdXnnllZ1iAsFh586dd6YU4WhAuOEeDBAr2BeTQnz22WfutWgI5Gn/woULOyEqGsYn4g/niwsjFl64wUnk951RODf2g/sDkYrz4/gQ2ILiTHqFG7YFbJ+xV7BgQbcf6iHFA1EwUUDNfS7BOYWz/YL4Fr349xhPqTnPOZ4aNWq4dKWg2AQIHzibEHC8KyseXGeMz9tuu2239CquL9xrOL7o19QEA9LwEP4QHP33E3/ZLsfinTUexFWuH5w9jItEIJwypnH1+P5JFiTcJDGJhJtXR71hhzQIWYlWh9o30960HVt5ChEj3zIThZvp083uvNPssMPMLrrIrG/fyBtCxICccW6S+GHMkyePu/nii15pUUIIIUR8UhNuwj+tdtxxB99yxRUp9RAzAoEeIgypUg0aNHCiDAEm9w24HaLBLYP7AvEBUQLHDY4IBA0CRGps+NQRAmnupVkfIYOgf8iQIc7BwGs4ECiuC164wU1wXPikeOhESjf35OwHcYZgFVcQkHrSsGFDJxgRbOIKoZYOKR+IQwgBiDreLRMLHDSkleC44fgJ0hEgvDgUDcE5bUSQzX44HkQvAl5AdGGfBPKIWggnPEDzjhucQ8cff7xdd911cR1EOB9ITcPRg0si+lhIzcJtQZyCAyYWXrhBcMC9wv2fXxBUcCGl9WEe4gTiFo4k2hzXB6lQpPAgfHnSK9z4fkfo4z4VgQ6n1N7A+dGP9CcL+/G1coILY4lxw3kQzMeD6580KWrF0M/R6UOcvxcxEUgSwbkhntA+iF6+P3BZIVAiViKWBIWhaBATcKGddNJJe4h2Pg3r6aefdsdF+1PLBlcWbUuZBC+SxoM+4XuA65LzTiYk3CQxiYSbhkNftWNbhOz5L0I2dMzptnzpO+Ev1T3zODNTuOG7PfydafnymVWsyPFF3hAiCp4ekC/N+CW3OleuXM7+zE3F/voSEkIIIbIiqQk3zPAZ/mk96JZwHGdRmStphmKkuEcQSxBNcM2QyhEvyMMpQiBIAPztt9/uFHcQCK6++mrnzOB1WLZsmUurYl0EIh/M8zqiC/sj4MR1wHYQJHiNYJgg0osWiDIEVNTW8SkcFOElvYZ0IIJ/4D6HNBBeOyJ8/00tFoSQeCBgUASW48bhQjvg2CHYxbXsU048CDcINjhqaAeECgQSRC5AxKIwLOdBgE0KTFC4IdgmDYrgOp4ThmMisOd4SFmJLuCMeJCacIPAgthAigxtxvn5haLJnCP9lRbefPNN58Do1q2bE2cIgKk7w2s4pjzpFW6Y3QpIveNc6PNgceyMQMoaYh9jioU6MbEW3iO9DxEykbDnt4fQg3gVLaogkPE6Y5zrKBG0B8IMwiaOLc6XhfpSuNYQHROl9QHCIAIPAg3jMwjjibRGrj/GIP1MX3DdcL6ptS3nxnr0DYKkH7PJgoSbJCaRcFNv0Ct2cquQ9egbsnFDQjZ71l3hzo1RlT0ThZvwdWo33ZQi3IR/U8I/MpE3hIjAzQ03HzyV8kXzePLFE6tkU82FEEKIfUFqwg36AJNFHEzL44+btWpFUdzIQaYTAkCCvcMOO8zdO/D03wfVscA1Q9BOAB5MQ8KtgqhBsEiRWtqSdBTcLwRCuAuC4FAg/QQXgp+yGLcwwg2uiSC8jwCCYMTUyEDNE5wHBJsEZUEQFriPx02TKPUGEBwQhnC3EOwSuCHgIHggcCBi+XQxhBvuqxBuEKdwUeBq4XhxOSAG8B4uCgJ+AvqgcMN6Rx11VDg8eCnujFocD33CPRzCT3RNwvQIN8cee6zrT1K2cFIQ9LNNCuHGc/wEIZClXXBgeKcTcL/JGMDF4dsekYOxQf+T1hZLuOHcGAu4YbzjhnMhPQ6RCgfUwQRCE/3MuMPVFQ3CDf2LABOdohQN3yWkaXHdMO75DOODfuL/EQKjx3EQvpPoN44F8SlaWKGvSC/EycYYpJ9JaaOfKFKcqIAy7iuOHycZziJcVcn2sFfCTRITT7jZvmO7PdT3OTu+Rcg++yFk44aHwhfS4+EBHyMFJROFG+Lu664zy5vXwl/AFv5BiLwhsj0INvyY8rSHGw1uuphpgCJnbdq0OSim2hRCCCGyAqkJNwcjUSaAdENtFx/kEeTzxJ3AJTgLVBAKpiJqEEQGg3mCHlJ8cBNQm4W2o14O99OkD0VDcEjASm0On85DEF+8eHEngARBiEDgYVs+nYZCqgg3OFuCxYGB7XAcCDdBcSkRBGrUHuGY2TZCAtsnbcynsHAcCDc4fXxhYY6V1Cfq6SBY4DZhPVxAtGdQuEFoIQWKQDqR44apwik0yzFEB+hpEW4QuhAHEKI4do4TZwl9xH0hLqToNosFohXjgrbkPhPBhoX7S1woiBBeSON+FAcLbg9q1kQLdcC5eccN/Q/0H4V/SaVLzRWSGggQFPNFFGRBQIu1+PcZd7EEJg9thKuIc2WcRuMdN/Rzao6bSZMmuXZBJOX6oI9IZUKk4zqgr9hGrBQ2nF+MGZxrjLNogQtBjBnHEB14n1o89DMOHWYwQzzF4RYrJqBPGPNc0xwbU7pnhe+99CLhJomJJ9z8t+0/qzfwZTvj7bzWo+8hTrj57bd64QEQo3MzUbjhwceVV5rlyWN29dUpxeiEAG4wO3ToYKVKlXKiDQs/AHwJJ1LuhRBCCLE7WVG42Vt40s5TdoQRxAZquJCmQ4BN4Bct3iDcEOBRUDUo3BAUMqNNULjBycL9NK6NaHD1sB0KCfsisV6QwEUThIAeR3FQuCGFB2Hlgw8+2EOEQFhAXEmPcOMhYMNhQ3BM6jk1aXAyIEwgtuAqIlWFtCDahpo9iCS4nUkzQ3Th8wT8BPTMAuTFF46V9CXcL/Fm7UGYIVULZw5pNdHnlhbhxte4ofZKRmcRpR0I9qkVdPTRRztXDC4gFuobkfKF4ILLBmgLgn5cG/RpLEEE8Yg0NlwhpLQBY4SHjRxvcIrrjMAYwtWE0MLi69xEL7hWqHHDcaZW4wZnEMfLcUffVyP0ITjxHoJWIhivCC/0bfC6oZ24j2e8cp1Ep0sh2jDmOBfqCsVyJfEawg/XE+MqeM3irEJYxBkWTG0DRCLiBT7HQqpfWgS9rIiEmyQmkeNmyp9zrOekl2zg0Hw2dGAo/OX43B4/ao5MFG7GjLHwBWmWO7eFfxR4ShF5Q2R7uMGkyJ8XbSiIhzUZ9V0IIYQQaYf7uewo3CAw4AYgSCQIxCGDKELtjeiCsV64YZ1o4cY7bkh5oi1xYxBA4xyJrjXDdN28h0OF/RLA8jnuv2M5brxw450aFPpFQEAsiq5TgviEY4UaN6mlSiWCui4ILQg4BNRB4YZ2AEQZgmbuwQjiORfGDU4KL9x4d40vxMt5xHNoIAaQQkOaE8F+NOkRbgjYGcsZgXHAg0CEDoQ00nMQHVg4Lt/GOK98PSTuP3Hc8LlY7Y6IQE0XXDze/UH6GQIKAhFxl09LiwXiWaKiygTb/fv3d+4TFo4z1sJ7uKoQ2RLVQALGOOdDvyFkBuF8GcOkUaUmkNFejFfSCKPFEerbkN6EYBAUvOgD6s3QB7RzvL5EBEP8Ytzw/RWEdubawVHDeA7i61shVtAWidxHWR0JN0lMoho3sGndSBs96sjwjw7CTYPIq1FkonDDjGzh680JN9S6mTQp8obI9vDFQh41T8qwQ6YlZ1kIIYQQe5KdhRvuI/yUxgShOGoQb6iL4sUSSItwg+MFEBn4PNMUI8r4IJl6GwhFTGuMCEHgT2DFrFJpFW5IdeE4CLQ4BwJ6xBVSYXid4sTMhJQoMOc97vmZOYnUFR9QIxDgAuIYcZtwPrzn3Q9B4YbXSZtiX0yV7iG1yAs3fA5oI84NkQKRB5HBuzgYawgDiE2kU5Ga410pQdLruOG80gvtiPsCwQBhDTGF9uWek4XrhDQfzg/RytdS5JrhfBF0iKGCqU+MKdLMcOkwtvwDRtqaYsy+4DV1c7j+/Pu0L+3C8VCQOjUhjmOjLRMtfh3+pgbnzXHjOKKPfXtyjPwbR1bLli13poZxPqQqURuHdfw+/BTuONkQfDy0C04aHEDcx3vBgJpJiD3eOZaoHyn2zXjiGHFA+TGPEIMgQ7sinvraVfQvwiKfQbjBKZXsSLhJYlITbjb8PdhGjTzSfuwfCl9IuxdQ20kmCjcjR5pVqpQi3NSqlVKsWGRPuEniiyfoqOHLiB/pWPnEQgghhEgbBFnZTbghaMYlQbASdA3wtJ+AEfEGAYCUEWZ+oiYJwSSFewkYPdyfEOASJOLO8BA4IqQg6OAQJl2IFCCEBfbpU4YQJHBB4DTBRRMEQYmAl/eo2QIEWQgqbIdUL/6f4BhnAqktCATM3pRo1iC2S7CMY4JjRzhiliMKH3OMpEDhWvGuI4Jn2oQgm/SWIF4U8HDetCuFgWlLD2OLWjhsg1meSMNCBGKfiGe0H2kt8VJvVq9e7cQN2iK6iLOH4/RpTcxkRVoX9WcI6hGXODbElljTvQPHiHBE29LfsUBQYf+k8OAK8a4bRACKGVMbCOGB/bENXEu4SnBxRZ8b44h2oL1ZhzZmhiTahXZG6KGPcKsExcL9BWIgx83xUWuGY2KcUViYcUn9Gg/34lwbiHu0uRcAcJ8xyytiGO54rgPahe2xXaaOZ1p9oG0psJ07HPgVKlTItSPCle9DFvrPp1Ux7hj/bAchBkGPPud64tqlj2hPvtsQlvgs1yMuMVw6jHnET7ZLmyNEcn0lExJukph4ws2O8H9bt2+1FX9+ZaNGHmH9EW4WNI68G4WEG5HJ8KSGmxmeZvCjp3QoIYQQIvPIjsINT955Gs9T/+in+jhFcIAgAOCwQdjBSUIwSCAeDO74f9wkuDCoceMhkOUz1H8hrQRBhbQOgnOCWd/Ga9eudcEs75HOEoTjIFDmPS+i0FcE8aTuUFeFosak4BAII7oQwCLGJBJu6GvSRTh3xCVEE9xBCBakljz77LNOsCKQBhwkuIpY9/PPP3evxQPHBe2KSBMsRMxxcz64ZhCFCLaJOXCcsE/qyuAwIcCOBe1EwE9bEJjHgv2xLdK8SM/BiRFcOD/6CtdMLOgXPo8oEXRbBaHfSPGhnRF5vMuDe1NSwnAr0R/0OefGejhUcJvECooR7hB9cPjQn/QDRXVJraIAMGMKoS1RqtS+wrtoEFzoL9qQscK4QQQJHhPjnXNAGGGMBJ1FFEPmukEcoE04P9ZjfWol+Xahj7neqCOEO4v9cQ0G+5BxH7z++L5CJOM6Q7hk2wg2XKsImr7Okr8eEZbYPsIs22YM+m0zE5UvOp0sSLhJYuIJN39vWWeD5w+xLqPvtkFDD7Vhg0LhL5GmkXejkHAjMpFffvnFVYrHkpknTx73pcKNpRBCCCEyh+wo3BCsEFCSvuSf4AdBrCAQJ4An+GF9hAVm7wk+QELcQPgh4IsWBEi1YR+kuiBo8PCJdWlvD4ESggZTJgcdKoCbg+PjPfonCKkziCvMgETwS995dwcuDoLgeNC/CAZsG1cFxVsp1srfkeGbb44jOAZoH4I/xKOg2ygWjB/OGUeRd6MEwTmDU8O3CSIIbiKfVhUPBACEGdrCp7ZFQ79wjKRicT6IcwhU/GVhX9xXxqtpQptwLInWAdqW/SBeBMcCfUmtHhwk7IsF4QN3eDxBCmgnxpX/HH3KOdBOjLvgeNnf+HPiWqC/+MtYiz4mRBxS3BiTjJHg+GFdxhRjy58f54og6sVB4P9J1WMfxKSsR/8F+5C+iR5XXBtcm77fGcdcj4w1D+3PGKN/SRGk3EL0+OBziVIMsyISbpKYeMLNor9/t+cHNbDqHx5r7/XOaWPGnmJ//ZFSTX0PJNyITIAvZb5UeZqRL18+Z2ssVqyYs1CmdtMghBBCiLSTHYWbrAoBKMElQWiwnxCYSOXCkULgGwyIhRDZEwk3SUw84Wb2yjl221e1rUDzkN35eWH7aXYj+2/TrMi7UUi4EXsJqVGfffaZs+Qi2OTIkcPdjGCvTTYlXAghhDjQSLjJOhBY4cTgQRbpS9QdoZ4L6UfUj6Huiu6VhBAg4SaJiSfczPhzhtX6spaFGoes/EcX2sSlVOeO86Mu4UZkEL4ssBmTv0qOL6JNzpw5XfE9rI9BO6oQQgghMgcJN1kH+mrKlCmulgr1RqjpQT0VZjmiEGt0upUQIvsi4SaJiSfcTFkxxW7scaMTbi7++DKbvCKO2wYk3IgMQk40hfWYJhPRhiktKYBGPnOsPGkhhBBC7D0SbrIWzIpELRBq5lArhtQo6q0kKkgshMh+SLhJYuIJNxOWTbBru11roSYhq/ppFZuyYlrknRhIuBEZhIr7PD1CtClVqpSb1o+CaEIIIYTYd0i4EUKI5EPCTRITT7gZ/ftYu7H7NVaiZcie/uo0m/JbK9uyJfZUehJuREZhtgDEGvK0sfsmmhFBCCGEEJmDhBshhEg+JNwkMbGEGyZ7G7pwpN3W8xq78YOQ9ep/qP084WRbsaJLygrRSLgRaYBpA5l2kcV/STBTAjZfpnkMTuEnhBBCiH2HhBshhEg+JNwkMbGEm+3hH/P+84bYrT2usNofhazfwJBN+ekEW7bsw8gaUUi4EWlgxIgRVq9ePWvatKn9+uuvkVeFEEIIsb+RcCOEEMmHhJskJpZwsy38Y95rdm+7+tOLrWaHkH03IGTTJpa2FSu6RtaIQsKNSABfCN9++61dffXV4SFyhBUqVMg+/fRT57YRQgghxP5Hwo0QQiQfEm6SmHiOm7FLJlmzwY9Z017Frd9gUqXKhH/Yu0fWiELCjYjDihUr7JNPPrGLLrrIFSA+9NBD7eKLL3ZTfe+vLwohhBBC7I6EGyGESD4k3CQx8YoTb962zZasnmATfrnbho/Ia+N/Km1//fVV5N0oJNyIKKhnM3/+fHv11VetSJEiTrTJly+fK0LMmNu0aVNkTSGEEELsbyTc7Fu4D9qyZYv7K4QQ+wsJN0lMPOEG/tuy0Ob/9oSNHHGYjR9fzlau/DbyThQSbkQU48aNswceeMCOO+44J9oceeSR9vjjj9vUqVPltBFCCCEOMBJu9h0bN24M3zePd+7i2bNnR14VQoh9j4SbJCaRcLP930U2/7dHbcSIw2zChHNs1arekXeikHAjIvBl8eWXX9qNN95ohx12mBNtTj/9dHvttddUkFgIIYQ4SJBwkzpjxoyxNm3aWI8ePVxbpZUZM2bYHXfcYeXLl7d27dql67Mi67Bhwwb74osv7LHHHrOJEydGXk0fCHtvv/22tWrVymbNmhV5VYiMI+EmiYkl3DAd+JpN4R/z5QNs/JTrbMTwHDZ54nm2alWflBWikXAjIjDVd/PmzXeKNpUrV7ZOnTrZ2rVrI2sIIYQQ4kCTHYWb33//3YYNG2Y//fRT+NY1fO8agCCce+Lu3bu7YJpg5sMPP7TzzjvP7rnnHlu6dGlkzcTwkIqHVTfccIPdcsst9tBDD9lHH31k69ati6xxYOG8ERkQozgu7tG6du3qzn3OnDkuvQtwDU2ZMsW+/vpr69Wrlxsn0TBmaJcff/zRunXr5tzWmzdvjry7C4LEIUOG2Oeffx4OETraxx9/bN9///0eD/SWLVvm6iJ26NDB3n//ffvggw/cvxFHOnfu7F7jPRb6ieCU4xw8eLDbNv3l3/dLly5dbNq0aTGPKxa0z4QJE+yrr75ybUMb0T59+vSxmTNnuv156FOO6aabbgrHL+EAJgPgRG/UqJE9//zzrr0PFIz3yeGgi36k3Wlf/v3vv/9G1kg79AuTktB+9AntR5sGt8V3zg8//OAmK2FMBPuWzy5YsCCy5u6sXr3atbX/HP3L+OPa9rAfrmEcb6zHMXAs7I8xx3dfMiPhJomJJdwwq9TgBSOt9dBH7L1+xWzA0Dw2fWq1cFA+OLJGFBJuRARyubkh4oaFWaQGDhyYoS99IYQQQuw7sqNw07NnT7viiivs3nvvdYGNh4dLBP5MnoBLBrGCAJ3XKoVvSh9++GH766+/ImsnhgD/xRdfdMElQeZ7771nL7zwgguUDiT0N0IDgfltt91m559/vpUpU8bKli1r55xzjl1zzTXWsmVLN6kEEAhz3KS858+f35o2bbrHbKC0Eed36qmnWq5cueyuu+6y5cuXR95NEXYQgxCyqlevbmeddZaVKlXK7fOSSy6xJ554woYPH75TVCG4RygrWbKknXLKKVa8eHE79thjLU+ePG5GUl4jZuH9atWqWb9+/WzRokVWsWLFcAhyhBUtWtS979dhueCCC5xQxIPFRNA+ixcvdkINghvHwXmVLl3aLrzwQrvqqqusXr16bp/+eDk/2oDrKKPBL22KWMRyoGZbRawjHrz99ttd39BuZ5xxhhsngwYNSrPoxfGPHTvWiVD0CW3HcvbZZ1vjxo13e4g7dOhQt6+jjjrK9Vuwb2l/4ocg9A9jE2GnZs2a7vj4DGOK9bnuPKtWrXLrValSxb3PMbAvjunpp5+2SZMmJXVsIuEmiYkl3Py3fat1mNTJLu90uv3fx7nsi6Fn2Nx5jWzzhpmRNaKQcJNt4YuULwj/hAb4/+nTp7tlf30ZCCGEECLtZEfhBucGwRsBqRduCOhxGBBcEsh89tlnTqThQRQuj8suu8ylwnhBIzUQaxAA/H0R21q4cOEBC8o9OIoQpDh/zpP0HO+m4fwRm3BMc6zA3/r169sJJ5zgHNRMLhEUZYB/EzTnzZvXOa35/6AziZSx2rVruzijVvimHocELgjcPtQ9JPjmeHr3TinFQGBPwI4zgr+4Pu6//34rUKCACzAJ9nFXEKQj+BCgz5s3zwXlpOUjIvEe4gp//XZwb6QWqDOhBueLcHDppZc6FwzjhTZCwKO9EAweeeSRPdohq0O7Vq1a1Yl5DRs2dOf8UjiuQ/Sg9AFuqdTg+wMnF21EnzZr1sz1H84q3DSIpkHXGf3DuECAY/zhmqJv+/bt68SfaKGTcUU6GcLqnXfe6a5NnDneGYXby8M1x7h+4403nCOHY6CMw6OPPurGHC64A+lu2tdIuEliYgk3W7dvtbfGvm2F3zzGSr2d39qMeNyWrZ5gO7ZtiKwRhYSbbAlPB7A/8kXIl2J2uOkTQgghkoHsKNwQvBGgIgYQfBPgENydeeaZzolDsBd0FxAQXnnllVa3bl0XILZo0cKJE9z3cP+DcBANog2pGQSHrPvcc89Z//793T2TB5cGwTBBMtsdPXq0c3Pceuut9tRTTznhITqYQkgiuMXNcPPNNzsxiTQQjrl9+/YuSOZ84oEQw2fOPfdcN+Nn0IGCqMM4IG3Hb4P1ES8I5k888UTnoibY9qlCjB+OG7cOzhTEDhw3XrhZsmSJC/6PPvpol0pEvSD/WSCVhfcLFizoRKFYNWKYgZSgHmfF66+/Hnl1dxBu6D+2gfiSERB12H7hwoWd64pxguOIc/TvI9zRj/SNFyA4H0SOYJoT/cx69C3CAgLTk08+6fr2mWeecUJSUMSj3XGH0IcHohYk3wEcK86mJk2auH4D+v/ZZ591Qhbnl9r3A+3FWMehhsASFGk4X8Zb8LwZS4wdxLLU3FDAdYJow8QnOLOCsC/Ow8M1TH9xjQcFOwQhhCVcWIhxyYqEmyQmvnDzlh31RkEr1Ookazmmna3atHsu8G5IuMl2YE3lR4YbAJ7EUIQvXj6qEEIIIQ4usqtwQ8oLwR+1brj35Ql8jRo1XLDtA3WPd9wgStx3331Wp04d92+EAlJ9CP6CASpiBMEr7p2LLrrIBUase/nll7vg3KeK4Mp588037ZhjjnHBKG4XHCnsB5Hi+uuvdyINwgUQiJJ6RdBJ2gfiwrXXXuvcLAhRpDw9+OCDrh/jQX0WhCT2RxCcGtzTEdBznhwP6WWIS16YwdVA4WUCdVwZHD/CjQ/8ETh8mgrOl1ggupCihXhDOlU0jM93333XxSm4gWJBgEof0jZpdUUFYdyTzsV5INzg0EgrCHc4h0jTYmzBypUrnTDGObHNBg0auGNjLHAeiFiIOd6RhdsF0ZBxRVpSIhDvEB9od9oFJ0ushfcYbziZgg6oWFD/h+NjzFLTJsjPP//sxBWOL7W25XoiJuA6ob+/+eYbd/0gLMYS1BgfpM3RRvQt6Wy4sXBpRbvTuMYQkUidQ6xEBGTbiKdcF0FBMBEcx9133+2uTZx1yYqEmyQmdqrUf/bG6Dcs/+sF7Pg3C9s7P71vazYnKKom4SbbwI8GN3nkPfMEBtEGCys3QeSMCiGEEOLgJy3Czcb/Ntr0P6fbz8t+tikrpuy5LE/5O2flHPt78+4zJy1ft9x+Xh7+XGSdPZbw61NXTLWFaxfaf9t2BQ6bt2622Stn7/7Z8F+OYem6tBUIjgfpGjhHqLeCCFOhQgUnZpBmEev8Ce4QBU466SQXoBMk4kQgKEYsQazwThECcQQY3Cc8zCKQZV0CTFJHEHAIVtkPAg4Pv4oUKeLupUgr+eWXX3beX5H6gyuIh2TAbEPcZ7FPhCFEGNwxrVu3ttNOO82OPPJIVy8mlgPIQwBPnRFSiii2TPCLw4PXYzl1EG4QHQhyCaxfeeUVF2QzzTngtiFlhf3inEHcoU29UIB4QF0axKV4syXRDpwDIgcBdXQtFZwYtBNxCm0UC4JxBCKCUAJ/hAi/4IJBTAu6naJhn4guOEsQ8IIPIblGaFPEBNqb80CYwqHEexw/ggLjA6ECEOXeeustl2JG7RacPHwecQjhiz6kZpIXQkaMGOGEE8YlYyYRjDEEP9oD0YO+j7XwHuMWEcX3VzxITUKYof8Q0oLw/YDjDNcV9SvjiQC0BelvjGW2g8MIIcoLmPyb8UIM4UG8wvni69T4VEWOmeuENvZwbZDeyPVCjRquDUQiFtoN0QfBLBrai/HBWECEIt0NEZXj4d/JioSbJCaecNN8RAs7+vXDrXTbE6zj+Ja2esOyyLsxkHCTLeCLGaWfL0/EGkQbfpS5yeDHMfglK4QQQoiDl7QIN1P+mGIXfXSRlWxV0k5ue/KeS5uUv9d+ca0NnL97MdHWY1pbybfCn4uss8cSfr3su2Xt6f5P24r1u57mz18z367vfr2VfDP82Xd2rcsxtAjfm+4NBNe4WnBIUJOFoIX7GtoiFjzdJxDG4YLQ4dMuCMIRJNgWASsQ9CIE4WhB4PGuAUSDtm3buiAeYQcxgtcQJAjuOQaCS38MfBZXEPsk4ATScRBcEEa8K4L1Cb4QiSjwSjAaK3j1cDyIDwgkCA04YagvgoiAgwMBKuh0QMBAJKIwL+eIS4fgmlmeAEGKwJt/4zxC9AgKNy+//LITlBA24rk+EE3YdrFixVyqU3BmIEiLcENqGgH84Ycf7gQvHCJ+QSQhsA/WP4mGa4Ap33E/IUR5Jwx4UQfBim2xILLghqKt6EfSiOhb0qIA4YZUIYo60x4cn4f0ONocIc+nRdHfpL7hoELMSATXKEIUThoW0o1iLbyH+IHYkkjMA1LsKOLLsXqh0MM5cr6IQNSfCY6PILQTKW0UsabPGdP8mxpBxAhcQ0xawrF7EMFwWdG/jG/WZax4h5oXwoB2wZlFkWquA5xgOHkYt1wrfIZrLBquSZxovM94RySijxGzUqt5lJWRcJPExBJutmz71xoObWrntT/K6n6Wz74bdb4t/v2d8IW5+xfqTiTcJD3YFPlx5SkVMwcg2vgvyugveiGEEEIc3KRFuBm+aLiFXgpZ6MHw8mSM5fGUv8e0PMa++OWLyKdSeKj3QxZ6ZNc6eyy8Xj9k1T6t5lw3nl/+/MWOe/M4Cz0cfv+JwLrhY6jzTZ3IWhmDYJCgkCCd+xjEEV8YNxaIEjgGCPaCogj/79OIcN/QlqS8+MAw6CyAUaNGOZEDkQXRh9QOgk4EFGZrCsI9FSlHOHd8LQ/Wxc2AkyM6LQRHB4IFzpfUZr6ij3EasD0EGxxDOCoQOXBIEAv48/TCDcdNuyEi4U7C8YAzBPcOgR9BMGlm3sXkRRrq4yAo8Tdemg0iCdum3QjAGYtB0iLc4Gri+HHMUFeI/eEAon8QAnD0EMTGg31Q54haPKSDBa8DAlrOj9Qntkk7I8iQosN7PLCMJdywPfqLv0EQEqh1w3ZwkUB6hJt9AaJb5cqVndMl+n6eccyxIZYgCMUTO2gHxC9EG/rKpwXSRowjrglcQIg5Pl2QzyDU0f60Odvm2qDODkIerjDvwCKFjPGJMMRxMoa55vgs44drBeGQsRCE7zXqVOEco6g054loxsxhiUTOrI6EmyQmlnCzadu/9sygRlbjo6Ot/TchGzY0ZHNn1Q4H71Mja0Qh4SZp4YsRWyg5s0yNyI1Ojhw5XE416nha80qFEEIIcfCQFuEG98uTPz5pd/e82+7+Nsbyzd12z7f3WJOhTWzy8t1v2L6a+ZXd3StlnXiffaD3A/bBxA9szaZdxUmXr19uTYc3tbu/3n1djqHb9G6RtTIGrhEEAsQK0i0QJXBTMMFCrOCFFAwCRooRB2cSIughwMRdw0xGtB0BJOIBAko0CDCkoxC0k1bOvROCRInwPXN0bRccGrhi2JZPc2GaboQAjifa9UBKEk4f9ks/phUCVxwZTA9OQWQcCQTo1CdhbHAcXrjhfo+xwr5wZ+DC4BgRRmgXYgmcJEHhBrEDdzZOoGgnjYd2wNXEubHN6ONPi3CDGMKDRAJ3xCX6kTZCCGDh3/GCV+DBJH14/PHHO0d5dFoVn/Wf51xI16HN2G484Yb+oh4LqTlBcFaxD0QM76ZKj3DDeSECIuCxbR6exlp4D3GOMelrDsUDRxFiJlOBRwsftB+pT7QvLqNoQdLDevQTLnzGeHSRZVIOEUkRT2iDRCD0IK7g9PJCEmlWiAwIOtH1kugHxg7iHeMweIyMYz8WGEuItNRj4pr3TrlkRMJNEhNTuNm6xer2fcoqvZvL2vQK2ZBhOWze3IfDX1Cxc1Ql3CQvfAGibPODiGjD0xOeuKSWhyuEEEKIg5e0CDc7wv9Rf2bLti3277ZwIBxnYZ3tO3b//Lbt21L9HAvp+eHd7ITj4vXoz/Jvtrk3EKQioCDakHKEEIHbg0AR8cYXA/bEE25wkOA4QbhhG7QdqSTcT7PtaEjHQlzBcUO9Ey/csD4CRxDvuOE9L9wQiCNusK9gKg/gKCGFKb3CTRCCW9J7cCIhSBHoEvAjSlDfhLQo4HgI4rkf5L6QdBzajIAY4QZnhRdu+AzHTHtHF731IB6xDwQeZryKFgbSI9wgfGRkVibOlVgIFwziQqzZrTwca2rCDalJtCXCGwJLEI4V4QaHSEaEG/qebSL8eKEt1sJ71I2hLpIfQ/HAKUZf8kA2uv0Y54x/2gWHENdmPBD3SP2L5dyhthRuF66N1PqIPkdcRYghtQ/4jiLVCuEGASkIx0TaIuvHE2A99DXjkj6k3lCyIuEmiYkn3Dzar75V7XCYvfttyIYOz2UL5j0Z/nKOYzWUcJPUcIOB9RTHDT9Q06dP3+OJjxBCCCGyDmkRbpINhBsEBoJLHCW4LSj2SiCMsIJDIRicpkW4weEACDIEj6QMRafm8HQfgQjHBgETrg4cEakJNzhiAMcCnydNKeiKIOCiaDLpO6nVuOG8EEbi9TNpYQg31CRBjAkKN7QDkIpFoIdwg9iAu4TtUm/ECzfe4YFYRVsg3pAiE71fPoeTAkcPIgcpLdGkV7iJTrVKCxwHfYtrgyLJ9KtP54mGYJ/0NkSKAyHc0IYIHxQURjQjRS3WwnvEd4hQ9FEicMD4VCY+4+H8cLdQn4aUOsQAD8fBWApeKxRZphYO50HfByHGJIagxhPjg88FP+thu9QjYswhKvixznhkKnXGEmlOPoUK+O5i7JHS6IuMx9s+8UzHcIyKwMS1lKxIuEliYgk323Zst6GLfrIuYx6w7wcfbcOG57b5854OXyi7W+h2IuEmqeCLLVqY4YcCVT5aRRdCCCFE1oPAJrsKN6T5+JQNxAjvYsBZgAjhSYtwQ20P4N4JRwEBO+IHQToOCe6dSDfBLUA9EYIk2h3BJzXhxhfVJdWKbeCsQfDh8/QZhWUJcqn9QbpTokK0y5Ytc24DBBpcGKzrj4VYgO0jACGgcA/oU6WCwg3BOkWa+TeFdj04Krxw49OiCB5ZD3cDx/3hhx+6oJ1tI5hRMwWxBCd3cJrxIOkRbnBpBGevihe8x4L1GBsIbwgzCAyISrSNT7NBRCNNLLUaN/tSuNkXMEYZi5w3jjBEF17jL8eFEyl4HvQfAif9gSPfu6QYL9RN4jpCZKGvaR/GC6lYOIEQnBBdEMYY037mNdoSMRPxh5QthBWEyKADDpcTIhJpjowdPsNnSUvj2uKa9oIbIirbZvY1+pB1EbD8OOUYEROTFQk3SUws4caz4o8vbczYojZieO7wl019FSfOBnADxxc0NW34gUnrj54QQgghsg7ZUbjBuULtjJtuuskVQvUQ8PlplhEZcFTQJogNzFiEkBIUFhBB6tev74LaoPCCmEEgRJoKASjpP7hO2AbrE9yCL2Dri/cGocaHFzQI6oF+QqShGDLOBQQihBpqyvBauXLlnIMgkeOGfVNgl20jHlBvhG2QYsXMSwg0CFS+XbgH5N84fagBkwgEKdqVdBaO30NwSA0fBC7S0XA6sU/axU8zTbDvC/VGQzshgtAWFJiNBQIc9WQoLozwgAiEcEB7sC9EGFJoEolawBhAaEKcoY2Z5apu3bqufThe2praKL44LoIF/cJ7zGiF8AMIgUydTqHeFi12nwWNh6DMjkQtGJ8+xphhjDBDGUV4DwT0Oc4txikCGP1OXzKOEe+CghiiDilY9AnXE//2r1N/B7GHfqW4MG3DeGOMMs59H/hri2sFsQ+Rhv1zXfJZikQjnAVB0KQ9cdYgvvAZ9oFTDkcQTiMP7chxI+b4cc450faMQ9IBg9d/siHhJolJJNysXfWtjR1zko0YkTv8xdggfFHuetqwGxJusjxctOSSUmiOL2OUd6rCKyVKCCGESD6yo3AzcOBAF8gRuEUXzMUdQC0ZAjuCfwIf6tYwUxEzNwVFEQJQHnARGOK+CELwyj4IKAl8CTIRH4KOZQIrhBjEAe9m8eDs4fh4z7sygOMjUCYQZrsEoWyXABaxAWEjkTiBIwhHB9N0EyBzfAgUnC+BL66LYOFYhCpiA8SQ7777LvJqbAiUOWeEoegZpNgvwgntiDiBMEbwzT65z4zltPHQTqSZ0RYE+rEgAEUkwy2D8yZ6QTSgDpBP4UoE7hocIogMCBiICGwXwYY6KrQH5QI8HB/txrq+9iPXFAWXcdAgaAXhGBCSKJDr07oQgRAZEBcoXH2gYLwjOFGLhnaj5g1jxR+nhzbieqAuDtcH/w6CawYRhnan/WgH0pOCjjXGMnWREG0YhwhGjAnGJWM6Xh0c+hrHGUIjn8ENh7CGOyj4oBnHDU4c9s12Gef0IUIPfcP3XTIj4SaJiSfcMPz/+KOrjR5VMPxFn8sWLmwS7tg40wxKuMnS8NSAYl/8iB522GEud7lw4cLuh84r6UIIIYRIHrKjcIOIgCMCJ0esB1Ok8OBMIcgkIPXrkyrjU0LAuy1oNz4ThO3yGZwnBE9sj0AqCG1Nagj7iX6PbXN8/hiCEPDyOttGeEIkQTBBXCCgjT6WIPQ393RsGwGBbeCq4S/iSazz4BwJ8NhvIoLtGmwnD+dBW5HaQpsgEOFaSm27idrJw/44RoQxzofxHFzYF6JbWoNTtkd/075sj+OljThe2igoEHB8tBHH59N6eI31eC1WmyKu0W/+eOgTXuMYD/Q9N64j2tGPW596FITzp31oD/o92B7AOXIufnzRjtH9zGd4jW2wnh8TjMN4/eyhTRm/fIbxxLiLHnOMN8Yi+2a7fpzT7hxzsiPhJomJJdxsDV9Qo3+faN9OeNCGDM1pI4YfGr6Qm4Uvxl3TNe6GhJssC1+cPO1BYc8dbnREG9Rpcopnz54d8wdYCCGEEFkbgqfsJtxkVQisCFZxZxCoAgEs05szgxCpSNRgiSVGCSGyFxJukphYws2mbf9Z/YEv2fUfF7XOfUI2akxxW7G8YziIXx9ZIwoJN1kSVGhyrMmNRrDJlSuXs6NSvIsnHEIIIYRITiTcZB0QZCgoTM2QW2+91blsSA8iHYUFt01q7hUhRPZAwk0SE0u42fDfRqvR9VrL1zBkD3crZJNmPWcb1k0M/8jH6VgJN1kO8j+5AShQoIATbY499lhXDMxPPSmEEEKI5EXCTdYCFzSzVeGQxhlNzQ5qhHz99deuH4UQAiTcJDGxhJt1/66zq7642kKPh6z8R+far39Niy/agISbLAfF1Lxow7R7TGtJrqhu3IQQQojkR8JN1oLgirod1AGhdgepU9QSia6DI4TI3ki4SWJiCTdrNq+xqxFuHg3ZOR3L26J/Uqm+LeEmy8HMCkz1RzV3RJxEVf2FEEIIkVxIuBFCiORDwk0SE0u4+XPDn1ajaw0n3Jz3YQVbsTF+lXqHhJuDHvKjN2/eHPlXSlHiiRMnWp8+fWSxFUIIIbIZEm6EECL5kHCTxMQSbhb/s8Qu/7S6HfVCyO7rVtYWLv8q3KlxpgIHCTcHLVyM48aNs06dOtm3337rLmYhhBBCZG8k3AghRPIh4SaJiSXc/Lpqvl3ycVWr3DZk/QfltPHjitjKld9F3o2BhJuDkk2bNtmgQYPsmmuuscMPP9z9nTVrVuRdIYQQQmRXJNwIIUTyIeEmiYkl3Mz4c46V71TZru0QsvHDQjZmRCjcwT0i78ZAws1BBwXsPvzwQzdNZM6cOV0R4ipVqtiUKVMiawghhBAiuyLhRgghkg8JN0lMLOFm4rKf7cz3z7WqbUM2YkjIxo3ObytX9o68GwMJNwcVM2fOtFdeecXKlSvnBJvc4casWbOmmzKSmzMhhBBCZG8k3AghRPIh4SaJiSXczF411x74/kF7otuJNmxQyMaOPsL+2Tw48m4sdpg1b2aWP79ZyRJmXTqabcuYcDNxotlll0m4yQgbN260n376yR5++OGdU30XLlzYHnroIfe6EEIIIQRIuMk4W7ZsscWLF9vatWsjrwghxMGBhJskJpZws3HrFpv153QbPqWODR4UspHDD7Pli/vY5lWb7L/V6+zf3Zb19t/iFbat/vNmhx9uO4qXsC1tO9r6Zf/YunWWrgXjTv/+ZuXLS7hJL//++6/9+OOPVq1aNcuRI4cdcsghdsopp9hrr71mCxcudDdoQgghhBAg4SZjrAvfsFI/sH379ko/F0IcdEi4SWJiCTewY/sWWzD/eRs8MmQD+x1m/Z99wcbWaGezr33OLbOufd4tM65rYLOvetpWnlre7NBDbdWRJ9vXV3S0xk/9Y/VeMHv++bQvDRqY1a5tdtxxblPhwWQ2aVLkgERCpk+fbvfcc8/OejaVKlWyrl27ugtTCCGEECKIhJuM8cMPP9gtt9xizZo1s3nz5kVeFUKIgwMJN0mMF27atm0fecWzw5YsbGADxoSs31d5bew5ZWxO6FRbGipgK0K5wktO93d5KI/9Ef7/TaFwd4SXuaEidmeoix2Zc4MdmtssV660L3nyuE3sXBBxpk+PHI5IyKJFi+zVV1+1M844w2666Sbr27evs/IKIYQQQkSTnYUbzpUU8nbt2ln9+vXt0UcfdX/feOMN515etWpVZM1d0F4jRoywBx980G699VYbNmyYm70zrdDGvXr1spdeeskef/xxtzRo0CB8/93WxowZY9u2bXPrbdiwwd2b8x7L5DjW8zlz5rj7vhdffNG+/fbbyKu7w0M9Jqp49tlnXRr9U089Za1bt7axY8c6p7Zn3Lhx1qhRI3dufnnyySft+eeftyeeeMKl3PvXaadffvnFBX4ffPCB+/cjjzyy22dZXnjhBevTp49L408rHEfDhg2tVatWNnv27Miru6CNpk2b5vqpX79+kVd3h/S1zz//3D7++OOY2/jrr79ce1ELkj547LHHXJ/QTlOnTt1vQWwsVq5cad98843rd9qUPmEspKcNN2/ebKNHj7aWLVu6vuP8mjdv7sY1Y8uzdetW+/XXX61Hjx6uLRgb9DnrDhkyJO4+aT9qZjI2OEbaDgda9LVADDJjxgzr3r272+bTTz9tL7/8sk2aNGnnWBf7Bgk3ScyAAQOdcPP22y3DF9mv4R/xkbZ2/SxbuHq6TZxxrxNufuyRx1aflaKmbAvlsDVHlbSVx5S1VUeXstXhZVXBUrayYGn785hyNqJIbatz6lg77dT/rFQpy9BStqzZueeatWnDwIocqNgNvnDXrFkT+VcKy5Ytsy5durgvRSGEEEKIeGRX4QZR5rPPPrNatWrZhRdeaOeff75dcMEFdumll9oVV1zhAhkEHWbnjAbhBrFi/PjxkVfSxvz58+3111+3K6+80i666CK7+OKL3d8KFSpY+fLlXUDrA18CY4QW3NMspLxHB8X0G4JPvnz53Dp33XVX5J0U1q9f7wL+++67zypWrOj2xbmy8P84hj799NOd95H9+/e3G2+8cWdb8PfYY4912z7hhBPsvPPO2/k6bYTwg/DFvw8//HArXbq0Oye/DsvVV19tnTp1cqllaYF72KZNm1rBggXdNt99993IO7tAbEKUOfroo50oEYsFCxa4dqZtg4IW4xthpkmTJla1alV3Tiwc9+WXX27XXnuta/fBgwfvJmrtLxCcGHeVK1e2s88+2y2nn366Oy7Ga1rEG0Sb77//3gmLnBf9zV/Ok+1069ZtpyhJcE+2xfXXX+/GCOsxFlmXscA+GWdBuCbahIOzyy67bLdjvO666+yLL77YbZyyLjEJx+LHSa5cuey99947oOJYdkDCTRIzcOBgO/lkaqE8asuWPmcTJ5azcdPutM9/etK6Dj/f+o3MYX26FLQ/T8/thJv1xU+3qQ93sPHP9rRJT30WWT61SU9+ZhOe6WGDXp9g3btssU+7WviiT/8SvsbDX8pmffqYLVnCjUXkQMVO+PLmKQY3D9SvQcTxBP9fCCGEECIW2VG4IbDl3okagMy8iVuFQB0XB0E9gf69995rt99+uxNbghAMIQrg4qAwMW1HG6YG+yRY5SHpzTffbF999ZVzrLCwb0Qb6uX4wBzhBrcKoslhhx1mdevW3eOBHMIRAXGxYsXceqTKe+hHXNcEZZwnTgfcQTh0cLTguMGdzfnjSkFYwR2Bc5tgj/Qv/uKoKFSokDVu3NhmzZrl2oOxwn0ngR7HjtiFIICTaEn4pp3Psg5ODtZDGErruOrdu7fdfffdVqdOHXdeOEWiiz8jqCA+nHjiifbMM89EXt0d9ouQUKVKFSdieHAfsf3jjz/eHTPjYMKECW4m1lGjRjnRBKELN0+0YLGvQfDAxYLAgeDUs2dPd2wdO3Z0ryG24aJJ5FRhLNJPiC6lSpVyogzjhtc4N4QZ+ov4ARBWcGzRz4xJ1uUaeP/9950Ax8K48f3H+Pzyyy/tnHPOceUYOF7GIe3Ia5dccokT8/z6CESMC9xTrEPbH3PMMW6sS7jZt0i4SWIGDRoW/jEpGf5ivir8ZXu1jRgessHDD7euAwpaxx8Pt/d7FbGPGl5si4sUdMLN1lvvsL9nL7c1yzbZ2iXrd1vWLN1oq1dut7/Xm63fkFJsOKOLsnxiw48YT1lOO+00K1u2rPsBXr58eeRdIYQQQojUyY7CDek1uAoQBgiKly5dulswTHBKgE/qUtApgiDRokUL5yIhQK1evbo999xz9vPPP0fWiA/tS+rQqaee6tJGgmns7Jt7OBZ/HAg3bPvII490zhEEGgLvIDgZcDoQpDN7aNBxw7EiPh133HEuKEdoCp4j2yeYLl68uDsX3DOx4F6zSJEirp1igaMHpwqiESLU3oKAhdiCOEAKzm233eacQMGgEuGG1B76jzaKBQJUzZo1XR95kYKxTtoRbUIfjhw5cjdRiLFPu1BsmnPZ344bhEBEIwSQN998c6dzheuTVCREP9qH8RoPHtwiVCH0XHXVVbuty5ggDYrtICIC7YrIRXsF3Ty0C2110kkn2VtvvbXTecZ6iC/nnnuuE4WCx4gAikjINbJixQr3Otsn9YuxzTbffvttN1YZVxJu9i0SbpIYL9w0bHiZzZlT3Qk3w4aE7MdBIWv2/WF248vX2pPnvGCz85Yxyxtu8mefCX8D6oI7EKCa82XKlyNPWPLkyeO+JPmxEUIIIYRIK9lNuOF8ETLy58/vhA3OOS3gHiHoJagmTYhaMaSXnHnmmS6QTS1tCkfHHXfcYSVLlnSuktTgno56IwgrCCy4dBBvfHBNMEwNFNJUSC0ikMYh5EH44MEeATwOilggFOBsOeqoo1xwTmpVND7QxoERa2wg3JByhCgV7U5KL/54EFUQGdg2bUzqUjD9Jr3CDXVdOHaCWJwsfI722RvoH9LMGBOMI+r/xFoeeOABNz4Q3WLVTAqCAEg/4hSKnqmMtkDQ4pwmTpwYeXVPEOdwyOCsISCnTT20KcIQY4KJS1IDYZC+p/YN4w1w5Jx11lnuOKKFOgRR0qdIwYs30xrjSMLN/kHCTRLjhZtGjS4P/zhdaaNGHmoDh+W1d77LYTW6nGCn3vuY3Z7jA5sROtesUC6zFxtQOS3yabE/wGbL0wF+HPPmzetEG358yO/lS1zpUUIIIYRID6kKNzNnmn3xxcG1EHSGg3FLY92UIDz1p64NqTIfffRRTLEiGtwx3nmCOEJKDeIBqVUUti1atKgrzht0LERD0I5DAccNKTrUbsEZgdOF1KugGwYQBth2mTJl3AxWCAQExYgw9BEpSghBiAakOlHHpDazeUSghgupRLhwomshetgn6SvUsbn//vtjCi8IOgTaODRi3WdSwJbjIm0GAYmaKCyIGp988okL5n///fc9zi8azgkx4ZprrnGFiWlL2gzHDYIFbeRJr3BD0Vz6kBQ4hDOEN45pb8DJQr0itkXbUx8m1oJQRL0Yxod3ocRj+PDh7vjoU2r9BCFlClGLIJs2TwQiC8fGuZMixzinLxACEcVw6SPiJIK2Z/yVKFHCpaURgwD7RkxElIo+H8RLxiDjgTpQsUDAknCzf5Bwk8TsEm6q2Nxfq9vY0fns22El7KqPjrAjW59kp9/7qD2ap5X9GipndlJ+s2bN8JJGPi32JVxsWHX5wcEui2Bz6KGHuiJwfDFz0XHjJYQQQgiRHlIVbl57zaXIH3TL+edjIYgcZNohYK1Ro4ZzLXNflZZ0GFJJCJoRXRABguA6IHBHXMARHe9+jNcJogjgSXMneMX5gJMG8QEXjnc1AMIN9V2410OkIXjGieGdG8wWxL8RSKgzggsiKNwQdFNQmP0F04Gi4bOkDiFyxHJJpCbcIDYgTuDaQdjyKfwcN8IK7guOP7V2RkDzLqagMIGjHPcIx+ldN+kVbtg/MylRJBnBjjYPzqyUEQhy6SPGBmMK0SvewrVFqlBqD1ipSYQoQt9FF8VmnCGuMWZwEKUGoiLjh+3RL7QVaU/MOIvAkihIR+TydXVoQ47fg9iIUFmvXr09xhWiIilzXA+0eSwk3Ow/JNwkMbuEm8o2d87lNnbMEdZjxLl27nuFLNSssJ1998P2fN4mtiBUyqzEsWZvtqaKVuTTYl+Cok2uK/bJnDlzhu9XQq7aPDnSqdkuhRBCCCHikapw07TpnqLJwbCULk3hmMhBph1SnnBJIMIQhKZFuKGYLy4ZApxopwJBrp+JCVEnUXBO2+LUIKglcCX4xf1DuhXHQ+qTF2/4S+BNgVnWx3GCy4FAGscPQtINN9zghIGBAwc6wSQo3DC1OcINwkYi4YbCsQg3nEOsWj1pddzQNs2aNXPb4/6U2YUQlahPQ8Hi1Bw31OCh1g4Om+DxMi02bY9zxLtu6DP2gRhB2lssEG4QKbxwgzCEGIG7iDZP5I46UFCLB6EFJ320S8oLN7h3UhNuuJ55sIsLijGDuwtXFv9PbSfaMl76HG373Xffub4g1qDtgv2O2IlwQ1Fo9hOEbZIWRkFjCTcHHgk3ScyuGjcVbc7MC23k8JB1G36mnfN+IQu9XMzOvbOuvZznWfs9VMKsTFGz998ldyfyabGv4IeOLz9+1BFsmFmAL0V+pL1tUQghhBAiI6Qq3FC7JRy8H1TLm2+mpEslECTiwQMvxA/SiKjhkZYAHnGCFBOKvSIIBKH9EEwIqHHNpEUIAu7hCKpwrCAoUKsGpwoz+3BMBF0IN6TOcM/H/SCpVjiFSJmvVq2aKwbL/qhpgsMlKNyQboRwQ02TeMINx05Aj5iBU4LjiSY14YZjozgxKVmTJ0+OvJo+cL8g8nC8Pr3rzjvvdAviAa/RPghoQFsgECFyIH5xHtFQ2wXBB+GG9kFgY5YmxB76cW8n9OBa6dy5s3PHcLyIKrEW2h+Rjb5L7WHr0KFDXWoSdXEIqINQW4b9kH4VTxQBxgPuJMYHIhjOGz8mqbOE4MJY4YFwdLuxHu3KrFO0O2Mxus/pb9qQwtE4joKQzkX6HkIA4zoWEm72HxJukpiBA4c44aZ58zq2YvmrNmNWHesyupad8d7xFmpazM677UFrlecRWx4qbHbWqWadP+EKj3xa7Cv4caKuDT8yKNjkp0YXAxNCCCGEyAipCjdJBueH44DixLhS0uJcpo4gIgAuhGDaCJC+Q10WHDfU9UjNWRIPpmT2DhL6ge0i3BDIEywDATviDpNSIJZQsJbz4fVo4YY6M7h4OGZSuGKBoxsXBmlOODSiHRSQVuGGh4rxCtKmBk4axA3q+dCOuEKY+poFAYGZsxB1qNPi06UQBmgb9hurThFOJFK4SItD9KCduH9mm7iYqBu0N+CcIl2N+3OOF9dRrIWgmNQh+jVajIkG4YuUN9xPM2bMiLyaAn2MU4xUskSFsCmtwL5IL0MkiYb+ImWKfg+OVdoVYQuhC6dOvOLNiDP0Bylw0eOKbSMYIYzGE/Fw/zCemA48luAmMg8JN0kMX/5MD/fOO23C/9puf29ZY23Ht7HCbU6wUMNj7bz/u8fey32XrQwdZ3bhmWY9epDgmfJhkanwpCX4ZcqFR/9Q4C1YHV4IIYQQYm/IbsIN4CTAyYzYwf+TlhIMIglguN+aM2eOc2rgziDQxeFBbRXveGY93BxsiwCeeifxYDuIRCzRjmn+/cILLzihhRl8WId7QS/ccA8ICBw4JhA4CM5xPHC/yPvRwg3uCoIxBI/XXnvNpSsFIcD/8MMP3edws+D2iEV6hJt46TeJoN1JMStXrpxz/XAcCAIIF0zJTpsiQuE0wcGCgwRIWUOcQGTg88Ggk7bDdYJbiePyhYhxlFDkuVChQq6tEHK8EORBBKKdWRIFsrxH0MtxME5IwYu3kAaG0BOr/YKwT4pfIy7hwvL7Z3wgEtHvpNP5WIDtMXa5bn3NHv4yhnCAMUaCKVe8R5/jYGIc+ViDNiA9CpELsYkUwnhwvowr2h63lj8ntsE44xiZujx6vHkQbBhPiEqptYfYOyTcJDFeuGnb9l3373Xhi/mdCe9ZsXZFLNSgqF1Q8z7rnKuWrQ0dZfa/C82YylAXXKbDBcYPFHbQYOE0fvC91VEIIYQQIjPIjsIN5/vGG284UYMAl//HIUCATyoUzhkczqS5ECQT4JLKg8hBcIsogFsFwYApuklfwjGTKPAhuGcqZIrtUieEgB5BiNdJ2WKacQQgnCAEtBwj6Si4cHxNE17n+MaMGeOCfPqOffJgDxcJx+LhdUQmRBmOm1mmEFboY/bJTEO4WxCG2rRps0cxXA8pNbQTTolYgTbxA8E+dWMQcRA+EJ4QlVio1cNr8cYV6zZv3ty5QJjhKtY+EAtIScK5QnoSsM1GjRq52j6cN44UxAL6kPo3pLbRJggVwW0yixe1gY455hj3OdqIsc8sTohd3INTYwbBKpYDaV/CfT/7ZxwghjG+ODbERZxTvE4b+3HG+EEAQYyilhDQzggvuIDoe7aH+4jzo8A1jhoEQkQXP36oI4Q7ie0j0CGW0b7B/vMiD/+P8wmhjW2RRsgx4tBBzKEeJ+Kbb3M+RzsyXmlfUvhoe9L8GI8cG2PAb19kHhJukpho4YbLbdyyifbWxNfs8jffskqXdLDuh15v60K5zar9z2zwIK5Gt67IHLhp4EeaL07skP4JixBCCCHEviA7CjdAkE9wTmoHqeiID/w/KVEE9hS2RWTxxYIJklu1auUCaILTqlWrOmcE/08wSoCUCAQX6pyQ6kL6D/viXo8F1whB8Ntvv71zfwTNOFCOPPJIVzsnHjzUwy1BnRqOPQhiDEWCSV3huBED2A9/+TczlSLaJKr3QhtQX5G2iiWqICRw31qgQAEnguE8Yh+cHwvny3nHE0EI8ml70m+Cs0kF4eEl4hbn6Kc3Z9wifiHeUJOFfXE+7J9AlH8jOuF0CUJwijDHDFa0AWIDM4LxWY6VNCWcTrR5tDNqf0AgTZFnjgvxhXOhXTlG6sIE6xUhwOEcIn4LpkUxdvg37YogQ1sgOPrt4d7xrh3WRXSjjiYLYxHRi/bgc1wLiDl+enLaHdGSqd8Z/8FjZFyxLm4uD2IUbUlqFe2N24f9IAZyjoxNxKVEBbRFxpBwk8QMGDDQXfitWzcJf1HNCl904+2fjTNs3bYl1qLzeqtSfKJ9G6phm6jkf3V1szFjkHUjnxZ7Az9IWG0pwkbeMl9oqOH8EAshhBBC7Cuyq3ADBOY8JCO1gxQVgkiKqzKFNvU+CFZpHw9BLm4DnDhMxe2LziZKkfJwr0dqDikwuHkoHMv+2C8zP+GSCLpeCLpw+VB8N1FtQ5wKpA+xDRw90XD8OHRwBHFuiBMEaayPkwcHRSJYB0cHjpZYrgjEE1JzOB9ED+r9ICD5hX0RzMcTbn766SfnBkKUSFQOgP08++yzrr2D6T8IYrhHqFeEAIGLhjQgHCCJxAD6jOnB+RzTgyPUUfSZWj+0F/11oEBU5NhI86JNSRHjfILnDQTdrId4FZ3qhgCIU4d6TrQLC64lRBLGsYcxhzjHOEQEYn/B/qM9GbPR4h7OJtxMXAN8hoLK7C+6n0lb4xoj1ZCxx3EwDvnLv7mWcLAx3kXmIuEmiUkpTnxy+Mv3/8I/VM/bjBk32l9/tg+/s9LadjardOQc+zF0mW1FuKl5rRkFyAI/ZiJj8KPCFxZPCxBscuTIYWeccYb7AUPRFkIIIYTYV2Rn4cZDGyBK+CW1NuD9tKwXD//5tO4vM4g+x6AglRlEbz+4JDo/PpeeY4m3brBN09Oe0X2R2e2yN/hj25v2S0u7+G2w+HWDS6L9p/UYg9vi3/5zLPxbZD4SbpIYPx14o0ZVbc6cqjZmTCFbtPDx8DuL7I2OZhflnm7DQxfYDoSb2rcgfad8UGQY1GuspxTyOvTQQ51wg70USyGCjr7IhBBCCLEv4V4juws3QgiRbEi4SWK8cNOw4WU2e1ZFGzkyr02eUcum/PGl/d8bv9k5h/WxiaEy4dYON/c9dfDxRT4p0gsXxujRo519kYr3CDbkD5PLzOuxcoiFEEIIITIbCTdCCJF8SLhJYnY5bqrY3DmX26hRR9h3YyvaUz9eY4WfaWrnlnzZfg2dkCLc1H2QMvCRT4r0QtEu8lFJi/L1bJgGkmkPhRBCCCH2FxJuhBAi+ZBwk8QEhZvffq1mI0cdbh8NKm2nv3eYhR68yMpfcLstCx2RItw88QQT9kc+KdILwg1TTzJN4VlnneUqvzMVnhBCCCHE/kTCjRBCJB8SbpKYoHAz79dqNmLU4dZx4Kl22rt5LXT/+XbZebfZX6E8KcLNs8/ySx/5pEgLwXo1XDxUzmfGAgoTR1eJF0IIIYTYH0i4EUKI5EPCTRKzh3AzMkW4OeP9Iyx078VW48zatiqUO0W4adgw8imRGtwQTZkyxU3jF50KxVSDm+RcEkIIIcQBQsKNEEIkHxJukphYwk2HgaWsHMLN3RfZzafdaqu94+aVVyKfEonYsGGDff/991a7dm0755xzrHHjxu4CEUIIIYQ4GJBwI4QQyYeEmyTGCzcNG/7P5s6uZEOHh6zDgOJW7v3DLXTnhVan1M22JpTX7JBwc7dsGfmUiMdff/1lXbp0sYoVK7oCxDlz5rQHHnjAftU06kIIIYQ4SJBwI4QQyYeEmyTGCzcvvVTV5s+92kaMOtLaDzjFyiDc3H6ePVT8Bvsb4SZfLrN33ol8SsRiyZIl9sorr9gpp5xihx56qBNurr76avvxxx9depQQQgghxMGAhBshhEg+JNwkMQMHDrKTTz7ZWrZ83jasH2O/LulkjQbUsuPa5rfctc+0ekWusX9C+cwKHWn2wQeRT4loJk2aZA8++KCddNJJTrApUKCAPf744zZ27FjbuHFjZC0hhBBCiAOPhBshhEg+JNwkMQMGDHDCTdu277l/L9+4zu7tU9cOfStkh9Uubo1OrGbrEW6KnmTWubNbR+xixYoV9s0339jNN9+802Vz2mmnWbNmzdxFI4QQQghxsCHhJuPQbpMnT7Zly5ZFXhFCiIMDCTdJzC7hpr379+ot6+2V0a9bqffOt+I3VbEWR12VItyUOcWsWze3jtjFhAkTXDoUgk2OHDnsggsusI4dO9q6desiawghhBBCHFxIuMkYy5cvd7UMX3vtNSfeiAPDjBkzbNSoURkeuwS39N/48eM106tIKiTcJDFeuHnnnbfDP+Jbbdv29TZp+c/2XNe+VqNqZ2t96B22PnSY2bmnm33zTeRTwjNr1iw3e1SuXLnsyiuvdPVs9AMghBBCiIOZ7C7cbNu2zaWy0wZr1651f9evX2///vtvZI09oV7hxx9/bFdddZW99dZbtnTp0sg7aYPPE1SxPxb+n5lIg4ET/cIxcCwsW7dujbyzO/QXn2WdeHUUWYd7Us5tzZo1bp98Jnqb7M+v4xffHrFe53j9tv35BNfx623evNmdT1rhPHjw6duHbUS3j+f555+3Sy+91MUxifosHtOmTbN77rnHatWq5WpUHkj8uKDdOP+MnA/QTvSZbz+2ybYT9YHvRz+O4q0bfYyx+oTP8jp9Rt/5PmT76RkHYu+gnyTcJCkDBw52ws3rrz8R7uhvbfXqD2z5X4Otw2d/W52LZ1j70N22AcdNxfPN+vSJfEp4+HLq27evvf322zZu3Lj9NviFEEIIITIKgRRBVXYUbgg8v/32W3vqqafs2muvtcsvv9yuv/56e+ihh6xTp042f/78PdqD9urdu7fdfffd9sQTT9gvv/yS5ns+Psvsom3atLFbb73VqlevbtWqVXNp9hzDd999t1NMIej67LPPnJsbgWjgwIHu9SBsj3vOO+64w63Xvn2Kaz4I2xs8eLC9+OKLdt1111nlypWtRo0a9vDDD9vXX3/tAnAP4sdtt93mAjm/VK1a1e2ftgm+TjtRv3HRokX27LPPuoeWbLtSpUq7rce5ffrpp04QSAu0Z8uWLd05RbdPt27d7Pfff4+smQLnhvOJvkKESy8Ert9//7199dVXrs0PFIsXL3YiIALSZZdd5v5+8MEHbpba9MCY7tGjh917772u7eg3xtrnn39uq1atiqy1JziOHn30Ubffjz76yLVLNAsXLrQ333zTbrrpJneMt9xyi1s3ert8j/Ts2dOefPJJu+GGG9wY4m/jxo3deBX7Bwk3ScygQUOdcNOkybXhC/MOmzXrHJu/oIW1f2+j3Xfm7/ZxqLZtRLip/j++JSOfyp7wZIYf7aFDh+52IaCMqwCxEEIIIbIK2VW4IdBv0qSJVahQwcqXL++EG4JWBAMCXYSQF154waVERTNz5kzr379/uh0apOTUrVvXBUqIIeyHgKlmzZpO8GjYsOHO+0j64umnn3Yp+CyNGjVyzoUgBF3UUiRFn3Vuv/32yDsp8D5p+1dccYU7T4Jn9sn+CLw5jqZNmzrxBRBiCLZZxy+lS5feWbeR9kHY4ZgRtxBZSFM6++yzrVChQk64ufPOO3eeF4H9I488Yr169Ur1/hhXzpdffmk33nijnXvuue6Y+X+2gaOd7bEgTtHujNtkYd68eU7UOOecc1wbIoxccskldvHFF9urr76a5hpKtAupe9dcc40TvRC86DPa7b333ovbbggv7J+sAZbHHntsj/qcfD8wBjnGKlWquGPkuuE433jjjZ3XCbHQyJEj3UQt/lzoQ/ryoosucn1J/KR4ad8j4SaJ8dOBN2pU2WbNqmQTJuSzyb/cZy+1nmV3lBtvPULX2GaEmxuutPC3dORT2Q++PHkKc/7557unC6NHj5a7RgghhBBZkuwo3KxcudKJNsccc4xVrFjR3n//fZszZ44LYGmDn376yTlUEB1wGXhwdBAIIVYMGjTIRowY4VLlSR9JDdqYIJxZRxE9cB6sXr3aLbNnz3b3ljhKfJo9x9igQQMnypx44onOQUHAG2TYsGFOADr99NMtd+7cdt9990XeSUlpwYmC4ML7rVq1cn2M8wXXSvfu3Z2Yw/E0b958p7MDAYVj8H8RAtg/LiECQbZL0O3PGScQgTyCDu3C+OGzrIMbnW3ES/PysC2EMO6tjzvuOCdYDRkyxN1z0w4IS/z7lVdesXfeece1lxcgOKeJEye6vvOv4V6h9iRBKZ+lndg+wlS0g4X2oE4OKVNp6cfMhmOmbcuWLescUZwnY6JPnz5OgDnllFOsa9euqbYh58EYOuOMM+yBBx5w4gn9wDkxhmkn3FXRwg199OGHHzoHGYJZmTJl3LhD2PTwmdatW7v3EP+GDx/ujpGH2Li3Tj31VOfy4RjZJ2ObfsJphSjFfnGa1a9f3wmBjOVoYUhkPhJukpigcPPrnMo2Zlw+6z32Cru5VWu79rzX7IdQefv30Hxmt91MJd7Ip7IPDHgGP08mChcu7J4+FC9e3Nk5D6S1UgghhBAioxCUZTfhhkCYIPSss86KWZOQNkAwQADwdUYQbQj8ccwQ4BKs8nkEi379+qUa9ODSoZYKQgqp9dEQYHMcPrBGYCDQRVzCpYBrAXeNf5+/uCg4jzp16jjXPH89U6dOdUE296y4VDifIOwP8YZAH9GAdogFokKRIkVc2k4sSK8iHYdgHAEkIzD2cOng2iHtivEYK+3Jt1FQxMAhdN5557k29a9TtuDMM890olOLFi2cm6lUqVLOwcJ7wZpEP//8swtaEcDo70TQ5qQi0ZZpWeKdRxDWwQHFuGB2Wi8ecS6IIcWKFbPHH388pvMrCA+ScVzxUJk+Yf84tHxtID9ugjDOER9xN+Gaoa8Z088999xuwg0iDY40BEDS+fw1wXZJ5ytatKhLZWOGXfbD++zXn4tnzJgx7lzpB6VM7Xsk3CQxu4Sby23e3Oo2bGQea9v/ZCvTrrRdWvVcGxYqY9tyHGZ2711U8op8KvuAcs2P0gknnOBEG35c+JJCod9fA10IIYQQIjMh0MpOwg2BNIFwgQIF7JlnnnFBaVrAhUPaB2lBpIHg0uHziAYEvj/88ENkzdjgOMARQyCOEyE1EG4QJRBkOnTo4AIrHBk+XQqRAWeKT1VhNtNgqhTuCz5L4d547gaCe/Zx9NFHOzdLsN6NB6ED8YfzjSVC4LhBuOHcEKcyAtsoUaKES6XBcZIeEM64J6emihduEGu4V8fdQRvRfrzGcSJMtG3b1q0HCAgErrweFCtigWj0+uuvuzQzFlKBcBtFL7Q52yTlKOjYioZrjzgCpxHHxvUXhFQ0XFGkGaUmdFBrhrHA2ESw4i9iFO4uUtBi9S375n3S29gXtX5oB8Z1sC1I8WPcM84ZM0F4j5Qprg1cTolATGSMcpwSbvY9Em6SmKBwM3/uFTZ4WG5r1rugHd8hZP+7poBNCBWxHTkPN3v0YbM5cyKfSn5QjClYxo9lzpw53Q8BX158cfMjLIQQQgiRVUmLcLN58++2aNGr4SCAFIp4y4u2ZEm78H3T7sH76tX9bd68WOvvWhYseCkcQJBq8XfkU9TK+MuWLm23x2c5hlWrMj5JBoIIThRShCjYGu22iQVpKAgbxx9/vAtqSasCX1MExwHCRXQNmiAEUeyPGiGIPQTW3EuSHoUoFF3zg+Mk8MdRQ5oPqVsIBaQjIVBQVJlgi4eICEEINzhzPNTn4XjZTyJnOOlUxx57rAveY93XUjAX4QZ3T9Dp4iF9i8APNwb7p31wCvEXgYyUmenTp8f8LPA6IhPiC46kBQsWRN5JgZQ0xCXOkxpACBSIDB7avWTJkq49/D5I68mbN68TFHidgJT7eZxWuOURQnDOAGlWpPsgkCQSWYA0IGoGUQeJhTaLtfAebfHyyy8nnHGM48LphNuGvoy+9ugP6tQgmCCqJALxjjQzRCBSrBBIELX4LI4jBLhgmhjXOmOXvqNINfumFhEOrKBwQ5siSiKCsc1o5w6pgrQnbUh6VyIQ/xj7FMZOTSQTe4+EmyRmD+FmeG5r8cNxdtL7+eyKGoVseuh4M4SbZ5+x8K935FPJC19U/HjwQ4VQg2CTJ08ep7DzA5noR1AIIYQQIiuQFuHm779H2rBhoXBgFrL+/fdcfvwx5e+YMSeFt9E98qkUfv31Uevbd9c60QuvDxwYsmnTrgoHxrvuLzdsmGFjxxZ1nw2uyzHMnn1vZK30g+hCMEuqEzU6fNpHIvgMqUqIEwT6QQjMcVgQ+JN2Ex3YBiFwbteunZtlh/0j4vD/BE2IDQgSvv29cMN6zJxEOhauBsQA0mZeeuklV0CZoJr0FQLuoHBDfR5c4kyXnUhQIj2HgJ9ZonBPRJOacEO9E+oEIf4Q3JMGc+GFFzoBgfaidgrrxGtnhDNmKkJkQpyJTgli2nW2Va5cOeeSwhHCa55Ywg3uGs6Jv8Fzp68Qvzheaq8A55xW4cZDH6d1SQRCEMeNOIfgEw1BNyIQYwRHUSKoU0SsQhtRo4axiLDIw2ecTJwf++KYaCdiGdLTEHR8wI44RMyDSOidNaQ7sW9SzRDWoqHeEAIRxZARfuJBKhfXHWIaYzktgqnYOyTcJDF7Cje5rHnvY+3E9/LZdVccZfNDR5vlOtysyUv0cuRTyQtPPt59992dqVEUfWNQkwsanbMphBBCCJEVIZBLTbhZt26i/fRTKRs2LL+NHLnnMmIEfwuEg8VKe7hhFi58ORy4+3X2XHh99OhjwwHgA+H7q13uhI0b59qUKZe6zwbX5Rhw92QUnvQTqFP0NVhTJBG4XHAxkM4S7RQg2GHmHpwEuCdSC37YHwVzqUNCyg7iDKkjCB8E6WyfPiGFi/c4Tlwn9A3CBsdAAI6QxH0pdUVIL6JOTVC4Yapy7mFxT9C/8SCwR+TA2UHqTDSpCTccG2II7UO9E+rcIBpMmjTJpc4Q2COexBMxEC9oB44Bh060Q4XzIwULZw/CFaIQxXQ9sYQbagFxzLhzgsdMO1ADBnfSlClT3Gsca1qFG86BYJhgNy0LfRirzTyMBcQS+i6Y5uYh6E6LKAI4wohXcNcgLvr25ngpTM34RMSjvRl/uM54GE0pCIpAs+CIQUQifYp6TnwWwY3rBAHxrrvuctsMQv8yFhFl6INo+D5BHKPvqA1FvSXNKLV/kHCTxASFmwVzq9ug4TmtWe9CdsJ7+axW9SNsRegws9yHm73+moW/gSOfSl7I48W6WbBgQTvqqKPcjyVPQlIrMiaEEEIIkVVIi3BDCtPatcNs1ar+LvUp9jIgvJ2x4UBv9zodCDCJP9ff1qwZaOvWTQvve3PkU9yHbXDbi/4s/964MeMp+wQzOA0QCqh94lNmEsGsRLhbCPqjg3vai+CawJhUkbQ4eIDPMRMSgRUPBREPqEmDKMExkp6FcIMoQQ0Y+on7UmrBeBGJ9BiEAUQN3C5B4YZAnnQwBAH2EwsCNQJpRCOKLvtpwYOkJtz4GjcE9Ygg6YV2IF2M/kAAiFcnh/ZA2EGYQJDxxBJuOHcKKpMGFhzPjHPaGeEGYQnSI9zgEiG9CIcVi691E70QCOPqefTRRxNuk5iCvsMtRdFeRJUgiCIUBWbsxSse7eG4SDfD4cSsYUEQhxC8eI82wMGFcylfvnzOjYNwiFMKVw2vIfjhBkPIof0Yn6Rz0T/R45s0OI6PMclYiAbxDlEA0QYBKbpGjth3SLhJYrxw8+KLley32RfbgMEhe/WHAnbC+/ns9mp57Z9QjhThpu07yOORTyU3/HhQYZ0fNW5ohBBCCCGSibQIN8lGo0aNXEoJQkdqs/UAThQcCqTsUNMjCG2HI4LAmIKrGW0/BBJEGerDEEwRxCPc8BruHGBWHgQinBU4HKiNw/5wvUQLN7gkEAQI0OMVjSVdiGCc4sTxnBBpFW4QBbyLJb1wXqRVIRzESwlCMKhXr54LMtMq3HTu3Hm3B644f7xw49PC0iPc4JBBPCNliIVJS2ItvIeQRaoWTpZ4cO3hsGLfiCc+fcuDc4b+I6gO1vWJBYIf6WSkXEWfB24dxifHRjDPGEb0Y9pwhD3GDe9xHEceeaQbS9T2pPYNsD0+T9tH1yDCmcMMXoiX0bOK0a+IpKRfMQsv3y9i/yHhJokZOHCIE25efvlW+2PZSzZq4v/sqV4l7Kh2eey+qjnsv/CPhBNusCcm4Y86BcCwwlKl33/J83d/DWIhhBBCiP1NdhRucDngjMBZgAuAcw/e7+HCISClKDD/T8oLogEOFortetcA733xxRdOcCBdirSeeCAa4KDgoWC064DgniLCpEVxPKxLMd1o4YbtU5OE2YJ4sMj+uVflOKOFG+5nKQKLm4a/CBVB4QVXBnVyOCdqqHgHSjSpCTd+OnDEitTEhXggnlFMGZc77g0EsGiXEAIHwSVCBk4Qz/4UbrhWENQIiFNbuKbow9SuJ8QgBBTcVtQ58gWEuRZx0VD7p3Hjxm57wPlQc4njZh2OCRivFAlGREH88s4YXFQ4fxD8EE/862yPfTEWGd+4iRB/cNZQH4nx4K8J3kOYY3wyHnzfEPSTlsYx0ub+GNkHYiGpf7Q114xq2ux/GIcSbpIUvnj50njrrTdsx/bNNnPFKKv6+aUWahmyJ6qHmxjhJs/hZl27Rj6RHPAFyA82P46oyXzxMIiFEEIIIZKd7CjcEOBTjwWXB7U7SMHBoUK9DxbEGD8zkA/mSYOisCoLxXQRF3B+IHqQVkLQ64PoWOByIHCm9gwFinGqEGxz/01hWQJmAij2z3aYvplaIyeeeKIr5gq8TsoQQg9BGRBscWzMloR45GFdUmJw5nB/jzBEygwuHYSeJk2aOIcGLiKmi45Xd4RjPuaYY9wxxxNuED1wHSGUIN74+jbjx493/494EOuzHo4VQQt3BkITQgoOILbNQ1UcRQgG3vXB8Xrq1KnjxCfcIX4fCB1sB3dMULihTRGZEH98kWmOj9cQGKLdJPsLjh0hkXQl6muSmoQjhn+TkhWcIh0BBFcWjhjGrA+2fW1ORETqFSHeUBQaMQgxB2dVdGHtaEhZQwCkPER0W/To0cOlqeEMQjjjGF999VXXJ9Q4Yl/A9wd9SepX/vz5XW0b+pGUKvbP+EN0YhyLfYuEmyTGCzdt27Z3/56zerGV/6SahVqE7PnLI8JN3iPwXrr3kwEGMT8I2PuwBmI95QeZLxQhhBBCiGSHoDm7CTdAUMNsTDhFqPNBWhFCDv9frVo1lzoSnEUUdwvBK7U8KOBKQVkWAm5q5aRWuwO3zCeffOICJO41EQ/YJ7U/+DcCBAG8F1BwQ0QLN7GIJ9wAQT6z+RCIIwCQsoJYw345T86RNuDc4pGacIN7ieD98MMPd8dAGyJCsdA+CCLMhIWrIxGMO4J7HByIYbSL3w5ukSpVqrj0I8QF70oBL9yQDpSacIPj5mAUbhhj3bt3dzWUaD/GFwviB2Ibzh0P/48Ig8DC+QXr4uCior9oKz5PXzO26GfEr9QKcScSbviO+Pzzz50QGDxGxhwzm/lxy/FxneCCIq6i7g7tjXjkxwT1fxRr7Xsk3CQxu4Sbd92//9y80Z76rp0d/1Ada1CiXIpwE/5SDv96uPezOnwB8USFJwSHHHKI+3LhiwVlOrqivRBCCCFEMpJdhRsPDhHcN6+//ro1bdrU/cU9Q30OL9p4EEJwP5CuRJoRaU1MKZ6aKAGICqQv4XZB6MGt4PdHAI6AEAzCCYQRRZj6OlbRYA/9hSsIt0s8gYfgDZcKLg5EDWqvsM+pU6fuJmzEgpQi2oN1Y40N3D+IDggGnA/1g1hoHxbcRNHiQyIQZTgPhCJc8DiDaCPOD5dT9HZwLtFG1Ifxx+fdUDg/GN8ehAtcKtz/M9aBv7yG2BDd3/sTHCicC84i+ohUOFwt0cWAGUd9+/Z1oiI1ZaLFNAJx0sboYwSzjh077pEmFw9SsLgW2C/fCdHQPsSLwWPkAXgw4KeNGSu0P+uR7sW6wTFBf3ItiH2LhJskZsCAgZFUqebhi3uxrd0403qOmGLnXjHFng3VTRFuCh1JFePIJ7IuqMjkW/LkAcEmb9687ulK165dd/vRFEIIIYRIZrK7cCOEEMmIhJskJqU48cnWvMXdtnpNa5s77zEb+GNnu+XiSfZG6IkU4ab4icyJGPlE1gNRhicrTz/9tCtIh2jjZxVAXdbNihBCCCGyExJuhBAi+ZBwk8QMGjTcTi5Z0l5qWMXmzb/axo063kZ3vNK6nf6wjQtdmCLclD3VbPToyCeyHkxTGKxnQ04s9r1YVkMhhBBCiGRHwo0QQiQfEm6SmEGDR9jJJUpYw/tK28xx5WxEv5DNePFwW12kkO0I5U4Rbs4+y2zsuMgnsh5U9Kdiva9nw9SGFPISQgghhMiOSLgRQojkQ8JNEjNoyEg7uURxa3TjcTZ74Mk2uk/IZj4dshWnhOzPnDns7+NK2PZHHzebPy/yiayHLypXr149V+RM9WyEEEIIkZ2RcCOEEMmHhJskZtDQkXZycYSbY2xO/5I2pm/IhjcO2ftXh+zVUqWs/w1NbMvoSWZbd69ufrBCFXYqzFPZnBsSDwOXivTRVdqFEEIIIbIbEm6EECL5kHCTxASFm7kR4ebLliG79PmQnVD7Jmvy0gxbvzrr1IFhKsEbbrjBatSoYcOycEFlIYQQQoh9hYQbIYRIPiTcJDGxhJvP3gzZqc1DFnr8Xnum9WpbtyGy8kEMNx+dOnWySpUquVo2LK1bt97NdSOEEEIIISTcCCFEMiLhJomJJdx0bR2ys5qE7LBH7rLGrVfY+n8iKx+kzJ8/31q2bGmlS5d2gk2+fPns2muvtW+//VbCjRBCCCFEFBJuhBAi+ZBwk8R44aZhzYL26+ASNmpwyLq+HbIzm4SswGN3W7M2f9r6dZGVDzK2bNniatk888wzVqBAASfaHHXUUXbvvffapEmTbNu2bZE1hRBCCCGER8KNEEIkHxJukpig4+a3iOPm89YhO6NxyI5+8j57vd0q27g+svJBBEWGqWdTs2ZNy58/vxNtihQpYk2bNrWFCxe6GxIhhBBCCLEnEm6EECL5kHCTxAwcNsJOLlHCXqtxpq1rcJHNvzlkH9YOWalnQ3bcs/fbWx3W2KaDTLhZt26d9erVy6644go75JBDnGhToUIF69ixoy1dujSylhBCCCGEiIWEGyGESD4k3CQxA4YNs5NLlrR3qlxuVq2G/Z0rZG3PC1mRZ0JWuEkda/fR3welcPPFF19YiRIlnNvmpptusm+++calTgkhhBBCiMRIuBH7kuXLl7takz169LAlS5Y4N/yQIUPcWBNC7Dsk3CQxXrhpW7mqWeUatiF0qL1/xuFW9L5jrfhzL1jHzhtt88bIygcRf/31l7344ov2xBNP2MSJEyOvCiGEEEKI1JBws28hGFq1apVt2JAFpmbNZBhLX3/9tV1yySV29dVX22effWbNmze3O++803755ZfIWskD58u1pAfI4mBAwk0Ss8txU8WselXbnCevdTv1Eit1/otW6uZR1rXbVvv3AH8P4bCZPn26E2uCtWtWrlypmw0hhBBCiHQi4WbfQpt+/vnn1rt372wn3mzatMk++ugjq1Wrlr3yyitWt25dFyQ+//zzB4XjhrG/devWNE1iwroEttTWjLU+2yFG+fDDD23EiBGRV/ct/vh1zSY/9DF9HYx/U0PCTRIzcOhwV+Om5RXn2ZbHL7A/q+Wxb/93nZUrNNJOK7/Zvu7FU4PIygcAxJk2bdo4xf7111+3RYsWRd4RQgghhBAZQcLNvoXg6d1337W77rrLOnfunK1mOiXQXLBggXPd1K5d20488USrU6eOG2sHepzhihk9erTVq1fPiUupQZpX27Zt7dlnn7WhQ4dGXt0F5/TII49YlSpV7KmnnrJx48ZF3tk3EBf17NnTxUSzZs2KvCqSldmzZ9ubb75p3bt3d+mHaUHCTRIzkFmlSpSwptcVs+WdS9n09jnsuwer2lkFZtqZZ5v1/sHsv62RlfczM2fOdEr9Kaec4goQly9f3oYNGxZ5VwghhBBCZITsKNysWLHCzUj6zjvv2Kuvvmovv/yy+/v222+7dJ5Ro0a5NskMaN/Jkyfbww8/7GoxDhgwINO2nRVA8EAYufnmm12A+MILL7j2ONDpRLifENJOOOEEl7qVGkx60r59e2vQoMEeMcjixYvdezxcfu655+zuu+92gtDvv/++z66nvn372g033ODEonjCDUE7omGHDh3c/8eC/sERxjnF6hOyHXjvu+++szlz5kRe3cXGjRttzJgx9vHHH1vLli3ttddes3bt2jlRiePaX2JALHB8IaDRBlzfCG9c2xxzWqA9EOn4HOfVrFmznctbb71lkyZN2qPNuN6JW2kPRLXWrVtbnz594jrMOMaxY8fuPEbajvaMPkb6r379+m6MMTFPWpBwk8Tsmg68kM0ZWNTGDQ5Zr0bn2FknDrVzLt5hP/6Ich5ZeT+BHZG6NQ8++KAdccQRTrQ5/vjj3Y+f6tkIIYQQQuwd2VG4GTlypF177bWWN29eK1asmJUrV85OO+00O++88+yyyy6zW265xYk6BD0ZaY/Vq1e7QD+YGoVY8cYbb7givevXp8z2QVDMPgiwkhUCZwLYwYMHuwCVmV+7dOlywM+ZwJgJTsqUKePiitTgOmEssPD/QaZOnWrvv/++ffXVV7Z582YnqvDAGeFiXzisEAsQwC688EJX6BlnUzQIAh988IEdddRRlitXLicMxBrL9EvxcPx3//3329q1ayOv7oIMB94juEfoCoLoQ2oYguT555/vrqHTTz/dPWC/5ppr3DEi+sQ6vn0NbcSENQgSXN+nnnqqlS1b1h0rrpW0iDfUprr99tstR44cVrRoUTdWWEqXLu3qNrEdfy0D4wLRBTHtrLPOcvtkfVxYCD2IJEHoI9xopBL6Y6QNETkRvqKPEdHpggsusGeeecZ9NjUk3CQxQeHm14FFbeygkH3ZtISdcUELO/+GBTZwoNm2/XjdccHxxVe9enXLkyePE21OPvlka9Wqlc2fP999MQohhBBCiIyTHYUbnqITWJ5zzjlORKA2CWLODz/84Fw33HsSqJHWQ4qCh7bioSIBTnQ7EZxy70qwRYCLWDFhwoSd6yHS4Mwg2OX/2Ra1UEgh4nhYj+36bbMfhB+2lyig4j3WYV32j1DAscQ6xmii98nftOyT7cfbZ1Co4BxxN1GImPqUjDNSp+bNm7dHMM/nOOfo19kGr7Gf1M6Hdf35+L7y58P/B+G1bt26uUCZQJttE1uwPkFxLMGFbfolCJ/j2iF9ic/yd9myZXvEKmzTnwcL67I/1kvt3DzsG6cHwT2OG9o3Fj/99JNz/yAa4Cp6+umn3diLZtCgQVakSBG79957bc2aNZFXd4Fww3sVKlSwTz75JPJqSsD/0ksvOeETEaNp06bOWTJ8+HAXv+E0QSRp2LChG+/7E9qI87/88svtzDPPdClGHBuuKIQPzoXjjNXHQejH6667zp0j5871TNsjRmIgoA2C26B977jjDpchQtvjUkIcvPLKK+2MM85w3wu+LehvUvUQihF5+N7hGBGMzz33XKtUqZL7TgqOC1KkEHloV0Sc6HEYjYSbJGaXcHOM/da/hI3pF7LPXs9nZR8qZRc1amtDhoS/cPZPf7ovIZRr1FsEGxYGNoOfL34hhBBCCLH3cPOf3YQbgraaNWu6gCqY/sG5E8gQzCLsHHvssS59wdeUIDAjECVtIjptxD/dJ5hFCCBVBkGGp/Y8Vcc9TrDNfm+88UaX7oBD4+KLL3bTZbM9gjcCYAQkAjjSIliXVC7SL6Khzzg+1kFsYj22ibMH4YjgNRG//vqrSwPhmL///nt373399de7pVGjRs5JEg3iE4EwwWO1atVce7BPAvUWLVq4gNLDg1ZSRh566CF33iyPPvqocyoEHTcIGLQ57Rbt6sC9hKsD18fPP/8ceTU2jGOOAacHfcwx0Ta0Y+PGjZ2A5INd9slxEFDfc889Lkimz6644gq77bbb3HEHhQyEGBwsbId1gzBmSLF74IEHrEaNGnbrrbe6lJdgChPCEe4Y1vn000/d2KBdWB9XR7R7Ix4E1++99547TvobASoWiBScO22AowgRknEYLVZwTKVKlXLHEstxQ3/zHgIQx+0h/apkyZJO/KT/uTZ827IP2mvgwIFxU7D2JXyP0TY4bJ588kknwAD9yXjFBUPKG6lsieBzXAuIPQiOiUCAI05FCERQY9p72oNzZ/wS0+LkmzJlilufMcNY4lhw0PA9AYx3infzOtcg7ehhH1zXVatWdUaG1IQWCTdJzO7CTUkb3TdknVuHrMzLIavQ7hEbNSL8g7a7WL1P4EuDwYhtD8Hm8MMPd+rijz/+mC1uJoQQQggh9hdpEW4IHgjwEQniLYgZBLuIAUEI3GKtH1yojcHT6eCTeQIZthdrfYL8vYHgiUAFcSaWCwEIpEuUKGGXXnrpzlmCZsyY4Z6OE8RGzxzEcXHfethhh7nPIYaMHz/eBbgEWjxFR7jgQSTrEchxDAgupBAhslx11VV20kknOVHksccec+/z5L1MOIh78cUXXTDoQRQhCCU4RfwhSEeAwCFAQI2rgIA6EaR18DkcGXzu8ccfd6JD5cqVXdoGLg3cMR6CeIQRxA6CWQJU6rmwDVzxpO5QL8WDKEBdDs6Dc2LBnYHgQzDrH8YSYJLKU7BgQSfeBKF/OK98+fI5cSkRBKFsm3WpW4NYhqOJ1B1SUWhTL4Dhcvnyyy+d8MD5UFAYcYg+4t+0H24sL94gwuCmYP2g84TAmJonjAnGE58nDY82ZHukyAEBPLV+iGtwgVDkmILVCAP0L5/HAURwnggEJ86L7SPERDuJgOsIgYhtsn+EJvoKASfaBZQe4cb3LW3CORYqVMgJQ3sD3z1cz8R+CBUILrEWBE3eRzzi+8iLRLHAQYdYx1jo379/5NUUuG7pJ95LrYC0F24KFChgTzzxhPueQpBDkEJgCcIxsQ7plghrQRB9mFGNfkbghWnTpjnhmOs/+vsMUY/vAt7D4eNBWMGVg9DC+I4n2nkk3CQxsYSbLi1DVqZhyC5tW98mhMf2jv3QnzzVQBXmIilcuLAb6F6dFEIIIYQQmUdahBtcFDlz5tzpgo638NCNYDgIT7xjrRu9IBwQJHoIsBEDYq1L4JoRCEwI6nC2VKxY0YknBNMEYrhLgkEtqRC4IRBheJIOuGIIcgjmEFuCINAgGFCLEaGAWjYEjQgciBUEnASCuD5wWFC7EZGHp+0ET+yfYPjoo492AgefJUBG+CKAQxQJOh5w5CBG0G4+kKReCcLLkUce6YQHgrxEcI64AKiDQqCLMIJghojEsZx99tmuJo2HtkK4IuDEFcQ+CYQRVjhu2hMxwYNDhvNgbBFkIjrgLiJwpk18wIrThG2TYoLQE4SAGMGFmICHuIlACOJhLzVJOEamYOd8EKhw0bANBCNASGGsUpMFAQIHBn3DOeE8QmgjePY1NTkHBAyEt65du7rX2AZCFmOC1BjS6hhj9CdiDgIQf+l3rivGEceAkwsxApGTuIdZcxHg6IPUnB1cq4xLBD2Eh+jrleuZFBz6D2GIdmdcc/4cJ4F8UPRIj3CDsMRnSRliHFx00UXuGBKJKKlBlgVjmXZF2GDMxVoQuxATufa5hhPtE8EUgY1zRiAJwjWMqEXfcN0kgrGAmEmfcf2xMMbpJwQr0sh8+yNwct1yrUYLjN4JxqxqnTp1cq/x/UEbIgZyPkH47iM9jXPm+g/C9wRiMmlgqWWhSLhJYuIJN6UbhOzyd5+zqQjG+6HGDXmsqJFcKFg9vdVMCCGEEEJkLtxjpSbcEAgRvCDexFsogIpIER208JQ81vrBBRGDh3ZB9wtBLYFhrPWjg/u0QmBKOgz1a3A+sOBOYSEgpKCwhwCPYzrmmGN2ihe8RtCEeyFauMGFQSCGYwSXA/sirYF2I7UoKAoRTBH8sV+EDdqcNib9hde4D/ZOCvoGNxNP8mlLIBUFwYW0DIQSv23/RB4BhL5Ii3DDudAepPr47SCwICawDYQljo9xgoOEbeO88Gk93LeTloQAQqAZFG54j23hImHBCUJ6CqIFziIvovAeAS0CAk6UIAg3xATUYUlNuGH8cj60OX1G2wHHzzGzT9KoOBfaF3GN9ibYZrz5sY+75r777nNiCvVagOuDh8k4XRAwgPHKeKDfEDcJ9GkX9suxIqohoNA+wDFwHvRdMI2KccVxI1x4h048GKOIjggpwfpLHoQaRAL2jRjmYSxyrPRz0NmWHuEGF5ofY4iqiGOpCU2pQT8wJnCWeOdZvAUBjnZLLaUM4YpxyvXLtRaE80EIRGRO7fqgnUhpRFhiFjqEHsYV/c32iVMRPoDxwzhC7KNNg3Bd4VhEuOG6AgRP2hCBBvdcEGJfxhqiMbPQBUEsot1x2TEmEyHhJomJK9y8ELLqHV6wmQiWiWs4ZQhUaNTWoN2LgcYXgb8YhBBCCCFE5pMW4YaAlCCHoDzeQoCD44NAOwhPk2OtH1xwYSBcEOR7CJrYXqz1o5+ipxWCRAIwUkYQGpgdBmGCoIrtcv/pIRAjqMJJgpsGEgk31GYhmCKlg8CSIJh6LogrsQQHBAqEAYQuBA6cCwT5OFGC54erg4AfEYWAk/7i/pjgHddFMH0KOG7EBYIxHCeJwDmBQwVRiKDYgzBEe+Acog1oN9oGpwdOlKDoAIgJCFEIbcyG42E7tBNpY7iMOD8WnELM6OWDWIQb0uL2VrihXXDzIKBFp8GQLoRIgwjB/rzjhuAZkSYITgYcOAhAPt2MANgLNwg+QPtxLjhoaBv2zV/agr7BfUWA76dvRjThPEhxox89tC3b5viig/5ocHbQzogEsUQTHDyIBzivCPI9nD8OFNwmQaGAa4x2Z/9e6AqC0MF7XrhhLCAscqycb2p1Yg4EiGiIHqTxRbcRx8t4QqzENZYIxi+uN1xbXKP0Gdc1jiuuP8aCd43x/YkLhr6Pdskw1qg5hHDI7FKAmMcxMvair2H6je8oiiJHCzfEzIhyXLOxalAFkXCTxHjhpmHNo23O8GI2YkTIPm0TsjLPh6xGxxdtLt/RmSzcYKHky4unHPxA7K8BI4QQQggh0ibcJBsEVtRlIfj16fjBQBpIm6GYMPVffE0ThBuCHD4bLQwg3JBGgaMDsYEAG4cKQbZ3XARB4CFgxhWBYIWjgFQLam8EAzIebJJiQ6DmZz8iGGO7PHn3RU09CDekcrGd1GrCsE9qwJCmEhSifHCOcEO6DcdHwEjwjiARXRcI4QahAFErmCqHiENb8RnELoQD9sexUxIBFwjtHhRuSDkKghBB7ZC0CjcEzqS0RAe13oVBoEww7oUbXC7R04HzUJn4hL735xMUbrw4RVDN5xExOC/Oj3YgCOYvwgG1iRhLiACkunEeTBUehAAbUQ4RKbVzpO0RCOmLaMcFcRTCD9tBFKBuD+ORhX5EqERIDBaQRtCh3RmrCLTRINzQZogSnDfnwT44b9oiWsRLL3z34GRhLCCWUbA31oL4x/tcZ4y36Os1CGOZ86QODNdsEEQr+pu0K0TcjODHB8IKBauB7XrhLlpsYXzjumM8kYYH9AFtyBjhmg3CWCM2pr8Q1oLQ/whzfNfEclwFkXCTxHjhpul1RW3pp6fZ5HYh6/RCyE6uF7JrP25kC6lNlkm/5fwI8UXBlwTWWvKV+XJJzfomhBBCCCEyj+wo3HAPShFZUh4oOBwLUpiok0F9DZ9SQRBIsBrLcYMAg4MG4QHhBsEBoQVnD9uKhnQvAmzSbhBKEIK8cBOs7cg9M0/4EW4IOOkfRBSe+COURDseCAIJ6tPiuAkKN0HHDcfDA1UEAtJNSPXAaUB7ETBGB8ME0gStCDJ8DhBHaCdSUnDW4CJCGCDoJfWEtJEmTZq482H7FAKmPaIdNwgHxAu4FdIq3OBOiq6PSZ8j3LAtzsULNwT40cINjhsEF47RizRB4caLOX6biFM4O4hjOG/Ok2uKf/uMAvaH6IBwQ6pYENbFncX5xxorQTh2BEfEMFxqQQGDcYHIQcCPmEQdF86PhXGMmEM7Ijb446KdEBBI34rlnqH9OT8KbPvrgHNl/2zPu48yCseM440xy3Hi6Iq1cC1yfeGY4ppNJNxgDGD840wJjmvgPUQ1RMnoAuNphT7wNWsoVgxcA9R64rrEIReEccn3AkKPT7MjTbFChQqubbkOg+Dkoj9w3wWPn3NGBOR6ZRyy3URIuEliBgwbbieHL/LW1S6xbXdUsT/Khax91ZCdWDdkNbs2sqXUi4t/jaQZvpz5EuQLgDxlRBtUT77EUSSFEEIIIcT+ITsKNwRsBEwIEdHTbOMoIPAmcKdoLW4D/2Sbp+p8DvcBs2B5uLfFEUDKDKlXCDe81rx5c5duQ2AaDIp4as52SLPBCUIf8Dc14YagFThG1kUUQpxBaPGv414gcE9LjZu0CDe4FkgTYVwQmOLOIFjn/IDXEbFIT6LGDWlvgIDEMRDIBlNzOHdEK9oWAYNjZsEdhNiAA4H9eegrBCrSjlIrJru/hBsffJPSQvDNOeKqihYTaBufYkN74dzaW+GG8cA50GekYPm+B8Q/xiZjCyGMPqX9ODaEAgQb4i/a2IsFnAPbInjHgRK8/ukXnCGIJow3X6iZ16kVRRoh4wchJ9hnwL8R6egT1o8Hx484xLY5Xs4h3sI1wvWa2oN+Uo9wrDAOcLj4c6IfcD15J5m/9nmd46Btg9cp/88S7Ff+n7HFdcF15gtVM6aYGYtrkvEd3A4OP0QkxrFPo+Ka4LsFdxh1c/wx8pd6T1x7XG9BkZRtUnOJ8UbqoRff4iHhJokZEB5ICDfvVKlqdvlVti5HyNqcHbLjHgzZLT0a2h+7pyxnCG4IqMLNF8AhhxziRBt+NPkB4Is80YUthBBCCCEyFwKR7CbcEMgS3BLE8nQbeHjIU3NSE5gJC8GFJ/0E0l6kIMjhyTkOBdbh3pU2o3YJwgqFjHGMeOcCQgNiBu4ERAKCOwIpXBEE6QRfPj2FABsXEMcUS7jhWKhP4uF+GtGBGjWIEgSz/CUgZVptgjtfWDceBO+k9xBQxhJucNBwjD6go9YPgSlBKLU9aDO2gaDBuePG8cINjiMEAcQS0q5wouCuwKGA+JMnTx6XHoOAAgTRBNpejEI8QTCjPZmtC5EgunZINPSPTyOJJdzQ5gTLQeEGFwfHH8TXuCG1JSjcIJxxTn6WMcYFIgzbIK2OFCL6k/pMnA/CGX2AkEeMg+OGcUWaXBCuP9xZCFepCTf0DWk3xE+0n3/ozXWL64vaLcxkFSxA7EGkYfwisvmC24wb1mcs4fJgHHAOBP20NzWOaAf2FRRMuG6oV8SMZAhBCG/0L+twvox9BAwK+KYmtGQ2pPZ5UQ6hjfNgbCD+4AzDMICA49uO86WWEX3u05wQnlif/mMsIUIxbkjBI0sE9wxiBw4eoH8Rn7juEGTZP98nCJgIg/Qt4i5tA1zXjCPGDtc845NjRJwiBdKLQkFTA/+Pew1xjj6LFsuikXCTxHjhpm2VamaX1bD1oZzW5qSidmyVSnZbh262ZmVkxQzAYGFge5sYgg25rSiJfPHvr4EihBBCCCF2kR2FGwJsgh9mlSJI4uk8T9BxD1AfhifyiCg8WAwGTgTqBFisQ2DFOrgfcEsgOhDgUviU+jaAWIGjHFcGIggpGnyWwJkg2Rc2BQJd3DZsxzsbgP3zBJ7AD5HF9w8BoS9wjPDCtMKcB9tH/MB5kprjBjcFgSxpNME6PIgDBJWcIyKNLxqNSwDRie37p/7sk3YgLYfj96lS3Nsz7TqCFueEsMF9P+IHnyUWoE6Idw3wlyAfgYr1CSQRqhAFOHdc+qmlSiEWsW3EomAbAn2O+MN26Rf6EsENJw9tF4RgFmEud+7cO9NecD5wvjx8ph6Ph9dx5zBmGEtsn/VwqPAXoYpgnX7D8YIIRTwUBEEAwQ0RJLX0NraDaILwSLt74Q+hCBHvuOOO21kMORr6BIECYY/j5Li4/jkHxhLjlPHDcdPujCFER9rCu1M8HAciJ21HHyOQsH+uI/qZscrCOQeLju8v+C5DKGEskYbl3Ww4XDhXRFcPjh/OEfGRGdwAIQbRDuEKgYprl3P13w9cv4zH4PcDYiDni7hHmhN9xGdpH9qFWDhoUmC8MnY4Rr6POEZEHI7x+eef3ynyeBCPOA62OXTo0FS/qyXcJDFeuHm7aiXbcfOltqpQHmtXqLodX7CL3dFgqa3fU7hNMyiVfAF4lw35rnxppVZUSQghhBBC7Duyo3BDjQxcDwRJBPoEWQQvuDUQYkhtilf7hsCL2WhwbhCsEpzhpEBc4Uk8QT3OAw9BOWkrBFwEwQSPrBcsEAvUgKFoLQGbF36AYBDRAUcGT9uD/UOf8eSdAJtgkc/juiBQ5biCwlAsuA8nUMUZEQzMeZKPQEVRYJwW3nEEBLktW7Z0wSNtRuDJ+SFacBzBmXoIjglkqXXDuggNiCU4cAiCcT14xw3gVHrvvffctmlbhBvEM2bkYf1oMSYaBBmmTKfQb7ANgdogiCPM6oMDhCAVscr3dxCuB/qRPvN1UAiiEeEI+umPIJwnDhYED0Q0+oIgHOGAz3OO9BtuDsRB2iAIwT8CD8eX2jkC2yMlD2cR/UT/MJ02sdXTTz+9Rw2iIKQ1IbZRsDiYwsbrtD3ngIjAOKXNOS76PB60M+sgTDDuOHf6meNjLNAnBwrGE6lSjD+uPURK+pBzDYLDiuuGek5eeOR7kb7gmkK8ZDz6650USNqbdaJBLGEbtB1jgXZkTMbrV9qW8Y0gxDGyL9ozOCMY0Od8Z9DniMOM0dSQcJPEDBw6wk4uUcJerVHONjQ/y+bWyW0dLrjGioSmWJ0HzTbv+l5NN+SCos7nyJHD2SP5goyugi+EEEIIIfYv2VG4QXzB4YGowv0oT7L561NEgkJFLBA2SEVhfQJTgipfI8MH6UF4jzb2+0A4iF6HbfJ5luBTefqHgIrgPtq5wOtsi22zcD64bHDhIBAwFXsi2A/bZNvBfUJwn8EANbhP9seCAIKLiADZp454OHffzr6tOFe2wf9HB7+85tdnH3yehfVTSw1hW7RfrPPh32wjeD7+XKL7m/c5DvqYdYD+Yj227V8Lwvq+j1k4B9YNHjOfY5usG4T9se20nKMH8QthCZcSwb8/F84/0TXMvliPJbqN/DkwRln4/+hjjQXrcN3wGd/PnGdaz2VfwrFFj79ofN9G9w3HTx/yuWC/Rl8T0fA52oP1aRP6JNH6wWPkb6xjRDjEwYZwxLTsaUHCTRLjZ5VqfP0Jtvi7EvZT10Ps47sr2sm5f7a772NQR1bMABSJevXVV92gIF+PQSyEEEIIIQ4sBBQEaNlJuEkGcAlMnjzZOXUILulH6mPgmCAVBqcMAWNmQmCJi56FoBBwEuDgIA2J1CeORex7uFapo0Iwz7UrkhucTe+++65LYaR2TlqQcJPEeOGmYc2C9uvQIjZycMg6P3O6nXLMD3b/E+n7EceahlgTBNsoX+6xVEQhhBBCCLH/kXCTNSF4I5AjLYW0HNwXpGZQI4aaO6QGZTaMD1LCqFfDk3/2SXoMdV9IOSJ9ROw/cILgquKvSG7oY9IZ02N+kHCTxHjhptGNx9hvA4rb6H4h++TFE+zkS+raQ2/uXpk9Hij75NOSY0nucKzp4YQQQgghxMGBhJusCWkdzOBE8VRmGKJeD8EXDozoGh6ZBff5FGTFYeP3iYiDu4diyUKIgwcJN0nMbsJN/5Ipws1rh9jJDxa0ul+/E1krPiiBWPYo8EYRYnJd+UGJzscVQgghhBAHBxJusib0m69rQv+x8P/Ug9mXsE/SoQgK2Wesmi1CiAOPhJskJqZw80bITnk0r9X9rmVkrdhQFAu1nWJozBrFQuVuUqOiC18JIYQQQoiDAwk3QgiRfEi4SWJiCTedXw/ZKQ8VtId7xXfc/PTTT27u+2LFijnB5qijjnJTJA4bNswp/0IIIYQQ4uBEwo0QQiQfEm6SmHjCzakPHWOP9GoXWWsXTJ3Yv39/19E5c+Z0ok3p0qWtQYMGNmvWrMhaQgghhBDiYAXhhht8apQsX75cTmkhhMjieEGe73XEGf4dCwk3WRQv3DS8sZDNHVTCRg0KWedWISv90HH2aK93I2ulQMf26tXLLrjgAifYINxQxf6DDz5w0xMKIYQQQoisAUVnmW6WGUFxS8e7yRdCCHHwQ6yOgxLhBrNFPCTcZFF2OW4K2dyBJWzUgJB1bhmyMg+dYI99835krRQQZ1555ZWdTpvrr7/e+vbt657YCCGEEEKIrAM37LhtuMmnbqEvOEuhWy1atGjRknUWvs+ZNGj+/PlOkE8Un0u4yaIMHDbCTi5Rwl696jT7u/n5NuehkHW4K2Ql7z7Jnu33SWStFHgaw4xRdPJTTz1lI0eOVE60EEIIIUQWBIcNs4AuWbLE5syZ4+oi4L5BxNGiRYsWLVlrQYTnuxyzxdatWyPf9Hsi4SaLMmDYcDu5ZElrc/llZtdeYasLhazdxSErcU9xu/WT5rZwwUJ+2SNrpxQ8mjx5sq1YsSLyihBCCCGEyKog3nAjv2jRIluwYIEWLVq0aMmCC8I73+U4cBIh4SaLMmDYMCfcvFOlqlmVGrYhx6H27ul5rfTNZa3Y/1WzZ5+pb6NHjHQ/6kIIIYQQIvnAfcMT2s2bN2vRokWLliy4INikJRtGwk0WxQs3bS+/3OyKK2ztIXnt9UKl7eTip9sh+Y9003zfduutNmPGjMgnhBBCCCGEEEIIkdWQcJMKVO5nGu3nnnvObrnlFqtTp461b9/eWZrSAtM0jh8/3ho3bmy33Xab1a5d215//XWbMmXKXs0CMGDocDulZElrd/XF9t/D/7M+pXJZlTzH2RGHHOkKEOfPn98avPCCy38WQgghhBBCCCFE1kTCTQIQbb788kurUaOGm0q7UqVK7u/FF19szz77rCsklBqDBg1yYg3Tb5cvX94qVKhg559/vt1zzz02ceJEJ+xkhEHDRtopJYvbM1UK29f3l7Uap4TskFDIiTalTy1nzZo1s7m//RZZWwghhBBCCCGEEFkRCTcJGDt2rF177bVWpkwZ57KZPXu2DR061O644w4rXLiwvf322y4vLRa4aZYuXWp33nmnFSlSxAkpkyZNck6bxx9/3EqUKGHPP/+8KyiXEYaPHG0lSxSzC08+xC45rYATbHIcmsPy5T3PGjToZBs3boisKYQQQgghhBBCiKzKn3/+KeEmFhQIevXVV+2ss86yp59+emfKEQXgSJ3CQXPTTTfZuHHj3OvRbNmyxbp3727nnXee3XDDDfb7779H3jEbNWqUew0HD9N0ZwT2W6xYUcudK2S5ch1iecN/zz35KLugQjP7sNuqyFpCCCGEEEIIIYTIyqxcudIuvfRSCTfRILzceuutdsYZZ+whriDiPPDAA3bJJZdY586dI6/uzrp16+yFF15wwk3Lli0jr6awdu1ae+2116x48eL25ptvRl5NHxMnTLCiRYs5p81JRUN2b62QvVw3r1V7uI691X9aZC0hhBBCCCGEEEJkZf7++28n3FB3V8JNgNWrV1u1atVcPZoJEybsVkh4xYoV1rx5c+e6adWqVeTV3VmzZo3dddddVrFiRfviiy92a1xEoc8++8ylW7344osJixT/9ttv9umnn1qTJk12LjiB7r33XsufPyVF6vAjQla1Ysiu/V/IjjonZOfcfIU1f6WZNXv5ld0+p0VLdl0oDs51Q3pjixYt3L9jradFi5aU64WFQvpcM6T66prRoiX+4q8PHtS99dZb9sorr+ia0aIlweKvj9atW7uH2E2bNtU1o0VLggXt4ZlnnrGiRYva7bff7kwi+4MsIdyQ2nTZZZc54SV6Sm1sSnzR4MbhhjYWCD+1atVyn//mm29cipWHgsRff/21c9zUq1cv4bzto0ePdiINdXb8ctppp7m6Obly5bLjjz/eHUe5cuXCr7OUtbJld62rRYuWlGuGa+XQQw+1E0880f071npatGhJWbhGChYsaDly5HA3CbpmtGiJv5QtW9b9LVCggLs3o46hrhktWuIvXDOnnnqqHXbYYZYnTx4rVaqUrhktWhIsXB+nnHKK5cuXz5lD0Br2B1lCuCEdygs306dPj7yaAsINTpszzzzTqV+xoDGxMcUSbvj/nj17OuEG5SyR4wZL1Jw5c9yU4iy4f3755Rd75513nGOHAse//vqbTZk6wyb//ItN/Xma/Txp0s71tWjJ7guzt3EN4247+uijndjKv7mWYq2vRUt2XrguKKQ/bdo0u//+++3YY4+1Dh066JrRoiXO4q8ZfmuY0KJYsWLuHo97NV0zWrTsuXBd/PzzzzZy5EhXdoIH0AMGDLCpU6fqmtGiJcbCdcH10a9fPzv77LPttttus02bNkXUgn1LlhBuSHWqXr26S5WiwYLiyvLly50Nlvfi1aihjg1TfiPcdO3adbdUKWai6tKlixNeGjVqFHk1fYwYMcKp09xQCyFSp1u3blayZEnr3bt35BUhRCJ4QMFTnsmTJ0deEUIk4oknnnC1DZlVVAiROmQnUJqCMhJCiMSsX7/eGUtU4yYKvkBq165tp59+uvXq1Svyagq4cUhfQiWm/kwsaFie8PMDTiHiIIhC1NnASkv9gIwwcOBAO/nkk61t27aRV4QQiaCQONfcV199FXlFCJEI6kJhZR8zZkzkFSFEIh5++GH3NHTu3LmRV4QQ8SDWuvHGG61KlSr7Le1DiKyMpgOPA3VnKDLHD/Cjjz5qCxcudK//+++/9sMPP7hpwlG7sMbScBQsZh2cNn496thccMEFdvXVV9v8+fN3unaGDh1q11xzjVPM2FZG+PHHH12dG4rgCSFSp1OnTnbSSSdZjx49Iq8IIRKBsxSxc9SoUZFXhBCJYMZRag6S4i6ESAwZCKQXVqpUyVatWhV5VQgRjz/++MPKly9vN910k4SbaBBlatas6Z44khI1ZcoU69u3r5smnPo07du3dwLNsmXLnMhz33332ffff+8+i0hD4/IahR1JiaLQ8Lhx46xu3bruZpjXcO9kBHJBKVAkx40QaeOTTz5xqVLUHhBCpA6Om9KlS7vfLiFE6jzyyCN2zjnn2K+//hp5RQgRD4Qb4qzLL79cwo0QaQBtgenA0SIk3ETBFwr1MLDxMfU3aU8UJK5QoYKblmvBggVuPSyxd9xxhxN4EHOC8KQS8YYfctw7bOfCCy90Lh6KPyaaUSoRiEgIQKrXIUTaGDx4sD344IMKQoVII4icpH7MmjUr8ooQIhHUHXz66afdAz0hRGJ4+E05iZdeemm/TW0sRFaGSYsoxUINwuDER/uSLCPcAPmXw4cPd5ZxZth47LHH3JP7YOE5Zpn68ssvXdrS2LFjI6+mgPOGKtA4ch566CG3IO7MnDkzskbGICULR5BuDoRIG6jUVGXnehVCpM7vv//ufmf++eefyCtCiET89ttvbrac/TXbhxBZGR5e82CAGdj2VxAqRFYGlw3Gj9mzZyeclTozyVLCjRBCCCGEEEIIIUR2QsKNEEIIIYQQQgghxEGKhBshhBBCCCGEEEKIgxQJN0IIIYQQQgghhBAHKRJuhBBCCCGEEEIIIQ5SJNykAtOQr1mzxs1+s3r1avfv9MD0esw6xedXrVplGzdu3G+Vp4U4EDCDB9cKY55rh2sgLTCLwYYNG3ZebyxMtUfVdiGSFX4PGPf8PjDm+b3I6Jjftm2bu2bYBrMwCpGMMPvN+vXrd/5OMNMaYz89sD5THnPd/fXXX+4v29RsOiIZ8ePdXzP8P9dRWom+XrhP02xtIhnhnoy4hfHOOGfhHi29vw1cX9HXXHp/p2Ih4SYBCxYssHfeecduuOEGq1Spkl1zzTXWtm1bNy1rWiB4/fzzz+3//u//7H//+59dccUVbipzpg4TIhlhKsnXXnvNrrrqKjfmb7rpJjdlPz/0ieBL0U/1X6tWLatSpYpVrVrV7rrrLuvevbv70hMiGWGK70aNGlm1atXcNVO7dm3r2bNnuqf95iZhwIAB7veK35pevXpF3hEieeDmmd+KevXq2WWXXWaXXnqp3XfffdavX780B5JcK4MGDbKnn37aqlevbhUrVrSrr77a/XYxFbIerolkguuib9++9sgjj7jfmMqVK9sTTzxhI0eOTNNDAgRNrq/HH3/cLr/8chcPcW/36quv2pw5cyJrCZEcEG98//339swzz9j111/vrhd+K6ZMmZJm4YUHZ8OGDbNHH33U/U5x3XH9cI+WXgNINBJuYsCP9tKlS+3FF1+0c8891/2w33LLLS6YvPDCC+2FF16wZcuWRdaODcra22+/bRUqVHA3BTfffLMTftje/fff7wLc9KjdQhzMMJZ/++039yV1zjnnuJtgBBi+rC655BJ3Q4wLIB58luD1xhtvdIHnnXfeabfffvvOm4RWrVo5IVSIZIEAdPLkyXbHHXe434XrrrvO3QxzvRCMdujQIV2umZ9++sndZBx++OGWM2dOd1MtRDLBU1Buhhnn559/vvu9YLn44ovdfVq3bt1SFV34HeKBWs2aNd3vy2233eZ+a/jNadKkiY0ZM0b3ZiJpQLT59ttv3YMBrhNikWuvvdbFMlxH/fv3j6wZG36DeJBw5ZVXugCUB9F33323i2cuuOACF9DqYbRIJmbPnu3un7g++I3gfqp06dLuWkmr6wbhh2uE68zf23H91ahRw4moe+OIlnATA9KZcAmcccYZ7qn/6NGjnWNgxIgRriNKlCjhbhDiPd1Bwebmgptxlu+++85WrFhhM2bMcDfpp5xyigtk//zzz8gnhMjaYJ9FqDz11FPdjQHK9B9//OGe0hCInn766U5pjvdlNX/+fBeodu7c2TkQsCZyfXDtnHfeee4mffDgwUqbEkkDDwcQK0uWLGkPPfSQe3LJAwFukvntQfTnWkjLjQKfe+mll9zvDTcGXDMtW7aMvCtEcjB37lz3cIB7sAYNGtjixYvd8tFHH7nriPuzX3/9Na7wwtNSfod4GMDNNNfm8RrKAAAhAklEQVQabgJA0OGzS5YskXAjkoaff/7ZiZPEHTwA47eCB2VvvPGGnXTSSXbvvfcmfBDNusQtRYoUsffee8+WL1/uHAMInLhD2S7bEiJZ4Dflhx9+sK+//trF8giWZ555pnNppnY/xoODRYsWuWuD6+utt95y8Q3XGHH/ySef7IRPnJ0ZRcJNDLihptEvuugi+/jjj3f+iPP3s88+cx3IjTaumVgg0vDk5rTTTrOmTZvu1tEobTwZQv2eMGFC5FUhsjZ8CeGy4QsumKLBjTI3C+XKlbPnn3/efSHGgvUQQhF2gk9M+f9nn33WBbKkKSZy7QiRleBBAM4ann4OHTo08mqK8M+1gtjJDTGiaCJwIbRu3drdXJNqSECL6MNNghDJBL8tPOXn/mzSpEmRV1MczjiZcXt+8MEH7uFbLLg3a9iwobu2unTp4h4usODm5DMSbESywQOxs88+2+rWreuETw8lH3Cr8WCtR48eccf+2LFjXeo78VAw2CS9nVISZcqUcfdoQiQLxCPcV3EvxsJ1QgyTFuGG93F0cr2QdYDQ6UEz4HeKB2ydOnWKvJp+JNzEgCefPLHky2rq1KmRV1MYP368s9givgwZMiTy6u7weeyEBLHffPNN5NUU+LJ8+OGHnerWp0+fyKtCZG2oOYCVsE6dOjZv3rzIqyn8+OOP7nrhyw8nTnrxN9rt27d3hVeFSAa+/PJLK1asmMujJqAM8sUXX7g0Q2o8LVy4MPLqnvjUEZwGiD3cGLz55pvOnivhRiQbbdq0cU/+X3/99T1E/HfffddZ0Z988knn2IwFNT0QfahZgBWedHhSQG699VbnUMNdIEQygahSvHhx+/DDD3fLEuAhWbNmzZwQygPmeG5man3iEChVqtRu8Qy/S7jfypcv78QhIZIV0pzSKtzgRiNm4briHix4XSF24lrjesRtnVEk3MQAJwwpH/zA474JMnPmTCe8cGNM3mgssCaSF0egylPVIBScbNy4sZ144onWtWvXyKtCZG3I5yxcuLDLd46uRUPtDa4lAlHSDtMDIiiiD+o1n413cyFEVgNnwAknnOACRn7Qg3CDgIONhweJij+Si019Du9AYDu4b3iiI+FGJBs4mbl3IqU2mHaLWwA3Dg/LEGHipaF/9dVXruYgLgF+j7huKGzMwzhutCnYGv2wToisCvdLPOEnjZDUj2DQicOMp/7cW1G0OF4aO9sgTZ2UKn6T+It7h2CWIvgIpqQXCpGM4L5Jj+OG6+qBBx5wDxFwdQYLEXMtIX6S6ss1x7YzgoSbGOAeQF3mCyp6NhxyoPlxP+uss9xNQCyoS4D9kC+2cePGRV5NgU5t0aKFC3L3xiolxMEEVluehJKmgW09CAVYKfzIDUK0kJkInujw9JQ0Kep3+FoEQiQD2MzJgSYFMPqmmeuEFCoeAPCwIBZYcMmf5mbauze5qcCVwIMF/gqRTDAxRNGiRd1Mg8EbaIQbAlNSD7nJJv0pFtQm5KY5b968rhYbxSZJReQ+DXcb9Tp4EoqTTYisDvEGLmiESoLOYBo67htSOhAsES8TzXRDihWOToJXtkX8w3VEnMMD6PTOgChEViG9wg0Pz7jmiHf4nYp+wEC5FH5nEFQz+jsj4SYGo0aNcsIN9sDoGwCecD722GPuiWa86VZ58umny6OAVxCCT+oQcMPOUyMhkgFETIQbftyj05kQMnEFYKnFqp4WSClE4KROFMo0xb2ESCbatWvn3AMILNGF7ql5Q/oTtdDi1VKj3hoCDb9H/M5wzeD25BpE7OQvBfG4eU9tph0hsgKkNvE7Qyph0H3JDTGF7BFuEGTiOW4QbhB+uP9iff/Ek788sOO+jgkpoh/YCZEVQYwhjiGDgKLcwTo2/ObgCEC4wSEQT7jBQY17k98aflMIXnkYR/1PHhrwcIHrMbhtIZKFjAg3XHMIN1wXQeGGbfXu3duVSqFObkYzCCTcxACrbNmyZd0NQHTAyHs4cRBm4tWo8YVaeWI6cODAyKspMD/8c889524+4jl2hMhqUMeGeh2ILNH1OnAPcC0RhJI2lRqIpS+//LKra8P29qb6uhAHKwj3CDcI+dH1OnAPUHuDFI5gQckgFP0OhUIuCCXgpC4bT0L5d758+dy2+TwikBwEIhmgLg3jmpoawfRCgkae/JP+dM8997j7rFiQ3k4BYxYeKATBwUZaLjMYJkpPFCKrwHXBPRTuGOKNYBCJoE/dQFI66tWrF/c3gmuGlF1mpmLaby/Q4KzGac3DNRwG0U5rIZKB9Ao3XFePP/64u65Ihw8Kovw/Yg41bigrkdEHahJuYoBYw5MblORohwBBKE9kbrjhBldtPRZ8HhsUCjWKdhCenpI2whNR8kaFSAawmnMzjMssugAxNwxYahn38dwDHkQf0qIIQLHvcqMgRDJCXShs5w8++OAeDwj4wedJKDcA0XXWPBQlJm2XJzc8TGA71PdAwClYsKCbSYS0Dx42pHazIURWoGPHju5pJSlT0Q8IcGgy9hnz8VI3uGdjunweCkTfvzGFK0WLuW9LVBBciKwEhYf9VODB64IgEsGG3xkK2nv3WTSk43JN4HaLduXwu8V9H7FSPLFUiKwOD8D4zQjO/hkPBFBmA+W3CJNG0FVD0XwePpDRw9+MIuEmBuQ8Ywmko6jI7out8jpBJWoZjgBs6KSFEFxiUfczGfD0lAru2BNJEfn/9u4DWM6q7uO4zDiIyChGCFgQFSHSLIiKioUiKhBDkCooxYKIActgVBRLlC6gNAtGMqD0ohQRKVIULNhoSqIYKxawV9Tzzue892SeLPfevQKv7+7y+87sXLJ37+5T2ed8n9//f1rjLibuyCOPrP+jU0+duzphVDDzgIGjqfLFatvdF3cxPe9iWxM755CH88V50/rWuIvjwrlFckV3e2enCmGUIFTMPugLvt2ZcQfGoLHNYqBG2jlikKoEV7+bdvHs7qnvHN9Pfvp+kc7R/J74NIBNmVQYJZQzES+muz/jjDPqYJOUvOGGG8omm2xSvzv0rXFuKB000YS+hE1cOo9In1VWWaWKnlZS5TpOiodI1bA4/dTCqKAZqgoBiWc3i30fGFw6l3z3eJ7EdI64jnPOdG8kSAgoc1dFIDHdvk985yiXMh7KORNGFedFS9yooOmKGNdivl+cM75vYCzjpppG+b6PlLH7G+eNygTfUx5S1feUiJtxsJFteMkady31IrjooouqdLEjzEpgZ9gRdphBJkHTvYPjApqlcyHgQtpOWrBgQd2ZYu0uOnpnEglhWFEvrWeAuk5f8hpvKyWcN29eFaAutvWHgosH54vzpj2np4ApXldaaaU66Dz++OPr+eT8MpuUn8TOPa0JDWHQcPdTuZT0pdk5XCBL4RhYuiPjHGmpAhffZI54rRsGE+GuZzvn/AxhlPA9IQHgpth2221X+wyeddZZtc+TmwMSaK6rCJ358+fXcnUzUXXLOMTdJUA9pBCkqA1ApQaUWukdNVH6IIRhw41j0xO3hqh6bLghoLzJOWNKcINN4kW/Nb3VjHUaN954Y00/m5nKZBHGMq7JiE5jJN9fpjjODYIwKhD/jns3AXzHGLNPnz69fpe4FjP+J/tdnzl/fM90e9b6DhLycM5IQ59++un12k7vG+eh8ng3te8pETcTYCBKrjBtLoJdSJMwenW4UGjNJEWn9CIgc7qlT774/c7/KNvf65vjAt3/8Fo6J4RRwcWxC2CSRt2zi+tW/+x/gO2up//xOV+cN62sSvrAv/XsMOPHWmutVc8b54z/JoNcZEvrhDAKuNB1x99Fsjswvl+cM1Jr+hJ0G9sToe6Obr/99mXx4sVjz94d4kaSgPy8N1HcEAYR5wyB78JXisD54trKuSEd7XsEvmt8X/gOUUrY7SFlgOo7iPhxzvmO0tdm5syZtU9Ob7+pEIYZUsYg1Pmh74bzxcM1lUFn66HmuFcO5XwgelovG+kcosYU4GSnc4qsMZht45nessUQhpl2I5lk0R9q2WWXLcsss0yVN/6tVQrhr4zdzQLnhBsKXVTUCG20c853lfPHzLt+d29EZ8TNJLBmZpjSwMtFsOSN/4F16zztOAablWslUQ3/43MhoS5bCYgdq7N7K70KYdTw5U9gunPjnJGcUeLRpA3EcJ0vzptWF80+a3SnnKr9rYsKF+h+qsF2pzQptTBqkDfSaYcffnj9niBpXGh3v9iVSLmRQIBOFkl3Q8H55g6PnyGMIq61fIfoJeACW0qmW1rr2ks5rmSB9HRv41V3VF3LtWs7iYHLLrss0xqHkcX54XzwHXPooYfW75Nu/zTnhF6FZl7zs/v90+SPVCgh6j2cM8YzuQkdRg3XWMYxUstuhBmTGP/7vvFv12gLFy5c4gicV+2mQRflU8Y1/s4547pMOeK9JeImhBBCCCGEEEIIYUCJuAkhhBBCCCGEEEIYUCJuQgghhBBCCCGEEAaUiJsQQgghhBBCCCGEASXiJoQQQgghhBBCCGFAibgJIYQQQgghhBBCGFAibkIIIYQQQgghhBAGlIibEEIIIYQQQgghhAEl4iaEEEIIIYQQQghhQIm4CSGEEEIIIYQQQhhQIm5CCCGE+wH//Oc/y9///vfyj3/8o/zrX/8aezaMKvaxfW2f2/chhBBCGF4ibkIIIYQR53e/+10599xzy+te97qy2267lbPOOqv8+c9/HvvtveOuu+4qX/7yl8vVV19d/vrXv449G/4/IWq+9a1vlQMOOKDssMMO5SMf+Uj5xS9+MfbbEEIIIQwbETchhBDCiPPjH/+4zJ8/v+y6667lyU9+ctl3333L9773vfLvf/977BXjI7Fx4403ljPPPLNcc801d0vqkDZf+MIXyl577VX22GOPct555yXd8V/iL3/5S90vn/rUp8qtt9661L7805/+VL74xS+WN7/5zeVZz3pW2Xnnneu///a3v429Ymrccccd5ZxzzimXX3752DODg2PxhhtuKJ/5zGfKD3/4w7FnQwghhNEk4iaEEEIYAiRkvva1r5Urr7yyPq666qqadPn6179errvuuiXPe3z1q1+tsqZJlF/+8pfl5ptvLl/60pfK/vvvX9773vfWQW+/kqk//vGP5fjjjy8bbLBBlT1ETUMJzne+853y6le/uuy4445l2223Lbvvvnt9X7/rxx/+8Ify/e9/v64TKWS5pXasi/f4+c9/vtTn3R8gY37wgx+Ub3zjG3WbeNg+9t2vfvWrpaTYb3/72zJnzpwqZYiV7r603xYtWlT3z1FHHVX3+cUXX1yfnyqW5bTTTisvetGLyrx588ae/V8pZBktl/3VPe782+cSRJbnN7/5Td2X11577ZLX+G8ykBTq8vvf/75897vfrfu/va/1v/7668tPfvKTKhG72BaW7xnPeEY9Ri1vCCGEMKpE3IQQQghDgAHxZpttVtZYY40lj8c//vHlsY99bFl99dWXev55z3teOeGEE5YkLAyiDZQN3j/wgQ+UCy644G4D4fEw0D/22GPLU57ylPLGN75xKZFiUP7pT3+6ll9dcskl5dJLLy377bdfHUyTDP0gnpTxWIcnPOEJdbmf9KQnlQ033LC87GUvK+985zurkPhPUyINA3vL2y9V5PeD0AeGiDnjjDPKnnvuWZ773OeWtddeu6y77rrlOc95TpUzH/7wh6vAaYLG8i5cuLA+52978bof/ehHVdwcd9xxVYx05U4/brnllrL99tvX0jqCsEEqWUbHXdtv7bHOOutUyaMsi0hxfDz72c8uj3vc48oTn/jE+hrH0otf/OJyxBFH1OVrSARttNFG9Vj2vl7v/RzLb3rTm+rx0t2X/vvb3/523TaWp7uMIYQQwqgRcRNCCCEMAcTLJz/5yXLYYYfVQfwHP/jBst1225XllluuPPWpT60DdM8ffvjh5WMf+1hN4nQhapSUSED0ph0mgrj56Ec/Wp75zGfWspuuuCFUFi9eXFMzDUkMSZ+p9Lr53Oc+Vwf1a665Zk3zSE1YdmkgMkiSQpmPAf5URFAvSnw+8YlPlJ/97Gdjz4zPTTfdVCXRV77ylbFn/vvYjm9/+9urqLFN9tlnn3LggQeWgw46qIoQ/37FK15Rt4+yqKkiHWN///SnPx17ZmqQQsqwiLQPfehDS8kzSRgyafr06eVd73pX3W/2kWVzDJJtPldfpSOPPLJMmzatvOAFL6gi0e/f/e5313+vtdZa5a1vfWtNVuHUU08tq6yyShV3b3vb28oxxxxTDj744PLa1762bheSTxqnKxzJKMc6ueO8CCGEEEaViJsQQghhCCFRTj/99JrMkIbp5de//nVNcHz2s5+tA/fe5AnhQsooS5ko1TKZuAFR4zPIBQ/LIwUyFS688MKy5ZZblp122qmWzjSUUElSSAbNmDGjDvCleFozZUJgwYIFVcxI/XTxd5b3sssuK294wxuWlG5ZP+VjRx99dBUilpVo+OY3v1lFg22oV4qkyPnnn18+//nPV/F19tlnl/e9733lkEMOqaLJNu3Fc15HpJESlstnEh96/hBZk0FKERykhe2sF5HtKrFCoNgHGg2fcsoptan0bbfdVv+OHLOstrnXN26//fbad4jEmzt3bpUrJ554Yl3/3v03EZbZ31kex08XyZZNNtmkPsbbHo0777yzNkWWniGgGvYvAWnf+t0VV1xRn3ccrb/++lXmEFmQECKqJLAe85jH1P1g/zf83rYm+IgdnxlCCCGMIhE3IYQQwhBi4E42SEVIZPSi+TApsvHGG1fx0YXIkH5YddVVa6JCQmI8esVNKydSWqRXiaTM85///Drg9pB8IEykV/r1uWniRn8cvU16IS6kKFZeeeWyyy67LJE7JAWZo/dKV/hAquNBD3pQLTUymLfMSokIDokV22q99dar0mCZZZapn024WAeyR6LjpS99ad1mr3/962uZ0NOe9rT6eu9JqnS3FXEkceKzSAjb4FWvelUtGfNZ3sv7ToYSs1YiZH9OFdJk5syZdd8QRA2JmL333rumWiSxPKSXXvnKV9YeR1PpBUNmSXP5G6VRXYibF77whWXzzTefdGayrrixjbtIQSlvkto5+eST63NEl8bZkke9Cau3vOUt9Vi1T/Rr6uIYnTVrVj32LNt/Ug4WQgghDAsRNyGEEMIQ0nqIEARkSS+SCUQGyaE5bTdxo2ktwUBKEAcTDXZ7xU3DYP41r3lNlRnED4njobTl6U9/eh1g90qVXpq4kZSwPONBIFhG79mSHxInRMp44oZYecADHlAe/OAHVxEidSJp8pKXvKRKgfe///21VwpJQGYsv/zyNclhefVbIZwIgEc84hFl6623rskeMsB2JHz0ZvH3Db+3bMSP1/gs5VnEhhK2LbbYYkmiZCL8HTk1e/bsuwksck45kJSK/1Ym1PYVaSSJ0puKIW6UGXnO8tgvUkPkEhGjqXA/HFdeL7HTTfPA9th0002r3CIH9ddxrPlpOZvc64obx0UX29qySBlJEkGayDZ2LEsYeT8PiTC9nR72sIfV47g3ZUUQEoiORTNsTaVML4QQQhg2Im5CCCGEIUTaYTJxQ9Qoh9IzhSDp9kY56aST6vNKrLoNYnuZSNwoNWrSptsvx+w/XiftoffIZHTFjRKn8SB0yAlNbZXXwPJKtmy11Va1P00XA3cpDk11ld4ooyFvNNLt9lMx2Ffe5H0e+chH1tIoUoRkISS8XkPfJgmUH5k9i6TxPDlh+0vkaK6sFIlggURIK32yHYiUydDT56EPfWhNldh+DctDwJBFypKsr9cQMSBLXv7yl9fllShqQocw6U2lKH3SN8b6klv9kCLSe0iJU+97kVuWhUjR64ZAk76xHBoF2+YgXZq4UZbWRcqGULRf2/ZRiua1j370o+v7kjXWW2KIYCPaHDPdHjfwb0LO5yulIo9CCCGEUSPiJoQQQhhC+okbSB/4nYGwdAjhYICvtEpfF/JisnKX8cSN91B2pHRFauI973lP7e3ioczFIP4hD3lInQloMqYibiRqyACzElkOTCZuyB2zEbVGtXrWaHRsJiNyo4tt43e2g2QKzGxEGBAu+t809IZRWmY7Wk9pJ8kf6RwCrAmhhvIswsHv+4kb2+zhD3947SljeRuEhPUhhyzTox71qNqktyVUiKLxxA2IGuVxtgMxpPmysi2yhWzrB/EkieQnAdOFuLHfpJL8lNwiygg2ySWzUcHfkVz2nWW0DNbVa6SoiCHPtbKoc889t4obMse+VR5ne0tPeS0BN15Jn+1knXzGAQccsFQPnBBCCGFUiLgJIYQQhpCpiBvCgZxR2mJ2HukYM0tJcZATrdHtRHTFjbQHCI9tt9229pLx2VIoG2ywQR2Mt5+khbTIZPyniZuWFCFulNQY3BMkXbxGAoZMkrzw9+SSkiVlV7284x3vqOka6RwQN95XfxflOg3rTEJIGZEP3vv666+vKRDbsrc8R3Ndr5UY0VdmMiwroSIR1J39SWKKqLCfiSUCR0nWROKmIZFjX9m/9ptltE8kWR74wAdOafYlkmq11VarQqRX3LRSKVKFWCOx9NshYBxfrQGyv5PcIW5WWmmlJctBohFRUjjdtJcmy8QUsWPbOvb0HLKPiCEpsfGaKzdxQ5JF3IQQQhhVIm5CCCGEIWQq4gYawWpSTCQY1CthIgD0C5moKXFjInGj/wtB8vGPf7wOrvW88ZNgMBuTtEpvCqWXqYgb0oMY8lBKA4N9/WrGEzf6yxAOZo4iNpTtSIQQDeM1CbYNvN5MUGjiRtPibuKGnCBuyArixnYhhWwXCaPe7UiISeLoddNP3HhfYoOcmKgvkHW2j73feOLGtgShJEVElthfpJ2eNpbBukrJSOD0wzEiiaQkrpsCAnHTZpXqLaPqomSLvJOi0Q/JPiZkJHK8Z2/SS0JIkspyN6FIXjl+Jbwkhhy/vf2YiBvyy3YwLbl9E0IIIYwaETchhBDCEDJVcWPwa2pt4sbsPkSDviQXXHDB3QbBvXTFTbdUSoqlTdPd7z0moombiWaVMiBXqqNnTbd3ijSLWZg0HCaJuuhx4vXKmSQv9IyZM2dOlRASHV1IB++rtEr5D0yjTdyQSb3i5thjj63iRq8Y8op8sC033HDD2kuoC1myzjrr1G3er1TKZxJTBEdL/vRinZW3ETcnj83C1BU3F198cU2j2Eb2leQTqdVm9iJRyI1p06bVn/3QKJjcU+7Wu25dcaP3z0RMNqvUeHTFjVRYF3LLPjdbV29zYjOkSZPZN/bxRFPbhxBCCMNMxE0IIYQwhExV3OCSSy6piQ4lTMsuu2zZa6+97jbl8niMJ24g2aLsRQqCNCA2QGgsWrSoihA/J6OJG/Kkm5yxXnrXSE8YyBMr1rOlWggTpUzECDHgMwkKy6FcRnrFLErKdyyX3j7KhAgiqQ8ii1Q4+uijq9BRiiXVAU2K+4kbJU2kkofZjJRaSfjoKwOJEoJhxRVXrCVB/cSN9THrkjQMCWNKcAmbJl38JHfINttDyRB6xQ2hRtwQSV7X0ju2j1m0yCGlUhoO90OyZdddd60lcU1qNZq4IZEmS1V1xc1UPrOJG8dZ77FDXCkVs78kp6xrQ3kWgWZ5rP89FYkhhBDCIBNxE0IIIQwhRIZZlDSt3WOPPcaeHR9yQNmLRq8eeo9MBaU3msIaMOs9QnqAWJBqMdAmUSR6lMUQEEpy9CUZrzSpi9IniRQCRvmRJInlOvTQQ2tKpiVHDPq7yQ4ySYmWnin+3mf6bEkNkmCFFVaojX6bVLCsBv364pARUjxEiwSHPjCnnnpqlTAwhTYBQN500zxkkj4qSrT23nvvJVKFEPNaz5uhy/JLtJAsBNLMmTP7ihuYcts6a8JLDlkX6SHiw/JKlCi90rC3vZ8eMlJHZNx5551X943nyCTbwbqSX/rVKJ/SJ8hU6VNJ3DSZRM4RKl18vm1PEHV78vRCqOhjYzvYH/2w/5V4Oc66M6A1iDNlbcquWgqIwFGiZ3mUxPWWX4UQQgijQsRNCCGEMIRIgShpMaBXvtMPfVxMUa0E5uqrrx57dnLIIQkPzX0NvrtJBwkTg+lZs2ZVcUHAGOiTFYRBb4lNL/quzJ49u6ZhpFaIBeVX3oOQkGyRJOntH0NQSAsRGuQL2WEbEEya0xIKhEGTPV6vFGvu3LlLSpIsq+UmbSRSGpdeemlNAJED3fItrzHDk4QQYdX+RnmSNIzky4wZM+rySz+RPISKz2jTd/dD6RYR5/NJK+slbeR9bFNTXusR0yQTSUPY6TdkGWBd9RlSVmWf2KZSSJZZuZLnptKc2PuQUsQcydWdYlsZ2DbbbFPXbbJSKcsnmWV/2Ff9MKuUY9NxNl7TbOtl20jX6EUExwHBpUF0m3UshBBCGEUibkIIIYQhREmIwb5kyMKFC8eenRiSgiQhMJSxTAWiRnJF2ZBUiAF9F6kKsy9JYUjYmLnJAFtpS79eIwb2Gvz6m4suuqjOjOQneSJFYfDeJMV4WHdSRHmT95D+8CAWuqVGDaLpqquuqiVapITP7goJWB/lNkq3uk1ubWvlVNbVduiW41hGr7f+RJNSqSuuuKKYIUkaqZ/A6mJ5lDiRWtbLspIU9rF16/1cJWXKv7p9XzyvR4z3sD39tMwki23TbyaxhvdQUifl08QQlGjZdh6927gLqWWbteOhHySMJteWtSvTGtI0tq193poi2y5EjrTSeCmdEEIIYVSIuAkhhBBGHINag3D9cMw0dF9CwEijnHDCCX1nkho1CBMipCt5SCMJKD1uSLLu74YJ8oToUrZl/w4axCDJJ3UkrZPeNiGEEEaZiJsQQghhBJGOkdIw047plJUJ6cMi0XBfIqGiia0yIgP9bjnVqCPppBxIiZaSHSVBu+++ey0x0rhZ8maYkaixDlMt9/pvQixJ4DjmptJoO4QQQhhmIm5CCCGEEYRAueaaa2oPFE1dNehVWnJfJxOUsPgcA2hlNPcnJIw0JDZ7lB43mjjru6PPjdmYRkFiWYdBXA9i0rGcpE0IIYT7AxE3IYQQwghiYKtni34xUhPSIfqO/F/gfe9PSZuGfjKtr45t3Hr8KJ+KUAghhBDCfUXETQghhBBCCCGEEMKAEnETQgghhBBCCCGEMKBE3IQQQgghhBBCCCEMKBE3IYQQQgghhBBCCANKxE0IIYQQQgghhBDCgBJxE0IIIYQQQgghhDCgRNyEEEIIIYQQQgghDCgRNyGEEEIIIYQQQggDSsRNCCGEEEIIIYQQwoAScRNCCCGEEEIIIYQwoETchBBCCCGEEEIIIQwkpfwPa/zSs9kcty8AAAAASUVORK5CYII=;" vertex="1" parent="1">
          <mxGeometry x="310" y="-1070" width="563.93" height="460" as="geometry" />
        </mxCell>
      </root>
    </mxGraphModel>
  </diagram>
</mxfile>
